<svg width="38" height="24" viewBox="0 0 38 24" fill="none" xmlns="http://www.w3.org/2000/svg">
<path fill-rule="evenodd" clip-rule="evenodd" d="M37.0313 12.0641C36.4787 10.0861 34.6337 8.28794 30.1478 8.28794C26.4437 8.28794 24.6526 8.9931 24.1137 9.46455C23.7581 9.7718 23.6069 9.96824 23.6069 10.5576V21.2206C23.6069 22.2114 24.4053 23.0148 25.39 23.0148H27.4969C28.4821 23.0148 29.281 22.2114 29.281 21.2201V11.8979C29.281 11.1252 31.4982 10.8265 31.4982 12.4721C31.4982 12.9491 31.4831 21.2212 31.4831 21.2212C31.4831 22.2124 32.28 23.0158 33.2662 23.0158H35.3716C36.3568 23.0158 37.1557 22.2134 37.1557 21.2227V13.5062C37.1557 12.7667 37.065 12.1981 37.0262 12.0621L37.0313 12.0641ZM7.03054 8.12524C2.64493 8.12524 1.23963 9.48269 1.03161 9.84484C0.66694 10.4825 1.21495 11.7271 2.15484 11.7961C2.91541 11.8515 5.49933 10.413 8.46757 11.2662C9.50819 11.5654 9.34701 12.8619 9.34701 13.2729C9.34701 13.6845 9.09013 13.8341 8.53103 13.8341C7.97194 13.8341 0.844238 12.9738 0.844238 18.4327C0.844238 22.5831 5.66454 23.1825 7.65411 23.1825C9.64368 23.1825 14.464 23.2566 14.464 21.0872V12.8619C14.464 10.5188 12.0866 8.12575 7.03256 8.12575L7.03054 8.12524ZM9.21454 19.5363C9.21454 20.103 8.86548 20.6344 7.79917 20.6344C6.99126 20.6344 6.29314 19.9141 6.29314 18.3149C6.29314 16.8824 6.97312 15.9954 7.79917 15.9954C8.77331 15.9954 9.21454 16.6048 9.21454 17.0128V19.5363Z" fill="#221E20"/>
<path d="M22.5948 0.817017H14.984C14.1766 0.817017 14.1252 1.65818 14.1252 1.65818V7.43045C14.1252 8.56677 15.2762 8.54108 15.2762 8.54108V9.70813C15.255 10.5775 15.8635 10.5997 16.8739 10.0169L19.5011 8.52345H22.5434C23.3846 8.52345 23.5226 7.61379 23.5226 7.61379V1.84656C23.5226 0.903651 22.5948 0.817017 22.5948 0.817017ZM22.3198 7.32216H20.0864C19.2619 7.32216 18.7295 7.66567 18.7295 7.66567L16.2997 9.11881V8.37336C16.2997 7.2602 15.2762 7.27028 15.2762 7.27028V1.95032H22.3198V7.32216Z" fill="#EF4A5F"/>
<path style="mix-blend-mode:overlay" d="M22.5948 0.817017H14.984C14.1766 0.817017 14.1252 1.65818 14.1252 1.65818V7.43045C14.1252 8.56677 15.2762 8.54108 15.2762 8.54108V9.70813C15.255 10.5775 15.8635 10.5997 16.8739 10.0169L19.5011 8.52345H22.5434C23.3846 8.52345 23.5226 7.61379 23.5226 7.61379V1.84656C23.5226 0.903651 22.5948 0.817017 22.5948 0.817017ZM22.3198 7.32216H20.0864C19.2619 7.32216 18.7295 7.66567 18.7295 7.66567L16.2997 9.11881V8.37336C16.2997 7.2602 15.2762 7.27028 15.2762 7.27028V1.95032H22.3198V7.32216Z" fill="url(#paint0_linear_2139_8044)"/>
<path d="M21.2384 5.22632H16.5481V6.10374H21.2384V5.22632Z" fill="#EF4A5F"/>
<path style="mix-blend-mode:overlay" d="M21.2384 5.22632H16.5481V6.10374H21.2384V5.22632Z" fill="url(#paint1_linear_2139_8044)"/>
<path d="M21.2384 3.49023H16.5481V4.36665H21.2384V3.49023Z" fill="#EF4A5F"/>
<path style="mix-blend-mode:overlay" d="M21.2384 3.49023H16.5481V4.36665H21.2384V3.49023Z" fill="url(#paint2_linear_2139_8044)"/>
<path fill-rule="evenodd" clip-rule="evenodd" d="M20.2539 9.9801C19.5906 9.9801 19.2325 10.1428 19.2325 10.1428C19.2325 10.1428 17.0213 11.3214 16.7896 11.4458C16.1927 11.7642 16.2229 12.3182 16.2229 12.3182V21.2255C16.2229 22.2167 17.0218 23.0201 18.007 23.0201H20.1124C21.0981 23.0201 21.897 22.2192 21.897 21.227V10.9059C21.897 10.3871 21.6552 9.98061 21.1515 9.98061H20.2539V9.9801Z" fill="#221E20"/>
<defs>
<linearGradient id="paint0_linear_2139_8044" x1="352.429" y1="0.817017" x2="561.128" y2="958.741" gradientUnits="userSpaceOnUse">
<stop stop-color="#848484" stop-opacity="0.5"/>
<stop offset="1" stop-opacity="0.3"/>
</linearGradient>
<linearGradient id="paint1_linear_2139_8044" x1="185.401" y1="5.22632" x2="189.056" y2="96.8162" gradientUnits="userSpaceOnUse">
<stop stop-color="#848484" stop-opacity="0.5"/>
<stop offset="1" stop-opacity="0.3"/>
</linearGradient>
<linearGradient id="paint2_linear_2139_8044" x1="185.401" y1="3.49023" x2="189.047" y2="94.9753" gradientUnits="userSpaceOnUse">
<stop stop-color="#848484" stop-opacity="0.5"/>
<stop offset="1" stop-opacity="0.3"/>
</linearGradient>
</defs>
</svg>
