<svg width="106" height="20" viewBox="0 0 106 20" fill="none" xmlns="http://www.w3.org/2000/svg">
<g clip-path="url(#clip0_2139_7987)">
<path d="M58.9367 8.36505H56.333V6.02458H62.0379V4.06443H54.0803V15.1817H58.9367C61.4235 15.1817 62.9447 13.8944 62.9447 11.7295C62.9447 9.6523 61.4235 8.36505 58.9367 8.36505ZM58.6735 13.3385H56.3037V10.1496H58.6735C59.99 10.1496 60.6628 10.7055 60.6628 11.7295C60.6628 12.7827 59.99 13.3385 58.6735 13.3385ZM64.6345 5.23468H66.9166V3.3623H64.6345V5.23468ZM64.7223 15.1817H66.8288V6.4049H64.7223V15.1817ZM74.4576 10.647C75.1597 10.2667 75.54 9.6523 75.54 8.80389C75.54 7.28258 74.1943 6.25863 72.1755 6.25863C70.5079 6.25863 69.1622 6.99002 68.4602 8.18951L69.9521 9.21346C70.4203 8.3943 71.1224 7.95546 72.0586 7.95546C72.9655 7.95546 73.4921 8.30654 73.4921 8.97943C73.4921 9.59379 72.9947 9.97412 72.2341 9.97412H71.1224V11.4954H72.2927C73.2289 11.4954 73.7846 11.8758 73.7846 12.5194C73.7846 13.1923 73.1117 13.6311 72.0878 13.6311C71.0346 13.6311 70.274 13.1337 69.8351 12.2268L68.1675 13.0752C68.8111 14.538 70.2448 15.3279 72.0586 15.3279C74.3113 15.3279 75.9203 14.2455 75.9203 12.6949C75.9203 11.7295 75.3644 10.9981 74.4576 10.647ZM83.2273 6.4049V9.74008H79.424V6.4049H77.3175V15.1817H79.424V11.671H83.2273V15.1817H85.3337V6.4049H83.2273ZM89.0422 11.4662H95.5661C95.6539 11.1736 95.6539 10.9981 95.6539 10.7933C95.6539 8.04324 93.9571 6.25863 91.3535 6.25863C88.6911 6.25863 86.9357 8.10175 86.9357 10.7933C86.9357 13.397 88.4863 15.3279 91.4996 15.3279C93.255 15.3279 94.513 14.6843 95.303 13.7774L93.9865 12.5194C93.4598 13.1337 92.6406 13.5726 91.4996 13.5726C90.1246 13.5726 89.247 12.7827 89.0422 11.4662ZM91.3535 7.95546C92.4944 7.95546 93.2842 8.6576 93.5184 9.91561H89.0714C89.3055 8.68686 90.1246 7.95546 91.3535 7.95546ZM101.089 15.3279C103.049 15.3279 104.599 14.3625 105.097 12.6949L103.107 12.0805C102.756 13.0167 102.054 13.5726 101.059 13.5726C99.655 13.5726 98.7773 12.4901 98.7773 10.7933C98.7773 9.09644 99.655 8.01397 101.059 8.01397C102.054 8.01397 102.756 8.56984 103.078 9.50603L105.097 8.89165C104.599 7.22407 103.049 6.25863 101.089 6.25863C98.4262 6.25863 96.6124 8.07249 96.6124 10.7933C96.6124 13.5141 98.4262 15.3279 101.089 15.3279Z" fill="#070414"/>
<path d="M36.4268 19.3758C40.5292 19.3758 42.8098 19.3758 44.2992 17.8863C45.7887 16.397 45.7887 14.1177 45.7887 10.014C45.7887 5.91022 45.7887 3.63103 44.2992 2.14157C42.8098 0.6521 40.5292 0.6521 36.4268 0.6521C32.3244 0.6521 30.0439 0.6521 28.5544 2.14157C27.0649 3.63103 27.0649 5.91157 27.0649 10.014C27.0649 14.1164 27.0649 16.397 28.5544 17.8863C30.0439 19.3758 32.3244 19.3758 36.4268 19.3758Z" fill="#070414"/>
<path d="M39.9422 8.16272C39.235 8.16272 38.7101 8.70866 38.7101 9.38226C38.7101 9.93229 39.0968 10.3614 39.5864 10.4884L38.5828 12.0258H39.5202L40.3734 10.595H41.012V12.0258H41.7946V8.16272H39.9422ZM40.0498 9.94146C39.728 9.94146 39.5287 9.68885 39.5287 9.40094C39.5287 9.11303 39.7113 8.83871 40.0498 8.83871H41.013V9.94146H40.0498Z" fill="white"/>
<path d="M35.6579 8.16272L35.3982 8.87774L36.4639 8.87163L35.8328 11.1865C35.6528 11.8614 36.3563 12.3714 36.9566 11.9745L38.3218 11.0483L37.9198 10.4575L36.5563 11.4021L37.4754 8.16272H35.6579Z" fill="white"/>
<path d="M37.127 7.66608C37.4261 7.66608 37.6685 7.44765 37.6685 7.1782C37.6685 6.90875 37.4261 6.69031 37.127 6.69031C36.8279 6.69031 36.5854 6.90875 36.5854 7.1782C36.5854 7.44765 36.8279 7.66608 37.127 7.66608Z" fill="white"/>
<path d="M34.3653 11.3128V7.26501H31.3623V9.42537C31.3623 10.4419 31.0679 11.0703 30.8944 11.3111H30.5386V13.0765H31.3001V12.0329H34.1473V13.0783H34.9085V11.3128H34.3653ZM32.1194 9.3809V7.98311H33.5844V11.3104H31.6933C31.8647 11.0299 32.1194 10.3163 32.1194 9.3809Z" fill="white"/>
</g>
<g clip-path="url(#clip1_2139_7987)">
<path d="M9.5 19.1995C4.24935 19.1995 2.89131 18.9428 1.72727 17.7721C0.556981 16.614 0.300395 15.2743 0.300395 10.0031C0.300395 4.75074 0.556981 3.39852 1.72727 2.22784C2.88505 1.05717 4.24935 0.800494 9.5 0.800494C14.7507 0.800494 16.1087 1.05717 17.2727 2.22784C18.443 3.39226 18.6996 4.73197 18.6996 10.0031C18.6996 15.2743 18.443 16.614 17.2727 17.7784C16.1087 18.9491 14.7444 19.1995 9.5 19.1995ZM9.5 19.5C14.8195 19.5 16.2526 19.2308 17.4918 17.9913C18.7372 16.7455 19 15.3181 19 9.99687C19 4.67561 18.7372 3.25453 17.4918 2.00247C16.2464 0.769193 14.8132 0.5 9.5 0.5C4.18051 0.5 2.74736 0.769193 1.50824 2.00873C0.269104 3.25453 0 4.68186 0 10.0031C0 15.3244 0.262846 16.7455 1.50824 17.9975C2.74736 19.2308 4.18051 19.5 9.5 19.5Z" fill="#070414"/>
<path d="M8.60219 16.0482C7.90679 15.5352 7.40562 14.7659 7.23647 13.8743H5V4.48308C6.19653 5.06928 7.06105 6.35159 7.15504 7.6827L7.49331 10.3206L7.33046 10.3023C6.97336 10.3023 6.66013 10.632 6.66013 10.9556C6.66013 11.2609 6.8982 11.5174 7.21143 11.5845L7.61864 11.6762C8.28896 10.4366 8.6711 9.22145 8.6711 8.03076C8.6711 6.95608 8.52699 5.88141 8.50194 4.7823C8.50194 4.29378 8.69614 3.84805 9.00311 3.5C9.31634 3.84805 9.50428 4.29378 9.50428 4.7823C9.50428 5.88141 9.33516 6.95608 9.33516 8.03076C9.33516 9.22145 9.7173 10.4366 10.3876 11.6762L10.7948 11.5845C11.1081 11.5174 11.3461 11.2548 11.3461 10.9556C11.3461 10.6259 11.0329 10.3023 10.6758 10.3023L10.5066 10.3267L10.8449 7.68884C11.0141 6.35769 11.8034 5.06928 13 4.48918V13.8805H10.7698C10.6006 14.7659 10.1245 15.5657 9.40407 16.0543C9.23491 16.1703 9.09084 16.3107 8.99685 16.5C8.90916 16.3107 8.76505 16.1703 8.60219 16.0482ZM6.05872 10.632C6.15267 10.2839 6.41581 9.97864 6.75408 9.78935L6.49098 7.61556C6.39699 6.93775 6.10884 6.33325 5.67658 5.83867V10.6259H6.05872V10.632ZM7.18634 13.221C7.18634 12.8913 7.23647 12.5921 7.30537 12.2867L6.99214 12.2135C6.53484 12.073 6.17775 11.725 6.05872 11.2793H5.67658V13.221H7.18634ZM8.6711 13.221C8.6711 12.8241 8.35787 12.476 7.95065 12.4272C7.88175 12.6836 7.83162 12.9401 7.83162 13.221H8.6711ZM8.6711 13.8805H7.92561C8.04464 14.3934 8.30775 14.8636 8.6711 15.2605V13.8805ZM9.72356 11.8471C9.43537 11.3342 9.17227 10.7968 9.00311 10.2351C8.83396 10.7968 8.57085 11.3342 8.28266 11.8471C8.57085 11.9143 8.80891 12.1036 9.00311 12.3173C9.19731 12.1036 9.43537 11.9143 9.72356 11.8471ZM10.1809 13.221C10.1809 12.9401 10.1308 12.6836 10.0619 12.4272C9.65465 12.476 9.34142 12.8241 9.34142 13.221H10.1809ZM10.0869 13.8805H9.34142V15.2605C9.70478 14.8574 9.96788 14.3934 10.0869 13.8805ZM12.3359 13.221V11.2793H11.9538C11.8348 11.725 11.4714 12.073 11.0203 12.2135L10.7071 12.2867C10.776 12.5921 10.8261 12.8913 10.8261 13.221H12.3359ZM12.3359 10.632V5.83867C11.9037 6.32715 11.5905 6.93775 11.5215 7.61556L11.2584 9.78935C11.5967 9.97864 11.8598 10.2778 11.9538 10.632H12.3359Z" fill="#070414"/>
</g>
<defs>
<clipPath id="clip0_2139_7987">
<rect width="78.4899" height="19.0279" fill="white" transform="translate(27.0654 0.5)"/>
</clipPath>
<clipPath id="clip1_2139_7987">
<rect width="19" height="19" fill="white" transform="translate(0 0.5)"/>
</clipPath>
</defs>
</svg>
