<svg width="45" height="45" viewBox="0 0 45 45" fill="none" xmlns="http://www.w3.org/2000/svg">
<circle cx="22.5" cy="22.5" r="22" fill="#2936A3" stroke="#2936A3"/>
<path d="M30.6573 21.5553L25.7146 16.2099C24.3946 14.7948 22.6058 14 20.7408 14C18.8759 14 17.0871 14.7948 15.767 16.2099L15.7605 16.2169L14.7516 17.3369C14.647 17.4575 14.5907 17.6174 14.5947 17.7821C14.5987 17.9468 14.6626 18.1033 14.7728 18.218C14.883 18.3327 15.0307 18.3963 15.1841 18.3954C15.3375 18.3944 15.4845 18.3289 15.5934 18.2128L16.5994 17.0968C17.0041 16.6622 17.466 16.2936 17.9702 16.0029L21.3772 19.6664L14.3434 27.2217C14.2346 27.3387 14.1482 27.4775 14.0893 27.6303C14.0303 27.7831 14 27.9469 14 28.1122C14 28.2776 14.0303 28.4414 14.0893 28.5942C14.1482 28.747 14.2346 28.8858 14.3434 29.0028L15.8594 30.6311C15.9682 30.748 16.0975 30.8408 16.2397 30.9041C16.382 30.9674 16.5344 31 16.6884 31C16.8424 31 16.9948 30.9674 17.1371 30.9041C17.2793 30.8408 17.4086 30.748 17.5174 30.6311L24.5511 23.0758L26.8957 25.5942C27.0046 25.7112 27.1338 25.8039 27.2761 25.8672C27.4183 25.9305 27.5708 25.9631 27.7247 25.9631C27.8787 25.9631 28.0312 25.9305 28.1734 25.8672C28.3157 25.8039 28.4449 25.7112 28.5538 25.5942L30.6558 23.3363C30.7648 23.2194 30.8513 23.0807 30.9103 22.9279C30.9694 22.7752 30.9999 22.6115 31 22.4461C31.0001 22.2807 30.9699 22.1169 30.9111 21.964C30.8523 21.8112 30.7661 21.6723 30.6573 21.5553ZM24.1364 21.7386L22.4996 23.4968L20.9837 21.8701L22.6213 20.1111C22.6758 20.0526 22.719 19.9832 22.7485 19.9067C22.778 19.8303 22.7932 19.7484 22.7932 19.6656C22.7932 19.5829 22.778 19.501 22.7485 19.4245C22.719 19.3481 22.6758 19.2787 22.6213 19.2202L19.1528 15.4953C20.1549 15.1921 21.2141 15.1811 22.2214 15.4634C23.2288 15.7457 24.148 16.3112 24.8845 17.1015L28.1244 20.6045L26.0165 22.8664L24.9658 21.7378C24.9114 21.6793 24.8468 21.6329 24.7756 21.6012C24.7044 21.5695 24.6282 21.5532 24.5511 21.5532C24.4741 21.5532 24.3978 21.5695 24.3267 21.6012C24.2555 21.6329 24.1909 21.6793 24.1364 21.7378V21.7386ZM27.7266 24.7025L26.8474 23.7581L28.9472 21.4962L29.8264 22.4406L27.7266 24.7025Z" fill="white"/>
</svg>
