<svg width="45" height="45" viewBox="0 0 45 45" fill="none" xmlns="http://www.w3.org/2000/svg">
<circle cx="22.5" cy="22.5" r="22" fill="#2936A3" stroke="#2936A3"/>
<path d="M31.9525 20.0814L30.7858 17.1659C30.6868 16.919 30.5159 16.7077 30.2952 16.5591C30.0746 16.4106 29.8144 16.3318 29.5483 16.3328H26.6667V15.6664C26.6667 15.4897 26.5964 15.3202 26.4714 15.1952C26.3464 15.0702 26.1768 15 26 15H13.3333C12.9797 15 12.6406 15.1404 12.3905 15.3904C12.1405 15.6403 12 15.9793 12 16.3328V25.6627C12 26.0162 12.1405 26.3552 12.3905 26.6051C12.6406 26.8551 12.9797 26.9955 13.3333 26.9955H14.75C14.8969 27.5689 15.2305 28.0771 15.6982 28.4401C16.1659 28.803 16.7412 29 17.3333 29C17.9254 29 18.5007 28.803 18.9685 28.4401C19.4362 28.0771 19.7698 27.5689 19.9167 26.9955H24.0833C24.2302 27.5689 24.5638 28.0771 25.0315 28.4401C25.4993 28.803 26.0746 29 26.6667 29C27.2588 29 27.8341 28.803 28.3018 28.4401C28.7695 28.0771 29.1031 27.5689 29.25 26.9955H30.6667C31.0203 26.9955 31.3594 26.8551 31.6095 26.6051C31.8595 26.3552 32 26.0162 32 25.6627V20.3313C32.0001 20.2458 31.984 20.161 31.9525 20.0814ZM17.3333 27.6619C17.0696 27.6619 16.8118 27.5838 16.5926 27.4373C16.3733 27.2909 16.2024 27.0827 16.1015 26.8392C16.0006 26.5956 15.9742 26.3276 16.0256 26.0691C16.0771 25.8105 16.2041 25.573 16.3905 25.3866C16.577 25.2002 16.8146 25.0733 17.0732 25.0219C17.3319 24.9704 17.5999 24.9968 17.8436 25.0977C18.0872 25.1986 18.2955 25.3694 18.442 25.5886C18.5885 25.8078 18.6667 26.0655 18.6667 26.3291C18.6667 26.6826 18.5262 27.0216 18.2761 27.2716C18.0261 27.5215 17.687 27.6619 17.3333 27.6619ZM13.3333 21.6642V16.3328H25.3333V21.6642H13.3333ZM26.6667 27.6619C26.403 27.6619 26.1452 27.5838 25.9259 27.4373C25.7066 27.2909 25.5357 27.0827 25.4348 26.8392C25.3339 26.5956 25.3075 26.3276 25.359 26.0691C25.4104 25.8105 25.5374 25.573 25.7239 25.3866C25.9103 25.2002 26.1479 25.0733 26.4065 25.0219C26.6652 24.9704 26.9333 24.9968 27.1769 25.0977C27.4205 25.1986 27.6288 25.3694 27.7753 25.5886C27.9218 25.8078 28 26.0655 28 26.3291C28 26.6826 27.8595 27.0216 27.6095 27.2716C27.3594 27.5215 27.0203 27.6619 26.6667 27.6619ZM26.6667 19.6649V17.6657H29.5483L30.3483 19.6649H26.6667Z" fill="white"/>
</svg>
