<svg width="45" height="45" viewBox="0 0 45 45" fill="none" xmlns="http://www.w3.org/2000/svg">
<circle cx="22.5" cy="22.5" r="22" fill="#2936A3" stroke="#2936A3"/>
<path d="M13 26.875C13 26.7092 13.0677 26.5503 13.1883 26.4331C13.3088 26.3158 13.4724 26.25 13.6429 26.25H14.2857V25C14.2881 23.1198 15.0158 21.3088 16.3251 19.925C17.6345 18.5413 19.4301 17.6854 21.3571 17.5266V16.25H20.0714C19.9009 16.25 19.7374 16.1842 19.6169 16.0669C19.4963 15.9497 19.4286 15.7908 19.4286 15.625C19.4286 15.4592 19.4963 15.3003 19.6169 15.1831C19.7374 15.0658 19.9009 15 20.0714 15H23.9286C24.0991 15 24.2626 15.0658 24.3831 15.1831C24.5037 15.3003 24.5714 15.4592 24.5714 15.625C24.5714 15.7908 24.5037 15.9497 24.3831 16.0669C24.2626 16.1842 24.0991 16.25 23.9286 16.25H22.6429V17.5266C24.5699 17.6854 26.3655 18.5413 27.6749 19.925C28.9842 21.3088 29.7119 23.1198 29.7143 25V26.25H30.3571C30.5276 26.25 30.6912 26.3158 30.8117 26.4331C30.9323 26.5503 31 26.7092 31 26.875C31 27.0408 30.9323 27.1997 30.8117 27.3169C30.6912 27.4342 30.5276 27.5 30.3571 27.5H13.6429C13.4724 27.5 13.3088 27.4342 13.1883 27.3169C13.0677 27.1997 13 27.0408 13 26.875ZM30.3571 28.75H13.6429C13.4724 28.75 13.3088 28.8158 13.1883 28.9331C13.0677 29.0503 13 29.2092 13 29.375C13 29.5408 13.0677 29.6997 13.1883 29.8169C13.3088 29.9342 13.4724 30 13.6429 30H30.3571C30.5276 30 30.6912 29.9342 30.8117 29.8169C30.9323 29.6997 31 29.5408 31 29.375C31 29.2092 30.9323 29.0503 30.8117 28.9331C30.6912 28.8158 30.5276 28.75 30.3571 28.75Z" fill="white"/>
</svg>
