<svg width="45" height="45" viewBox="0 0 45 45" fill="none" xmlns="http://www.w3.org/2000/svg">
<circle cx="22.5" cy="22.5" r="22" fill="#2936A3" stroke="#2936A3"/>
<path d="M31.6153 16.0663L31.1674 15.8123C31.2199 15.539 31.2199 15.2585 31.1674 14.9853L31.6153 14.7313C31.7919 14.6311 31.9208 14.4662 31.9736 14.2726C32.0264 14.0791 31.9988 13.8729 31.8969 13.6994C31.7949 13.5259 31.6269 13.3992 31.4299 13.3474C31.2329 13.2955 31.023 13.3226 30.8464 13.4228L30.3975 13.6777C30.1827 13.4967 29.9358 13.3561 29.669 13.2632V12.7553C29.669 12.555 29.588 12.3629 29.4438 12.2212C29.2996 12.0796 29.104 12 28.9001 12C28.6962 12 28.5006 12.0796 28.3564 12.2212C28.2122 12.3629 28.1312 12.555 28.1312 12.7553V13.2632C27.8645 13.3561 27.6175 13.4967 27.4027 13.6777L26.9539 13.4228C26.8664 13.3732 26.7699 13.341 26.6697 13.3281C26.5696 13.3151 26.4679 13.3217 26.3703 13.3474C26.2728 13.3731 26.1813 13.4174 26.1012 13.4778C26.0211 13.5382 25.9539 13.6135 25.9034 13.6994C25.8529 13.7853 25.8201 13.8802 25.807 13.9785C25.7938 14.0769 25.8005 14.1768 25.8266 14.2726C25.8528 14.3685 25.8979 14.4583 25.9594 14.537C26.0209 14.6157 26.0975 14.6817 26.185 14.7313L26.6329 14.9853C26.5803 15.2585 26.5803 15.539 26.6329 15.8123L26.185 16.0663C26.0383 16.1494 25.9237 16.2777 25.8589 16.4313C25.794 16.585 25.7826 16.7553 25.8264 16.916C25.8703 17.0767 25.9668 17.2186 26.1012 17.3198C26.2355 17.4211 26.4001 17.4759 26.5694 17.4758C26.7044 17.4762 26.8371 17.4414 26.9539 17.3748L27.4027 17.1199C27.6175 17.3009 27.8645 17.4414 28.1312 17.5344V18.0423C28.1312 18.2426 28.2122 18.4347 28.3564 18.5764C28.5006 18.718 28.6962 18.7976 28.9001 18.7976C29.104 18.7976 29.2996 18.718 29.4438 18.5764C29.588 18.4347 29.669 18.2426 29.669 18.0423V17.5344C29.9358 17.4414 30.1827 17.3009 30.3975 17.1199L30.8464 17.3748C30.9631 17.4414 31.0958 17.4762 31.2308 17.4758C31.4001 17.4759 31.5647 17.4211 31.6991 17.3198C31.8334 17.2186 31.93 17.0767 31.9738 16.916C32.0176 16.7553 32.0062 16.585 31.9414 16.4313C31.8766 16.2777 31.7619 16.1494 31.6153 16.0663ZM28.9001 16.1541C28.7481 16.1541 28.5994 16.1098 28.473 16.0268C28.3465 15.9438 28.248 15.8258 28.1898 15.6878C28.1316 15.5498 28.1163 15.398 28.146 15.2514C28.1757 15.1049 28.2489 14.9704 28.3564 14.8647C28.464 14.7591 28.601 14.6872 28.7501 14.658C28.8993 14.6289 29.0539 14.6438 29.1944 14.701C29.3349 14.7582 29.4549 14.855 29.5394 14.9792C29.6239 15.1034 29.669 15.2494 29.669 15.3988C29.669 15.5991 29.588 15.7912 29.4438 15.9329C29.2996 16.0745 29.104 16.1541 28.9001 16.1541ZM21.9802 17.287C22.8165 17.287 23.6342 17.5306 24.3296 17.9871C25.025 18.4435 25.567 19.0923 25.8871 19.8514C26.2072 20.6104 26.2909 21.4457 26.1278 22.2515C25.9646 23.0573 25.5618 23.7975 24.9704 24.3785C24.379 24.9594 23.6255 25.3551 22.8052 25.5153C21.9848 25.6756 21.1346 25.5934 20.3618 25.2789C19.5891 24.9645 18.9286 24.4321 18.464 23.749C17.9993 23.0658 17.7513 22.2627 17.7513 21.4411C17.7513 20.3394 18.1968 19.2827 18.9899 18.5037C19.783 17.7247 20.8586 17.287 21.9802 17.287ZM31.8373 20.5612C32.1885 22.6123 31.8671 24.72 30.9194 26.58C29.9717 28.44 28.4468 29.956 26.5648 30.9092C24.6828 31.8623 22.5412 32.2033 20.4491 31.8828C18.3569 31.5624 16.4226 30.5971 14.9254 29.1264C13.4281 27.6556 12.4455 25.7555 12.1193 23.7004C11.793 21.6453 12.1401 19.5415 13.1105 17.6928C14.0808 15.8441 15.6241 14.3461 17.5176 13.4152C19.4111 12.4843 21.5567 12.1685 23.6448 12.5136C23.8444 12.5483 24.022 12.659 24.1389 12.8216C24.2558 12.9842 24.3027 13.1856 24.2692 13.382C24.2358 13.5783 24.1248 13.7538 23.9603 13.8702C23.7959 13.9865 23.5913 14.0344 23.3911 14.0034C22.1783 13.803 20.9356 13.8646 19.7495 14.1839C18.5634 14.5032 17.4624 15.0726 16.5231 15.8524C15.5838 16.6322 14.8288 17.6037 14.3105 18.6993C13.7923 19.7949 13.5234 20.9883 13.5224 22.1964C13.5206 24.2302 14.2815 26.1933 15.6599 27.7109C16.2189 26.9145 16.929 26.2314 17.7513 25.699C17.8214 25.6535 17.9047 25.6319 17.9886 25.6373C18.0724 25.6428 18.1521 25.675 18.2155 25.7292C19.2601 26.6171 20.5954 27.1058 21.9768 27.1058C23.3582 27.1058 24.6934 26.6171 25.7381 25.7292C25.8015 25.6748 25.8814 25.6424 25.9655 25.6369C26.0495 25.6315 26.1331 25.6533 26.2033 25.699C27.0264 26.2314 27.7374 26.9144 28.2975 27.7109C29.6769 26.1938 30.4389 24.2305 30.4379 22.1964C30.4379 21.732 30.3987 21.2684 30.3206 20.8104C30.303 20.7122 30.3053 20.6114 30.3274 20.5141C30.3496 20.4167 30.3912 20.3246 30.4498 20.2431C30.5084 20.1616 30.5828 20.0923 30.6689 20.0393C30.7549 19.9862 30.8507 19.9504 30.9509 19.934C31.0511 19.9175 31.1536 19.9207 31.2525 19.9434C31.3514 19.966 31.4448 20.0077 31.5272 20.0661C31.6096 20.1244 31.6794 20.1982 31.7327 20.2831C31.7859 20.3681 31.8214 20.4626 31.8373 20.5612Z" fill="white"/>
</svg>
