<svg width="36" height="37" viewBox="0 0 36 37" fill="none" xmlns="http://www.w3.org/2000/svg">
<g clip-path="url(#clip0_1203_7434)">
<path fill-rule="evenodd" clip-rule="evenodd" d="M19.8 0.625C20.7941 0.625 21.6 1.43089 21.6 2.425V5.58825C21.6 7.19187 23.5388 7.99497 24.6728 6.86103L26.9095 4.62428C27.6125 3.92134 28.7521 3.92134 29.4552 4.62428L32.0008 7.16987C32.7037 7.87281 32.7037 9.01251 32.0008 9.71545L29.7639 11.9522C28.6301 13.0861 29.4331 15.025 31.0367 15.025H34.2C35.1941 15.025 36 15.8309 36 16.825V20.425C36 21.4191 35.1941 22.225 34.2 22.225H31.0367C29.4331 22.225 28.6301 24.1638 29.7639 25.2978L32.0008 27.5345C32.7037 28.2375 32.7037 29.3771 32.0008 30.0802L29.4552 32.6258C28.7521 33.3287 27.6125 33.3287 26.9095 32.6258L24.6728 30.3889C23.5388 29.2551 21.6 30.0581 21.6 31.6617V34.825C21.6 35.8191 20.7941 36.625 19.8 36.625H16.2C15.2059 36.625 14.4 35.8191 14.4 34.825V31.6617C14.4 30.0581 12.4611 29.2551 11.3272 30.3889L9.09045 32.6258C8.38751 33.3287 7.24781 33.3287 6.54487 32.6258L3.99929 30.0802C3.29634 29.3771 3.29634 28.2375 3.99929 27.5345L6.23605 25.2978C7.36997 24.1638 6.56689 22.225 4.96325 22.225H1.8C0.805889 22.225 0 21.4191 0 20.425V16.825C0 15.8309 0.805887 15.025 1.8 15.025H4.96325C6.56687 15.025 7.36997 13.0861 6.23605 11.9522L3.99929 9.71545C3.29634 9.0125 3.29634 7.87281 3.99929 7.16987L6.54487 4.62428C7.24781 3.92134 8.38751 3.92134 9.09045 4.62428L11.3272 6.86103C12.4611 7.99497 14.4 7.19187 14.4 5.58825V2.425C14.4 1.43089 15.2059 0.625 16.2 0.625H19.8ZM18 27.625C22.9705 27.625 27 23.5955 27 18.625C27 13.6544 22.9705 9.625 18 9.625C13.0294 9.625 9 13.6544 9 18.625C9 23.5955 13.0294 27.625 18 27.625Z" fill="#2936A3"/>
<circle cx="18" cy="18.625" r="5" fill="#2936A3"/>
</g>
<defs>
<clipPath id="clip0_1203_7434">
<rect width="36" height="36" fill="white" transform="translate(0 0.625)"/>
</clipPath>
</defs>
</svg>
