<svg width="29" height="28" viewBox="0 0 29 28" fill="none" xmlns="http://www.w3.org/2000/svg">
<g clip-path="url(#clip0_1163_5075)">
<path d="M18.4219 14C18.4219 14.6922 18.2166 15.3689 17.832 15.9445C17.4474 16.5201 16.9008 16.9687 16.2613 17.2336C15.6217 17.4985 14.918 17.5678 14.2391 17.4327C13.5601 17.2977 12.9365 16.9644 12.447 16.4749C11.9575 15.9854 11.6242 15.3617 11.4891 14.6828C11.3541 14.0039 11.4234 13.3001 11.6883 12.6606C11.9532 12.0211 12.4018 11.4744 12.9774 11.0899C13.553 10.7053 14.2296 10.5 14.9219 10.5C15.8501 10.5 16.7404 10.8687 17.3967 11.5251C18.0531 12.1815 18.4219 13.0717 18.4219 14ZM26.2969 8.75V19.25C26.2951 20.8739 25.6493 22.4308 24.501 23.5791C23.3527 24.7274 21.7958 25.3733 20.1719 25.375H9.67188C8.04796 25.3733 6.49105 24.7274 5.34276 23.5791C4.19448 22.4308 3.54861 20.8739 3.54688 19.25V8.75C3.54861 7.12608 4.19448 5.56917 5.34276 4.42089C6.49105 3.27261 8.04796 2.62674 9.67188 2.625H20.1719C21.7958 2.62674 23.3527 3.27261 24.501 4.42089C25.6493 5.56917 26.2951 7.12608 26.2969 8.75ZM20.1719 14C20.1719 12.9616 19.864 11.9466 19.2871 11.0833C18.7102 10.2199 17.8903 9.54699 16.931 9.14963C15.9717 8.75227 14.9161 8.64831 13.8977 8.85088C12.8793 9.05345 11.9438 9.55346 11.2096 10.2877C10.4753 11.0219 9.97533 11.9574 9.77275 12.9758C9.57018 13.9942 9.67415 15.0498 10.0715 16.0091C10.4689 16.9684 11.1418 17.7883 12.0051 18.3652C12.8685 18.9421 13.8835 19.25 14.9219 19.25C16.3138 19.2486 17.6483 18.695 18.6326 17.7107C19.6168 16.7265 20.1704 15.3919 20.1719 14ZM22.7969 7.4375C22.7969 7.17791 22.7199 6.92415 22.5757 6.70831C22.4315 6.49247 22.2265 6.32425 21.9866 6.22491C21.7468 6.12557 21.4829 6.09958 21.2283 6.15022C20.9737 6.20086 20.7399 6.32587 20.5563 6.50942C20.3727 6.69298 20.2477 6.92684 20.1971 7.18144C20.1465 7.43604 20.1724 7.69994 20.2718 7.93977C20.3711 8.1796 20.5394 8.38458 20.7552 8.5288C20.971 8.67302 21.2248 8.75 21.4844 8.75C21.8325 8.75 22.1663 8.61172 22.4125 8.36558C22.6586 8.11944 22.7969 7.7856 22.7969 7.4375Z" fill="white" fill-opacity="0.8"/>
</g>
<defs>
<clipPath id="clip0_1163_5075">
<rect width="28" height="28" fill="white" transform="translate(0.921875)"/>
</clipPath>
</defs>
</svg>
