<svg width="17" height="18" viewBox="0 0 17 18" fill="none" xmlns="http://www.w3.org/2000/svg">
<path d="M8.5 1C6.77669 1.00189 5.12453 1.66475 3.90596 2.84315C2.6874 4.02155 2.00195 5.61927 2 7.28578C2 12.6644 7.90909 16.7266 8.16097 16.8966C8.26032 16.9639 8.37869 17 8.5 17C8.62131 17 8.73968 16.9639 8.83903 16.8966C9.09091 16.7266 15 12.6644 15 7.28578C14.998 5.61927 14.3126 4.02155 13.094 2.84315C11.8755 1.66475 10.2233 1.00189 8.5 1ZM8.5 5.00004C8.96748 5.00004 9.42447 5.1341 9.81317 5.38526C10.2019 5.63642 10.5048 5.9934 10.6837 6.41106C10.8626 6.82873 10.9094 7.28831 10.8182 7.7317C10.727 8.17509 10.5019 8.58237 10.1713 8.90204C9.84078 9.2217 9.41962 9.4394 8.96112 9.5276C8.50262 9.61579 8.02737 9.57053 7.59548 9.39752C7.16358 9.22452 6.79443 8.93155 6.53471 8.55567C6.27499 8.17978 6.13636 7.73785 6.13636 7.28578C6.13636 6.67956 6.38539 6.09818 6.82866 5.66952C7.27192 5.24086 7.87312 5.00004 8.5 5.00004Z" fill="#2936A3"/>
</svg>
