<svg width="51" height="52" viewBox="0 0 51 52" fill="none" xmlns="http://www.w3.org/2000/svg">
<path d="M35.1053 39.5909V44.4509H31.8421V39.5909H26.9474V36.3182H31.8421V31.4091H35.1053V36.3182H40V39.5909H35.1053ZM23.6842 8.5L38.3684 15.0455V24.8636C38.3684 26.3364 38.2053 27.7764 37.8953 29.2C36.5295 28.4903 35.0118 28.1252 33.4737 28.1364C30.8774 28.1364 28.3874 29.1708 26.5515 31.012C24.7156 32.8533 23.6842 35.3506 23.6842 37.9545C23.6842 40.18 24.4184 42.2418 25.6747 43.8782L23.6842 44.5C15.2653 42.4382 9 33.9455 9 24.8636V15.0455L23.6842 8.5Z" fill="#2936A3"/>
</svg>
