<svg width="51" height="51" viewBox="0 0 51 51" fill="none" xmlns="http://www.w3.org/2000/svg">
<path d="M39.7 22.08C39.0282 18.6754 37.1952 15.6097 34.5141 13.4065C31.8331 11.2033 28.4702 9.99922 25 10C19.22 10 14.2 13.28 11.7 18.08C8.76047 18.3977 6.04201 19.7904 4.06698 21.9906C2.09194 24.1909 0.999657 27.0434 1 30C1 36.62 6.38 42 13 42H39C44.52 42 49 37.52 49 32C49 26.72 44.9 22.44 39.7 22.08ZM22.42 34.58C22.235 34.7654 22.0152 34.9125 21.7732 35.0129C21.5313 35.1132 21.2719 35.1649 21.01 35.1649C20.7481 35.1649 20.4887 35.1132 20.2468 35.0129C20.0048 34.9125 19.785 34.7654 19.6 34.58L15.4 30.4C15.2148 30.2148 15.068 29.995 14.9677 29.7531C14.8675 29.5112 14.816 29.2519 14.816 28.99C14.816 28.4611 15.026 27.954 15.4 27.58C15.774 27.206 16.2811 26.996 16.81 26.996C17.3389 26.996 17.846 27.206 18.22 27.58L21 30.36L29.96 21.4C30.334 21.026 30.8411 20.816 31.37 20.816C31.8989 20.816 32.406 21.026 32.78 21.4C33.154 21.774 33.364 22.2811 33.364 22.81C33.364 23.3389 33.154 23.846 32.78 24.22L22.42 34.58Z" fill="#2936A3"/>
</svg>
