<svg width="31" height="31" viewBox="0 0 31 31" fill="none" xmlns="http://www.w3.org/2000/svg">
<g clip-path="url(#clip0_1992_8210)">
<path d="M15.9392 7.50137C15.9915 6.75776 16.2307 6.04078 16.6335 5.42041C17.0362 4.80004 17.5888 4.29748 18.2372 3.9618C18.8856 3.62612 19.6078 3.46877 20.3331 3.50513C21.0584 3.54149 21.7622 3.77031 22.3757 4.16924C22.4458 4.21636 22.5023 4.282 22.5392 4.35927C22.5761 4.43654 22.592 4.52258 22.5854 4.60836C22.5787 4.69414 22.5496 4.77648 22.5012 4.84675C22.4528 4.91701 22.3869 4.9726 22.3104 5.00767C21.2439 5.50026 20.3386 6.29847 19.7033 7.30641C19.0679 8.31436 18.7295 9.48918 18.7287 10.6898C18.7287 10.8299 18.7287 10.97 18.7427 11.1078C18.7491 11.1948 18.7323 11.2821 18.6939 11.36C18.6556 11.4379 18.5972 11.5036 18.5252 11.55C18.4531 11.5963 18.3701 11.6216 18.285 11.623C18.2 11.6245 18.1162 11.602 18.0427 11.5581C17.3551 11.1544 16.7928 10.5592 16.4206 9.84144C16.0484 9.12363 15.8815 8.31239 15.9392 7.50137ZM28.9953 19.8657C28.997 20.4132 28.8493 20.9503 28.5688 21.416C28.2884 21.8817 27.8865 22.2575 27.4087 22.5007L27.3573 22.5247L22.8272 24.5058C22.7824 24.526 22.7359 24.542 22.6884 24.5537L15.2217 26.4701C15.1477 26.4896 15.0717 26.4996 14.9954 26.5H2.86203C2.36696 26.5 1.89216 26.2981 1.5421 25.9387C1.19203 25.5793 0.995361 25.0919 0.995361 24.5836V19.7926C0.995361 19.2844 1.19203 18.7969 1.5421 18.4375C1.89216 18.0781 2.36696 17.8762 2.86203 17.8762H6.20919L8.84819 15.1657C9.19423 14.8089 9.60572 14.526 10.0589 14.3334C10.512 14.1407 10.9979 14.0422 11.4884 14.0435H17.3287C17.8217 14.0434 18.3083 14.1579 18.7521 14.3784C19.1958 14.5989 19.5852 14.9196 19.8911 15.3166C20.1969 15.7135 20.4113 16.1764 20.5181 16.6705C20.6249 17.1646 20.6214 17.6772 20.5079 18.1697L25.3892 17.0175C25.8141 16.9019 26.2592 16.8881 26.6902 16.9771C27.1212 17.0661 27.5265 17.2554 27.8749 17.5306C28.2233 17.8058 28.5055 18.1595 28.6998 18.5643C28.8941 18.9692 28.9952 19.4144 28.9953 19.8657ZM27.1287 19.8657C27.1285 19.7073 27.0928 19.551 27.0244 19.409C26.9559 19.267 26.8564 19.1432 26.7338 19.047C26.6111 18.9509 26.4686 18.885 26.3171 18.8546C26.1657 18.8242 26.0094 18.83 25.8605 18.8716L25.8244 18.8811L18.0077 20.7269C17.9391 20.7426 17.8691 20.7506 17.7989 20.7508H14.062C13.8145 20.7508 13.5771 20.6499 13.4021 20.4702C13.227 20.2905 13.1287 20.0468 13.1287 19.7926C13.1287 19.5385 13.227 19.2948 13.4021 19.1151C13.5771 18.9354 13.8145 18.8344 14.062 18.8344H17.3287C17.7 18.8344 18.0561 18.683 18.3186 18.4135C18.5812 18.1439 18.7287 17.7783 18.7287 17.3971C18.7287 17.0159 18.5812 16.6504 18.3186 16.3808C18.0561 16.1113 17.7 15.9598 17.3287 15.9598H11.4884C11.2431 15.959 11.0002 16.0083 10.7737 16.1047C10.5472 16.2012 10.3416 16.3429 10.1689 16.5216L7.52869 19.2309V24.5836H14.8787L22.1622 22.7139L26.5955 20.776C26.7569 20.6887 26.8919 20.5577 26.9859 20.3972C27.0799 20.2368 27.1293 20.0529 27.1287 19.8657ZM20.5954 10.6898C20.5954 11.5426 20.8417 12.3762 21.3032 13.0853C21.7647 13.7944 22.4206 14.3471 23.1881 14.6734C23.9555 14.9998 24.8 15.0852 25.6147 14.9188C26.4294 14.7524 27.1778 14.3418 27.7652 13.7387C28.3526 13.1357 28.7526 12.3674 28.9146 11.531C29.0767 10.6946 28.9935 9.82757 28.6756 9.03968C28.3578 8.25179 27.8194 7.57836 27.1287 7.10457C26.4381 6.63077 25.626 6.37789 24.7953 6.37789C23.6814 6.37789 22.6132 6.83217 21.8255 7.64081C21.0378 8.44944 20.5954 9.54619 20.5954 10.6898Z" fill="#2936A3"/>
</g>
<defs>
<clipPath id="clip0_1992_8210">
<rect width="30" height="30" fill="white" transform="translate(0.995361 0.5)"/>
</clipPath>
</defs>
</svg>
