<svg width="49" height="50" viewBox="0 0 49 50" fill="none" xmlns="http://www.w3.org/2000/svg">
<g filter="url(#filter0_d_1992_8237)">
<circle cx="24.5" cy="24.5" r="13.2308" fill="#2936A3" stroke="#2936A3" stroke-width="0.538488"/>
<path d="M31.5619 30.5122C31.5574 30.6394 31.5005 30.7615 31.4036 30.8514C31.3066 30.9414 31.1777 30.9919 31.0451 30.9919H20.0451C19.9125 30.9919 19.7871 30.9414 19.6965 30.8514C19.6058 30.7615 19.5574 30.6394 19.5619 30.5122C19.5663 30.385 19.6233 30.263 19.7202 30.173C19.8171 30.083 19.9461 30.0325 20.0787 30.0325H31.0787C31.2113 30.0325 31.3367 30.083 31.4273 30.173C31.5179 30.263 31.5663 30.385 31.5619 30.5122ZM27.1123 29.0731H29.6123C29.8775 29.0731 30.1354 28.972 30.3292 28.7921C30.5231 28.6122 30.637 28.3681 30.6459 28.1137L30.8475 22.3572C30.8564 22.1028 30.7596 21.8587 30.5784 21.6788C30.3971 21.4989 30.1463 21.3978 29.8811 21.3978H27.3811C27.1159 21.3978 26.858 21.4989 26.6641 21.6788C26.4703 21.8587 26.3564 22.1028 26.3475 22.3572L26.1459 28.1137C26.137 28.3681 26.2338 28.6122 26.415 28.7921C26.5963 28.972 26.8471 29.0731 27.1123 29.0731ZM21.6123 29.0731H24.1123C24.3775 29.0731 24.6354 28.972 24.8292 28.7921C25.0231 28.6122 25.137 28.3681 25.1459 28.1137L25.4315 19.9587C25.4404 19.7042 25.3436 19.4602 25.1624 19.2803C24.9811 19.1003 24.7303 18.9993 24.4651 18.9993H21.9651C21.6999 18.9993 21.442 19.1003 21.2481 19.2803C21.0543 19.4602 20.9404 19.7042 20.9315 19.9587L20.6459 28.1137C20.637 28.3681 20.7338 28.6122 20.915 28.7921C21.0963 28.972 21.3471 29.0731 21.6123 29.0731Z" fill="white"/>
</g>
<defs>
<filter id="filter0_d_1992_8237" x="0.230244" y="0.768732" width="48.5395" height="48.5395" filterUnits="userSpaceOnUse" color-interpolation-filters="sRGB">
<feFlood flood-opacity="0" result="BackgroundImageFix"/>
<feColorMatrix in="SourceAlpha" type="matrix" values="0 0 0 0 0 0 0 0 0 0 0 0 0 0 0 0 0 0 127 0" result="hardAlpha"/>
<feOffset dy="0.538488"/>
<feGaussianBlur stdDeviation="5.38488"/>
<feComposite in2="hardAlpha" operator="out"/>
<feColorMatrix type="matrix" values="0 0 0 0 0 0 0 0 0 0 0 0 0 0 0 0 0 0 0.1 0"/>
<feBlend mode="normal" in2="BackgroundImageFix" result="effect1_dropShadow_1992_8237"/>
<feBlend mode="normal" in="SourceGraphic" in2="effect1_dropShadow_1992_8237" result="shape"/>
</filter>
</defs>
</svg>
