<svg width="31" height="31" viewBox="0 0 31 31" fill="none" xmlns="http://www.w3.org/2000/svg">
<g clip-path="url(#clip0_1992_8216)">
<path d="M27.9954 11.807C27.9967 13.1886 27.6536 14.5486 26.9969 15.7641C26.3402 16.9796 25.3908 18.0121 24.2345 18.7682C23.0783 19.5243 21.7517 19.98 20.375 20.0942C18.9982 20.2083 17.6147 19.9773 16.3498 19.422L10.3435 26.37C10.3297 26.3862 10.3135 26.4035 10.2985 26.4185C9.60608 27.111 8.66693 27.5 7.68767 27.5C6.70841 27.5 5.76926 27.111 5.07681 26.4185C4.38437 25.726 3.99536 24.7868 3.99536 23.8075C3.99536 22.8282 4.38437 21.889 5.07681 21.1965C5.09297 21.1815 5.10912 21.1653 5.12642 21.1515L12.0741 15.146C11.4516 13.7221 11.2406 12.1521 11.4651 10.6143C11.6896 9.07648 12.3404 7.63235 13.344 6.44571C14.3475 5.25907 15.6634 4.37742 17.1425 3.90076C18.6216 3.42411 20.2047 3.37153 21.7122 3.74899C21.8676 3.78794 22.0102 3.86667 22.126 3.97744C22.2417 4.08821 22.3266 4.22721 22.3724 4.38075C22.4181 4.5343 22.4231 4.69711 22.3869 4.85317C22.3506 5.00923 22.2744 5.15317 22.1656 5.27082L17.8427 9.96095L18.4957 13.0012L21.5346 13.653L26.2244 9.32406C26.3421 9.21531 26.486 9.13906 26.642 9.10281C26.7981 9.06656 26.9609 9.07155 27.1144 9.1173C27.268 9.16305 27.4069 9.24798 27.5177 9.36374C27.6285 9.47949 27.7072 9.62209 27.7462 9.7775C27.9118 10.4413 27.9955 11.1229 27.9954 11.807Z" fill="#2936A3"/>
</g>
<defs>
<clipPath id="clip0_1992_8216">
<rect width="30" height="30" fill="white" transform="translate(0.995361 0.5)"/>
</clipPath>
</defs>
</svg>
