<svg width="219" height="163" viewBox="0 0 219 163" fill="none" xmlns="http://www.w3.org/2000/svg">
<path d="M122.61 143.221L122.135 143.221L122.135 137.978L122.61 137.978L122.61 132.735L122.135 132.735L122.135 127.493L122.61 127.493L122.61 122.25L122.135 122.25L122.135 117.007L122.61 117.007L122.61 111.765L122.135 111.765L122.135 106.522L122.61 106.522L122.61 101.279L122.135 101.279L122.135 96.0366L122.61 96.0366L122.61 90.7939L122.135 90.7939L122.135 85.5512L122.61 85.5512L122.61 80.3085L122.135 80.3085L122.135 75.0658L122.61 75.0658L122.61 69.8231L122.135 69.8231L122.135 64.5804L122.61 64.5804L122.61 59.3377L122.135 59.3377L122.135 54.095L122.61 54.095L122.61 51.4742C122.61 50.6405 122.631 49.809 122.672 48.9802L122.198 48.957C122.28 47.2738 122.443 45.602 122.685 43.9471L123.155 44.0158C123.396 42.3653 123.716 40.7317 124.112 39.1207L123.651 39.0072C124.052 37.3744 124.532 35.7644 125.087 34.183L125.535 34.3403C126.086 32.7697 126.713 31.2276 127.412 29.7195L126.981 29.5197C127.687 27.9973 128.467 26.5093 129.318 25.0615L129.727 25.3021C130.569 23.8702 131.481 22.478 132.461 21.1309L132.076 20.8515C133.061 19.4976 134.114 18.189 135.233 16.9312L135.588 17.2469C136.14 16.6268 136.708 16.0192 137.291 15.4247C137.869 14.8367 138.459 14.2644 139.061 13.7083L138.738 13.3594C139.963 12.2283 141.236 11.1632 142.554 10.1664L142.84 10.5451C144.155 9.55006 145.514 8.62365 146.912 7.76823L146.664 7.36309C148.082 6.49512 149.539 5.69953 151.03 4.97864L151.237 5.40629C152.717 4.69037 154.232 4.04888 155.774 3.48411L155.611 3.03808C157.168 2.46787 158.753 1.97513 160.362 1.56226L160.48 2.02234C162.069 1.61446 163.68 1.28527 165.308 1.03708L165.236 0.56751C166.871 0.318288 168.523 0.149968 170.186 0.0648846L170.21 0.539265C171.029 0.49738 171.85 0.475865 172.674 0.474995C173.199 0.475025 173.719 0.528095 174.227 0.631321L174.321 0.165836C175.407 0.386387 176.439 0.822727 177.358 1.4496L177.091 1.84208C177.519 2.13367 177.921 2.46907 178.29 2.84548C178.663 3.22498 178.995 3.63835 179.283 4.07859L179.68 3.81835C180.294 4.75496 180.72 5.80587 180.935 6.9103L180.469 7.00107C180.57 7.51694 180.621 8.0452 180.621 8.57894C180.621 9.11267 180.57 9.64093 180.469 10.1568L180.935 10.2476C180.72 11.352 180.294 12.4029 179.68 13.3395L179.283 13.0793C178.995 13.5195 178.663 13.9329 178.29 14.3124C177.921 14.6888 177.519 15.0242 177.091 15.3158L177.358 15.7083C176.439 16.3352 175.407 16.7715 174.321 16.992L174.227 16.5266C173.719 16.6298 173.199 16.6829 172.673 16.6829C171.923 16.6829 171.175 16.708 170.43 16.7579L170.462 17.2318C168.984 17.3308 167.52 17.5285 166.08 17.8213L165.985 17.3558C164.516 17.6544 163.071 18.0504 161.659 18.5401L161.815 18.9889C160.422 19.4719 159.061 20.0474 157.742 20.7115L157.528 20.2873C156.196 20.9582 154.905 21.7183 153.665 22.5639L153.932 22.9563C152.719 23.783 151.556 24.6926 150.45 25.6813L150.133 25.3272C149.577 25.8239 149.036 26.3403 148.51 26.876C147.979 27.4173 147.466 27.9746 146.974 28.5468L147.334 28.8566C146.357 29.9917 145.459 31.1863 144.644 32.4313L144.247 32.1711C143.417 33.4386 142.671 34.7575 142.013 36.1189L142.441 36.3255C141.792 37.6686 141.231 39.0536 140.759 40.4714L140.309 40.3216C139.833 41.7538 139.448 43.2191 139.158 44.7084L139.624 44.7991C139.34 46.2578 139.148 47.7398 139.052 49.2364L138.578 49.206C138.53 49.9586 138.506 50.7149 138.506 51.4737L138.506 53.6184L138.981 53.6184L138.981 57.9079L138.506 57.9079L138.506 60.0526L138.506 60.5276L138.981 60.5276L141.613 60.5276L141.613 60.0526L146.877 60.0526L146.877 60.5276L152.142 60.5276L152.142 60.0526L157.406 60.0526L157.406 60.5276L162.671 60.5276L162.671 60.0526L167.935 60.0526L167.935 60.5276L173.2 60.5276L173.2 60.0526L178.464 60.0526L178.464 60.5276L183.728 60.5276L183.728 60.0526L188.993 60.0526L188.993 60.5276L194.257 60.5276L194.257 60.0526L199.522 60.0526L199.522 60.5276L202.154 60.5276C203.237 60.5276 204.309 60.637 205.356 60.8498L205.451 60.3843C207.621 60.8254 209.685 61.6981 211.524 62.9519L211.257 63.3443C212.138 63.945 212.966 64.6358 213.727 65.4108C214.494 66.1923 215.177 67.0434 215.771 67.9496L216.168 67.6893C217.395 69.5626 218.248 71.6644 218.678 73.8732L218.212 73.964C218.419 75.0255 218.525 76.1124 218.525 77.2105L218.525 79.6616L219 79.6616L219 84.5639L218.525 84.5639L218.525 89.4662L219 89.4662L219 94.3684L218.525 94.3684L218.525 99.2707L219 99.2707L219 104.173L218.525 104.173L218.525 109.075L219 109.075L219 113.977L218.525 113.977L218.525 118.88L219 118.88L219 123.782L218.525 123.782L218.525 128.684L219 128.684L219 133.586L218.525 133.586L218.525 138.489L219 138.489L219 143.391L218.525 143.391L218.525 145.842C218.525 146.94 218.419 148.027 218.212 149.089L218.678 149.179C218.248 151.388 217.395 153.49 216.168 155.363L215.771 155.103C215.178 156.009 214.494 156.86 213.727 157.642C212.966 158.417 212.138 159.108 211.257 159.708L211.524 160.101C209.685 161.355 207.621 162.227 205.451 162.668L205.356 162.203C204.309 162.416 203.237 162.525 202.154 162.525L199.522 162.525L199.522 163L194.257 163L194.257 162.525L188.993 162.525L188.993 163L183.728 163L183.728 162.525L178.464 162.525L178.464 163L173.2 163L173.2 162.525L167.935 162.525L167.935 163L162.671 163L162.671 162.525L157.406 162.525L157.406 163L152.142 163L152.142 162.525L146.877 162.525L146.877 163L141.613 163L141.613 162.525L138.981 162.525C137.898 162.525 136.825 162.416 135.779 162.203L135.684 162.668C133.514 162.227 131.449 161.355 129.61 160.101L129.878 159.708C128.997 159.108 128.169 158.417 127.408 157.642C126.64 156.86 125.957 156.009 125.364 155.103L124.966 155.363C123.739 153.49 122.886 151.388 122.456 149.179L122.923 149.089C122.716 148.027 122.61 146.94 122.61 145.842L122.61 143.221ZM83.316 162.668C85.4861 162.227 87.5506 161.355 89.3897 160.101L89.1222 159.708C90.0033 159.108 90.8313 158.417 91.5923 157.642C92.3596 156.86 93.0429 156.009 93.6364 155.103L94.0338 155.363C95.2605 153.49 96.1137 151.388 96.5437 149.179L96.0775 149.089C96.2841 148.027 96.3904 146.94 96.3904 145.842L96.3904 143.391L96.8654 143.391L96.8654 138.489L96.3904 138.489L96.3904 133.586L96.8654 133.586L96.8654 128.684L96.3904 128.684L96.3904 123.782L96.8654 123.782L96.8654 118.88L96.3904 118.88L96.3904 113.977L96.8654 113.977L96.8654 109.075L96.3904 109.075L96.3904 104.173L96.8654 104.173L96.8654 99.2707L96.3904 99.2707L96.3904 94.3684L96.8654 94.3684L96.8654 89.4662L96.3904 89.4662L96.3904 84.5639L96.8654 84.5639L96.8654 79.6617L96.3904 79.6617L96.3904 77.2105C96.3904 76.1124 96.2841 75.0255 96.0775 73.964L96.5437 73.8732C96.1137 71.6644 95.2605 69.5626 94.0337 67.6894L93.6364 67.9496C93.0429 67.0434 92.3595 66.1923 91.5923 65.4108C90.8313 64.6358 90.0033 63.945 89.1222 63.3443L89.3897 62.9519C87.5506 61.6981 85.4861 60.8254 83.316 60.3843L83.2214 60.8498C82.1745 60.637 81.1024 60.5276 80.0192 60.5276L77.387 60.5276L77.387 60.0526L72.1226 60.0526L72.1226 60.5276L66.8582 60.5276L66.8582 60.0526L61.5938 60.0526L61.5938 60.5276L56.3293 60.5276L56.3293 60.0526L51.0649 60.0526L51.0649 60.5276L45.8005 60.5276L45.8005 60.0526L40.5361 60.0526L40.5361 60.5276L35.2716 60.5276L35.2716 60.0526L30.0072 60.0526L30.0072 60.5276L24.7428 60.5276L24.7428 60.0526L19.4784 60.0526L19.4784 60.5276L16.8462 60.5276L16.3711 60.5276L16.3711 60.0526L16.3711 57.9079L16.8462 57.9079L16.8462 53.6184L16.3711 53.6184L16.3711 51.4737C16.3711 50.7149 16.3955 49.9586 16.4437 49.206L16.9178 49.2364C17.0137 47.7398 17.2055 46.2578 17.4895 44.7991L17.0232 44.7084C17.3132 43.2191 17.698 41.7539 18.174 40.3216L18.6248 40.4714C19.096 39.0536 19.6578 37.6686 20.3066 36.3255L19.8788 36.1189C20.5364 34.7576 21.282 33.4386 22.1121 32.1711L22.5094 32.4314C23.3248 31.1863 24.2227 29.9917 25.1995 28.8566L24.8395 28.5468C25.3318 27.9746 25.844 27.4173 26.3755 26.876C26.9014 26.3403 27.4428 25.8239 27.9984 25.3272L28.315 25.6813C29.4211 24.6926 30.5848 23.7831 31.7975 22.9564L31.5299 22.5639C32.7703 21.7183 34.0612 20.9582 35.3938 20.2873L35.6074 20.7115C36.9265 20.0474 38.287 19.4719 39.6799 18.9889L39.5243 18.5401C40.9364 18.0504 42.3814 17.6544 43.8504 17.3558L43.945 17.8213C45.3854 17.5285 46.8491 17.3308 48.3273 17.2318L48.2956 16.7579C49.0399 16.708 49.7879 16.6829 50.5385 16.6829C51.064 16.6829 51.5842 16.6298 52.0922 16.5266L52.1868 16.992C53.2719 16.7715 54.3041 16.3352 55.2237 15.7083L54.9561 15.3158C55.3839 15.0242 55.786 14.6888 56.1555 14.3124C56.5281 13.9329 56.86 13.5195 57.1483 13.0793L57.5457 13.3395C58.1591 12.4029 58.5857 11.352 58.8007 10.2476L58.3345 10.1568C58.4349 9.64094 58.4865 9.11268 58.4865 8.57895C58.4865 8.04521 58.4349 7.51695 58.3345 7.00108L58.8007 6.91031C58.5857 5.80588 58.1591 4.75497 57.5457 3.81836L57.1483 4.0786C56.86 3.63837 56.5281 3.22499 56.1555 2.84549C55.786 2.46908 55.3839 2.13368 54.9561 1.84209L55.2237 1.4496C54.3041 0.822723 53.2719 0.386398 52.1868 0.165847L52.0922 0.631332C51.5844 0.528106 51.0644 0.475036 50.539 0.475006C49.7154 0.475875 48.894 0.49739 48.0753 0.539276L48.051 0.0648953C46.388 0.149978 44.7364 0.318298 43.1015 0.56752L43.1731 1.03709C41.5452 1.28528 39.934 1.61447 38.3452 2.02235L38.2271 1.56227C36.6189 1.97514 35.0333 2.46788 33.4761 3.03809L33.6394 3.48412C32.0971 4.04889 30.5827 4.69039 29.102 5.4063L28.8952 4.97865C27.4042 5.69954 25.9469 6.49513 24.5289 7.3631L24.7769 7.76824C23.3795 8.62366 22.0205 9.55007 20.7056 10.5451L20.419 10.1664C19.1017 11.1632 17.8282 12.2283 16.6038 13.3594L16.9261 13.7083C16.3241 14.2644 15.7341 14.8367 15.1567 15.4247C14.573 16.0192 14.0053 16.6268 13.4537 17.2469L13.0988 16.9312C11.9798 18.189 10.9268 19.4976 9.94184 20.8515L10.3259 21.1309C9.34598 22.478 8.43409 23.8702 7.59255 25.3021L7.18303 25.0615C6.3321 26.5094 5.55246 27.9973 4.84647 29.5197L5.27739 29.7195C4.57802 31.2276 3.95156 32.7697 3.4003 34.3403L2.95211 34.183C2.39705 35.7644 1.91756 37.3744 1.51595 39.0072L1.97721 39.1207C1.58094 40.7317 1.26119 42.3653 1.02019 44.0158L0.550176 43.9471C0.308538 45.602 0.14536 47.2738 0.0628868 48.957L0.537313 48.9802C0.496709 49.809 0.475836 50.6405 0.474996 51.4742L0.474997 54.095L-9.52078e-06 54.095L-9.06244e-06 59.3377L0.474997 59.3377L0.474997 64.5804L-8.60411e-06 64.5804L-8.14578e-06 69.8231L0.474998 69.8231L0.474998 75.0658L-7.68745e-06 75.0658L-7.22912e-06 80.3085L0.474999 80.3085L0.474999 85.5512L-6.77079e-06 85.5512L-6.31246e-06 90.7939L0.475 90.7939L0.475 96.0366L-5.85413e-06 96.0366L-5.3958e-06 101.279L0.475001 101.279L0.475001 106.522L-4.93747e-06 106.522L-4.47914e-06 111.765L0.475002 111.765L0.475002 117.007L-4.02081e-06 117.007L-3.56248e-06 122.25L0.475003 122.25L0.475003 127.493L-3.10415e-06 127.493L-2.64582e-06 132.735L0.475003 132.735L0.475004 137.978L-2.18749e-06 137.978L-1.72916e-06 143.221L0.475004 143.221L0.475005 145.842C0.475005 146.94 0.581236 148.027 0.787902 149.089L0.321669 149.179C0.751738 151.388 1.60487 153.49 2.83165 155.363L3.229 155.103C3.82249 156.009 4.50583 156.86 5.27307 157.642C6.03406 158.417 6.86211 159.108 7.74322 159.708L7.47566 160.101C9.3148 161.355 11.3793 162.227 13.5494 162.668L13.644 162.203C14.6909 162.416 15.763 162.525 16.8462 162.525L19.4784 162.525L19.4784 163L24.7428 163L24.7428 162.525L30.0072 162.525L30.0072 163L35.2716 163L35.2716 162.525L40.5361 162.525L40.5361 163L45.8005 163L45.8005 162.525L51.0649 162.525L51.0649 163L56.3293 163L56.3293 162.525L61.5938 162.525L61.5938 163L66.8582 163L66.8582 162.525L72.1226 162.525L72.1226 163L77.387 163L77.387 162.525L80.0192 162.525C81.1024 162.525 82.1745 162.416 83.2214 162.203L83.316 162.668Z" stroke="#999EBF" stroke-opacity="0.5" stroke-width="0.95" stroke-dasharray="5 5"/>
</svg>
