<svg width="21" height="22" viewBox="0 0 21 22" fill="none" xmlns="http://www.w3.org/2000/svg">
<path d="M19.0714 18.1785L15.1757 14.2812C16.3438 12.7591 16.8891 10.8497 16.7011 8.94026C16.5131 7.03086 15.6058 5.26446 14.1633 3.99939C12.7209 2.73432 10.8512 2.06531 8.93356 2.12807C7.01596 2.19083 5.19402 2.98066 3.83734 4.33734C2.48066 5.69402 1.69083 7.51596 1.62807 9.43356C1.56531 11.3512 2.23432 13.2209 3.49939 14.6633C4.76446 16.1058 6.53086 17.0131 8.44026 17.2011C10.3497 17.3891 12.2591 16.8438 13.7812 15.6757L17.6801 19.5755C17.7717 19.6671 17.8804 19.7397 18.0001 19.7893C18.1197 19.8388 18.2479 19.8643 18.3774 19.8643C18.5069 19.8643 18.6351 19.8388 18.7548 19.7893C18.8744 19.7397 18.9831 19.6671 19.0747 19.5755C19.1662 19.4839 19.2389 19.3752 19.2884 19.2556C19.338 19.136 19.3635 19.0077 19.3635 18.8782C19.3635 18.7487 19.338 18.6205 19.2884 18.5009C19.2389 18.3812 19.1662 18.2725 19.0747 18.181L19.0714 18.1785ZM3.60932 9.68745C3.60932 8.5842 3.93648 7.50573 4.54941 6.58841C5.16234 5.67109 6.03352 4.95613 7.05279 4.53393C8.07206 4.11174 9.19364 4.00127 10.2757 4.21651C11.3577 4.43174 12.3517 4.963 13.1318 5.74312C13.9119 6.52323 14.4432 7.51716 14.6584 8.59921C14.8736 9.68126 14.7632 10.8028 14.341 11.8221C13.9188 12.8414 13.2038 13.7126 12.2865 14.3255C11.3692 14.9384 10.2907 15.2656 9.18745 15.2656C7.7085 15.2641 6.29057 14.6759 5.2448 13.6301C4.19903 12.5843 3.61084 11.1664 3.60932 9.68745Z" fill="#2936A3"/>
</svg>
