<svg width="104" height="104" viewBox="0 0 104 104" fill="none" xmlns="http://www.w3.org/2000/svg">
<g filter="url(#filter0_d_2005_8979)">
<circle cx="26" cy="26" r="25.4815" transform="matrix(0.936946 0.349473 -0.348733 0.937222 37 17)" fill="#2936A3" stroke="#2936A3" stroke-width="1.03691"/>
<g clip-path="url(#clip0_2005_8979)">
<path d="M61.1868 52.3607L58.3222 60.0595C57.9423 61.0804 57.1983 61.9179 56.2539 62.3877C55.3095 62.8575 54.242 62.9212 53.2862 62.5647L48.2412 60.6829C48.05 60.6116 47.8969 60.4622 47.8154 60.2674C47.734 60.0726 47.7309 59.8484 47.8069 59.6442C47.8829 59.4401 48.0317 59.2726 48.2206 59.1786C48.4094 59.0846 48.6229 59.0719 48.8141 59.1432L53.8592 61.025C54.4326 61.2389 55.0731 61.2006 55.6398 60.9188C56.2064 60.6369 56.6528 60.1344 56.8807 59.5218L54.7186 58.7153C54.1451 58.5015 53.6857 58.053 53.4414 57.4686C53.1971 56.8842 53.1879 56.2118 53.4158 55.5993L54.8481 51.7499C55.076 51.1373 55.5224 50.6349 56.0891 50.353C56.6557 50.0711 57.2962 50.0329 57.8697 50.2468L60.0003 51.0415C60.4594 49.3902 60.4673 47.6554 60.0231 46.0398C59.5789 44.4242 58.7009 42.9944 57.4916 41.9175C56.2823 40.8406 54.7918 40.1611 53.194 39.9582C51.5962 39.7553 49.9572 40.0375 48.4683 40.7719C46.6204 41.6759 45.1105 43.228 44.2083 45.1512L46.3381 45.9456C46.9115 46.1594 47.3709 46.6079 47.6152 47.1923C47.8596 47.7767 47.8688 48.4491 47.6408 49.0616L46.2085 52.911C45.9806 53.5236 45.5342 54.026 44.9676 54.3079C44.4009 54.5898 43.7604 54.628 43.187 54.4141L41.7455 53.8765C41.1721 53.6626 40.7126 53.2141 40.4683 52.6298C40.224 52.0454 40.2148 51.373 40.4427 50.7604L42.448 45.3713C43.1877 43.3895 44.4611 41.6583 46.1072 40.3968C47.7532 39.1353 49.6978 38.4002 51.6948 38.2846C53.6918 38.1689 55.6515 38.6779 57.3258 39.7472C59.0001 40.8164 60.3137 42.3978 61.1004 44.2912C61.6196 45.5416 61.8945 46.8981 61.9094 48.2828C61.9242 49.6675 61.6787 51.0533 61.1868 52.3607Z" fill="white"/>
</g>
</g>
<defs>
<filter id="filter0_d_2005_8979" x="-6.21788" y="-7.16085" width="116.435" height="116.487" filterUnits="userSpaceOnUse" color-interpolation-filters="sRGB">
<feFlood flood-opacity="0" result="BackgroundImageFix"/>
<feColorMatrix in="SourceAlpha" type="matrix" values="0 0 0 0 0 0 0 0 0 0 0 0 0 0 0 0 0 0 127 0" result="hardAlpha"/>
<feOffset dy="1.27162"/>
<feGaussianBlur stdDeviation="12.7162"/>
<feComposite in2="hardAlpha" operator="out"/>
<feColorMatrix type="matrix" values="0 0 0 0 0 0 0 0 0 0 0 0 0 0 0 0 0 0 0.1 0"/>
<feBlend mode="normal" in2="BackgroundImageFix" result="effect1_dropShadow_2005_8979"/>
<feBlend mode="normal" in="SourceGraphic" in2="effect1_dropShadow_2005_8979" result="shape"/>
</filter>
<clipPath id="clip0_2005_8979">
<rect width="24" height="24" fill="white" transform="matrix(0.936946 0.349473 -0.348733 0.937222 44.6467 33.7271)"/>
</clipPath>
</defs>
</svg>
