<svg width="79" height="79" viewBox="0 0 79 79" fill="none" xmlns="http://www.w3.org/2000/svg">
<g filter="url(#filter0_d_2005_8975)">
<circle cx="19.5" cy="19.5" r="19.1066" transform="matrix(0.741761 0.670664 -0.669773 0.742566 38 11)" fill="#2936A3" stroke="#2936A3" stroke-width="0.786713"/>
<g clip-path="url(#clip0_2005_8975)">
<path d="M40.6626 30.9225C38.8848 30.3928 36.9698 30.5907 35.3378 31.4728C33.7058 32.3549 32.4899 33.8493 31.9571 35.6279L30.2685 41.2873C30.1857 41.5662 30.2167 41.8666 30.3548 42.1227C30.4929 42.3787 30.7267 42.5695 31.0051 42.6532L36.6578 44.3445C38.4356 44.8764 40.3515 44.6794 41.9841 43.797C43.6167 42.9146 44.8322 41.4189 45.3633 39.6391C45.8943 37.8592 45.6974 35.9409 44.8159 34.3063C43.9343 32.6716 42.4403 31.4545 40.6626 30.9225ZM39.9764 40.0741L35.6864 38.7906C35.5442 38.748 35.4247 38.6506 35.3541 38.5199C35.2836 38.3891 35.2679 38.2356 35.3104 38.0932C35.3528 37.9509 35.4501 37.8312 35.5807 37.7606C35.7113 37.69 35.8646 37.6743 36.0068 37.7168L40.2968 39.0004C40.439 39.0429 40.5585 39.1403 40.629 39.2711C40.6996 39.4018 40.7153 39.5553 40.6728 39.6977C40.6303 39.8401 40.5331 39.9597 40.4025 40.0303C40.2719 40.1009 40.1186 40.1167 39.9764 40.0741ZM40.6171 37.9266L36.3272 36.6431C36.1849 36.6005 36.0654 36.5031 35.9949 36.3724C35.9244 36.2416 35.9086 36.0881 35.9511 35.9457C35.9936 35.8034 36.0908 35.6837 36.2214 35.6131C36.3521 35.5425 36.5053 35.5268 36.6475 35.5693L40.9375 36.8529C41.0797 36.8954 41.1993 36.9928 41.2698 37.1236C41.3403 37.2543 41.3561 37.4078 41.3136 37.5502C41.2711 37.6926 41.1739 37.8122 41.0432 37.8828C40.9126 37.9534 40.7594 37.9692 40.6171 37.9266Z" fill="white"/>
</g>
</g>
<defs>
<filter id="filter0_d_2005_8975" x="-6.7473" y="-7.33109" width="92.2302" height="92.2944" filterUnits="userSpaceOnUse" color-interpolation-filters="sRGB">
<feFlood flood-opacity="0" result="BackgroundImageFix"/>
<feColorMatrix in="SourceAlpha" type="matrix" values="0 0 0 0 0 0 0 0 0 0 0 0 0 0 0 0 0 0 127 0" result="hardAlpha"/>
<feOffset dy="0.964794"/>
<feGaussianBlur stdDeviation="9.64794"/>
<feComposite in2="hardAlpha" operator="out"/>
<feColorMatrix type="matrix" values="0 0 0 0 0 0 0 0 0 0 0 0 0 0 0 0 0 0 0.1 0"/>
<feBlend mode="normal" in2="BackgroundImageFix" result="effect1_dropShadow_2005_8975"/>
<feBlend mode="normal" in="SourceGraphic" in2="effect1_dropShadow_2005_8975" result="shape"/>
</filter>
<clipPath id="clip0_2005_8975">
<rect width="18" height="18" fill="white" transform="matrix(0.741761 0.670664 -0.669773 0.742566 38.72 25.1323)"/>
</clipPath>
</defs>
</svg>
