<svg width="187" height="64" viewBox="0 0 187 64" fill="none" xmlns="http://www.w3.org/2000/svg">
<g clip-path="url(#clip0_1992_8354)">
<path d="M113.083 56H10.8183C8.08265 55.9969 5.45997 54.9158 3.5256 52.9939C1.59122 51.072 0.503121 48.4663 0.5 45.7483L0.5 17.2517C0.503121 14.5337 1.59122 11.928 3.5256 10.0061C5.45997 8.08418 8.08265 7.0031 10.8183 7L113.083 7C115.818 7.0031 118.441 8.08418 120.375 10.0061C122.31 11.928 123.398 14.5337 123.401 17.2517V45.7469C123.398 48.4651 122.31 51.0712 120.376 52.9934C118.441 54.9156 115.818 55.9969 113.083 56ZM66.5546 25.8836V47.3095H70.7143V40.0147C71.1897 40.5493 71.7783 40.9727 72.4379 41.2545C73.0974 41.5363 73.8116 41.6696 74.5291 41.6447C75.3853 41.6697 76.2347 41.4867 77.0036 41.1115C77.7724 40.7364 78.4374 40.1804 78.9409 39.4919C80.1005 37.8112 80.6742 35.7994 80.5742 33.7642V33.5489C80.6896 31.4836 80.1291 29.4366 78.9763 27.7142C78.46 27.0253 77.7818 26.4725 77.001 26.1038C76.2201 25.7352 75.3604 25.562 74.4967 25.5994C73.7443 25.5794 72.9972 25.7314 72.3133 26.0438C71.6294 26.3561 71.0268 26.8204 70.5522 27.4008L70.4048 25.885L66.5546 25.8836ZM57.3271 25.5907C55.995 25.5698 54.6828 25.9139 53.5344 26.5851C52.4181 27.2598 51.525 28.2444 50.9652 29.4174C50.3454 30.7199 50.0352 32.1465 50.0586 33.5869V33.9882C50.013 35.013 50.1805 36.0361 50.5508 36.9937C50.9211 37.9512 51.4862 38.8226 52.2107 39.5534C52.9536 40.2535 53.8298 40.799 54.788 41.1576C55.7461 41.5163 56.7668 41.6809 57.79 41.6418C59.0088 41.6569 60.2163 41.407 61.3276 40.9096C62.3393 40.4597 63.2134 39.7524 63.8615 38.8592L61.82 36.5834C61.3784 37.1491 60.8068 37.6015 60.1531 37.9027C59.4994 38.2039 58.7826 38.345 58.0627 38.3144C57.1198 38.3461 56.2005 38.0181 55.4934 37.3976C54.8047 36.7606 54.3725 35.8966 54.2773 34.9665H64.1932V33.2779C64.3229 31.2232 63.6675 29.1955 62.358 27.6C61.7137 26.9264 60.9307 26.399 60.0625 26.0538C59.1942 25.7085 58.2612 25.5535 57.3271 25.5994V25.5907ZM41.3928 25.5907C40.0606 25.5695 38.7483 25.9136 37.6001 26.5851C36.4831 27.259 35.5897 28.2438 35.0308 29.4174C34.4099 30.7196 34.0992 32.1463 34.1228 33.5869V33.9882C34.0772 35.013 34.2447 36.0361 34.615 36.9937C34.9853 37.9512 35.5504 38.8226 36.2749 39.5534C37.0179 40.2533 37.8942 40.7986 38.8523 41.1573C39.8104 41.5159 40.831 41.6806 41.8541 41.6418C43.073 41.6569 44.2804 41.407 45.3918 40.9096C46.4037 40.4602 47.278 39.7528 47.9257 38.8592L45.8827 36.5834C45.4411 37.1491 44.8695 37.6015 44.2158 37.9027C43.5621 38.2039 42.8453 38.345 42.1254 38.3144C41.1825 38.346 40.2633 38.018 39.5561 37.3976C38.8681 36.7601 38.436 35.8964 38.34 34.9665H48.2588V33.2779C48.3885 31.2232 47.7332 29.1955 46.4237 27.6C45.7799 26.9258 44.9969 26.398 44.1286 26.0527C43.2602 25.7074 42.3269 25.5528 41.3928 25.5994V25.5907ZM97.6759 28.9591C98.0185 28.9252 98.3644 28.9595 98.6935 29.0601C99.0225 29.1607 99.328 29.3255 99.5922 29.5449C100.021 30.0835 100.227 30.7644 100.169 31.4487V41.346H104.328V31.3623C104.421 29.8248 103.984 28.3016 103.09 27.0435C102.626 26.5418 102.053 26.1513 101.414 25.9012C100.776 25.6511 100.089 25.5479 99.405 25.5994C98.547 25.5715 97.6944 25.7449 96.9163 26.1054C96.1383 26.466 95.4567 27.0036 94.9269 27.6747L94.7986 25.8865H90.8806V41.3592H95.0404V30.447C95.2965 29.9796 95.679 29.5927 96.1447 29.3298C96.6104 29.0669 97.1407 28.9385 97.6759 28.9591ZM83.3675 25.8836V41.3592H87.5419V25.8836H83.3675ZM23.1825 33.007L28.5642 41.3548H33.7027L26.0451 29.785L33.489 20.5351H28.1824L22.8361 27.3862L20.9361 29.9754V20.5351H16.6186V41.3592H20.9361V35.4117L23.181 33.0099L23.1825 33.007ZM85.4547 19.7413C85.1446 19.725 84.8344 19.7696 84.5417 19.8726C84.249 19.9757 83.9797 20.1351 83.7492 20.3418C83.3461 20.7544 83.1218 21.3075 83.1245 21.8825C83.1273 22.4576 83.3569 23.0086 83.764 23.4173C84.2408 23.8061 84.8386 24.0185 85.4554 24.0185C86.0723 24.0185 86.67 23.8061 87.1469 23.4173C87.5545 23.0079 87.7831 22.4554 87.7831 21.8796C87.7831 21.3037 87.5545 20.7512 87.1469 20.3418C86.6847 19.9276 86.0764 19.7118 85.4547 19.7413ZM135.572 41.6389C134.112 41.6643 132.676 41.2613 131.445 40.4805C130.223 39.6737 129.262 38.5342 128.675 37.1985C128 35.6683 127.661 34.0127 127.681 32.3421V29.6459C127.651 27.9551 127.984 26.2772 128.66 24.7251C129.253 23.3698 130.235 22.218 131.483 21.4138C132.748 20.625 134.216 20.218 135.709 20.2422C137.651 20.1395 139.557 20.7883 141.027 22.0524C142.384 23.3846 143.192 25.1715 143.293 27.064H141.509C141.413 25.5683 140.781 24.1564 139.727 23.0834C138.607 22.1477 137.169 21.673 135.708 21.7565C134.836 21.728 133.97 21.9049 133.18 22.2727C132.391 22.6405 131.7 23.1888 131.165 23.8728C129.953 25.5755 129.359 27.636 129.478 29.7177V32.263C129.374 34.3079 129.954 36.3295 131.128 38.0127C131.64 38.7013 132.314 39.2561 133.089 39.6295C133.865 40.0029 134.721 40.1838 135.582 40.1568C137.097 40.2674 138.597 39.7955 139.772 38.8387C140.8 37.7574 141.416 36.3531 141.514 34.8684H143.299C143.187 36.7862 142.339 38.5883 140.93 39.9034C139.424 41.1205 137.517 41.7412 135.578 41.6462L135.572 41.6389ZM168.076 41.3548H166.307V20.5351H168.654L176.384 38.9134L184.142 20.5351H186.5V41.3577H184.731V32.2908L184.879 22.9941L177.076 41.3592H175.709L167.934 23.0673L168.082 32.2352V41.3606L168.076 41.3548ZM149.334 41.3548H147.554V20.5351H154.363C156.248 20.4252 158.11 20.9975 159.603 22.1461C160.237 22.7121 160.735 23.4117 161.061 24.1937C161.387 24.9757 161.533 25.8203 161.489 26.6656C161.506 27.9413 161.091 29.1858 160.309 30.198C159.51 31.2235 158.399 31.9656 157.142 32.3143L162.382 41.1673V41.3518H160.496L155.421 32.6921H149.332V41.3592L149.334 41.3548ZM149.334 22.0304V31.1851H154.761C156.075 31.2451 157.362 30.7932 158.346 29.9256C158.792 29.5086 159.143 29.0021 159.376 28.4397C159.609 27.8774 159.719 27.2721 159.699 26.6641C159.734 26.0259 159.626 25.388 159.381 24.7967C159.137 24.2054 158.763 23.6756 158.287 23.246C157.16 22.3761 155.752 21.9435 154.328 22.0289L149.334 22.0304ZM73.4339 38.313C72.8782 38.3582 72.3217 38.2363 71.8367 37.9631C71.3517 37.6899 70.9606 37.278 70.7143 36.7811V30.447C70.9603 29.9588 71.3487 29.5556 71.8289 29.2901C72.3091 29.0247 72.8587 28.9093 73.4059 28.9591C73.8497 28.941 74.2905 29.0399 74.6834 29.2456C75.0764 29.4514 75.4076 29.7567 75.6435 30.1307C76.2136 31.1465 76.4805 32.3028 76.4129 33.4639C76.4129 36.6815 75.4121 38.313 73.4339 38.313ZM60.1057 32.1488H54.3186C54.3959 31.2761 54.74 30.4477 55.3047 29.7748C55.56 29.5012 55.8715 29.2854 56.2182 29.1421C56.5649 28.9988 56.9386 28.9314 57.3138 28.9444C57.6883 28.9214 58.0634 28.9764 58.4152 29.1058C58.767 29.2352 59.0877 29.4361 59.3569 29.6957C59.8675 30.2842 60.135 31.0429 60.1057 31.8193V32.1473V32.1488ZM44.1698 32.1488H38.3828C38.4601 31.2761 38.8042 30.4477 39.3689 29.7748C39.6241 29.5012 39.9357 29.2854 40.2824 29.1421C40.6291 28.9988 41.0028 28.9314 41.378 28.9444C41.7526 28.9216 42.1279 28.9766 42.48 29.106C42.832 29.2353 43.153 29.4362 43.4225 29.6957C43.9331 30.2842 44.2007 31.0429 44.1713 31.8193V32.1473L44.1698 32.1488Z" fill="#00CC99"/>
</g>
<defs>
<clipPath id="clip0_1992_8354">
<rect width="186" height="64" fill="white" transform="translate(0.5)"/>
</clipPath>
</defs>
</svg>
