<svg width="98" height="34" viewBox="0 0 98 34" fill="none" xmlns="http://www.w3.org/2000/svg">
<g clip-path="url(#clip0_2080_8087)">
<g clip-path="url(#clip1_2080_8087)">
<path d="M1.4563 19.848H3.56509C3.58965 20.3283 3.76532 20.7338 4.09225 21.0649C4.41884 21.3958 4.80112 21.6265 5.23909 21.7561C5.67657 21.8857 6.1482 21.9507 6.65415 21.9507C7.47997 21.9507 8.18615 21.7885 8.77203 21.4638C9.3574 21.1396 9.65067 20.5944 9.65067 19.8284C9.65067 19.4909 9.5795 19.1958 9.43783 18.9426C9.29599 18.6893 9.13564 18.4947 8.95694 18.3584C8.77809 18.222 8.51594 18.1054 8.17084 18.0078C7.82557 17.9106 7.54491 17.8456 7.32921 17.8131C7.11316 17.7808 6.80205 17.7451 6.39503 17.706C3.25044 17.4206 1.67823 16.1748 1.67823 13.9678C1.67823 12.644 2.15003 11.6249 3.09329 10.9109C4.03638 10.1972 5.18626 9.84021 6.54277 9.84021C7.88682 9.84021 9.02442 10.1712 9.95556 10.8331C10.8864 11.495 11.3642 12.4816 11.3891 13.7928H9.35437C9.32947 13.3384 9.16289 12.9588 8.85481 12.6537C8.54656 12.3489 8.19827 12.1411 7.80976 12.0306C7.42125 11.9204 6.99269 11.8651 6.52426 11.8651C5.82144 11.8651 5.19232 12.0306 4.63757 12.3615C4.08265 12.6925 3.80519 13.2085 3.80519 13.9094C3.80519 14.2079 3.86677 14.4675 3.99011 14.6884C4.11327 14.9092 4.24923 15.0778 4.39713 15.1944C4.54503 15.3112 4.77622 15.4182 5.09069 15.5156C5.40534 15.613 5.66092 15.6811 5.85846 15.7199C6.05549 15.7591 6.35785 15.8046 6.76487 15.8563C7.38137 15.9342 7.8991 16.012 8.31857 16.09C8.73753 16.168 9.18477 16.3012 9.65959 16.4892C10.1341 16.6774 10.5133 16.9077 10.7972 17.1804C11.0807 17.453 11.318 17.8131 11.5094 18.261C11.7004 18.7087 11.7961 19.2377 11.7961 19.8478C11.7961 20.5619 11.645 21.1945 11.3429 21.746C11.0407 22.2979 10.64 22.7295 10.1406 23.0409C9.64109 23.3523 9.10165 23.586 8.522 23.7418C7.94218 23.8974 7.33173 23.9754 6.69084 23.9754C5.81505 24.0014 4.99192 23.8714 4.22146 23.5858C3.45067 23.3006 2.80002 22.8333 2.27017 22.1842C1.73965 21.5353 1.46841 20.7568 1.4563 19.848Z" fill="#070414"/>
<path d="M6.47256 24.2456C5.6523 24.2456 4.86552 24.1082 4.13376 23.8372C3.32292 23.5371 2.62902 23.0388 2.07158 22.3562C1.50421 21.6619 1.20992 20.8191 1.19714 19.8516L1.1936 19.5811H3.81087L3.82366 19.8339C3.84486 20.2489 3.99225 20.5894 4.27375 20.8748C4.56804 21.173 4.91667 21.3831 5.3104 21.4996C5.72263 21.6217 6.17474 21.6839 6.65394 21.6839C7.43298 21.6839 8.10417 21.5308 8.64899 21.2289C9.14838 20.9524 9.39118 20.4942 9.39118 19.8284C9.39118 19.54 9.33111 19.287 9.21299 19.0758C9.08983 18.8559 8.95169 18.6866 8.80227 18.5728C8.65033 18.4571 8.41477 18.3534 8.10181 18.2652C7.76866 18.1715 7.49574 18.1081 7.29131 18.0772C7.08082 18.0459 6.77088 18.0104 6.37059 17.9719C3.08534 17.6737 1.41874 16.3265 1.41874 13.9679C1.41874 12.5606 1.93058 11.4597 2.93963 10.6961C3.92394 9.95122 5.13625 9.57349 6.54273 9.57349C7.93406 9.57349 9.13172 9.9235 10.1027 10.6136C11.1019 11.3241 11.6216 12.392 11.6482 13.7877L11.6533 14.0597H9.10935L9.09555 13.808C9.07435 13.4198 8.93688 13.1052 8.67524 12.8461C8.3998 12.5737 8.08549 12.3859 7.74106 12.2878C7.37661 12.1845 6.96724 12.132 6.52438 12.132C5.87087 12.132 5.27977 12.2871 4.76759 12.5926C4.29445 12.8747 4.06444 13.3055 4.06444 13.9097C4.06444 14.1597 4.11508 14.377 4.21486 14.5555C4.32002 14.7441 4.43444 14.888 4.55475 14.9829C4.63904 15.0493 4.81319 15.1513 5.16536 15.2605C5.4694 15.3548 5.71893 15.4211 5.90687 15.4582C6.09986 15.4965 6.39903 15.5414 6.79646 15.5918C7.41447 15.67 7.94213 15.7493 8.36463 15.8278C8.79756 15.9082 9.26465 16.0472 9.7526 16.2407C10.256 16.44 10.6669 16.6909 10.974 16.9856C11.2821 17.2819 11.5419 17.6749 11.7465 18.154C11.9512 18.634 12.0552 19.2039 12.0552 19.8481C12.0552 20.605 11.8915 21.2877 11.5686 21.8773C11.2457 22.4673 10.8104 22.9355 10.2749 23.2694C9.75613 23.5929 9.18859 23.8388 8.58757 24.0004C7.98874 24.1611 7.3507 24.2423 6.69096 24.2423C6.62281 24.2444 6.54726 24.2456 6.47256 24.2456ZM1.72766 20.1148C1.78453 20.8425 2.03305 21.4798 2.46834 22.0126C2.96605 22.6222 3.58541 23.0672 4.30909 23.3351C5.04623 23.6078 5.84327 23.7338 6.68322 23.7088C7.30628 23.7088 7.90057 23.6329 8.45667 23.4837C9.00923 23.3352 9.5305 23.1095 10.0063 22.8128C10.4647 22.5271 10.8384 22.1239 11.117 21.615C11.3956 21.1064 11.5368 20.5119 11.5368 19.8479C11.5368 19.278 11.4478 18.7802 11.272 18.3685C11.0958 17.9563 10.8766 17.6221 10.6201 17.3757C10.362 17.1277 10.0073 16.9132 9.56634 16.7385C9.10867 16.5573 8.67339 16.4275 8.27243 16.3528C7.85969 16.2762 7.34162 16.1983 6.73319 16.1215C6.32399 16.0697 6.01321 16.0227 5.80928 15.9822C5.60418 15.9418 5.33715 15.8709 5.01594 15.7715C4.66815 15.6637 4.41408 15.5442 4.23943 15.4066C4.0641 15.2685 3.90476 15.0715 3.76544 14.8216C3.6199 14.5612 3.54586 14.2543 3.54586 13.9097C3.54586 13.1098 3.86943 12.5113 4.50763 12.1308C5.09974 11.7775 5.77815 11.5984 6.52404 11.5984C7.01351 11.5984 7.46916 11.6573 7.87836 11.7735C8.30692 11.8954 8.6956 12.1268 9.03397 12.4614C9.33094 12.7553 9.51552 13.1126 9.58518 13.526H11.1175C11.0388 12.4332 10.6089 11.6224 9.80796 11.0529C8.92527 10.4255 7.82654 10.1073 6.54239 10.1073C5.24881 10.1073 4.13982 10.4503 3.24619 11.1262C2.36519 11.7931 1.9368 12.7226 1.9368 13.9679C1.9368 16.0309 3.40234 17.1667 6.4172 17.4403C6.82759 17.4796 7.14627 17.5162 7.36585 17.5491C7.59148 17.5832 7.88476 17.651 8.23844 17.7505C8.61904 17.8581 8.90407 17.9866 9.11052 18.144C9.31731 18.3016 9.5029 18.5257 9.66174 18.8093C9.82579 19.1025 9.90925 19.4454 9.90925 19.8284C9.90925 20.6966 9.56785 21.3258 8.89431 21.6988C8.27343 22.043 7.51947 22.2174 6.65378 22.2174C6.12595 22.2174 5.62571 22.1485 5.16704 22.0125C4.68969 21.8711 4.26669 21.6164 3.91015 21.2551C3.59601 20.9368 3.40234 20.5542 3.33234 20.1148H1.72766Z" fill="#070414"/>
<path d="M19.9712 22.1454C19.6875 22.7296 19.2433 23.1677 18.6394 23.4596C18.0352 23.7518 17.3877 23.8977 16.6972 23.8977C15.8338 23.8977 15.0848 23.6319 14.4497 23.0996C13.8146 22.5673 13.4972 21.8602 13.4972 20.9772C13.4723 19.8999 13.7839 19.0789 14.4312 18.5144C15.0787 17.9497 15.9203 17.6675 16.9561 17.6675C17.9302 17.6675 18.812 17.901 19.6012 18.3683V17.4335C19.6012 16.8626 19.3885 16.4341 18.963 16.1485C18.5376 15.8633 18.0318 15.727 17.4463 15.7398C16.8604 15.7528 16.2961 15.8178 15.7538 15.9345C15.211 16.0515 14.7856 16.1943 14.4775 16.3629L14.1815 14.8441C15.0938 14.3512 16.1912 14.1042 17.4739 14.1042C18.6823 14.1042 19.6658 14.3671 20.4241 14.8928C21.1825 15.4185 21.5617 16.2849 21.5617 17.4921V21.1915C21.5617 21.4904 21.5647 21.6947 21.571 21.8051C21.577 21.9153 21.608 22.0515 21.6635 22.2138C21.719 22.3762 21.8116 22.4765 21.9408 22.5157C22.0704 22.5545 22.2523 22.5612 22.4865 22.5349L22.5235 23.7421C22.0426 23.8201 21.6172 23.8589 21.2472 23.8589C20.8772 23.8589 20.575 23.7194 20.341 23.4402C20.1068 23.1611 19.9834 22.7296 19.9712 22.1454ZM19.6012 20.5098V19.7311C18.8734 19.2768 18.103 19.0628 17.2891 19.0886C16.7712 19.1016 16.3395 19.2638 15.9942 19.5754C15.6489 19.8867 15.4763 20.3152 15.4763 20.8604C15.4763 21.3017 15.6365 21.6392 15.9572 21.8728C16.2775 22.1066 16.66 22.2232 17.1039 22.2232C17.6958 22.2232 18.2352 22.0773 18.7223 21.7851C19.2098 21.493 19.5024 21.0681 19.6012 20.5098Z" fill="#070414"/>
<path d="M16.6975 24.1643C15.7768 24.1643 14.9656 23.8754 14.2863 23.3061C13.5909 22.7235 13.2382 21.9398 13.2382 20.9769C13.2117 19.8267 13.5566 18.9274 14.2639 18.3104C14.9565 17.7066 15.8622 17.4004 16.9564 17.4004C17.8159 17.4004 18.6165 17.5778 19.3425 17.9285V17.4335C19.3425 16.9544 19.1722 16.6071 18.8219 16.3722C18.4593 16.1291 18.022 16.0059 17.5214 16.0059L17.4521 16.0066C16.8849 16.019 16.3313 16.0826 15.8072 16.1956C15.291 16.3068 14.8847 16.4423 14.5995 16.5985L14.2922 16.7667L13.8896 14.7008L14.0614 14.6079C15.0075 14.0967 16.1557 13.8375 17.4743 13.8375C18.7297 13.8375 19.7709 14.1182 20.5694 14.6717C21.4001 15.2475 21.8215 16.1963 21.8215 17.4922V21.1916C21.8215 21.4865 21.8243 21.6879 21.8302 21.7892C21.8336 21.8478 21.8496 21.9528 21.9085 22.1254C21.9475 22.2394 21.9944 22.2536 22.0143 22.2597C22.0737 22.2772 22.2391 22.2945 22.459 22.2697L22.7373 22.2384L22.7903 23.9694L22.5643 24.0059C22.073 24.0855 21.63 24.1258 21.2479 24.1258C20.8006 24.1258 20.4298 23.9539 20.1454 23.615C19.9881 23.4277 19.8732 23.1855 19.8012 22.8909C19.5214 23.2272 19.1699 23.4984 18.7499 23.7013C18.1139 24.0085 17.4233 24.1643 16.6975 24.1643ZM16.9564 17.9341C15.9884 17.9341 15.1953 18.1978 14.5991 18.7178C14.009 19.2324 13.7334 19.9693 13.7566 20.9707C13.7568 21.7828 14.0371 22.4092 14.6136 22.8923C15.2062 23.3892 15.888 23.6308 16.6976 23.6308C17.3466 23.6308 17.9631 23.4918 18.5298 23.218C19.0847 22.9498 19.4806 22.5601 19.7398 22.0261L20.2082 21.0617L20.2307 22.1396C20.2415 22.6572 20.3447 23.0361 20.5375 23.2657C20.7216 23.4852 20.9539 23.592 21.2479 23.592C21.5447 23.592 21.8834 23.5655 22.2579 23.5128L22.2366 22.8173C22.1031 22.815 21.9729 22.8025 21.8691 22.7715C21.7219 22.727 21.5248 22.6097 21.4197 22.3023C21.3554 22.1136 21.3206 21.9557 21.3128 21.8197C21.3063 21.7068 21.3032 21.5011 21.3032 21.1911V17.4917C21.3032 16.3689 20.9686 15.5911 20.2802 15.1139C19.5688 14.6207 18.6249 14.3707 17.4745 14.3707C16.3211 14.3707 15.313 14.5793 14.4751 14.9912L14.6676 15.9792C14.9508 15.8622 15.2922 15.761 15.7012 15.6727C16.2568 15.5533 16.8422 15.4859 17.4413 15.4724L17.5216 15.4717C18.1241 15.4717 18.6569 15.624 19.1049 15.9246C19.6065 16.2613 19.8609 16.7688 19.8609 17.4331V18.8294L19.4726 18.5993C18.727 18.1579 17.8805 17.9341 16.9564 17.9341ZM17.1043 22.4901C16.6075 22.4901 16.1712 22.3555 15.8077 22.0904C15.416 21.8053 15.2175 21.3914 15.2175 20.8601C15.2175 20.237 15.4214 19.7373 15.8239 19.3743C16.2139 19.022 16.7049 18.836 17.283 18.8216C17.3278 18.8202 17.374 18.8193 17.4202 18.8193C18.2303 18.8193 19.0092 19.0493 19.7357 19.5027L19.8606 19.5805L19.8564 20.5573C19.7438 21.1932 19.4064 21.6837 18.8532 22.0154C18.3284 22.3305 17.74 22.4901 17.1043 22.4901ZM17.4202 19.3533C17.3793 19.3533 17.3385 19.354 17.2973 19.3554C16.8358 19.3669 16.4661 19.5046 16.1653 19.7761C15.8762 20.0369 15.7357 20.3916 15.7357 20.8605C15.7357 21.2133 15.8572 21.473 16.1071 21.6549C16.3855 21.8578 16.7116 21.9564 17.1043 21.9564C17.6473 21.9564 18.1479 21.8213 18.5926 21.5546C19.008 21.3055 19.2533 20.9554 19.3425 20.4852V19.8844C18.7343 19.5318 18.0883 19.3533 17.4202 19.3533Z" fill="#070414"/>
<path d="M24.5219 9.47034H26.5195V20.3542C26.5195 21.146 26.6519 21.6752 26.9172 21.9412C27.1822 22.2072 27.6907 22.2754 28.4432 22.1455L28.517 23.781C27.0988 24.0276 26.0785 23.9009 25.4557 23.4014C24.833 22.9018 24.5217 21.8925 24.5217 20.3738L24.5219 9.47034Z" fill="#070414"/>
<path d="M27.242 24.1697C26.4128 24.1697 25.7584 23.982 25.2967 23.6117C24.6011 23.0536 24.2629 21.9946 24.2629 20.3736V9.20349H26.7787V20.3542C26.7787 21.2431 26.9526 21.6038 27.0983 21.7501C27.2955 21.948 27.7472 21.9953 28.4004 21.8823L28.6887 21.8326L28.7869 24.0047L28.5606 24.044C28.0801 24.1274 27.6364 24.1697 27.242 24.1697ZM24.781 9.73717V20.3736C24.781 21.7989 25.0618 22.7466 25.6152 23.1905C26.1409 23.6124 27.0284 23.7358 28.2476 23.5544L28.1977 22.4504C27.507 22.5302 27.0263 22.4231 26.7363 22.1321C26.4161 21.8109 26.2603 21.2294 26.2603 20.3542V9.73735L24.781 9.73717Z" fill="#070414"/>
<path d="M34.2882 14.1238C35.8296 14.1238 36.9453 14.6105 37.6362 15.5838C38.3266 16.5574 38.5239 17.8362 38.2281 19.4195H31.6431C31.6431 20.2504 31.9174 20.9125 32.4663 21.4056C33.0148 21.8993 33.7085 22.1455 34.5473 22.1455C35.731 22.2106 36.8099 22.0159 37.7841 21.5614L38.0432 23.1387C36.9085 23.671 35.7865 23.937 34.6767 23.937C33.1846 23.9626 31.9637 23.5085 31.0144 22.574C30.0645 21.6394 29.6146 20.3932 29.6641 18.8358C29.6886 17.343 30.1451 16.1847 31.0329 15.3603C31.9204 14.5358 33.0054 14.1238 34.2882 14.1238ZM34.2697 15.7591C32.8144 15.7591 31.9511 16.4794 31.68 17.9202H36.6002C36.6248 17.2455 36.4121 16.7165 35.962 16.3334C35.5118 15.9506 34.9476 15.7591 34.2697 15.7591Z" fill="#070414"/>
<path d="M34.5568 24.2045C33.0566 24.2045 31.8046 23.7207 30.8351 22.7667C29.8343 21.7818 29.3531 20.4562 29.4049 18.8268C29.4305 17.2687 29.9198 16.0341 30.8592 15.1619C31.7922 14.2958 32.9457 13.8569 34.2883 13.8569C35.9095 13.8569 37.1061 14.3851 37.8454 15.4264C38.5772 16.4579 38.7914 17.8185 38.4826 19.4701L38.4421 19.6864H31.9126C31.964 20.3157 32.202 20.814 32.6365 21.2046C33.1406 21.6581 33.7657 21.8786 34.5472 21.8786C34.7047 21.887 34.8469 21.8908 34.9876 21.8908C35.9581 21.8908 36.863 21.6983 37.6773 21.3183L37.9836 21.1755L38.3319 23.2964L38.1505 23.3814C36.9877 23.9271 35.8188 24.2036 34.6765 24.2036L34.5568 24.2045ZM34.2881 14.3906C33.0778 14.3906 32.0408 14.7834 31.2061 15.5581C30.3779 16.3275 29.9462 17.4316 29.9231 18.8401C29.8764 20.3157 30.3036 21.5054 31.1933 22.3808C32.0631 23.2368 33.1946 23.6708 34.557 23.6708L34.6724 23.6699C35.6852 23.6699 36.7198 23.4374 37.7541 22.9788L37.5831 21.9384C36.6542 22.3134 35.6317 22.4731 34.5334 22.4118C34.5328 22.4118 34.5321 22.4118 34.5314 22.4118C33.6462 22.4118 32.8894 22.1408 32.2956 21.6064C31.6907 21.063 31.3838 20.3272 31.3838 19.4195V19.1529H38.0112C38.2351 17.7513 38.0389 16.6044 37.4268 15.7415C36.7817 14.8325 35.755 14.3906 34.2881 14.3906ZM36.8499 18.1872H31.3658L31.4255 17.8696C31.7223 16.2921 32.6792 15.4923 34.2696 15.4923C35.0061 15.4923 35.631 15.7061 36.127 16.1277C36.6404 16.5647 36.8869 17.1711 36.8593 17.9303L36.8499 18.1872ZM32.008 17.6535H36.3373C36.3049 17.186 36.1265 16.8199 35.7969 16.5394C35.3907 16.1941 34.8912 16.0261 34.2696 16.0261C33.0565 16.026 32.3138 16.5593 32.008 17.6535Z" fill="#070414"/>
<path d="M40.0591 20.9577H42.0383C42.0629 21.4122 42.2756 21.7627 42.6763 22.009C43.077 22.2557 43.5426 22.3789 44.0729 22.3789C45.4417 22.3789 46.1506 21.8989 46.2002 20.9381C46.2002 20.5361 46.0338 20.2471 45.7008 20.0718C45.3678 19.8966 44.8683 19.7635 44.2025 19.6725C42.8582 19.4908 41.9458 19.2768 41.4649 19.03C40.688 18.6407 40.2871 17.9916 40.2625 17.083C40.2625 16.1357 40.6325 15.4086 41.3723 14.9023C42.1122 14.3963 43.0061 14.1432 44.0544 14.1432C45.1393 14.1432 46.0488 14.3898 46.7827 14.8831C47.5162 15.3764 47.8708 16.0707 47.8461 16.9662H46.0705C46.0705 16.5378 45.8729 16.2263 45.4787 16.0317C45.0838 15.8371 44.6091 15.7396 44.0544 15.7396C43.5486 15.7396 43.1111 15.8596 42.741 16.0996C42.371 16.3403 42.1982 16.6548 42.2231 17.0441C42.2352 17.4077 42.3986 17.6606 42.7132 17.8034C43.0277 17.9465 43.5733 18.0696 44.3502 18.1732C44.8062 18.2383 45.1762 18.2967 45.46 18.3485C45.7435 18.4004 46.0671 18.4946 46.431 18.6308C46.7948 18.7672 47.0788 18.9264 47.2819 19.108C47.4857 19.2899 47.6615 19.5395 47.8094 19.8574C47.9573 20.1755 48.0315 20.5488 48.0315 20.9769C48.0315 21.9506 47.655 22.6904 46.903 23.1967C46.1504 23.7029 45.2319 23.956 44.1469 23.956C43.0122 23.956 42.0659 23.7252 41.3076 23.2647C40.5492 22.8043 40.1331 22.0353 40.0591 20.9577Z" fill="#070414"/>
<path d="M44.1472 24.223C42.9714 24.223 41.9717 23.9779 41.176 23.4946C40.3437 22.9892 39.8808 22.1418 39.8007 20.9766L39.781 20.6909H42.2835L42.2972 20.9428C42.3168 21.3065 42.4843 21.5801 42.8093 21.7799C43.1674 22.0005 43.5926 22.1122 44.0731 22.1122C45.6931 22.1122 45.9152 21.4342 45.9418 20.9241C45.9413 20.6378 45.8274 20.438 45.5829 20.3091C45.2779 20.1487 44.8017 20.0236 44.1687 19.9369C42.7829 19.7498 41.8607 19.5311 41.3497 19.269C40.4847 18.8354 40.0312 18.1021 40.004 17.0904C40.0038 16.0449 40.4162 15.2364 41.2294 14.68C42.0089 14.1466 42.9594 13.8763 44.0549 13.8763C45.1863 13.8763 46.1516 14.1399 46.9249 14.6595C47.7356 15.2048 48.133 15.9835 48.1058 16.9738L48.0989 17.2332H45.8114V16.9662C45.8114 16.6425 45.6701 16.4221 45.3667 16.2724C45.0088 16.096 44.5675 16.0064 44.0544 16.0064C43.601 16.0064 43.2056 16.1138 42.8793 16.3254C42.5896 16.5136 42.4634 16.7364 42.4819 17.0265C42.491 17.2961 42.5945 17.4577 42.8181 17.5593C43.1077 17.691 43.6343 17.8084 44.3839 17.9086C44.8456 17.9746 45.2222 18.0342 45.5055 18.086C45.8025 18.1403 46.1437 18.2392 46.5199 18.3801C46.9116 18.527 47.2251 18.7039 47.4519 18.9065C47.6816 19.1118 47.8805 19.3929 48.0432 19.742C48.2072 20.0953 48.2904 20.5108 48.2904 20.9769C48.2904 22.0417 47.8717 22.8635 47.0449 23.4201C46.2527 23.9531 45.2779 24.223 44.1472 24.223ZM40.3467 21.2247C40.4614 22.0654 40.8207 22.6592 41.4394 23.0351C42.1541 23.4691 43.0653 23.6894 44.1472 23.6894C45.1756 23.6894 46.055 23.4485 46.7616 22.9734C47.4415 22.5154 47.7725 21.8625 47.7725 20.9771C47.7725 20.5912 47.706 20.2533 47.5759 19.9728C47.4442 19.6899 47.2881 19.4667 47.1126 19.3097C46.9337 19.1503 46.6747 19.0063 46.3429 18.8817C45.9946 18.7514 45.6825 18.6604 45.4152 18.6114C45.1382 18.5608 44.7679 18.5024 44.3149 18.4378C43.5073 18.3298 42.9483 18.2021 42.6088 18.0477C42.2028 17.8635 41.98 17.5196 41.9643 17.0533C41.943 16.7232 42.0362 16.2427 42.6029 15.8742C43.0134 15.6079 43.5017 15.4729 44.0544 15.4729C44.6454 15.4729 45.1623 15.58 45.5905 15.7912C45.9894 15.988 46.2332 16.2989 46.3063 16.6995H47.5823C47.5366 16.0236 47.2268 15.5006 46.6408 15.1068C45.9536 14.6446 45.0833 14.4102 44.0544 14.4102C43.0629 14.4102 42.2088 14.6505 41.5158 15.1248C40.8468 15.5826 40.5217 16.2232 40.5217 17.0833C40.5434 17.8842 40.8892 18.4451 41.5783 18.7904C42.0331 19.0238 42.9264 19.2312 44.2362 19.4081C44.9381 19.5039 45.4555 19.6432 45.8186 19.8342C46.2379 20.0549 46.4595 20.4368 46.4595 20.9383C46.4192 21.7251 45.9731 22.6459 44.073 22.6459C43.4973 22.6459 42.9828 22.5087 42.5435 22.238C42.1422 21.9916 41.8967 21.6513 41.8109 21.2247H40.3467Z" fill="#070414"/>
<path d="M50.6765 10.1129H55.3563C57.2923 10.1129 58.8305 10.7717 59.9713 12.0889C61.1119 13.4065 61.6825 15.0065 61.6825 16.8883C61.6825 18.7835 61.115 20.3965 59.9806 21.7268C58.8458 23.0575 57.3046 23.7225 55.3565 23.7225H50.6767L50.6765 10.1129ZM52.8222 21.6583H55.3194C56.6139 21.6583 57.6406 21.2007 58.3994 20.2858C59.1573 19.3706 59.5365 18.245 59.5365 16.9077C59.5365 15.5709 59.1573 14.4449 58.3994 13.5295C57.6406 12.6146 56.6203 12.157 55.3376 12.157H52.8223L52.8222 21.6583Z" fill="#070414"/>
<path d="M55.3561 23.9892H50.417V9.84595H55.3561C57.3597 9.84595 58.9775 10.5408 60.1642 11.9112C61.3434 13.273 61.9412 14.9475 61.9412 16.8881C61.9412 18.8413 61.3471 20.5285 60.1752 21.9027C58.9943 23.2873 57.3728 23.9892 55.3561 23.9892ZM50.9352 23.4554H55.3559C57.2173 23.4554 58.7073 22.8145 59.7855 21.5506C60.8719 20.2763 61.4226 18.7077 61.4226 16.8881C61.4226 15.0825 60.8689 13.5275 59.7772 12.2664C58.6931 11.0143 57.2054 10.3796 55.3559 10.3796H50.9352V23.4554ZM55.3192 21.9254H52.5626V11.8904H55.3372C56.6932 11.8904 57.7891 12.3837 58.5959 13.3565C59.3919 14.3175 59.7954 15.5122 59.7954 16.9079C59.7954 18.3036 59.3919 19.4983 58.5959 20.4591C57.7893 21.4321 56.6867 21.9254 55.3192 21.9254ZM53.0812 21.3915H55.3192C56.5453 21.3915 57.4882 20.9732 58.2017 20.1126C58.9154 19.2512 59.2773 18.1731 59.2773 16.9077C59.2773 15.6426 58.9156 14.5644 58.2017 13.7028C57.4882 12.8424 56.5516 12.4239 55.3374 12.4239H53.0814L53.0812 21.3915Z" fill="#070414"/>
<path d="M66.3245 15.7007C66.497 15.1816 66.833 14.7728 67.3324 14.4741C67.832 14.1754 68.3716 14.0262 68.9509 14.0262C69.7277 14.0004 70.412 14.2208 71.0042 14.6885L70.5046 16.5186C69.9619 16.1424 69.3698 15.9539 68.7293 15.9539C68.0874 15.9539 67.5479 16.1615 67.1105 16.577C66.6723 16.9925 66.4536 17.5636 66.4536 18.2903V23.7224H64.4562V16.9077C64.4562 16.6484 64.4496 16.4602 64.4375 16.3432C64.4254 16.2264 64.3916 16.1065 64.336 15.983C64.2809 15.8596 64.1851 15.7785 64.0495 15.7395C63.9136 15.7005 63.7288 15.6879 63.4944 15.7005L63.4761 14.2598C64.2157 14.0782 64.8666 14.0978 65.4275 14.318C65.9884 14.5393 66.2875 14.9998 66.3245 15.7007Z" fill="#070414"/>
<path d="M66.7132 23.9893H64.1976V16.9078C64.1976 16.6018 64.188 16.4474 64.1801 16.3715C64.1708 16.2847 64.1446 16.1918 64.1008 16.0953C64.0838 16.057 64.0574 16.0189 63.9795 15.9965C63.8734 15.9662 63.711 15.9569 63.5082 15.9673L63.239 15.982L63.2141 14.05L63.4158 14.0004C64.2026 13.8069 64.9118 13.8303 65.5198 14.0689C65.9466 14.2371 66.2513 14.5338 66.4231 14.9423C66.6235 14.6675 66.8842 14.4338 67.2024 14.2435C67.7396 13.9223 68.328 13.7594 68.9511 13.7594C68.9862 13.7582 69.0296 13.7573 69.0724 13.7573C69.8545 13.7573 70.5574 13.9994 71.1622 14.4768L71.3011 14.5866L70.6577 16.9461L70.3601 16.7399C69.8635 16.3954 69.315 16.2206 68.7296 16.2206C68.1503 16.2206 67.678 16.4013 67.2866 16.773C66.9008 17.1389 66.7132 17.6354 66.7132 18.2903V23.9893ZM64.7155 23.4555H66.195V18.2902C66.195 17.4891 66.4443 16.8466 66.9353 16.3805C67.4201 15.9203 68.0235 15.6871 68.7296 15.6871C69.3031 15.6871 69.8457 15.8286 70.3474 16.1086L70.706 14.7954C70.1937 14.4357 69.6241 14.27 68.9596 14.2931C68.4207 14.2933 67.9201 14.4319 67.4628 14.7051C67.0149 14.9728 66.7228 15.327 66.5699 15.7874L66.1381 17.0859L66.0658 15.7155C66.0341 15.1167 65.8019 14.7519 65.3348 14.5679C64.8762 14.3873 64.3414 14.3562 63.7381 14.475L63.7502 15.431C63.8932 15.436 64.0143 15.4532 64.119 15.4828C64.3283 15.5431 64.4848 15.6775 64.5715 15.8716C64.6384 16.0205 64.6801 16.1698 64.6953 16.315C64.7088 16.4441 64.7153 16.6435 64.7153 16.908L64.7155 23.4555Z" fill="#070414"/>
<path d="M72.5955 11.4367C72.5955 11.0473 72.7158 10.7426 72.956 10.5218C73.1966 10.301 73.4832 10.1907 73.816 10.1907C74.149 10.1907 74.4325 10.3009 74.6676 10.5218C74.9013 10.7424 75.0186 11.0473 75.0186 11.4367C75.0186 11.8264 74.9013 12.1312 74.6676 12.3519C74.4327 12.5727 74.1552 12.6896 73.8348 12.7025C73.5019 12.7156 73.2118 12.6084 72.9656 12.3812C72.7183 12.154 72.5955 11.8394 72.5955 11.4367ZM74.815 14.4352V23.7225H72.7985V14.4352H74.815Z" fill="#070414"/>
<path d="M75.0743 23.9893H72.5396V14.1682H75.0743V23.9893ZM73.0578 23.4555H74.5557V14.702H73.0578V23.4555ZM73.7809 12.9703C73.4061 12.9703 73.0733 12.839 72.7923 12.5801C72.4896 12.3019 72.3362 11.9174 72.3362 11.4369C72.3362 10.9702 72.4866 10.5955 72.7837 10.3227C73.072 10.0581 73.4193 9.92419 73.816 9.92419C74.2136 9.92419 74.559 10.059 74.8417 10.3248C75.1313 10.5979 75.2778 10.9718 75.2778 11.4369C75.2778 11.9021 75.1313 12.2762 74.8424 12.5488C74.5614 12.8127 74.2262 12.9541 73.845 12.9691L73.7809 12.9703ZM73.816 10.4577C73.5466 10.4577 73.3215 10.544 73.1285 10.7211C72.9441 10.8905 72.8544 11.1246 72.8544 11.4367C72.8544 11.763 72.9471 12.0068 73.1378 12.1821C73.324 12.3535 73.534 12.4367 73.7809 12.4367L73.8249 12.4358C74.0839 12.4254 74.3025 12.3337 74.4928 12.1547C74.6721 11.9855 74.7596 11.7505 74.7596 11.4367C74.7596 11.1231 74.6723 10.8881 74.4921 10.7185C74.3057 10.5431 74.0844 10.4577 73.816 10.4577Z" fill="#070414"/>
<path d="M81.8248 23.8198H81.0298L76.6826 14.5713V14.3378H78.8654L80.0123 17.0829L81.3811 20.5878H81.4179L82.8237 17.1025L83.9888 14.3378H86.1347V14.5713L81.8248 23.8198Z" fill="#070414"/>
<path d="M81.9878 24.0868H80.8672L76.4238 14.6326V14.071H79.0364L80.2507 16.9775L81.403 19.9291L82.5846 17.0001L83.819 14.071H86.3942V14.6321L81.9878 24.0868ZM81.1923 23.5529H81.6619L85.8319 14.6047H84.1592L83.0616 17.2087L81.5911 20.8545H81.2063L79.7725 17.1827L78.6953 14.6047H76.9872L81.1923 23.5529Z" fill="#070414"/>
<path d="M92.0722 14.1238C93.6138 14.1238 94.7298 14.6105 95.4202 15.5838C96.1109 16.5574 96.3081 17.8362 96.0121 19.4195H89.4273C89.4273 20.2504 89.7018 20.9125 90.2503 21.4056C90.7991 21.8993 91.4929 22.1455 92.3315 22.1455C93.5152 22.2106 94.5941 22.0159 95.5684 21.5614L95.8271 23.1387C94.6923 23.671 93.571 23.937 92.4609 23.937C90.9682 23.9626 89.7477 23.5085 88.7982 22.574C87.8487 21.6394 87.399 20.3932 87.4479 18.8358C87.4725 17.343 87.9287 16.1847 88.8171 15.3603C89.7048 14.5358 90.7899 14.1238 92.0722 14.1238ZM92.054 15.7591C90.5986 15.7591 89.7356 16.4794 89.4644 17.9202H94.3846C94.409 17.2455 94.1963 16.7165 93.7464 16.3334C93.2959 15.9506 92.7318 15.7591 92.054 15.7591Z" fill="#070414"/>
<path d="M92.3413 24.2045C90.8411 24.2045 89.5887 23.7207 88.6192 22.7667C87.6189 21.7821 87.1377 20.4566 87.189 18.8269C87.2149 17.2682 87.7044 16.0336 88.6433 15.1619C89.5766 14.2958 90.73 13.8569 92.0722 13.8569C93.6941 13.8569 94.8909 14.3851 95.6294 15.4264C96.3616 16.4578 96.5758 17.8183 96.2669 19.4701L96.2265 19.6864H89.6972C89.7486 20.3157 89.9865 20.814 90.4206 21.2046C90.925 21.6581 91.5498 21.8786 92.3315 21.8786C92.4893 21.887 92.6315 21.8908 92.7718 21.8908C93.7424 21.8908 94.6473 21.6983 95.4613 21.3183L95.7679 21.1753L96.1155 23.2962L95.9344 23.3813C94.7714 23.9269 93.6029 24.2035 92.4607 24.2035L92.3413 24.2045ZM92.0722 14.3906C90.8619 14.3906 89.8253 14.7834 88.9907 15.5581C88.1626 16.3271 87.7305 17.4312 87.7074 18.8401C87.6608 20.3157 88.088 21.5056 88.9776 22.3808C89.8472 23.2368 90.979 23.6708 92.3414 23.6708L92.4569 23.6699C93.4693 23.6699 94.5039 23.4374 95.5384 22.9786L95.3677 21.9384C94.4388 22.3134 93.4169 22.4723 92.3174 22.4118C92.317 22.4118 92.316 22.4118 92.3157 22.4118C91.4303 22.4118 90.6735 22.1408 90.0797 21.6064C89.475 21.063 89.1684 20.3272 89.1684 19.4195V19.1529H95.7953C96.0194 17.7511 95.8235 16.6042 95.2109 15.7415C94.5665 14.8325 93.5398 14.3906 92.0722 14.3906ZM94.6345 18.1872H89.1499L89.2096 17.8696C89.5068 16.2921 90.4637 15.4925 92.0539 15.4925C92.7903 15.4925 93.4151 15.7063 93.9113 16.1279C94.4246 16.5649 94.6705 17.1711 94.6436 17.9304L94.6345 18.1872ZM89.7921 17.6535H94.1218C94.089 17.186 93.9108 16.8199 93.5815 16.5392C93.175 16.1941 92.6754 16.0261 92.0541 16.0261C90.8411 16.026 90.0984 16.5593 89.7921 17.6535Z" fill="#070414"/>
</g>
</g>
<defs>
<clipPath id="clip0_2080_8087">
<rect width="97.4557" height="33.7846" fill="white" transform="translate(0.272217 0.107666)"/>
</clipPath>
<clipPath id="clip1_2080_8087">
<rect width="96.1563" height="15.5929" fill="white" transform="translate(0.921631 9.20349)"/>
</clipPath>
</defs>
</svg>
