<svg width="187" height="64" viewBox="0 0 187 64" fill="none" xmlns="http://www.w3.org/2000/svg">
<path fill-rule="evenodd" clip-rule="evenodd" d="M81.5 11C81.5 11 81.5 11 85.2614 11C86.6438 11 87.319 11.6763 87.319 13.222C87.319 13.222 87.319 13.222 87.319 18.6322C87.319 18.6322 87.319 18.6322 94.681 18.6322C94.681 18.6322 94.681 18.6322 94.681 13.222C94.681 11.6763 95.3562 11 96.8993 11C96.8993 11 96.8993 11 100.5 11C100.5 11 100.5 11 100.5 14.5746C100.5 14.5746 100.5 14.5746 98.9569 14.5746L98.7961 14.7356C98.7961 14.7356 98.7961 14.7356 98.7961 30C98.7961 30 98.7961 30 94.681 30C94.681 30 94.681 30 94.681 22.3678C94.681 22.3678 94.681 22.3678 87.319 22.3678C87.319 22.3678 87.319 22.3678 87.319 30C87.319 30 87.319 30 83.2039 30C83.2039 30 83.2039 30 83.2039 14.7356C83.2039 14.7356 83.2039 14.5746 83.0431 14.5746C83.0431 14.5746 83.0431 14.5746 81.5 14.5746C81.5 14.5746 81.5 14.5746 81.5 11Z" fill="#ED1C24"/>
<path fill-rule="evenodd" clip-rule="evenodd" d="M111.404 11H111.5V14.9935L111.404 14.9607C108.327 14.9607 105.955 17.5466 105.955 20.82C105.955 24.257 108.327 27.0393 111.404 27.0393L111.5 27.0065V30.9673L111.404 31C105.955 31 101.5 26.5155 101.5 20.82C101.5 15.3208 105.955 11 111.404 11Z" fill="#ED1C24"/>
<path fill-rule="evenodd" clip-rule="evenodd" d="M111.5 11L113.428 11.1967C118.036 12.082 121.5 16.0164 121.5 20.8361C121.5 25.8197 118.036 29.8852 113.428 30.8033L111.5 31V27.0328L113.624 26.5738C115.683 25.6229 117.154 23.4262 117.154 20.8361C117.154 18.377 115.683 16.3115 113.624 15.4262L111.5 15V11Z" fill="#ED1C24"/>
<path fill-rule="evenodd" clip-rule="evenodd" d="M122.5 11C122.5 11 122.5 11 128.602 11H131.5V14.5746H131.227C130.852 14.5746 130.136 14.5746 128.67 14.5746C128.67 14.5746 128.67 14.5746 128.67 18.4712C128.67 18.4712 128.67 18.4712 129.898 18.4712H131.5V21.8525H130.58C130.102 21.8525 129.489 21.8525 128.67 21.8525C128.67 21.8525 128.67 21.8525 128.67 26.1034C128.67 26.2644 128.67 26.2644 128.875 26.2644C128.875 26.2644 128.875 26.2644 130.17 26.2644H131.5V30H131.125C130.443 30 129.148 30 126.523 30C125.057 30 124.341 29.3237 124.341 27.8102V14.5746C124.341 14.5746 124.341 14.5746 122.5 14.5746C122.5 14.5746 122.5 14.5746 122.5 11Z" fill="#ED1C24"/>
<path fill-rule="evenodd" clip-rule="evenodd" d="M131.5 11H131.565C135.407 11 137.653 13.061 137.653 16.1203C137.653 17.9559 136.774 19.1475 135.928 20.0169C137.491 20.6932 138.5 22.3678 138.5 24.2356C138.5 27.8102 135.733 30 131.76 30C131.76 30 131.76 30 131.695 30H131.5V26.2644H131.923C133.323 26.2644 134.17 25.4271 134.17 24.0746C134.17 22.722 133.323 21.8525 131.923 21.8525C131.923 21.8525 131.923 21.8525 131.533 21.8525H131.5V18.4712H131.565C132.802 18.4712 133.486 17.6339 133.486 16.4424C133.486 15.2508 132.802 14.5746 131.565 14.5746C131.565 14.5746 131.565 14.5746 131.533 14.5746H131.5V11Z" fill="#ED1C24"/>
<path fill-rule="evenodd" clip-rule="evenodd" d="M146.421 11C146.421 11 146.421 11 148.175 11H148.5V16.4424C148.338 16.7966 148.143 17.2797 148.143 17.7949C148.143 17.7949 148.143 17.7949 146.778 21.6915C146.778 21.6915 146.778 21.6915 148.24 21.6915H148.5V25.2661H147.558C147.038 25.2661 146.421 25.2661 145.738 25.2661C145.738 25.2661 145.738 25.2661 144.536 28.3254C144.179 29.4847 143.496 30 142.099 30C142.099 30 142.099 30 139.5 30C139.5 30 139.5 30 139.5 26.2644C139.5 26.2644 139.5 26.2644 140.377 26.2644C140.735 26.2644 140.735 26.2644 140.897 26.1034C140.897 26.1034 140.897 26.1034 146.421 11Z" fill="#ED1C24"/>
<path fill-rule="evenodd" clip-rule="evenodd" d="M148.5 11H150.625C150.625 11 150.625 11 156.271 26.1034C156.437 26.2644 156.437 26.2644 156.803 26.2644C156.803 26.2644 156.803 26.2644 157.5 26.2644C157.5 26.2644 157.5 26.2644 157.5 30C157.5 30 157.5 30 155.042 30C153.614 30 152.917 29.4847 152.552 28.1322C152.552 28.1322 152.552 28.1322 151.323 25.2661C151.323 25.2661 151.323 25.2661 148.932 25.2661H148.5V21.6915H150.26C150.26 21.6915 150.26 21.6915 148.865 17.7949C148.865 17.2797 148.666 16.7966 148.5 16.4424V11Z" fill="#ED1C24"/>
<path fill-rule="evenodd" clip-rule="evenodd" d="M81.5 35C81.5 35 81.5 35 96.6672 35C98.0759 35 98.9276 35.7085 98.9276 37.222C98.9276 37.222 98.9276 37.222 98.9276 50.1034C98.9276 50.2644 98.9276 50.2644 99.1241 50.2644C99.1241 50.2644 99.1241 50.2644 100.5 50.2644C100.5 50.2644 100.5 50.2644 100.5 54C100.5 54 100.5 54 96.8638 54C95.2914 54 94.5707 53.3237 94.5707 51.8102C94.5707 51.8102 94.5707 51.8102 94.5707 38.7678C94.5707 38.7678 94.5707 38.5746 94.4069 38.5746C94.4069 38.5746 94.4069 38.5746 87.4293 38.5746C87.4293 38.5746 87.4293 38.5746 87.4293 54C87.4293 54 87.4293 54 83.2362 54C83.2362 54 83.2362 54 83.2362 38.5746C83.2362 38.5746 83.2362 38.5746 81.5 38.5746C81.5 38.5746 81.5 38.5746 81.5 35Z" fill="#ED1C24"/>
<path fill-rule="evenodd" clip-rule="evenodd" d="M111.435 35H111.5V38.9935L111.435 38.9607C108.265 38.9607 105.846 41.5466 105.846 44.82C105.846 48.257 108.265 51.0393 111.435 51.0393L111.5 51.0065V54.9673L111.435 55C105.846 55 101.5 50.5155 101.5 44.82C101.5 39.3208 105.846 35 111.435 35Z" fill="#ED1C24"/>
<path fill-rule="evenodd" clip-rule="evenodd" d="M111.5 35L113.493 35.1967C118.167 36.082 121.5 40.0164 121.5 44.8361C121.5 49.8197 118.167 53.8852 113.493 54.8033L111.5 55V51.0328L113.722 50.5738C115.781 49.6229 117.154 47.4262 117.154 44.8361C117.154 42.377 115.781 40.3115 113.722 39.4262L111.5 39V35Z" fill="#ED1C24"/>
<path fill-rule="evenodd" clip-rule="evenodd" d="M122.5 35C122.5 35 122.5 35 126.26 35C127.642 35 128.317 35.7085 128.317 37.222C128.317 37.222 128.317 37.222 128.317 50.1034C128.317 50.2644 128.317 50.2644 128.478 50.2644C128.478 50.2644 128.478 50.2644 133.427 50.2644C133.427 50.2644 133.427 50.2644 133.427 35C133.427 35 133.427 35 137.541 35C137.541 35 137.541 35 137.541 50.2644C137.541 50.2644 137.541 50.2644 142.522 50.2644C142.683 50.2644 142.683 50.2644 142.683 50.1034C142.683 50.1034 142.683 50.1034 142.683 37.222C142.683 35.7085 143.358 35 144.74 35C144.74 35 144.74 35 148.5 35C148.5 35 148.5 35 148.5 38.5746C148.5 38.5746 148.5 38.5746 146.957 38.5746C146.765 38.5746 146.765 38.7678 146.765 38.7678C146.765 38.7678 146.765 38.7678 146.765 51.8102C146.765 53.3237 146.09 54 144.74 54C144.74 54 144.74 54 126.421 54C124.878 54 124.203 53.3237 124.203 51.8102C124.203 51.8102 124.203 51.8102 124.203 38.7678C124.203 38.7678 124.203 38.5746 124.043 38.5746C124.043 38.5746 124.043 38.5746 122.5 38.5746C122.5 38.5746 122.5 38.5746 122.5 35Z" fill="#ED1C24"/>
<path fill-rule="evenodd" clip-rule="evenodd" d="M152.421 35C152.421 35 152.421 35 165.416 35C166.979 35 167.5 35.7085 167.5 37.061C167.5 37.061 167.5 37.061 167.5 40.2814H163.69C163.69 40.2814 163.69 40.2814 163.69 38.7678C163.69 38.5746 163.69 38.5746 163.494 38.5746C163.494 38.5746 163.494 38.5746 161.084 38.5746C161.084 38.5746 161.084 38.5746 161.084 54C161.084 54 161.084 54 156.916 54C156.916 54 156.916 54 156.916 38.5746C156.916 38.5746 156.916 38.5746 154.506 38.5746C154.31 38.5746 154.31 38.5746 154.31 38.7678C154.31 38.7678 154.31 38.7678 154.31 40.2814C154.31 40.2814 154.31 40.2814 150.5 40.2814C150.5 40.2814 150.5 40.2814 150.5 37.061C150.5 35.7085 151.021 35 152.421 35Z" fill="#ED1C24"/>
<path fill-rule="evenodd" clip-rule="evenodd" d="M172.421 35C172.421 35 172.421 35 174.175 35H174.5V40.4424C174.305 40.7966 174.143 41.2797 174.143 41.7949C174.143 41.7949 174.143 41.7949 172.745 45.6915C172.745 45.6915 172.745 45.6915 174.208 45.6915H174.5V49.2661H173.558C173.005 49.2661 172.421 49.2661 171.706 49.2661C171.706 49.2661 171.706 49.2661 170.504 52.1322C170.179 53.4847 169.464 54 168.099 54C168.099 54 168.099 54 165.5 54C165.5 54 165.5 54 165.5 50.2644C165.5 50.2644 165.5 50.2644 166.377 50.2644C166.702 50.2644 166.702 50.2644 166.897 50.1034C166.897 50.1034 166.897 50.1034 172.421 35.0322V35Z" fill="#ED1C24"/>
<path fill-rule="evenodd" clip-rule="evenodd" d="M174.5 35H176.592C176.592 35 176.592 35 182.271 50.1034C182.437 50.2644 182.437 50.2644 182.803 50.2644H183.5C183.5 50.2644 183.5 50.2644 183.5 54C183.5 54 183.5 54 181.042 54C179.614 54 178.917 53.4847 178.552 52.1322C178.552 52.1322 178.552 52.1322 177.323 49.2661C177.323 49.2661 177.323 49.2661 174.932 49.2661H174.5V45.6915H176.26C176.26 45.6915 176.26 45.6915 174.832 41.7949C174.832 41.2797 174.666 40.7966 174.5 40.4424V35Z" fill="#ED1C24"/>
<path fill-rule="evenodd" clip-rule="evenodd" d="M54.8173 19.016C55.0076 18.9513 55.2614 19.0807 55.5153 19.4366C55.5153 19.4366 55.5153 19.4366 67.0003 30.8253C67.6666 31.5047 67.6666 32.5401 67.0003 33.0577C67.0003 33.0577 67.0003 33.0577 55.5153 44.6406C55.2614 44.9641 55.0076 45.0612 54.8173 44.9641C54.6269 44.867 54.5 44.5435 54.5 44.1229V19.7602C54.5 19.3396 54.6269 19.0807 54.8173 19.016Z" fill="#ED1C24"/>
<path fill-rule="evenodd" clip-rule="evenodd" d="M34.5853 0H35.4231L36.1965 0.318878C36.1965 0.318878 36.1965 0.318878 48.2156 12.0855C48.7312 12.7551 48.5378 13.2334 47.7 13.2334C47.7 13.2334 47.7 13.2334 42.7055 13.2334C41.8677 13.2334 41.1588 13.9349 41.1588 14.764C41.1588 14.764 41.1588 14.764 41.1588 23.5013C41.1588 24.3304 40.4821 25 39.451 25C39.451 25 39.451 25 30.7186 25C29.8486 25 29.1719 24.3304 29.1719 23.5013C29.1719 23.5013 29.1719 23.5013 29.1719 14.764C29.1719 13.9349 28.4952 13.2334 27.6252 13.2334H22.3084C21.4384 13.2334 21.2773 12.7551 21.7929 12.0855C21.7929 12.0855 21.7929 12.0855 33.812 0.318878L34.5853 0Z" fill="#ED1C24"/>
<path fill-rule="evenodd" clip-rule="evenodd" d="M16.1665 19.0352C16.3666 19.162 16.5 19.4472 16.5 19.8593V44.2031C16.5 44.6469 16.3666 44.9004 16.1665 44.9638C15.933 45.0589 15.6328 44.9638 15.2659 44.7102C15.2659 44.7102 15.2659 44.7102 3.02531 33.0455C2.3249 32.5384 2.3249 31.524 3.02531 30.8584C3.02531 30.8584 3.02531 30.8584 15.2659 19.3522C15.6328 19.0352 15.933 18.9401 16.1665 19.0352Z" fill="#ED1C24"/>
<path fill-rule="evenodd" clip-rule="evenodd" d="M30.6345 38C30.6345 38 30.6345 38 39.5461 38C40.5984 38 41.3218 38.6825 41.3218 39.56C41.3218 39.56 41.3218 39.56 41.3218 48.9525C41.3218 49.9925 42.0124 50.675 42.8674 50.675H47.6027C48.4905 50.675 48.8194 51.1625 48.1288 51.6825C48.1288 51.6825 48.1288 51.6825 36.2248 63.48C35.8631 63.8375 35.4356 64 35.0081 64C34.5806 64 34.1202 63.8375 33.7914 63.48C33.7914 63.48 33.7914 63.48 21.8873 51.6825C21.1639 51.1625 21.5256 50.675 22.3806 50.675C22.3806 50.675 22.3806 50.675 27.4776 50.675C28.3655 50.675 29.0561 49.9925 29.0561 48.9525C29.0561 48.9525 29.0561 48.9525 29.0561 39.56C29.0561 38.6825 29.7466 38 30.6345 38Z" fill="#ED1C24"/>
</svg>
