<svg width="187" height="64" viewBox="0 0 187 64" fill="none" xmlns="http://www.w3.org/2000/svg">
<g clip-path="url(#clip0_1992_8337)">
<path d="M43.4997 32.6042C43.4373 44.479 33.7848 54.0622 21.9064 53.9997C10.028 53.958 0.437894 44.2707 0.500303 32.3958C0.562711 20.521 10.236 10.9378 22.0936 11.0003C33.972 11.0628 43.5621 20.7293 43.4997 32.6042Z" fill="#221F1F"/>
<path d="M12.2296 28.0059C12.9602 28.1731 13.7743 27.2746 14.0457 26C14.3171 24.7462 13.9622 23.5761 13.2316 23.4298C12.7306 23.3253 12.2087 23.7015 11.833 24.3283C12.167 24.4955 12.334 24.9134 12.167 25.2686C12.0208 25.582 11.6868 25.7701 11.3528 25.6865C11.2067 26.8567 11.5616 27.8596 12.2296 28.0059ZM8.72264 25.3522C9.30713 22.2179 11.1232 19.9403 12.7723 20.2537C14.4214 20.5671 15.2773 23.3671 14.6928 26.5014C14.1083 29.6358 12.2922 31.9134 10.6431 31.5999C8.99401 31.2865 8.13815 28.4865 8.72264 25.3522ZM37.2583 28.0059C18.826 40.3342 6.15505 34.0865 6.15505 34.0865C5.96718 38.3701 13.2942 51.5342 22.0616 51.7014C30.8289 51.8476 37.2583 28.0059 37.2583 28.0059ZM10.5179 32.1223C12.4383 32.4984 14.5467 30.0119 15.1938 26.6059C15.8409 23.2 14.7972 20.1283 12.8767 19.7522C10.9562 19.3761 8.86876 21.8627 8.22165 25.2686C7.55366 28.6746 8.59739 31.7462 10.5179 32.1223ZM17.1351 30.3671C17.7823 29.6358 18.5129 28.9462 19.3687 28.2985C23.1679 25.3731 27.3429 24.6418 28.6788 26.6686C29.2007 27.4626 29.2216 28.5492 28.825 29.7402C30.1818 27.5044 30.6202 25.4358 29.7643 24.2865C28.3657 22.385 24.0029 23.6806 20.0367 27.2119C18.9095 28.2149 17.9284 29.3014 17.1351 30.3671ZM21.3727 21.0268C24.4204 18.9582 29.6599 17.8298 32.4572 22.1343C30.7663 12.2298 23.4602 17.9343 21.3727 21.0268ZM43.4999 33.1044C43.4372 44.7014 34.0019 54.0417 22.3956 53.9999C10.7892 53.9372 1.5 44.4924 1.5 32.9163C1.5 25.394 5.23657 20.003 8.80614 17.0985C13.1689 13.5463 16.1332 16.2836 17.1769 18.3313C17.0516 17.4537 16.6968 14.9463 15.7157 13.1284C17.8658 12.397 20.162 12 22.5626 12C34.1898 12.0627 43.5416 21.5074 43.4999 33.1044ZM30.2444 43.6984C27.9691 47.7939 25.1301 51.1372 21.9572 51.0745C19.995 51.0327 18.1162 50.2805 16.3836 49.1312C16.989 48.1073 20.4125 43.1133 30.2444 43.6984Z" fill="#05BC52"/>
<path d="M174.268 33.4406L176.5 28.2261L178.732 33.4609H174.268V33.4406ZM179.742 25H173.279L166.5 39H171.911L173.089 36.2609H179.911L181.068 39H186.5L179.742 25Z" fill="#221F1F"/>
<path d="M130.5 28.5965H136.525V39H141.475V28.5965H147.5V25H130.5V28.5965Z" fill="#221F1F"/>
<path d="M119.263 33.3919H127.703V30.5878H119.263V28.5356H129.145V25H114.5V39H129.5V35.5457H119.263V33.3919Z" fill="#221F1F"/>
<path d="M112.458 27.4993V25H96.6247V28.5965H105.144L96.5 36.521V39H112.5V35.4035H103.918L112.458 27.4993Z" fill="#221F1F"/>
<path d="M85.4898 36.2552C82.4254 36.2552 80.546 35.2 80.546 32.4897C80.546 29.7793 82.405 28.7448 85.4898 28.7448C88.5337 28.7448 90.454 29.7793 90.454 32.4897C90.454 35.2 88.5337 36.2552 85.4898 36.2552ZM85.4898 25C79.3407 25 75.5 27.4 75.5 32.4897C75.5 37.5586 79.3407 40 85.4898 40C91.6593 40 95.5 37.5793 95.5 32.4897C95.5 27.4 91.6593 25 85.4898 25Z" fill="#221F1F"/>
<path d="M62.2211 28.3072H66.8409C68.2795 28.3072 68.8266 29.0783 68.8266 30.0725C68.8266 30.742 68.4213 31.9391 66.7598 31.9391H62.2211V28.3072ZM73.649 30.0725C73.649 27.1101 71.7646 25 67.2461 25H57.5V39H62.2008V35.0435H65.2402L68.624 39H74.5L70.5691 34.4551C72.5346 33.6232 73.649 31.7971 73.649 30.0725Z" fill="#221F1F"/>
<path d="M160.252 25L154.316 30.1205V25H149.5V39H154.316V35.1393L156.142 33.6357L160.273 39H166.272L159.629 30.73L166.5 25H160.252Z" fill="#221F1F"/>
</g>
<defs>
<clipPath id="clip0_1992_8337">
<rect width="186" height="64" fill="white" transform="translate(0.5)"/>
</clipPath>
</defs>
</svg>
