<svg width="29" height="28" viewBox="0 0 29 28" fill="none" xmlns="http://www.w3.org/2000/svg">
<g clip-path="url(#clip0_1163_5072)">
<path d="M27.8313 8.49358L24.561 11.7639C23.9004 19.4223 17.4418 25.3745 9.71227 25.3745C8.12415 25.3745 6.81493 25.123 5.82071 24.6264C5.01899 24.225 4.69087 23.7951 4.60884 23.6726C4.53569 23.563 4.48828 23.4381 4.47015 23.3076C4.45202 23.177 4.46363 23.044 4.50412 22.9185C4.54461 22.793 4.61294 22.6783 4.70399 22.583C4.79504 22.4876 4.90646 22.414 5.02993 22.3678C5.05837 22.3569 7.68118 21.3495 9.34696 19.4322C8.42316 18.6727 7.61673 17.7807 6.95384 16.7853C5.59759 14.7717 4.07946 11.2739 4.54759 6.04686C4.56242 5.88077 4.62441 5.72238 4.72625 5.59034C4.82809 5.4583 4.96554 5.3581 5.12242 5.30156C5.27929 5.24502 5.44905 5.23448 5.61171 5.27118C5.77438 5.30789 5.92316 5.39031 6.04055 5.50874C6.07884 5.54702 9.68055 9.12905 14.084 10.2906V9.62452C14.0823 8.92604 14.2204 8.23429 14.4902 7.59C14.7599 6.94571 15.1558 6.3619 15.6546 5.87296C16.139 5.38922 16.7154 5.00741 17.3498 4.75005C17.9842 4.49269 18.6637 4.36501 19.3482 4.37452C20.2665 4.38358 21.1668 4.63008 21.9616 5.09006C22.7564 5.55003 23.4187 6.20784 23.884 6.99952H27.2123C27.3854 6.99938 27.5547 7.05063 27.6988 7.14676C27.8428 7.2429 27.955 7.37961 28.0213 7.53958C28.0876 7.69955 28.1049 7.87559 28.0711 8.04541C28.0373 8.21524 27.9538 8.37121 27.8313 8.49358Z" fill="white" fill-opacity="0.8"/>
</g>
<defs>
<clipPath id="clip0_1163_5072">
<rect width="28" height="28" fill="white" transform="translate(0.960938)"/>
</clipPath>
</defs>
</svg>
