<svg width="34" height="34" viewBox="0 0 34 34" fill="none" xmlns="http://www.w3.org/2000/svg">
<path fill-rule="evenodd" clip-rule="evenodd" d="M1.41675 2.8364C1.41675 2.05222 2.04986 1.4165 2.83084 1.4165H5.65903C6.32589 1.4165 6.90212 1.8843 7.04176 2.53904L8.31662 8.51597H31.1693C31.5983 8.51597 32.0039 8.71142 32.2723 9.04732C32.5406 9.38323 32.6428 9.82329 32.5498 10.2437L30.217 20.791C30.2172 20.7906 30.217 20.7913 30.217 20.791C30.0093 21.7373 29.4862 22.5853 28.7345 23.1931C27.9824 23.801 27.0464 24.1332 26.0809 24.1347H12.2629C11.2824 24.1527 10.3258 23.8289 9.55601 23.2183C8.78171 22.6042 8.24487 21.738 8.03789 20.7693L5.80429 10.2975C5.79347 10.2561 5.78444 10.2139 5.77735 10.1711L4.51573 4.2563H2.83084C2.04986 4.2563 1.41675 3.62058 1.41675 2.8364ZM8.92235 11.3558L10.8032 20.1736C10.8032 20.1737 10.8031 20.1735 10.8032 20.1736C10.8722 20.4965 11.0512 20.7853 11.3092 20.99C11.5673 21.1947 11.8884 21.3027 12.2173 21.2953L12.2487 21.295H26.0762C26.0765 21.295 26.0761 21.295 26.0762 21.295C26.3978 21.2943 26.7103 21.1835 26.9608 20.9811C27.2116 20.7785 27.3858 20.496 27.4551 20.1804L29.4067 11.3558H8.92235ZM8.41651 29.7433C8.41651 28.1751 9.68274 26.9036 11.2447 26.9036C12.8067 26.9036 14.0729 28.1751 14.0729 29.7433C14.0729 31.3117 12.8067 32.5832 11.2447 32.5832C9.68274 32.5832 8.41651 31.3117 8.41651 29.7433ZM23.9715 29.7433C23.9715 28.1751 25.2379 26.9036 26.7997 26.9036C28.3617 26.9036 29.628 28.1751 29.628 29.7433C29.628 31.3117 28.3617 32.5832 26.7997 32.5832C25.2379 32.5832 23.9715 31.3117 23.9715 29.7433Z" fill="#2936A3"/>
</svg>
