<svg width="35" height="34" viewBox="0 0 35 34" fill="none" xmlns="http://www.w3.org/2000/svg">
<path fill-rule="evenodd" clip-rule="evenodd" d="M15.3779 1.98706C16.0233 1.61519 16.755 1.41943 17.4999 1.41943C18.2448 1.41943 18.9767 1.6152 19.6219 1.98712L19.6249 1.98882L29.5416 7.65547C30.187 8.02813 30.7231 8.56395 31.0961 9.2092C31.4691 9.85445 31.6659 10.5864 31.6666 11.3317V22.668C31.6659 23.4132 31.4691 24.1452 31.0961 24.7905C30.7231 25.4358 30.187 25.9716 29.5416 26.3443L29.5361 26.3474L19.6249 32.011L19.6224 32.0124C19.0094 32.3657 18.3185 32.5601 17.6123 32.5788C17.5751 32.5817 17.5377 32.5832 17.4999 32.5832C17.4621 32.5832 17.4247 32.5817 17.3876 32.5788C16.6815 32.5601 15.9905 32.3657 15.3776 32.0124L15.3749 32.011L5.46372 26.3474L5.45825 26.3443C4.8128 25.9716 4.27671 25.4358 3.90373 24.7905C3.53075 24.1452 3.33402 23.4132 3.33325 22.668V11.3317C3.33402 10.5864 3.53075 9.85445 3.90373 9.2092C4.27671 8.56395 4.8128 8.02813 5.45825 7.65549L5.46372 7.65233L15.3779 1.98706ZM18.9166 29.1524V17.8201L28.8333 12.1274V22.6651C28.833 22.9136 28.7674 23.1575 28.6431 23.3726C28.5192 23.5869 28.3412 23.765 28.1272 23.8892L28.1249 23.8905L18.9166 29.1524ZM27.3897 9.68911L18.2083 4.44257C17.9929 4.31823 17.7485 4.25277 17.4999 4.25277C17.2513 4.25277 17.0069 4.31822 16.7916 4.44256L16.7861 4.44572L7.61014 9.68911L17.4999 15.3664L27.3897 9.68911ZM16.0833 17.8201V29.1524L6.87492 23.8905L6.87268 23.8892C6.65854 23.765 6.48065 23.5869 6.35674 23.3726C6.23252 23.1576 6.16694 22.9138 6.16659 22.6656V12.1274L16.0833 17.8201Z" fill="#2936A3"/>
</svg>
