<svg width="34" height="34" viewBox="0 0 34 34" fill="none" xmlns="http://www.w3.org/2000/svg">
<path fill-rule="evenodd" clip-rule="evenodd" d="M8.49992 5.66683C6.93511 5.66683 5.66659 6.93536 5.66659 8.50016C5.66659 10.065 6.93511 11.3335 8.49992 11.3335C10.0647 11.3335 11.3333 10.065 11.3333 8.50016C11.3333 6.93536 10.0647 5.66683 8.49992 5.66683ZM2.83325 8.50016C2.83325 5.37055 5.3703 2.8335 8.49992 2.8335C11.6295 2.8335 14.1666 5.37055 14.1666 8.50016C14.1666 11.1406 12.3607 13.3592 9.91659 13.9883V14.1668C9.91659 14.5425 10.0658 14.9029 10.3315 15.1686C10.5972 15.4342 10.9575 15.5835 11.3333 15.5835H22.6666C23.0423 15.5835 23.4027 15.4342 23.6683 15.1686C23.9339 14.9029 24.0833 14.5425 24.0833 14.1668V13.9883C21.6392 13.3592 19.8333 11.1406 19.8333 8.50016C19.8333 5.37055 22.3704 2.8335 25.4999 2.8335C28.6295 2.8335 31.1666 5.37055 31.1666 8.50016C31.1666 11.1406 29.3606 13.3592 26.9166 13.9883V14.1668C26.9166 15.2941 26.4688 16.375 25.6718 17.172C24.8747 17.969 23.7938 18.4168 22.6666 18.4168H18.4166V20.012C20.8606 20.6411 22.6666 22.8598 22.6666 25.5002C22.6666 28.6297 20.1295 31.1668 16.9999 31.1668C13.8703 31.1668 11.3333 28.6297 11.3333 25.5002C11.3333 22.8598 13.1392 20.6411 15.5833 20.012V18.4168H11.3333C10.2061 18.4168 9.12508 17.969 8.32805 17.172C7.53102 16.375 7.08325 15.2939 7.08325 14.1668V13.9883C4.63918 13.3592 2.83325 11.1406 2.83325 8.50016ZM25.4999 5.66683C23.9351 5.66683 22.6666 6.93536 22.6666 8.50016C22.6666 10.065 23.9351 11.3335 25.4999 11.3335C27.0648 11.3335 28.3333 10.065 28.3333 8.50016C28.3333 6.93536 27.0648 5.66683 25.4999 5.66683ZM16.9999 22.6668C15.4351 22.6668 14.1666 23.9353 14.1666 25.5002C14.1666 27.065 15.4351 28.3335 16.9999 28.3335C18.5648 28.3335 19.8333 27.065 19.8333 25.5002C19.8333 23.9353 18.5648 22.6668 16.9999 22.6668Z" fill="#2936A3"/>
</svg>
