<svg width="35" height="34" viewBox="0 0 35 34" fill="none" xmlns="http://www.w3.org/2000/svg">
<path fill-rule="evenodd" clip-rule="evenodd" d="M16.4989 1.83143C16.7645 1.56576 17.1249 1.4165 17.5006 1.4165C19.547 1.4165 21.5734 1.81957 23.4641 2.60272C25.3548 3.38585 27.0726 4.53371 28.5198 5.98076C29.9667 7.4278 31.1147 9.1457 31.8978 11.0364C32.6809 12.927 33.084 14.9535 33.084 16.9998C33.084 17.7823 32.4497 18.4165 31.6673 18.4165H17.5006C16.7182 18.4165 16.084 17.7823 16.084 16.9998V2.83317C16.084 2.45744 16.2333 2.09711 16.4989 1.83143ZM18.9173 4.32879V15.5832H30.1717C30.0389 14.3952 29.7394 13.2294 29.2801 12.1206C28.6393 10.5737 27.7002 9.16818 26.5163 7.98423C25.3323 6.80028 23.9268 5.86113 22.3799 5.22037C21.2711 4.76111 20.1053 4.46161 18.9173 4.32879ZM13.1324 3.44239C13.4453 4.1595 13.1177 4.99449 12.4006 5.30742C10.4918 6.14041 8.81606 7.4283 7.51995 9.05851C6.22385 10.6887 5.34682 12.6116 4.96556 14.6591C4.58429 16.7066 4.71037 18.8163 5.3328 20.8037C5.95524 22.7912 7.05506 24.5959 8.5361 26.0601C10.0171 27.5244 11.8343 28.6035 13.8288 29.2031C15.8232 29.803 17.9343 29.905 19.9773 29.5002C22.0202 29.0956 23.9329 28.1967 25.5483 26.8821C27.1636 25.5674 28.4322 23.8772 29.2434 21.9589C29.5481 21.2384 30.3793 20.9012 31.0999 21.2059C31.8205 21.5106 32.1576 22.3418 31.8529 23.0625C30.8615 25.4069 29.311 27.4728 27.3367 29.0796C25.3624 30.6864 23.0247 31.785 20.5276 32.2796C18.0308 32.7741 15.4506 32.6495 13.0129 31.9165C10.5753 31.1836 8.35427 29.8646 6.54411 28.0751C4.73393 26.2854 3.38971 24.0796 2.62896 21.6505C1.86822 19.2213 1.71411 16.6428 2.18011 14.1404C2.64611 11.6379 3.71803 9.28773 5.30214 7.29525C6.88627 5.30276 8.93436 3.72867 11.2674 2.71059C11.9845 2.39766 12.8195 2.72529 13.1324 3.44239Z" fill="#2936A3"/>
</svg>
