<svg width="35" height="34" viewBox="0 0 35 34" fill="none" xmlns="http://www.w3.org/2000/svg">
<path fill-rule="evenodd" clip-rule="evenodd" d="M22.7783 5.69301C22.1881 5.64042 21.5901 5.66686 21.0005 5.77429C19.6738 6.01601 18.4523 6.6563 17.4988 7.60985C16.5452 8.56339 15.9049 9.7849 15.6632 11.1116C15.4215 12.4382 15.5898 13.8071 16.1457 15.0357C16.3888 15.5729 16.2738 16.2046 15.8569 16.6215L6.58531 25.893C6.31721 26.161 6.16659 26.5247 6.16659 26.9039C6.16659 27.283 6.31721 27.6467 6.58531 27.9147C6.85341 28.1829 7.21706 28.3335 7.59621 28.3335C7.97537 28.3335 8.339 28.1829 8.60711 27.9147L17.8786 18.6432C18.2955 18.2263 18.9272 18.1113 19.4644 18.3544C20.6929 18.9103 22.0619 19.0786 23.3886 18.8369C24.7151 18.5952 25.9367 17.9549 26.8903 17.0013C27.8437 16.0477 28.484 14.8263 28.7259 13.4996C28.8333 12.91 28.8596 12.312 28.807 11.7217L25.4673 15.0616C24.9516 15.5671 24.2583 15.8501 23.5362 15.8501C22.8143 15.8501 22.1209 15.5669 21.6054 15.0616L21.5952 15.0517L19.4385 12.8948C18.933 12.3791 18.65 11.6859 18.65 10.9638C18.65 10.2418 18.9332 9.54855 19.4385 9.03293L19.4484 9.02282L22.7783 5.69301ZM20.4926 2.98684C22.3859 2.64188 24.3394 2.8821 26.0927 3.67551C26.5164 3.86724 26.819 4.25471 26.9023 4.71224C26.9858 5.16977 26.8392 5.63906 26.5103 5.96792L21.5145 10.9638L23.5362 12.9856L28.5322 7.98971C28.861 7.66086 29.3304 7.51436 29.7878 7.59772C30.2454 7.68109 30.6328 7.9837 30.8245 8.40739C31.618 10.1607 31.8583 12.1142 31.5133 14.0075C31.1683 15.9008 30.2545 17.644 28.8937 19.0047C27.5329 20.3656 25.7897 21.2793 23.8965 21.6243C22.3329 21.9092 20.7282 21.795 19.2291 21.2996L10.6106 29.9182C9.81112 30.7177 8.72681 31.1668 7.59621 31.1668C6.4656 31.1668 5.3813 30.7177 4.58185 29.9182C3.78238 29.1188 3.33325 28.0344 3.33325 26.9039C3.33325 25.7733 3.78238 24.689 4.58185 23.8896L13.2004 15.271C12.7051 13.7719 12.5909 12.1673 12.8758 10.6037C13.2207 8.7104 14.1345 6.96719 15.4953 5.60638C16.856 4.24557 18.5993 3.33181 20.4926 2.98684Z" fill="#2936A3"/>
</svg>
