<svg width="110" height="28" viewBox="0 0 110 28" fill="none" xmlns="http://www.w3.org/2000/svg">
<path fill-rule="evenodd" clip-rule="evenodd" d="M49.1557 11.1809C47.6942 14.4287 46.5619 16.9379 46.1757 17.7841L45.8628 18.4698H46.6526H47.4424L47.8246 17.5047L48.2069 16.5396L50.3072 16.5411L52.4076 16.5425L52.8002 17.5061L53.1929 18.4698H53.944C54.3571 18.4698 54.6951 18.4397 54.6951 18.4029C54.6951 18.3662 54.5159 17.9433 54.297 17.4633C54.0782 16.9832 53.2283 15.1047 52.4086 13.2888C50.4994 9.06016 50.3413 8.71741 50.2991 8.71741C50.2799 8.71741 49.7654 9.82603 49.1557 11.1809ZM72.6037 9.13473C72.4974 9.38016 72.0892 10.2895 71.6966 11.1555C69.5213 15.9534 68.4201 18.4088 68.4199 18.4614C68.4198 18.494 68.7702 18.4977 69.1985 18.4698L69.9773 18.419L70.3349 17.5555C70.5315 17.0806 70.7415 16.6576 70.8016 16.6154C70.9363 16.521 74.748 16.5287 74.8891 16.6235C74.9451 16.6612 75.1441 17.0806 75.3315 17.5555C75.5187 18.0304 75.6833 18.434 75.6972 18.4524C75.7287 18.4943 77.2653 18.5317 77.2652 18.4905C77.2651 18.4645 75.7935 15.1863 75.2352 13.9682C75.1279 13.7343 74.5548 12.47 73.9618 11.159C73.3687 9.84787 72.864 8.75571 72.8401 8.73193C72.8163 8.70816 72.7099 8.88939 72.6037 9.13473ZM39.4959 9.1648C37.9516 9.65496 36.7327 10.8482 36.2693 12.3238C36.0333 13.075 36.0184 14.5348 36.2391 15.2773C36.7011 16.8315 38.2888 18.2752 39.8643 18.5738C40.9743 18.7841 42.3874 18.5873 43.159 18.1149L43.5626 17.8679L44.1427 18.4989L44.7229 19.1301L44.7273 16.2095L44.7317 13.2888H42.4904H40.2492L40.2791 13.9745L40.3092 14.6603L41.758 14.6884L43.2067 14.7166V15.4684C43.2067 16.2123 43.2029 16.2233 42.8287 16.5314C41.987 17.2246 40.559 17.3946 39.5303 16.9239C38.7701 16.5762 38.318 16.151 37.9107 15.4003C37.5856 14.8012 37.5642 14.7024 37.5645 13.7968C37.5648 12.6839 37.7389 12.2351 38.4645 11.4771C39.0754 10.8389 39.7496 10.5242 40.6302 10.4665C41.5065 10.4091 42.0838 10.5794 42.8036 11.1073L43.3029 11.4736L43.814 10.9958C44.0951 10.7331 44.3251 10.4786 44.3251 10.4303C44.3251 10.244 43.0804 9.43888 42.4781 9.23561C41.7427 8.98743 40.1723 8.95014 39.4959 9.1648ZM90.4762 9.16439C89.3182 9.60711 88.6111 10.1327 87.9723 11.0252C87.3024 11.9613 87.0962 12.6235 87.0936 13.8476C87.0919 14.671 87.1361 14.9789 87.3274 15.473C87.7973 16.6869 88.6922 17.6646 89.8664 18.2468C90.6179 18.6194 90.6325 18.6222 91.8997 18.6222C93.1634 18.6222 93.1836 18.6184 93.9697 18.2435C97.7343 16.4473 97.7243 11.2341 93.9527 9.40576C93.322 9.09998 93.1974 9.07672 92.0576 9.05234C91.2169 9.03436 90.7252 9.0692 90.4762 9.16439ZM24.9067 13.7968V18.4698H28.1601H31.4134V17.7587V17.0476H28.9226H26.4317V13.0857V9.12376H25.6692H24.9067V13.7968ZM32.7351 13.7968V18.4698H33.4467H34.1584V13.7968V9.12376H33.4467H32.7351V13.7968ZM59.8462 9.19151C59.8089 9.2287 59.7784 9.5487 59.7784 9.90263V10.546H62.1167C63.5782 10.546 64.4551 10.5834 64.4551 10.6456C64.4551 10.7005 63.3774 12.4406 62.0602 14.5127C60.7429 16.5846 59.6444 18.3341 59.619 18.4002C59.5837 18.4919 60.4799 18.514 63.3863 18.4927L67.2001 18.465V17.807V17.1492H64.7262C63.3655 17.1492 62.2252 17.122 62.1921 17.0889C62.1589 17.0558 62.5012 16.4501 62.9529 15.7429C64.8336 12.798 67.0984 9.20462 67.0984 9.16561C67.0984 9.09409 59.918 9.11979 59.8462 9.19151ZM78.9934 13.8222V18.5206H79.7051H80.4167V16.4694C80.4167 15.3368 80.4584 14.3925 80.5099 14.3608C80.7476 14.214 81.2109 14.6232 82.8112 16.3935C83.7589 17.4418 84.5614 18.3404 84.5946 18.3904C84.6634 18.4939 86.6185 18.5559 86.6184 18.4547C86.6184 18.3917 86.3652 18.1031 84.5817 16.1333C82.7336 14.0921 82.2496 13.5381 82.2483 13.4628C82.2475 13.4188 83.1615 12.4359 84.2795 11.2786L86.3123 9.17455L85.3724 9.14214L84.4326 9.10984L83.7209 9.86849C81.321 12.427 80.7627 12.9841 80.5991 12.9841C80.4302 12.9841 80.4167 12.8423 80.4167 11.0539V9.12376H79.7051H78.9934V13.8222ZM98.9201 13.7884V18.4531L99.6306 18.4869L100.341 18.5206L100.368 15.1708L100.394 11.8211L103.63 15.2724C105.409 17.1707 106.908 18.739 106.959 18.7576C107.016 18.778 107.053 16.872 107.053 13.9576V9.12376H106.292H105.531L105.505 12.0869L105.478 15.0501L102.733 12.0887L99.9876 9.12731L99.4538 9.12548L98.9201 9.12376V13.7884ZM90.7171 10.6514C89.9976 10.9362 89.2376 11.6736 88.8892 12.4253C88.6546 12.9313 88.6066 13.1728 88.6066 13.8476C88.6066 14.8503 88.9155 15.5986 89.6063 16.2695C90.3313 16.9735 90.8786 17.1945 91.9051 17.1974C92.6466 17.1996 92.8507 17.16 93.3428 16.9186C94.012 16.5901 94.6784 15.9095 94.9894 15.2369C95.3145 14.5339 95.3057 13.0135 94.973 12.3899C94.6285 11.7441 93.9684 11.0729 93.3833 10.7735C92.67 10.4085 91.4699 10.3536 90.7171 10.6514ZM49.4873 13.3184C49.0553 14.3294 48.7173 15.1718 48.7359 15.1904C48.7546 15.209 49.4785 15.2117 50.3447 15.1962L51.9195 15.1682L51.1637 13.3904C50.748 12.4126 50.3774 11.5829 50.3402 11.5464C50.303 11.51 49.9192 12.3074 49.4873 13.3184ZM72.4364 12.3377C71.4377 14.6717 71.2727 15.0748 71.2699 15.1879C71.2676 15.277 71.6851 15.308 72.8426 15.3046C73.7093 15.3022 74.4184 15.2633 74.4184 15.2183C74.4184 15.1297 73.0531 11.8506 72.9093 11.5937C72.8444 11.4779 72.7217 11.6711 72.4364 12.3377Z" fill="black"/>
<path d="M13.5707 5.10954L13.5986 3.40866C13.6139 2.47324 13.6489 1.70789 13.6765 1.70789C13.7651 1.70789 16.3851 3.77438 16.9591 4.29714C17.8144 5.07611 17.9865 5.70778 17.5748 6.55756C17.2801 7.16576 16.6617 7.59802 14.4857 8.71711C13.4792 9.23469 12.2897 9.85082 11.8424 10.0864C11.3951 10.322 10.1952 10.9424 9.17589 11.4652L7.32271 12.4158L7.29506 14.1605L7.2674 15.9051L5.64074 14.6472C4.74607 13.9554 3.84825 13.2072 3.64553 12.9847C2.88476 12.1496 2.942 11.2409 3.8087 10.3936C4.23591 9.97587 4.92358 9.58009 7.67865 8.16599C9.52135 7.22011 11.6009 6.14552 12.2999 5.77788L13.5707 5.10954Z" fill="#D00F3C"/>
<path d="M13.5707 14.2539L13.5986 12.5523C13.6139 11.6165 13.6489 10.8507 13.6765 10.8507C13.7651 10.8507 16.3851 12.9172 16.9591 13.44C17.8099 14.2148 17.9862 14.8512 17.5814 15.6869C17.2737 16.3218 16.7393 16.6976 14.4857 17.8637C13.3674 18.4424 11.5832 19.3658 10.5207 19.9158C9.45832 20.4657 8.3042 21.0604 7.95589 21.2372L7.32271 21.5588L7.29506 23.305L7.2674 25.0513L5.4921 23.6654C3.47036 22.0869 3.12642 21.6846 3.12642 20.8977C3.12642 20.5266 3.19545 20.2904 3.38933 19.9977C3.86767 19.2754 3.82314 19.3024 8.58907 16.8417C9.98699 16.1199 11.6797 15.2424 12.3507 14.8917L13.5707 14.2539Z" fill="#D00F3C"/>
</svg>
