<svg width="102" height="22" viewBox="0 0 102 22" fill="none" xmlns="http://www.w3.org/2000/svg">
<g clip-path="url(#clip0_2139_8069)">
<path d="M16.4249 0L12.4285 20.7661L33.9798 21.7228V4.37173L16.4249 0Z" fill="#FCE045"/>
<path d="M73.3135 13.0486V13.4274H72.2542V14.1902H73.2299V14.569H72.2542V15.7985H71.8884V13.0486H73.3135Z" fill="black"/>
<path d="M75.2742 15.8527C75.0807 15.8551 74.8885 15.8187 74.7096 15.7458C74.5361 15.6754 74.3768 15.5752 74.2393 15.4497C74.0969 15.3187 73.9844 15.1598 73.9078 14.9833C73.8313 14.8067 73.793 14.6163 73.7953 14.4243C73.793 14.2269 73.8331 14.0313 73.9136 13.8506C73.9892 13.6798 74.0996 13.5261 74.2375 13.3989C74.375 13.2731 74.5343 13.1728 74.7078 13.1028C74.8893 13.0299 75.0833 12.9935 75.2791 12.9958C75.4744 12.9937 75.668 13.03 75.8486 13.1028C76.0222 13.1728 76.1814 13.2731 76.3189 13.3989C76.4609 13.5299 76.5734 13.6888 76.6495 13.8654C76.7256 14.042 76.7634 14.2324 76.7607 14.4243H76.7527C76.7554 14.6162 76.7171 14.8065 76.6411 14.9831C76.565 15.1596 76.4524 15.3185 76.3109 15.4497C76.173 15.5754 76.0137 15.6757 75.8406 15.7458C75.6609 15.8189 75.4687 15.8553 75.2742 15.8527ZM75.2649 13.3938C75.114 13.3916 74.9637 13.4179 74.8222 13.4713C74.6914 13.5211 74.5712 13.5953 74.4684 13.6899C74.3697 13.7842 74.2896 13.8963 74.2331 14.0201C74.1743 14.1485 74.1445 14.2877 74.1445 14.4284C74.1445 14.5692 74.1743 14.7083 74.2331 14.8367C74.2891 14.9609 74.3692 15.0732 74.4684 15.1674C74.5712 15.262 74.6914 15.3362 74.8222 15.3861C74.9637 15.4395 75.114 15.4658 75.2649 15.4636C75.4161 15.4638 75.5665 15.4358 75.7071 15.3809C75.8384 15.3313 75.9585 15.2571 76.0609 15.1623C76.1601 15.0681 76.2402 14.956 76.2967 14.832C76.3554 14.7056 76.3857 14.5681 76.3848 14.429V14.4248C76.3848 14.2871 76.3545 14.151 76.2967 14.0258C76.2402 13.9019 76.1601 13.7898 76.0609 13.6956C75.9585 13.6008 75.8384 13.5265 75.7071 13.477C75.5665 13.422 75.4161 13.3937 75.2649 13.3938Z" fill="black"/>
<path d="M77.7876 15.7995H77.4219V13.049H78.3104C78.4212 13.048 78.5311 13.0678 78.6343 13.1074C78.7309 13.1444 78.8194 13.1989 78.8955 13.2681C78.9702 13.3368 79.0294 13.4207 79.0681 13.5142C79.1077 13.6165 79.1277 13.7254 79.1264 13.8351C79.1322 14.0199 79.0712 14.2006 78.9547 14.3452C78.8394 14.4834 78.677 14.5753 78.4977 14.6036L79.2096 15.7979H78.7629L78.0701 14.6181H77.7876V15.799V15.7995ZM77.7876 13.4278V14.2377H78.3504V14.2423C78.4034 14.244 78.4559 14.234 78.5044 14.213C78.5529 14.192 78.5961 14.1605 78.6308 14.1209C78.7037 14.0412 78.7438 13.9374 78.7433 13.8299C78.7447 13.7239 78.7042 13.6216 78.6308 13.5446C78.5947 13.5067 78.5516 13.4766 78.5031 13.4565C78.455 13.4363 78.4029 13.4265 78.3504 13.4278H77.7876Z" fill="black"/>
<path d="M83.5291 15.3374C83.4232 15.5044 83.2693 15.6363 83.0868 15.7163C82.8697 15.8136 82.633 15.8616 82.3945 15.8568C82.2028 15.8574 82.0128 15.8223 81.8344 15.7534C81.6622 15.688 81.5051 15.5888 81.3725 15.462C81.2332 15.3276 81.1233 15.1667 81.049 14.989C80.9747 14.8114 80.9378 14.6206 80.94 14.4283C80.9378 14.2361 80.9747 14.0454 81.049 13.8677C81.1233 13.69 81.2332 13.5291 81.3725 13.3947C81.5051 13.2681 81.6617 13.1692 81.8339 13.1038C82.0141 13.0345 82.2054 12.9995 82.399 13.0004C82.6424 12.9988 82.8831 13.0537 83.1011 13.1606C83.1923 13.2036 83.2768 13.2593 83.352 13.326C83.4157 13.3823 83.4704 13.4478 83.5144 13.5203L83.4019 13.8557C83.3525 13.7887 83.2946 13.7283 83.2297 13.6758C83.1585 13.6173 83.0811 13.5669 82.9987 13.5255C82.9133 13.4802 82.8226 13.4455 82.7287 13.4221C82.6303 13.3972 82.5298 13.3846 82.4283 13.3844C82.2731 13.3824 82.1187 13.4068 81.9718 13.4567C81.8406 13.5002 81.72 13.5707 81.6181 13.6634C81.5202 13.7551 81.4433 13.8661 81.3916 13.989C81.3365 14.1266 81.3098 14.2737 81.3133 14.4216C81.312 14.5714 81.3405 14.7199 81.397 14.8588C81.4477 14.9835 81.5265 15.0949 81.6279 15.1844C81.7311 15.275 81.8513 15.3444 81.9816 15.3886C82.1285 15.4388 82.2833 15.4634 82.4386 15.4615C82.6477 15.4661 82.855 15.4196 83.0419 15.3261C83.1994 15.251 83.336 15.1392 83.4401 15.0005L83.5487 15.3307L83.5291 15.3374Z" fill="black"/>
<path d="M84.5586 15.7995H84.1929V13.049H85.0814C85.1922 13.048 85.3021 13.0678 85.4053 13.1074C85.5019 13.1444 85.5904 13.1989 85.6665 13.2681C85.7412 13.3368 85.8004 13.4207 85.8391 13.5142C85.8787 13.6165 85.8987 13.7254 85.8974 13.8351C85.9032 14.0199 85.8422 14.2006 85.7257 14.3452C85.6104 14.4834 85.448 14.5753 85.2687 14.6036L85.9806 15.7979H85.5343L84.8411 14.6181H84.5586V15.799V15.7995ZM84.5586 13.4278V14.2377H85.1214V14.2423C85.1744 14.244 85.2269 14.234 85.2754 14.213C85.3239 14.192 85.367 14.1605 85.4018 14.1209C85.4747 14.0412 85.5148 13.9374 85.5143 13.8299C85.5157 13.7239 85.4752 13.6216 85.4018 13.5446C85.3657 13.5067 85.3226 13.4766 85.2741 13.4565C85.226 13.4363 85.1739 13.4265 85.1214 13.4278H84.5586Z" fill="black"/>
<path d="M88.1881 13.0491V13.4279H86.9863V14.1907H88.0649V14.5695H86.9863V15.4197H88.1881V15.7985H86.6206V13.0491H88.1881Z" fill="black"/>
<path d="M88.9942 15.799H88.6008L89.7456 13.0491H90.1483L91.2931 15.798H90.9002L90.6391 15.1577H89.2593L88.9942 15.799ZM89.9468 13.5106L89.4168 14.7788H90.4776L89.9468 13.5106Z" fill="black"/>
<path d="M93.5335 13.0491V13.4279H92.5929V15.799H92.2272V13.4279H91.2737V13.0491H93.5335Z" fill="black"/>
<path d="M95.3519 15.8527C95.1583 15.8551 94.9661 15.8187 94.7872 15.7458C94.6137 15.6756 94.4544 15.5754 94.3169 15.4497C94.1746 15.3189 94.0615 15.1601 93.985 14.9834C93.9085 14.8068 93.8707 14.6163 93.8729 14.4243C93.8707 14.227 93.9107 14.0315 93.9908 13.8506C94.0664 13.6798 94.1772 13.5261 94.3152 13.3989C94.4526 13.2729 94.6119 13.1726 94.7855 13.1028C94.967 13.0299 95.161 12.9935 95.3567 12.9958C95.5521 12.9937 95.7456 13.0301 95.9263 13.1028C96.0998 13.1726 96.2595 13.273 96.3966 13.3989C96.5349 13.5261 96.6448 13.6798 96.7209 13.8506C96.801 14.0313 96.8415 14.2269 96.8388 14.4243H96.8304C96.833 14.6162 96.7948 14.8065 96.7187 14.9831C96.6426 15.1597 96.53 15.3185 96.3885 15.4497C96.2506 15.5752 96.0913 15.6755 95.9183 15.7458C95.7385 15.8188 95.5463 15.8552 95.3519 15.8527ZM95.3421 13.3938C95.1912 13.3916 95.0413 13.4179 94.8998 13.4713C94.7699 13.5195 94.6506 13.593 94.5492 13.6873C94.4478 13.7816 94.3663 13.8949 94.3098 14.0207C94.2515 14.1491 94.2217 14.2882 94.2217 14.429C94.2217 14.5697 94.2515 14.7088 94.3098 14.8372C94.3668 14.9613 94.4469 15.0736 94.5461 15.168C94.6489 15.2626 94.769 15.3368 94.8998 15.3866C95.0413 15.44 95.1912 15.4663 95.3421 15.4641C95.4933 15.4643 95.6433 15.4363 95.7843 15.3814C95.9147 15.3331 96.0335 15.2597 96.1349 15.1653C96.2359 15.071 96.3174 14.9577 96.3739 14.8321C96.4322 14.7055 96.4624 14.568 96.462 14.429V14.4248C96.4615 14.2871 96.4317 14.1511 96.3739 14.0258C96.3174 13.9002 96.2359 13.787 96.1349 13.6928C96.0335 13.5986 95.9143 13.5252 95.7843 13.477C95.6433 13.422 95.4933 13.3937 95.3421 13.3938Z" fill="black"/>
<path d="M97.865 15.7996H97.4993V13.0491H98.3874C98.4981 13.048 98.608 13.0678 98.7117 13.1075C98.8078 13.1445 98.8968 13.199 98.9729 13.2682C99.0481 13.3367 99.1068 13.4207 99.1451 13.5142C99.1856 13.6165 99.2056 13.7254 99.2043 13.8352C99.2096 14.0199 99.1486 14.2006 99.0325 14.3453C98.9168 14.4836 98.7544 14.5756 98.5751 14.6037L99.2875 15.798H98.8407L98.1475 14.6182H97.865V15.7991V15.7996ZM97.865 13.4279V14.2378H98.4278V14.2424C98.4808 14.2442 98.5333 14.2341 98.5818 14.2131C98.6303 14.1921 98.6734 14.1606 98.7077 14.121C98.7811 14.0414 98.8212 13.9376 98.8207 13.83C98.8221 13.724 98.7816 13.6216 98.7077 13.5447C98.6721 13.5067 98.629 13.4767 98.5805 13.4565C98.5324 13.4364 98.4803 13.4266 98.4278 13.4279H97.865Z" fill="black"/>
<path d="M101.096 14.4775C101.156 14.5292 101.209 14.5809 101.259 14.6279C101.307 14.6749 101.35 14.7269 101.386 14.783C101.422 14.8373 101.45 14.896 101.47 14.9576C101.49 15.0247 101.5 15.0944 101.499 15.1643C101.503 15.2633 101.484 15.3618 101.444 15.4525C101.404 15.5433 101.344 15.6241 101.269 15.6889C101.096 15.8275 100.877 15.8984 100.655 15.8879C100.548 15.8885 100.443 15.8737 100.341 15.844C100.248 15.8179 100.158 15.7817 100.074 15.736C100.002 15.6967 99.9356 15.6476 99.8773 15.5902C99.8301 15.5449 99.7905 15.4924 99.7603 15.4346L99.8679 15.0848C99.9547 15.2076 100.069 15.3089 100.202 15.3809C100.343 15.4597 100.502 15.5 100.664 15.4977C100.784 15.5077 100.905 15.4749 101.003 15.4052C101.039 15.3771 101.067 15.3415 101.086 15.3011C101.106 15.2606 101.116 15.2164 101.116 15.1716C101.118 15.0916 101.09 15.0138 101.037 14.953C100.979 14.8855 100.915 14.8237 100.846 14.7685C100.741 14.6904 100.659 14.6228 100.59 14.5695C100.522 14.5163 100.463 14.4662 100.413 14.4284C100.364 14.3907 100.32 14.3555 100.281 14.325C100.243 14.2953 100.206 14.2628 100.173 14.2279C100.094 14.153 100.024 14.0698 99.9636 13.9798C99.9 13.8851 99.867 13.7732 99.8702 13.6594C99.8675 13.5653 99.8871 13.4718 99.9271 13.3865C99.9658 13.3101 100.021 13.243 100.089 13.1901C100.161 13.1354 100.243 13.0941 100.33 13.0681C100.427 13.0385 100.528 13.0239 100.629 13.0248C100.789 13.0224 100.946 13.0609 101.086 13.1364C101.203 13.1959 101.303 13.2815 101.38 13.3865L101.297 13.7312C101.218 13.6373 101.123 13.5591 101.015 13.5007C100.898 13.4373 100.768 13.4039 100.635 13.4036C100.538 13.4001 100.441 13.4201 100.355 13.462C100.32 13.4789 100.292 13.5052 100.273 13.5376C100.254 13.5701 100.245 13.6074 100.246 13.6449C100.247 13.6821 100.255 13.7188 100.271 13.7523C100.288 13.7859 100.311 13.8156 100.34 13.8392C100.398 13.8939 100.458 13.9456 100.522 13.9943C100.674 14.1059 100.792 14.1933 100.88 14.2563C100.969 14.3194 101.047 14.3778 101.111 14.4315L101.096 14.4775Z" fill="black"/>
<path d="M74.8022 8.35437L75.1955 11.1043H74.8297L74.5058 9.01019L73.6676 11.1043H73.3014L72.4409 9.01019L72.1441 11.1043H71.7615L72.1592 8.35437H72.5619L73.4763 10.5648L74.3941 8.35437H74.8022Z" fill="black"/>
<path d="M77.5108 8.35437V8.73317H76.3086V9.49599H77.3871V9.87483H76.3086V10.725H77.5108V11.1038H75.9429V8.35437H77.5108Z" fill="black"/>
<path d="M79.1763 11.1048H78.2522V8.35486H79.1763L79.171 8.35952C79.3877 8.35666 79.603 8.38768 79.8095 8.45148C79.9937 8.5071 80.1654 8.59712 80.3154 8.71663C80.4586 8.8338 80.573 8.98173 80.6495 9.14919C80.7309 9.33289 80.771 9.53168 80.7674 9.73215C80.7714 9.93384 80.7314 10.134 80.6495 10.3188C80.5748 10.4845 80.4617 10.6308 80.3202 10.7462C80.1708 10.8664 79.999 10.9571 79.8148 11.0133C79.6084 11.077 79.3926 11.1078 79.1763 11.1048ZM78.6108 8.73885V10.7322H79.3085L79.3031 10.742H79.3103C79.4589 10.7449 79.607 10.7187 79.7454 10.665C79.8718 10.6143 79.9883 10.5421 80.0893 10.4515C80.1868 10.3634 80.2637 10.2558 80.3154 10.1358C80.371 10.0119 80.3994 9.87792 80.399 9.74249C80.4012 9.60719 80.3745 9.47299 80.3202 9.34869C80.2686 9.22892 80.1917 9.12147 80.0947 9.03343C79.9937 8.94142 79.8775 8.86794 79.7507 8.81637C79.6097 8.76212 79.4597 8.73577 79.3085 8.73885H78.6108Z" fill="black"/>
<path d="M81.4268 11.1048H81.7925V8.35486H81.4268V11.1048Z" fill="black"/>
<path d="M82.7286 11.1043H82.3357L83.4805 8.35437H83.8832L85.028 11.1033H84.6356L84.3739 10.4629H82.9942L82.7286 11.1043ZM83.6816 8.81589L83.1517 10.0841H84.2124L83.6816 8.81589Z" fill="black"/>
<path d="M10.093 7.30835L11.3128 15.9391H9.43663L8.73946 11.0144L6.80583 15.9412H5.12562L3.22175 11.0144L2.47808 15.9391H0.5L1.70461 7.30835H3.60848L5.91373 12.9266L8.21894 7.30835H10.093Z" fill="black"/>
<path d="M20.8624 14.7649C20.5437 15.2343 20.0943 15.6021 19.5684 15.8239C18.8941 16.1175 18.1621 16.2588 17.4257 16.2373C16.8188 16.2349 16.2178 16.1187 15.6546 15.8952C15.0993 15.6824 14.5896 15.3681 14.1521 14.9685C13.7159 14.5642 13.3625 14.0806 13.111 13.5442C12.8402 12.9687 12.7031 12.3406 12.7097 11.7059C12.7031 11.0712 12.8403 10.4431 13.111 9.86758C13.3673 9.32528 13.7256 8.83609 14.1667 8.42619C14.6044 8.02684 15.1141 7.71251 15.6692 7.49955C16.2323 7.27721 16.8329 7.16233 17.4393 7.16101C17.8192 7.16145 18.198 7.20092 18.5697 7.27889C18.9032 7.34431 19.2277 7.44842 19.5365 7.58895C19.8068 7.71616 20.0613 7.87399 20.2948 8.05927C20.5037 8.22031 20.6845 8.41409 20.83 8.6329L20.2353 10.2495C19.9512 9.92689 19.6017 9.66699 19.2094 9.48672C18.7104 9.24283 18.1593 9.12169 17.6029 9.13371C17.2042 9.12917 16.8074 9.18884 16.4281 9.31045C16.0856 9.42292 15.7677 9.59826 15.491 9.82728C15.2225 10.0465 15.0069 10.3225 14.8602 10.6349C14.7135 10.9473 14.6395 11.2881 14.6433 11.6325C14.6388 11.9775 14.7127 12.3191 14.8594 12.6322C15.006 12.9453 15.2219 13.2217 15.491 13.4413C15.7677 13.6704 16.0856 13.8457 16.4281 13.9582C16.8074 14.0798 17.2042 14.1395 17.6029 14.1349C18.1694 14.1518 18.7313 14.0306 19.2392 13.782C19.6304 13.5926 19.9754 13.3216 20.2504 12.9876L20.8624 14.6621V14.7649Z" fill="black"/>
<path d="M22.9747 13.9411C23.0968 13.82 23.2427 13.7249 23.4035 13.6617C23.5642 13.5985 23.7363 13.5685 23.9092 13.5737C24.0821 13.5688 24.2542 13.5989 24.4149 13.6621C24.5756 13.7254 24.7216 13.8204 24.8439 13.9413C24.9662 14.0623 25.0623 14.2066 25.1262 14.3656C25.1901 14.5245 25.2206 14.6947 25.2157 14.8657C25.2206 15.0367 25.1901 15.2069 25.1262 15.3659C25.0623 15.5248 24.9662 15.6691 24.8439 15.7901C24.7216 15.9111 24.5756 16.0061 24.4149 16.0693C24.2542 16.1325 24.0821 16.1626 23.9092 16.1578C23.7363 16.1625 23.5642 16.1324 23.4035 16.0691C23.2428 16.0059 23.0968 15.9109 22.9745 15.79C22.8523 15.669 22.7562 15.5246 22.6922 15.3658C22.6283 15.2068 22.5978 15.0367 22.6026 14.8657C22.5975 14.6946 22.6278 14.5243 22.6918 14.3653C22.7558 14.2063 22.8521 14.0619 22.9747 13.9411Z" fill="black"/>
<path d="M31.3888 15.2797C31.1922 15.5456 30.9315 15.7588 30.6305 15.8999C30.2735 16.0701 29.8812 16.1556 29.4849 16.1495C29.1394 16.1774 28.7918 16.1313 28.4659 16.0141C28.14 15.897 27.8436 15.7117 27.5968 15.4709C27.1505 14.9349 26.9264 14.2516 26.9696 13.5587V10.3544H25.6631V9.74975L28.2955 6.45508H28.8756V8.36727H31.3V10.3529H28.8604V13.1473C28.8435 13.2899 28.8602 13.4346 28.9093 13.5698C28.9583 13.705 29.0384 13.8271 29.1432 13.9266C29.3346 14.0731 29.5706 14.1509 29.8126 14.1473C30.0381 14.1536 30.262 14.1083 30.4669 14.015C30.6681 13.9088 30.8459 13.7638 30.9895 13.5887L31.3909 15.2652L31.3888 15.2797Z" fill="black"/>
<path d="M36.67 16.1624C36.1336 16.1644 35.6024 16.0589 35.1084 15.8523C34.629 15.6533 34.1904 15.3692 33.8144 15.014C33.4381 14.6528 33.1348 14.224 32.9208 13.7504C32.6979 13.2502 32.5863 12.7083 32.5936 12.1617C32.5863 11.6153 32.6979 11.0737 32.9208 10.5736C33.1343 10.0996 33.4372 9.67019 33.8134 9.30842C34.1895 8.95369 34.6281 8.66998 35.1073 8.47119C35.6022 8.26729 36.1329 8.16235 36.6689 8.16235C37.2049 8.16235 37.7357 8.26729 38.2305 8.47119C38.7098 8.66981 39.1484 8.95356 39.5245 9.30842C39.9007 9.67015 40.2036 10.0995 40.4171 10.5736C40.6407 11.0735 40.753 11.6151 40.7463 12.1617V12.1767C40.7552 12.7233 40.6435 13.2653 40.4191 13.7649C40.2059 14.2347 39.9028 14.6592 39.5265 15.0151C39.1506 15.3703 38.7121 15.6545 38.2326 15.8533C37.7382 16.0597 37.2066 16.1649 36.67 16.1624ZM36.6982 10.1767C36.4088 10.1724 36.1212 10.2222 35.8505 10.3235C35.5981 10.4172 35.3659 10.5575 35.1664 10.7369C34.9725 10.9112 34.8201 11.1258 34.7201 11.3653C34.6116 11.6223 34.5561 11.8982 34.5571 12.1767V12.2062C34.5565 12.484 34.612 12.7591 34.7201 13.0155C34.8197 13.2563 34.9722 13.4722 35.1664 13.6476C35.3658 13.8272 35.5979 13.9675 35.8505 14.061C36.1212 14.1624 36.4088 14.2122 36.6982 14.2078C37.2529 14.2189 37.7907 14.0189 38.2007 13.6492C38.3947 13.4703 38.5512 13.2555 38.6616 13.0171C38.782 12.764 38.8431 12.4874 38.8403 12.2078C38.8432 11.9234 38.7821 11.642 38.6616 11.3839C38.5521 11.1406 38.3955 10.9208 38.2007 10.7369C38.0044 10.5605 37.7777 10.4204 37.5312 10.3235C37.2659 10.2214 36.9829 10.1715 36.6982 10.1767Z" fill="black"/>
<path d="M45.889 16.1624C45.3786 16.1618 44.8732 16.0619 44.4017 15.8683C43.9336 15.6795 43.5088 15.3993 43.1527 15.0445C42.7905 14.6808 42.503 14.2512 42.306 13.7794C42.0924 13.2666 41.9857 12.7163 41.9925 12.1617L42.0071 12.2062C42.0007 11.6516 42.1073 11.1014 42.3207 10.5885C42.5178 10.1166 42.8053 9.68689 43.1673 9.32288C43.5206 8.9715 43.9399 8.69183 44.4017 8.4996C44.863 8.30635 45.3586 8.20638 45.8596 8.2055C46.3606 8.19019 46.8589 8.28571 47.3181 8.48512C47.6589 8.62311 47.9419 8.87241 48.1199 9.19159V5.26379H50.0095V15.9712H48.1804V15.1773C48.0006 15.5009 47.711 15.751 47.3621 15.8833C46.8976 16.082 46.3948 16.1772 45.889 16.1624ZM46.1119 10.2061C45.808 10.1993 45.5054 10.2491 45.2202 10.3529C44.9628 10.4456 44.7257 10.5859 44.5214 10.7663C44.3269 10.9418 44.1744 11.1579 44.0751 11.3989C43.9668 11.6551 43.9112 11.9301 43.9115 12.2077V12.2227C43.9111 12.5004 43.9667 12.7754 44.0751 13.0316C44.1744 13.2726 44.3269 13.4887 44.5214 13.6641C44.7258 13.8443 44.9629 13.9846 45.2202 14.0776C45.5054 14.1811 45.808 14.2309 46.1119 14.2243C46.5515 14.2305 46.9857 14.1295 47.3764 13.9303C47.6976 13.7886 47.957 13.5375 48.107 13.2227V11.2072C47.9566 10.8924 47.6972 10.6413 47.3755 10.4997C46.9848 10.3008 46.551 10.2 46.1119 10.2061Z" fill="black"/>
<path d="M55.6452 16.1639C55.1349 16.1635 54.6294 16.0636 54.1578 15.8699C53.6902 15.6809 53.2652 15.4007 52.9089 15.0461C52.5467 14.6818 52.2593 14.2516 52.0621 13.7793C51.8512 13.2737 51.7449 12.7314 51.7489 12.1844C51.7445 11.6369 51.8512 11.0942 52.0621 10.588C52.2593 10.1163 52.5467 9.68664 52.9084 9.32285C53.2648 8.96799 53.6897 8.68785 54.1578 8.49904C54.6294 8.30535 55.1349 8.20543 55.6452 8.20499C56.1511 8.19016 56.6539 8.2856 57.1179 8.48457C57.4668 8.6167 57.7564 8.86688 57.9357 9.19055V8.39621H59.7648V15.9706H57.9357V15.1763C57.7564 15.5 57.4663 15.7502 57.1179 15.8828C56.6539 16.0821 56.1511 16.1781 55.6452 16.1639ZM55.8543 10.2071C55.5504 10.2004 55.2479 10.2504 54.9627 10.3544C54.7055 10.4472 54.4679 10.5875 54.2637 10.7679C54.0692 10.9433 53.9166 11.1594 53.8174 11.4004C53.7088 11.6566 53.6532 11.9316 53.6537 12.2093V12.2237C53.6532 12.5016 53.7088 12.7767 53.8174 13.0331C53.9166 13.274 54.0692 13.4901 54.2637 13.6657C54.4683 13.8458 54.7055 13.9861 54.9627 14.0791C55.2479 14.1827 55.5504 14.2325 55.8543 14.2259C56.2939 14.2319 56.7282 14.1307 57.1184 13.9313C57.4401 13.7875 57.6986 13.5344 57.8472 13.2181V11.2025C57.6963 10.89 57.4378 10.6408 57.1179 10.4996C56.7273 10.3001 56.293 10.1989 55.8534 10.2051L55.8543 10.2071Z" fill="black"/>
<path d="M63.1708 8.36731L65.1784 13.0739L67.1855 8.36731H69.2855L64.7023 19.0747H62.6347L64.1964 15.4709L61.1326 8.36731H63.1708Z" fill="black"/>
</g>
<defs>
<clipPath id="clip0_2139_8069">
<rect width="101" height="22" fill="white" transform="translate(0.5)"/>
</clipPath>
</defs>
</svg>
