<svg width="56" height="18" viewBox="0 0 56 18" fill="none" xmlns="http://www.w3.org/2000/svg">
<g clip-path="url(#clip0_2139_8028)">
<path d="M3.80247 14.6471C3.80927 15.0398 3.75564 15.4312 3.64346 15.8076C3.54704 16.1396 3.38219 16.4479 3.15951 16.7125C2.93852 16.9659 2.6616 17.1646 2.35062 17.2928C1.98356 17.4385 1.59092 17.509 1.19605 17.5C0.999593 17.5024 0.803214 17.4909 0.608395 17.4655C0.403688 17.4432 0.200517 17.4086 0 17.3618L0.0967901 16.3326C0.0991217 16.2901 0.110141 16.2486 0.129167 16.2106C0.148194 16.1726 0.174822 16.1389 0.207407 16.1115C0.280855 16.0502 0.374451 16.0182 0.470123 16.0217C0.544963 16.0246 0.619212 16.0362 0.691358 16.0563C0.797201 16.0646 0.903539 16.0646 1.00938 16.0563C1.16187 16.0569 1.31351 16.0336 1.45877 15.9872C1.58532 15.9379 1.69551 15.8542 1.77679 15.7454C1.86726 15.6167 1.93075 15.471 1.96346 15.3171C2.01081 15.0901 2.03169 14.8583 2.02568 14.6264V9.76331H3.80247V14.6471Z" fill="black"/>
<path d="M13.9238 13.6247C13.9306 14.1518 13.8343 14.675 13.6404 15.1652C13.4529 15.6214 13.1781 16.0367 12.8315 16.3878C12.4761 16.7475 12.0501 17.0297 11.5801 17.2168C11.0632 17.4209 10.5112 17.5219 9.95545 17.5138C9.38721 17.5211 8.82319 17.4155 8.29619 17.203C7.83533 17.0167 7.41679 16.7394 7.06558 16.3878C6.71668 16.0306 6.44179 15.6081 6.25669 15.1445C5.87896 14.1498 5.87896 13.0513 6.25669 12.0567C6.44195 11.5952 6.71687 11.1749 7.06558 10.8202C7.41269 10.4586 7.83194 10.1738 8.29619 9.98435C9.34371 9.57895 10.505 9.57895 11.5525 9.98435C12.0216 10.1699 12.4476 10.4495 12.8043 10.8059C13.1611 11.1623 13.4409 11.588 13.6266 12.0567C13.8288 12.5545 13.9299 13.0875 13.9238 13.6247ZM12.1056 13.6247C12.1103 13.2785 12.0614 12.9336 11.9604 12.6024C11.876 12.3197 11.7323 12.0583 11.5387 11.8356C11.3506 11.6211 11.1134 11.4552 10.8473 11.3521C10.561 11.2314 10.2523 11.1726 9.94163 11.1794C9.62646 11.1727 9.31333 11.2315 9.02212 11.3521C8.75602 11.4552 8.51882 11.6211 8.33076 11.8356C8.13717 12.0583 7.99339 12.3197 7.90903 12.6024C7.71007 13.2789 7.71007 13.9983 7.90903 14.6747C7.99442 14.959 8.13804 15.2225 8.33076 15.4484C8.52099 15.6588 8.75771 15.822 9.02212 15.925C9.31479 16.04 9.62721 16.0963 9.94163 16.0908C10.2516 16.0965 10.5595 16.0401 10.8473 15.925C11.1117 15.822 11.3484 15.6588 11.5387 15.4484C11.7314 15.2225 11.875 14.959 11.9604 14.6747C12.0647 14.3347 12.1137 13.9802 12.1056 13.6247Z" fill="black"/>
<path d="M19.3581 16.0148C19.5758 16.0178 19.7919 15.9779 19.9941 15.8974C20.1763 15.8212 20.3392 15.7056 20.4712 15.5589C20.6063 15.4017 20.7075 15.2182 20.7685 15.0201C20.8409 14.7922 20.8782 14.5546 20.8791 14.3155V9.76331H22.6559V14.3155C22.6614 14.7566 22.584 15.1948 22.4277 15.6073C22.2828 15.9882 22.059 16.3342 21.7709 16.6227C21.4793 16.922 21.1285 17.1573 20.7408 17.3135C19.8461 17.6295 18.8701 17.6295 17.9754 17.3135C17.5847 17.159 17.2313 16.9236 16.9383 16.6227C16.6525 16.3338 16.431 15.9878 16.2885 15.6073C16.1369 15.1939 16.0642 14.7557 16.0741 14.3155V9.76331H17.8509V14.3155C17.857 14.5508 17.899 14.7837 17.9754 15.0063C18.0348 15.2051 18.1362 15.3888 18.2727 15.5451C18.4038 15.6945 18.5668 15.8125 18.7497 15.8905C18.943 15.9694 19.1493 16.0115 19.3581 16.0148Z" fill="black"/>
<path d="M31.5052 17.4171H29.8943C29.7674 17.4246 29.6409 17.3969 29.5286 17.3372C29.4164 17.2775 29.3229 17.188 29.2582 17.0786L27.9861 14.8612C27.9359 14.7779 27.8673 14.707 27.7857 14.654C27.6883 14.6015 27.578 14.5776 27.4676 14.5849H27.0182V17.4171H25.2415V9.7633H27.7303C28.1969 9.75886 28.662 9.81694 29.1131 9.93599C29.4598 10.0295 29.7843 10.1915 30.0671 10.4126C30.3027 10.5934 30.4883 10.8311 30.6064 11.1034C30.7247 11.3903 30.7835 11.6981 30.7792 12.0083C30.7793 12.2425 30.7444 12.4753 30.6755 12.6991C30.6114 12.9158 30.5134 13.1209 30.3852 13.307C30.2514 13.4995 30.0881 13.6697 29.9012 13.8112C29.7015 13.9632 29.4801 14.0843 29.2444 14.1704C29.3601 14.2354 29.469 14.3117 29.5694 14.3984C29.6751 14.4871 29.7661 14.5921 29.839 14.7093L31.5052 17.4171ZM27.7303 13.3622C27.9414 13.3681 28.1518 13.3377 28.3526 13.2724C28.5077 13.2181 28.6492 13.1309 28.7674 13.0169C28.875 12.9108 28.9556 12.7805 29.0024 12.6369C29.0529 12.4855 29.0786 12.3268 29.0785 12.1672C29.0867 12.0194 29.0611 11.8716 29.0036 11.7352C28.9461 11.5987 28.8582 11.4771 28.7466 11.3797C28.4539 11.1643 28.0924 11.0636 27.7303 11.0965H27.039V13.3622H27.7303Z" fill="black"/>
<path d="M40.0365 9.76331V17.4171H39.1101C38.991 17.4217 38.8725 17.398 38.7644 17.348C38.6563 17.2937 38.5618 17.2158 38.4879 17.1201L34.879 12.5609C34.879 12.6991 34.879 12.8304 34.879 12.9547C34.879 13.079 34.879 13.2034 34.879 13.3139V17.4171H33.3511V9.76331H34.2844H34.478C34.5284 9.76884 34.5775 9.78285 34.6232 9.80475C34.6676 9.82083 34.7078 9.84682 34.7407 9.88074C34.7894 9.92443 34.8334 9.97304 34.8721 10.0258L38.5155 14.6195C38.5155 14.4744 38.5155 14.3293 38.4809 14.1912C38.4464 14.053 38.4809 13.9218 38.4809 13.7974V9.76331H40.0365Z" fill="black"/>
<path d="M49.5841 17.4171H48.2014C48.0677 17.4261 47.9353 17.3869 47.8281 17.3066C47.7314 17.2371 47.6569 17.1412 47.6137 17.0303L47.1644 15.6971H44.2468L43.7974 17.0303C43.7518 17.1359 43.6805 17.2285 43.59 17.2997C43.4817 17.3784 43.3506 17.4196 43.2167 17.4171H41.834L44.7999 9.76331H46.6182L49.5841 17.4171ZM46.7634 14.4882L46.072 12.4159C46.0167 12.2846 45.9614 12.1258 45.9061 11.9462C45.8508 11.7666 45.7886 11.5731 45.7263 11.359C45.671 11.5731 45.6157 11.7735 45.5604 11.9531C45.5051 12.1327 45.4429 12.2915 45.3876 12.4297L44.6962 14.502L46.7634 14.4882Z" fill="black"/>
<path d="M56 16.001V17.3826H51.3887V9.76331H53.1585V15.9803L56 16.001Z" fill="black"/>
<path d="M7.60487 0.5V8.14689H6.67845C6.56016 8.15023 6.44246 8.12906 6.33277 8.08472C6.22588 8.02855 6.13173 7.95095 6.05622 7.85677L2.44733 3.2631C2.44733 3.40126 2.44733 3.53251 2.44733 3.66375C2.44733 3.795 2.44733 3.91243 2.44733 4.02296V8.11926H0.919434V0.5H2.074C2.12371 0.508735 2.17237 0.522626 2.21919 0.541447C2.2625 0.562694 2.30217 0.590673 2.33672 0.62434C2.38383 0.667115 2.42773 0.713291 2.46808 0.762495L6.08388 5.36997C6.08388 5.218 6.08388 5.07985 6.04931 4.94169C6.01474 4.80353 6.04931 4.67229 6.04931 4.54795V0.5H7.60487Z" fill="black"/>
<path d="M12.0711 1.88155V3.64994H14.477V4.96241H12.0711V6.78606H15.2098V8.16761H10.2874V0.5H15.2098V1.88155H12.0711Z" fill="black"/>
<path d="M23.0085 1.88155H20.8515V8.09854H19.0747V1.88155H16.9246V0.5H23.0085V1.88155Z" fill="black"/>
<path d="M27.8065 0.499966C28.2748 0.489607 28.7417 0.554921 29.1892 0.693383C29.5405 0.790922 29.8678 0.960283 30.1502 1.19074C30.3947 1.40822 30.5842 1.68044 30.7033 1.98513C30.8271 2.29954 30.8882 2.63511 30.883 2.97294C30.8859 3.33082 30.825 3.68634 30.7033 4.02292C30.5832 4.3365 30.3886 4.61623 30.1364 4.83804C29.8594 5.08215 29.5344 5.26569 29.1823 5.37684C28.7338 5.5099 28.2673 5.57282 27.7996 5.56335H26.8801V8.11923H25.1033V0.499966H27.8065ZM27.8065 4.25088C27.9839 4.27161 28.1637 4.25596 28.3349 4.20489C28.5061 4.15382 28.665 4.0684 28.802 3.95385C29.0198 3.69643 29.1289 3.3645 29.1062 3.02821C29.1173 2.85719 29.0937 2.6857 29.0371 2.52394C28.9865 2.38251 28.9037 2.2548 28.7951 2.15092C28.6801 2.03289 28.541 1.941 28.3872 1.88152C28.1993 1.82302 28.0033 1.79503 27.8065 1.79862H26.8801V4.25088H27.8065Z" fill="black"/>
<path d="M34.7752 1.88155V3.64994H37.1812V4.96241H34.7752V6.78606H37.914V8.16761H32.9846V0.5H37.914V1.88155H34.7752Z" fill="black"/>
<path d="M47.0745 8.14689H45.6918C45.5595 8.15245 45.4289 8.1162 45.3185 8.04328C45.2231 7.97248 45.149 7.87691 45.1041 7.76696L44.6617 6.43377H41.7441L41.2948 7.76696C41.2536 7.87333 41.1814 7.96481 41.0873 8.02946C40.9814 8.11276 40.8486 8.15452 40.714 8.14689H39.3313L42.2972 0.5H44.1155L47.0745 8.14689ZM44.2469 5.22491L43.5555 3.15258L43.3896 2.68285L43.2098 2.09569C43.1655 2.29661 43.1101 2.49493 43.0439 2.68976L42.8641 3.13876L42.1728 5.21109L44.2469 5.22491Z" fill="black"/>
<path d="M50.6557 3.59471H50.9392C51.0464 3.60507 51.1544 3.58837 51.2535 3.54612C51.3526 3.50388 51.4394 3.43745 51.5061 3.35294L53.2345 0.852327C53.3199 0.73364 53.4341 0.638567 53.5663 0.576017C53.703 0.52343 53.8485 0.497632 53.995 0.500031H55.5436L53.269 3.59471C53.1339 3.78658 52.9565 3.94492 52.7505 4.05753C52.8817 4.10631 53.0051 4.17378 53.1169 4.25785C53.2336 4.35861 53.3359 4.47481 53.4211 4.60324L55.7303 8.14692H54.1471C54.0597 8.15525 53.9717 8.15525 53.8843 8.14692C53.8196 8.1346 53.7568 8.11369 53.6977 8.08475C53.6461 8.05819 53.5994 8.02316 53.5594 7.98114C53.5175 7.93931 53.4804 7.89297 53.4488 7.84298L51.7135 5.16277C51.6584 5.07111 51.5763 4.99873 51.4784 4.95554C51.3524 4.90918 51.2185 4.88805 51.0843 4.89337H50.6557V8.14692H48.8789V0.500031H50.6557V3.59471Z" fill="black"/>
</g>
<defs>
<clipPath id="clip0_2139_8028">
<rect width="56" height="17" fill="white" transform="translate(0 0.5)"/>
</clipPath>
</defs>
</svg>
