<svg width="21" height="13" viewBox="0 0 21 13" fill="none" xmlns="http://www.w3.org/2000/svg">
<path d="M1.5 5.75C1.08579 5.75 0.75 6.08579 0.75 6.5C0.75 6.91421 1.08579 7.25 1.5 7.25V5.75ZM20.0303 7.03033C20.3232 6.73744 20.3232 6.26256 20.0303 5.96967L15.2574 1.1967C14.9645 0.903806 14.4896 0.903806 14.1967 1.1967C13.9038 1.48959 13.9038 1.96447 14.1967 2.25736L18.4393 6.5L14.1967 10.7426C13.9038 11.0355 13.9038 11.5104 14.1967 11.8033C14.4896 12.0962 14.9645 12.0962 15.2574 11.8033L20.0303 7.03033ZM1.5 7.25H19.5V5.75H1.5V7.25Z" fill="#999EBF"/>
</svg>
