<svg width="22" height="22" viewBox="0 0 22 22" fill="none" xmlns="http://www.w3.org/2000/svg">
<g clip-path="url(#clip0_2982_8496)">
<path d="M18.8996 2.43262H3.80487C3.44092 2.43262 3.09189 2.57719 2.83454 2.83454C2.57719 3.09189 2.43262 3.44092 2.43262 3.80487V18.8996C2.43262 19.2636 2.57719 19.6126 2.83454 19.8699C3.09189 20.1273 3.44092 20.2719 3.80487 20.2719H18.8996C19.2636 20.2719 19.6126 20.1273 19.8699 19.8699C20.1273 19.6126 20.2719 19.2636 20.2719 18.8996V3.80487C20.2719 3.44092 20.1273 3.09189 19.8699 2.83454C19.6126 2.57719 19.2636 2.43262 18.8996 2.43262ZM8.60774 15.469C8.60774 15.651 8.53545 15.8255 8.40678 15.9542C8.27811 16.0828 8.10359 16.1551 7.92162 16.1551C7.73964 16.1551 7.56512 16.0828 7.43645 15.9542C7.30778 15.8255 7.23549 15.651 7.23549 15.469V9.97999C7.23549 9.79802 7.30778 9.6235 7.43645 9.49483C7.56512 9.36615 7.73964 9.29386 7.92162 9.29386C8.10359 9.29386 8.27811 9.36615 8.40678 9.49483C8.53545 9.6235 8.60774 9.79802 8.60774 9.97999V15.469ZM7.92162 8.60774C7.71806 8.60774 7.51908 8.54738 7.34983 8.43429C7.18058 8.3212 7.04867 8.16046 6.97077 7.97241C6.89287 7.78435 6.87249 7.57741 6.9122 7.37777C6.95191 7.17813 7.04994 6.99474 7.19387 6.85081C7.3378 6.70687 7.52119 6.60885 7.72083 6.56914C7.92047 6.52943 8.12741 6.54981 8.31547 6.62771C8.50353 6.7056 8.66426 6.83752 8.77735 7.00677C8.89044 7.17602 8.9508 7.375 8.9508 7.57855C8.9508 7.85151 8.84237 8.11329 8.64936 8.3063C8.45635 8.49931 8.19457 8.60774 7.92162 8.60774ZM16.1551 15.469C16.1551 15.651 16.0828 15.8255 15.9542 15.9542C15.8255 16.0828 15.651 16.1551 15.469 16.1551C15.287 16.1551 15.1125 16.0828 14.9838 15.9542C14.8552 15.8255 14.7829 15.651 14.7829 15.469V12.3814C14.7829 11.9265 14.6021 11.4902 14.2805 11.1685C13.9588 10.8468 13.5225 10.6661 13.0676 10.6661C12.6126 10.6661 12.1763 10.8468 11.8546 11.1685C11.533 11.4902 11.3522 11.9265 11.3522 12.3814V15.469C11.3522 15.651 11.28 15.8255 11.1513 15.9542C11.0226 16.0828 10.8481 16.1551 10.6661 16.1551C10.4841 16.1551 10.3096 16.0828 10.181 15.9542C10.0523 15.8255 9.97999 15.651 9.97999 15.469V9.97999C9.98084 9.81193 10.0433 9.65002 10.1556 9.52499C10.268 9.39995 10.4222 9.32049 10.5892 9.30166C10.7563 9.28283 10.9244 9.32596 11.0617 9.42285C11.199 9.51975 11.296 9.66367 11.3342 9.82733C11.7984 9.51246 12.3395 9.32997 12.8996 9.29946C13.4596 9.26894 14.0174 9.39156 14.513 9.65413C15.0086 9.91671 15.4234 10.3093 15.7127 10.7898C16.002 11.2703 16.1549 11.8206 16.1551 12.3814V15.469Z" fill="#2936A3"/>
</g>
<defs>
<clipPath id="clip0_2982_8496">
<rect width="22" height="22" fill="white"/>
</clipPath>
</defs>
</svg>
