<svg width="25" height="25" viewBox="0 0 25 25" fill="none" xmlns="http://www.w3.org/2000/svg">
<g clip-path="url(#clip0_2952_13355)">
<path fill-rule="evenodd" clip-rule="evenodd" d="M6.25 12.5C9.70177 12.5 12.5 9.70177 12.5 6.25C12.5 9.70177 15.2983 12.5 18.75 12.5C15.2983 12.5 12.5 15.2983 12.5 18.75C12.5 15.2983 9.70177 12.5 6.25 12.5ZM6.25 12.5C2.79822 12.5 0 15.2983 0 18.75C0 22.2017 2.79822 25 6.25 25C9.70177 25 12.5 22.2017 12.5 18.75C12.5 22.2017 15.2983 25 18.75 25C22.2017 25 25 22.2017 25 18.75C25 15.2983 22.2017 12.5 18.75 12.5C22.2017 12.5 25 9.70177 25 6.25C25 2.79822 22.2017 0 18.75 0C15.2983 0 12.5 2.79822 12.5 6.25C12.5 2.79822 9.70177 0 6.25 0C2.79822 0 0 2.79822 0 6.25C0 9.70177 2.79822 12.5 6.25 12.5Z" fill="#2936A3"/>
</g>
<defs>
<clipPath id="clip0_2952_13355">
<rect width="25" height="25" fill="white"/>
</clipPath>
</defs>
</svg>
