<svg width="23" height="22" viewBox="0 0 23 22" fill="none" xmlns="http://www.w3.org/2000/svg">
<g clip-path="url(#clip0_2982_8493)">
<path d="M20.745 10.9774C20.7421 13.2643 19.903 15.4711 18.3859 17.1823C16.8688 18.8935 14.7783 19.9909 12.5082 20.2677C12.4577 20.2734 12.4065 20.2684 12.3581 20.2529C12.3096 20.2374 12.265 20.2118 12.2272 20.1778C12.1893 20.1438 12.1591 20.1021 12.1386 20.0556C12.118 20.0091 12.1075 19.9587 12.1079 19.9078V13.1367H14.2671C14.3658 13.1369 14.4635 13.1168 14.5541 13.0777C14.6447 13.0386 14.7262 12.9813 14.7937 12.9093C14.8612 12.8373 14.9132 12.7522 14.9464 12.6593C14.9797 12.5664 14.9934 12.4677 14.9869 12.3692C14.971 12.1842 14.8856 12.012 14.7479 11.8873C14.6102 11.7626 14.4304 11.6947 14.2447 11.6972H12.1079V9.53788C12.1079 9.15609 12.2595 8.78994 12.5295 8.51998C12.7995 8.25002 13.1656 8.09835 13.5474 8.09835H14.9869C15.0856 8.09857 15.1832 8.0785 15.2738 8.03938C15.3644 8.00027 15.446 7.94294 15.5135 7.87097C15.581 7.799 15.633 7.71392 15.6662 7.62102C15.6994 7.52811 15.7132 7.42936 15.7067 7.33091C15.6908 7.14551 15.6051 6.97305 15.467 6.84832C15.3289 6.72359 15.1487 6.65587 14.9626 6.65883H13.5474C12.7838 6.65883 12.0515 6.96216 11.5116 7.50209C10.9717 8.04201 10.6683 8.77431 10.6683 9.53788V11.6972H8.50906C8.41039 11.6969 8.31273 11.717 8.22214 11.7561C8.13156 11.7952 8.04998 11.8526 7.98248 11.9245C7.91498 11.9965 7.863 12.0816 7.82977 12.1745C7.79654 12.2674 7.78276 12.3662 7.7893 12.4646C7.80522 12.65 7.89086 12.8225 8.02895 12.9472C8.16704 13.0719 8.34729 13.1396 8.53335 13.1367H10.6683V19.9096C10.6687 19.9604 10.6582 20.0107 10.6377 20.0572C10.6172 20.1036 10.5871 20.1452 10.5493 20.1792C10.5116 20.2132 10.4671 20.2388 10.4188 20.2544C10.3704 20.2699 10.3194 20.2751 10.2689 20.2695C7.93807 19.9857 5.79877 18.8371 4.27441 17.0512C2.75006 15.2652 1.95175 12.9721 2.03751 10.6256C2.21745 5.76723 6.15274 1.81754 11.0147 1.6286C12.2735 1.57984 13.5292 1.78547 14.7066 2.23317C15.8841 2.68087 16.9592 3.36146 17.8675 4.23422C18.7759 5.10699 19.4989 6.15399 19.9933 7.31262C20.4878 8.47125 20.7434 9.71769 20.745 10.9774Z" fill="#2936A3"/>
</g>
<defs>
<clipPath id="clip0_2982_8493">
<rect width="22" height="22" fill="white" transform="translate(0.40918)"/>
</clipPath>
</defs>
</svg>
