<svg width="16" height="18" viewBox="0 0 16 18" fill="none" xmlns="http://www.w3.org/2000/svg">
<path d="M15.7656 16.2286C15.8399 16.3064 15.8988 16.3987 15.9391 16.5003C15.9793 16.6018 16 16.7107 16 16.8207C16 16.9306 15.9793 17.0395 15.9391 17.1411C15.8988 17.2427 15.8399 17.335 15.7656 17.4127C15.6912 17.4905 15.603 17.5521 15.5059 17.5942C15.4088 17.6363 15.3047 17.6579 15.1996 17.6579C15.0945 17.6579 14.9904 17.6363 14.8933 17.5942C14.7962 17.5521 14.708 17.4905 14.6336 17.4127L8 10.4725L1.36637 17.4127C1.21626 17.5697 1.01268 17.6579 0.8004 17.6579C0.588121 17.6579 0.384536 17.5697 0.234432 17.4127C0.0843276 17.2557 4.18453e-09 17.0427 0 16.8207C-4.18453e-09 16.5986 0.0843276 16.3856 0.234432 16.2286L6.86906 9.28942L0.234432 2.35021C0.0843276 2.19319 0 1.98023 0 1.75817C0 1.53611 0.0843276 1.32315 0.234432 1.16613C0.384536 1.00911 0.588121 0.920898 0.8004 0.920898C1.01268 0.920898 1.21626 1.00911 1.36637 1.16613L8 8.10639L14.6336 1.16613C14.7837 1.00911 14.9873 0.920898 15.1996 0.920898C15.4119 0.920898 15.6155 1.00911 15.7656 1.16613C15.9157 1.32315 16 1.53611 16 1.75817C16 1.98023 15.9157 2.19319 15.7656 2.35021L9.13094 9.28942L15.7656 16.2286Z" fill="#070414"/>
</svg>
