<svg width="45" height="46" viewBox="0 0 45 46" fill="none" xmlns="http://www.w3.org/2000/svg">
<circle cx="22.5" cy="23" r="22" fill="#2936A3" stroke="#2936A3"/>
<path d="M22.7416 16.6315C22.7827 16.0496 22.9706 15.4884 23.2871 15.0029C23.6035 14.5174 24.0377 14.1241 24.5472 13.8614C25.0566 13.5987 25.624 13.4756 26.1939 13.504C26.7638 13.5325 27.3168 13.7115 27.7988 14.0238C27.8539 14.0606 27.8983 14.112 27.9273 14.1725C27.9563 14.2329 27.9688 14.3003 27.9636 14.3674C27.9583 14.4345 27.9355 14.499 27.8975 14.554C27.8594 14.609 27.8076 14.6525 27.7475 14.6799C26.9095 15.0654 26.1983 15.6901 25.6991 16.4789C25.1999 17.2678 24.934 18.1872 24.9333 19.1268C24.9333 19.2364 24.9333 19.3461 24.9443 19.4539C24.9494 19.522 24.9361 19.5903 24.906 19.6513C24.8759 19.7123 24.83 19.7637 24.7734 19.8C24.7168 19.8363 24.6516 19.856 24.5847 19.8572C24.5179 19.8583 24.4521 19.8407 24.3943 19.8064C23.8541 19.4904 23.4123 19.0246 23.1198 18.4629C22.8274 17.9011 22.6963 17.2662 22.7416 16.6315ZM33 26.3079C33.0013 26.7364 32.8852 27.1567 32.6649 27.5212C32.4445 27.8857 32.1287 28.1798 31.7533 28.3701L31.713 28.3889L28.1536 29.9393C28.1184 29.9551 28.0819 29.9677 28.0445 29.9768L22.1778 31.4766C22.1197 31.4919 22.06 31.4997 22 31.5H12.4667C12.0777 31.5 11.7046 31.342 11.4296 31.0607C11.1545 30.7795 11 30.398 11 30.0002V26.2508C11 25.853 11.1545 25.4715 11.4296 25.1902C11.7046 24.909 12.0777 24.751 12.4667 24.751H15.0966L17.1701 22.6297C17.442 22.3504 17.7653 22.129 18.1213 21.9783C18.4774 21.8275 18.8591 21.7504 19.2445 21.7514H23.8333C24.2207 21.7514 24.603 21.841 24.9517 22.0135C25.3004 22.1861 25.6063 22.4371 25.8466 22.7478C26.0869 23.0584 26.2554 23.4207 26.3393 23.8074C26.4232 24.1941 26.4205 24.5952 26.3312 24.9806L30.1666 24.0789C30.5005 23.9885 30.8502 23.9777 31.1888 24.0473C31.5274 24.1169 31.8459 24.2651 32.1196 24.4805C32.3934 24.6958 32.6151 24.9726 32.7678 25.2895C32.9204 25.6063 32.9998 25.9547 33 26.3079ZM31.5333 26.3079C31.5332 26.1839 31.5052 26.0616 31.4513 25.9505C31.3975 25.8394 31.3194 25.7425 31.2231 25.6672C31.1267 25.592 31.0147 25.5405 30.8957 25.5166C30.7767 25.4928 30.6539 25.4974 30.5369 25.5299L30.5085 25.5374L24.3668 26.9819C24.313 26.9942 24.2579 27.0005 24.2027 27.0006H21.2667C21.0722 27.0006 20.8856 26.9216 20.7481 26.781C20.6106 26.6404 20.5333 26.4496 20.5333 26.2508C20.5333 26.0519 20.6106 25.8611 20.7481 25.7205C20.8856 25.5799 21.0722 25.5009 21.2667 25.5009H23.8333C24.1251 25.5009 24.4049 25.3823 24.6111 25.1714C24.8174 24.9605 24.9333 24.6743 24.9333 24.376C24.9333 24.0777 24.8174 23.7916 24.6111 23.5806C24.4049 23.3697 24.1251 23.2512 23.8333 23.2512H19.2445C19.0518 23.2506 18.8609 23.2891 18.683 23.3646C18.505 23.44 18.3434 23.5509 18.2077 23.6908L16.1333 25.8111V30.0002H21.9083L27.6311 28.537L31.1144 27.0203C31.2412 26.952 31.3473 26.8495 31.4211 26.7239C31.495 26.5983 31.5338 26.4545 31.5333 26.3079ZM26.4 19.1268C26.4 19.7942 26.5935 20.4466 26.9561 21.0016C27.3188 21.5565 27.8341 21.989 28.4371 22.2444C29.0401 22.4998 29.7037 22.5667 30.3438 22.4365C30.9839 22.3062 31.5719 21.9849 32.0334 21.5129C32.495 21.041 32.8092 20.4397 32.9366 19.7851C33.0639 19.1305 32.9986 18.452 32.7488 17.8354C32.499 17.2188 32.0761 16.6918 31.5334 16.321C30.9907 15.9502 30.3527 15.7523 29.7 15.7523C28.8248 15.7523 27.9854 16.1078 27.3665 16.7406C26.7477 17.3735 26.4 18.2318 26.4 19.1268Z" fill="white"/>
</svg>
