<svg width="45" height="45" viewBox="0 0 45 45" fill="none" xmlns="http://www.w3.org/2000/svg">
<circle cx="22.5" cy="22.5" r="22" fill="#2936A3" stroke="#2936A3"/>
<path d="M32 19.5764C32.0011 20.6701 31.7294 21.7468 31.2095 22.7091C30.6897 23.6714 29.938 24.4888 29.0227 25.0873C28.1073 25.6859 27.0571 26.0467 25.9672 26.137C24.8773 26.2274 23.782 26.0445 22.7806 25.6049L18.0256 31.1054C18.0147 31.1182 18.0019 31.1319 17.99 31.1438C17.4418 31.692 16.6983 32 15.9231 32C15.1478 32 14.4043 31.692 13.8561 31.1438C13.308 30.5956 13 29.852 13 29.0768C13 28.3015 13.308 27.5579 13.8561 27.0097C13.8689 26.9978 13.8817 26.985 13.8954 26.9741L19.3957 22.2198C18.9029 21.0925 18.7359 19.8496 18.9135 18.6322C19.0912 17.4147 19.6065 16.2714 20.401 15.332C21.1954 14.3926 22.2372 13.6946 23.4082 13.3173C24.5791 12.9399 25.8324 12.8983 27.0259 13.1971C27.1489 13.228 27.2618 13.2903 27.3534 13.378C27.445 13.4657 27.5123 13.5757 27.5485 13.6973C27.5847 13.8188 27.5886 13.9477 27.5599 14.0713C27.5312 14.1948 27.4709 14.3088 27.3848 14.4019L23.9625 18.1149L24.4794 20.5218L26.8852 21.0378L30.598 17.6107C30.6911 17.5246 30.8051 17.4643 30.9286 17.4356C31.0522 17.4069 31.181 17.4108 31.3026 17.447C31.4241 17.4833 31.5342 17.5505 31.6219 17.6421C31.7096 17.7338 31.7719 17.8467 31.8027 17.9697C31.9338 18.4952 32.0001 19.0348 32 19.5764Z" fill="white"/>
</svg>
