<svg width="28" height="28" viewBox="0 0 28 28" fill="none" xmlns="http://www.w3.org/2000/svg">
<g clip-path="url(#clip0_1203_7437)">
<path fill-rule="evenodd" clip-rule="evenodd" d="M7 14C10.866 14 14 10.866 14 7C14 10.866 17.134 14 21 14C17.134 14 14 17.134 14 21C14 17.134 10.866 14 7 14ZM7 14C3.13401 14 0 17.134 0 21C0 24.866 3.13401 28 7 28C10.866 28 14 24.866 14 21C14 24.866 17.134 28 21 28C24.866 28 28 24.866 28 21C28 17.134 24.866 14 21 14C24.866 14 28 10.866 28 7C28 3.13401 24.866 0 21 0C17.134 0 14 3.13401 14 7C14 3.13401 10.866 0 7 0C3.13401 0 0 3.13401 0 7C0 10.866 3.13401 14 7 14Z" fill="#2936A3"/>
</g>
<defs>
<clipPath id="clip0_1203_7437">
<rect width="28" height="28" fill="white"/>
</clipPath>
</defs>
</svg>
