<svg width="39" height="39" viewBox="0 0 39 39" fill="none" xmlns="http://www.w3.org/2000/svg">
<g clip-path="url(#clip0_1163_5038)">
<path fill-rule="evenodd" clip-rule="evenodd" d="M20.8074 0.992188H18.108V12.944L13.6308 1.86247L11.128 2.87365L15.7213 14.2422L7.05112 5.5721L5.14243 7.48081L13.4524 15.7907L2.68331 11.0856L1.6026 13.5592L12.9975 18.5377H0.5625V21.2371H12.9975L1.60261 26.2156L2.68331 28.6891L13.4523 23.984L5.14243 32.2939L7.05112 34.2026L15.7213 25.5325L11.128 36.9012L13.6308 37.9122L18.108 26.8308V38.7826H20.8074V26.8308L25.2846 37.9122L27.7872 36.9012L23.1942 25.5325L31.8643 34.2026L33.7729 32.2939L25.463 23.984L36.2321 28.6891L37.3127 26.2156L25.9179 21.2371H38.3529V18.5377H25.9178L37.3127 13.5592L36.2321 11.0856L25.463 15.7907L33.7729 7.48079L31.8643 5.5721L23.1942 14.2422L27.7872 2.87365L25.2846 1.86247L20.8074 12.944V0.992188Z" fill="#2936A3"/>
</g>
<defs>
<clipPath id="clip0_1163_5038">
<rect width="37.7904" height="37.7904" fill="white" transform="translate(0.5625 0.992188)"/>
</clipPath>
</defs>
</svg>
