<svg width="28" height="28" viewBox="0 0 28 28" fill="none" xmlns="http://www.w3.org/2000/svg">
<g clip-path="url(#clip0_1320_5220)">
<path d="M23.3077 3H4.69231C4.24348 3 3.81303 3.1783 3.49567 3.49567C3.1783 3.81303 3 4.24348 3 4.69231V23.3077C3 23.7565 3.1783 24.187 3.49567 24.5043C3.81303 24.8217 4.24348 25 4.69231 25H23.3077C23.7565 25 24.187 24.8217 24.5043 24.5043C24.8217 24.187 25 23.7565 25 23.3077V4.69231C25 4.24348 24.8217 3.81303 24.5043 3.49567C24.187 3.1783 23.7565 3 23.3077 3ZM10.6154 19.0769C10.6154 19.3013 10.5262 19.5166 10.3676 19.6752C10.2089 19.8339 9.99364 19.9231 9.76923 19.9231C9.54482 19.9231 9.32959 19.8339 9.17091 19.6752C9.01223 19.5166 8.92308 19.3013 8.92308 19.0769V12.3077C8.92308 12.0833 9.01223 11.8681 9.17091 11.7094C9.32959 11.5507 9.54482 11.4615 9.76923 11.4615C9.99364 11.4615 10.2089 11.5507 10.3676 11.7094C10.5262 11.8681 10.6154 12.0833 10.6154 12.3077V19.0769ZM9.76923 10.6154C9.5182 10.6154 9.27281 10.5409 9.06408 10.4015C8.85536 10.262 8.69268 10.0638 8.59661 9.83187C8.50055 9.59995 8.47541 9.34475 8.52439 9.09854C8.57336 8.85233 8.69424 8.62618 8.87175 8.44867C9.04925 8.27117 9.27541 8.15028 9.52162 8.10131C9.76782 8.05234 10.023 8.07747 10.2549 8.17354C10.4869 8.2696 10.6851 8.43228 10.8246 8.64101C10.964 8.84973 11.0385 9.09512 11.0385 9.34615C11.0385 9.68278 10.9047 10.0056 10.6667 10.2436C10.4287 10.4817 10.1059 10.6154 9.76923 10.6154ZM19.9231 19.0769C19.9231 19.3013 19.8339 19.5166 19.6752 19.6752C19.5166 19.8339 19.3013 19.9231 19.0769 19.9231C18.8525 19.9231 18.6373 19.8339 18.4786 19.6752C18.3199 19.5166 18.2308 19.3013 18.2308 19.0769V15.2692C18.2308 14.7082 18.0079 14.1701 17.6112 13.7734C17.2145 13.3767 16.6764 13.1538 16.1154 13.1538C15.5543 13.1538 15.0163 13.3767 14.6196 13.7734C14.2229 14.1701 14 14.7082 14 15.2692V19.0769C14 19.3013 13.9109 19.5166 13.7522 19.6752C13.5935 19.8339 13.3783 19.9231 13.1538 19.9231C12.9294 19.9231 12.7142 19.8339 12.5555 19.6752C12.3968 19.5166 12.3077 19.3013 12.3077 19.0769V12.3077C12.3087 12.1004 12.3858 11.9008 12.5243 11.7466C12.6628 11.5924 12.8531 11.4944 13.059 11.4712C13.265 11.4479 13.4723 11.5011 13.6417 11.6206C13.811 11.7401 13.9306 11.9176 13.9778 12.1194C14.5502 11.7311 15.2176 11.5061 15.9082 11.4684C16.5989 11.4308 17.2868 11.582 17.898 11.9058C18.5092 12.2297 19.0206 12.7138 19.3774 13.3064C19.7342 13.899 19.9228 14.5775 19.9231 15.2692V19.0769Z" fill="#CDCDD0"/>
</g>
<defs>
<clipPath id="clip0_1320_5220">
<rect width="28" height="28" fill="white"/>
</clipPath>
</defs>
</svg>
