<svg width="359" height="251" viewBox="0 0 359 251" fill="none" xmlns="http://www.w3.org/2000/svg">
<path d="M254 130C254 148.709 247.602 166.855 235.869 181.427C224.136 195.999 207.772 206.121 189.494 210.112C171.217 214.103 152.123 211.725 135.383 203.37C118.644 195.016 105.264 181.189 97.4648 164.183C89.6658 147.178 87.9163 128.017 92.5068 109.88C97.0973 91.7431 107.752 75.7214 122.702 64.4738C137.652 53.2262 155.999 47.429 174.697 48.0444C193.396 48.6598 211.322 55.6507 225.5 67.857" stroke="url(#paint0_diamond_2402_7912)" stroke-opacity="0.5" stroke-width="9.7474" stroke-linecap="round"/>
<path d="M275.446 130C275.446 187.063 229.373 233.289 172.578 233.289C115.783 233.289 69.7107 187.063 69.7107 130C69.7107 72.9375 115.783 26.7107 172.578 26.7107C229.373 26.7107 275.446 72.9375 275.446 130Z" stroke="url(#paint1_diamond_2402_7912)" stroke-opacity="0.1" stroke-width="9.42132"/>
<circle cx="172.5" cy="130.5" r="120.285" stroke="#999EBF" stroke-opacity="0.35" stroke-width="0.429393" stroke-dasharray="2.54 2.54"/>
<circle cx="172.5" cy="130.5" r="120.285" stroke="url(#paint2_linear_2402_7912)" stroke-width="0.429393" stroke-dasharray="2.54 2.54"/>
<g filter="url(#filter0_d_2402_7912)">
<rect width="50" height="50" rx="25" transform="matrix(0.956728 -0.290985 0.291139 0.956681 11 157.549)" fill="white"/>
<g clip-path="url(#clip0_2402_7912)">
<path fill-rule="evenodd" clip-rule="evenodd" d="M37.2679 163.148C37.7011 163.016 38.1677 163.05 38.5768 163.243C38.9858 163.436 39.308 163.774 39.4804 164.191L39.5393 164.355L39.7155 164.934L43.7816 163.697C44.2292 163.562 44.7118 163.603 45.1294 163.812C45.547 164.021 45.8676 164.383 46.0247 164.822C46.1818 165.261 46.1634 165.744 45.9734 166.17C45.7834 166.597 45.4362 166.934 45.0039 167.113L44.839 167.172L40.7729 168.409L41.8303 171.883L42.9921 171.53C44.3573 171.114 45.8303 171.248 47.0963 171.902C48.3623 172.556 49.3209 173.678 49.7672 175.029C50.2134 176.38 50.1119 177.852 49.4843 179.13C48.8568 180.409 47.753 181.393 46.4088 181.872L46.1643 181.953L45.0026 182.306L45.1788 182.885C45.3143 183.331 45.2725 183.813 45.0619 184.23C44.8514 184.646 44.4882 184.967 44.0477 185.124C43.6073 185.281 43.1232 185.264 42.6959 185.075C42.2686 184.886 41.9307 184.54 41.7524 184.109L41.6935 183.945L41.5173 183.366L37.4512 184.603C37.0036 184.739 36.521 184.698 36.1034 184.488C35.6858 184.279 35.3652 183.917 35.2081 183.478C35.051 183.039 35.0693 182.556 35.2594 182.13C35.4494 181.703 35.7966 181.366 36.2289 181.187L36.3938 181.128L40.4599 179.892L39.4025 176.417L38.2407 176.771C36.8755 177.186 35.4025 177.052 34.1365 176.398C32.8704 175.745 31.9119 174.622 31.4656 173.272C31.0194 171.921 31.1209 170.449 31.7484 169.17C32.376 167.891 33.4798 166.907 34.824 166.428L35.0685 166.348L36.2302 165.994L36.054 165.415C35.9138 164.954 35.9629 164.457 36.1906 164.032C36.4182 163.606 36.8058 163.289 37.2679 163.148ZM44.0495 175.004L42.8877 175.357L43.9451 178.832L45.1069 178.478C45.5691 178.338 45.9566 178.02 46.1843 177.595C46.4119 177.17 46.461 176.672 46.3208 176.211C46.1806 175.75 45.8625 175.364 45.4366 175.138C45.0106 174.912 44.5117 174.863 44.0495 175.004ZM37.2877 169.469L36.1259 169.822C35.6637 169.963 35.2762 170.28 35.0485 170.706C34.8209 171.131 34.7718 171.628 34.912 172.089C35.0522 172.55 35.3703 172.936 35.7962 173.162C36.2222 173.389 36.7211 173.437 37.1833 173.296L38.3451 172.943L37.2877 169.469Z" fill="#2936A3"/>
</g>
</g>
<g filter="url(#filter1_d_2402_7912)">
<rect width="30" height="30" rx="15" transform="matrix(0.965927 0.258816 -0.258667 0.965966 310.76 112)" fill="white"/>
<g clip-path="url(#clip1_2402_7912)">
<path d="M329.589 128.939C329.48 128.725 329.326 128.535 329.137 128.383C328.949 128.231 328.729 128.12 328.495 128.057L324.631 127.022L324.921 125.94C325.113 125.223 325.007 124.457 324.625 123.811C324.243 123.165 323.618 122.692 322.886 122.496C322.783 122.469 322.675 122.469 322.574 122.499C322.473 122.528 322.382 122.585 322.312 122.663L318.336 127.074L315.365 126.278C315.072 126.2 314.761 126.239 314.5 126.386C314.238 126.534 314.048 126.778 313.971 127.065L312.377 133.015C312.3 133.302 312.343 133.608 312.495 133.866C312.648 134.125 312.898 134.314 313.191 134.392L325.058 137.572C325.461 137.68 325.889 137.64 326.262 137.46C326.635 137.28 326.926 136.971 327.082 136.592L329.649 130.323C329.739 130.102 329.781 129.865 329.771 129.626C329.76 129.388 329.699 129.153 329.589 128.939ZM315.075 127.36L317.835 128.1L316.241 134.05L313.481 133.31L315.075 127.36Z" fill="#2936A3"/>
</g>
</g>
<g filter="url(#filter2_bd_2402_7912)">
<rect x="220" y="9" width="112" height="82" rx="6.27322" fill="white" fill-opacity="0.7" shape-rendering="crispEdges"/>
<path d="M231.56 25V19.24H236.056V25H235.344V19.916H232.272V25H231.56ZM239.206 25.12C238.801 25.12 238.459 25.02 238.182 24.82C237.905 24.6173 237.694 24.344 237.55 24C237.409 23.6533 237.338 23.2653 237.338 22.836C237.338 22.4013 237.409 22.012 237.55 21.668C237.694 21.324 237.905 21.0533 238.182 20.856C238.462 20.6587 238.805 20.56 239.21 20.56C239.61 20.56 239.954 20.66 240.242 20.86C240.533 21.0573 240.755 21.328 240.91 21.672C241.065 22.016 241.142 22.404 241.142 22.836C241.142 23.268 241.065 23.656 240.91 24C240.755 24.344 240.533 24.6173 240.242 24.82C239.954 25.02 239.609 25.12 239.206 25.12ZM237.218 26.92V20.68H237.854V23.86H237.934V26.92H237.218ZM239.118 24.468C239.403 24.468 239.639 24.396 239.826 24.252C240.013 24.108 240.153 23.9133 240.246 23.668C240.339 23.42 240.386 23.1427 240.386 22.836C240.386 22.532 240.339 22.2573 240.246 22.012C240.155 21.7667 240.014 21.572 239.822 21.428C239.633 21.284 239.391 21.212 239.098 21.212C238.818 21.212 238.586 21.2813 238.402 21.42C238.218 21.556 238.081 21.7467 237.99 21.992C237.899 22.2347 237.854 22.516 237.854 22.836C237.854 23.1507 237.898 23.432 237.986 23.68C238.077 23.9253 238.215 24.1187 238.402 24.26C238.589 24.3987 238.827 24.468 239.118 24.468ZM243.904 25.12C243.474 25.12 243.104 25.0227 242.792 24.828C242.482 24.6333 242.244 24.364 242.076 24.02C241.908 23.676 241.824 23.2813 241.824 22.836C241.824 22.3827 241.909 21.9853 242.08 21.644C242.25 21.3027 242.492 21.0373 242.804 20.848C243.116 20.656 243.482 20.56 243.904 20.56C244.336 20.56 244.708 20.6573 245.02 20.852C245.332 21.044 245.57 21.312 245.736 21.656C245.904 21.9973 245.988 22.3907 245.988 22.836C245.988 23.2867 245.904 23.684 245.736 24.028C245.568 24.3693 245.328 24.6373 245.016 24.832C244.704 25.024 244.333 25.12 243.904 25.12ZM243.904 24.444C244.352 24.444 244.685 24.2947 244.904 23.996C245.122 23.6973 245.232 23.3107 245.232 22.836C245.232 22.348 245.121 21.96 244.9 21.672C244.678 21.3813 244.346 21.236 243.904 21.236C243.602 21.236 243.354 21.304 243.16 21.44C242.965 21.576 242.82 21.764 242.724 22.004C242.628 22.244 242.58 22.5213 242.58 22.836C242.58 23.3213 242.692 23.7107 242.916 24.004C243.14 24.2973 243.469 24.444 243.904 24.444ZM246.593 25.96V24.412C246.836 24.412 247.009 24.3333 247.113 24.176C247.217 24.016 247.301 23.7533 247.365 23.388C247.408 23.1587 247.443 22.9133 247.469 22.652C247.496 22.3907 247.519 22.1 247.537 21.78C247.559 21.4573 247.579 21.0907 247.597 20.68H250.573V24.412H250.993V25.96H250.313V25H247.273V25.96H246.593ZM247.689 24.412H249.861V21.268H248.241C248.233 21.4573 248.223 21.656 248.209 21.864C248.196 22.0693 248.18 22.2747 248.161 22.48C248.145 22.6853 248.125 22.88 248.101 23.064C248.08 23.2453 248.055 23.408 248.025 23.552C247.991 23.752 247.951 23.9213 247.905 24.06C247.86 24.1987 247.788 24.316 247.689 24.412ZM253.069 25.12C252.746 25.12 252.475 25.0613 252.257 24.944C252.041 24.824 251.877 24.6667 251.765 24.472C251.655 24.2773 251.601 24.064 251.601 23.832C251.601 23.6053 251.643 23.4093 251.729 23.244C251.817 23.076 251.939 22.9373 252.097 22.828C252.254 22.716 252.442 22.628 252.661 22.564C252.866 22.508 253.095 22.46 253.349 22.42C253.605 22.3773 253.863 22.3387 254.125 22.304C254.386 22.2693 254.63 22.236 254.857 22.204L254.601 22.352C254.609 21.968 254.531 21.684 254.369 21.5C254.209 21.316 253.931 21.224 253.537 21.224C253.275 21.224 253.046 21.284 252.849 21.404C252.654 21.5213 252.517 21.7133 252.437 21.98L251.761 21.776C251.865 21.3973 252.066 21.1 252.365 20.884C252.663 20.668 253.057 20.56 253.545 20.56C253.937 20.56 254.273 20.6307 254.553 20.772C254.835 20.9107 255.038 21.1213 255.161 21.404C255.222 21.5373 255.261 21.6827 255.277 21.84C255.293 21.9947 255.301 22.1573 255.301 22.328V25H254.669V23.964L254.817 24.06C254.654 24.4093 254.426 24.6733 254.133 24.852C253.842 25.0307 253.487 25.12 253.069 25.12ZM253.177 24.524C253.433 24.524 253.654 24.4787 253.841 24.388C254.03 24.2947 254.182 24.1733 254.297 24.024C254.411 23.872 254.486 23.7067 254.521 23.528C254.561 23.3947 254.582 23.2467 254.585 23.084C254.59 22.9187 254.593 22.792 254.593 22.704L254.841 22.812C254.609 22.844 254.381 22.8747 254.157 22.904C253.933 22.9333 253.721 22.9653 253.521 23C253.321 23.032 253.141 23.0707 252.981 23.116C252.863 23.1533 252.753 23.2013 252.649 23.26C252.547 23.3187 252.465 23.3947 252.401 23.488C252.339 23.5787 252.309 23.692 252.309 23.828C252.309 23.9453 252.338 24.0573 252.397 24.164C252.458 24.2707 252.551 24.3573 252.677 24.424C252.805 24.4907 252.971 24.524 253.177 24.524ZM255.906 25L257.65 22.84L255.99 20.68H256.782L258.386 22.8V20.68H259.034V22.8L260.638 20.68H261.43L259.77 22.84L261.514 25H260.686L259.034 22.88V25H258.386V22.88L256.734 25H255.906ZM262.276 19.916V19.18H262.988V19.916H262.276ZM262.276 25V20.68H262.988V25H262.276ZM267.427 25.12C267.001 25.12 266.623 25.028 266.295 24.844C265.967 24.6573 265.709 24.4013 265.519 24.076L266.087 23.708C266.245 23.9453 266.433 24.128 266.651 24.256C266.87 24.3813 267.119 24.444 267.399 24.444C267.693 24.444 267.926 24.3773 268.099 24.244C268.273 24.108 268.359 23.9253 268.359 23.696C268.359 23.5253 268.317 23.3947 268.231 23.304C268.146 23.2133 268.023 23.1507 267.863 23.116C267.703 23.0813 267.513 23.064 267.291 23.064H266.843V22.476H267.287C267.567 22.476 267.795 22.4307 267.971 22.34C268.147 22.2493 268.235 22.0947 268.235 21.876C268.235 21.652 268.153 21.4893 267.987 21.388C267.825 21.284 267.63 21.232 267.403 21.232C267.163 21.232 266.934 21.2827 266.715 21.384C266.497 21.4827 266.309 21.608 266.151 21.76L265.719 21.276C265.943 21.0467 266.201 20.8707 266.491 20.748C266.785 20.6227 267.103 20.56 267.447 20.56C267.725 20.56 267.978 20.6093 268.207 20.708C268.439 20.804 268.623 20.9467 268.759 21.136C268.898 21.3227 268.967 21.5507 268.967 21.82C268.967 22.0493 268.914 22.2533 268.807 22.432C268.701 22.6107 268.543 22.7667 268.335 22.9L268.307 22.648C268.483 22.6907 268.629 22.7693 268.743 22.884C268.861 22.996 268.947 23.1293 269.003 23.284C269.059 23.4387 269.087 23.6 269.087 23.768C269.087 24.0507 269.013 24.2933 268.863 24.496C268.717 24.696 268.518 24.8507 268.267 24.96C268.017 25.0667 267.737 25.12 267.427 25.12ZM271.238 25.12C270.915 25.12 270.645 25.0613 270.426 24.944C270.21 24.824 270.046 24.6667 269.934 24.472C269.825 24.2773 269.77 24.064 269.77 23.832C269.77 23.6053 269.813 23.4093 269.898 23.244C269.986 23.076 270.109 22.9373 270.266 22.828C270.423 22.716 270.611 22.628 270.83 22.564C271.035 22.508 271.265 22.46 271.518 22.42C271.774 22.3773 272.033 22.3387 272.294 22.304C272.555 22.2693 272.799 22.236 273.026 22.204L272.77 22.352C272.778 21.968 272.701 21.684 272.538 21.5C272.378 21.316 272.101 21.224 271.706 21.224C271.445 21.224 271.215 21.284 271.018 21.404C270.823 21.5213 270.686 21.7133 270.606 21.98L269.93 21.776C270.034 21.3973 270.235 21.1 270.534 20.884C270.833 20.668 271.226 20.56 271.714 20.56C272.106 20.56 272.442 20.6307 272.722 20.772C273.005 20.9107 273.207 21.1213 273.33 21.404C273.391 21.5373 273.43 21.6827 273.446 21.84C273.462 21.9947 273.47 22.1573 273.47 22.328V25H272.838V23.964L272.986 24.06C272.823 24.4093 272.595 24.6733 272.302 24.852C272.011 25.0307 271.657 25.12 271.238 25.12ZM271.346 24.524C271.602 24.524 271.823 24.4787 272.01 24.388C272.199 24.2947 272.351 24.1733 272.466 24.024C272.581 23.872 272.655 23.7067 272.69 23.528C272.73 23.3947 272.751 23.2467 272.754 23.084C272.759 22.9187 272.762 22.792 272.762 22.704L273.01 22.812C272.778 22.844 272.55 22.8747 272.326 22.904C272.102 22.9333 271.89 22.9653 271.69 23C271.49 23.032 271.31 23.0707 271.15 23.116C271.033 23.1533 270.922 23.2013 270.818 23.26C270.717 23.3187 270.634 23.3947 270.57 23.488C270.509 23.5787 270.478 23.692 270.478 23.828C270.478 23.9453 270.507 24.0573 270.566 24.164C270.627 24.2707 270.721 24.3573 270.846 24.424C270.974 24.4907 271.141 24.524 271.346 24.524ZM276.197 25V20.68H276.809L278.449 24.032L280.089 20.68H280.701V25H280.013V22.164L278.637 25H278.261L276.885 22.164V25H276.197ZM281.943 19.916V19.18H282.655V19.916H281.943ZM281.943 25V20.68H282.655V25H281.943ZM285.72 25.12C285.283 25.12 284.911 25.0227 284.604 24.828C284.3 24.6307 284.068 24.36 283.908 24.016C283.748 23.672 283.666 23.28 283.66 22.84C283.666 22.3893 283.75 21.9933 283.912 21.652C284.078 21.308 284.314 21.04 284.62 20.848C284.927 20.656 285.296 20.56 285.728 20.56C286.184 20.56 286.576 20.672 286.904 20.896C287.235 21.12 287.456 21.4267 287.568 21.816L286.864 22.028C286.774 21.7773 286.626 21.5827 286.42 21.444C286.218 21.3053 285.984 21.236 285.72 21.236C285.424 21.236 285.18 21.3053 284.988 21.444C284.796 21.58 284.654 21.7693 284.56 22.012C284.467 22.252 284.419 22.528 284.416 22.84C284.422 23.32 284.532 23.708 284.748 24.004C284.967 24.2973 285.291 24.444 285.72 24.444C286.003 24.444 286.238 24.38 286.424 24.252C286.611 24.1213 286.752 23.9333 286.848 23.688L287.568 23.876C287.419 24.2787 287.186 24.5867 286.868 24.8C286.551 25.0133 286.168 25.12 285.72 25.12ZM291.058 25V23.436H290.126C290.017 23.436 289.896 23.432 289.762 23.424C289.632 23.4133 289.509 23.3987 289.394 23.38C289.082 23.3213 288.818 23.184 288.602 22.968C288.389 22.752 288.282 22.4533 288.282 22.072C288.282 21.7013 288.382 21.404 288.582 21.18C288.785 20.9533 289.034 20.8067 289.33 20.74C289.464 20.708 289.598 20.6907 289.734 20.688C289.873 20.6827 289.99 20.68 290.086 20.68H291.77L291.774 25H291.058ZM288.15 25L289.298 23.24H290.066L288.918 25H288.15ZM290.074 22.848H291.058V21.268H290.074C290.013 21.268 289.932 21.2707 289.83 21.276C289.732 21.2813 289.637 21.2973 289.546 21.324C289.461 21.348 289.377 21.392 289.294 21.456C289.214 21.52 289.148 21.6027 289.094 21.704C289.041 21.8053 289.014 21.9253 289.014 22.064C289.014 22.264 289.07 22.4267 289.182 22.552C289.294 22.6747 289.43 22.7573 289.59 22.8C289.678 22.8213 289.765 22.8347 289.85 22.84C289.938 22.8453 290.013 22.848 290.074 22.848ZM296.623 25.8V25H292.939V20.68H293.651V24.324H295.767V20.68H296.479V24.352H297.335V25.8H296.623ZM298.019 25L298.015 20.68H298.731V22.244H299.663C299.788 22.244 299.916 22.2467 300.047 22.252C300.178 22.2573 300.291 22.2693 300.387 22.288C300.611 22.3307 300.807 22.4053 300.975 22.512C301.143 22.6187 301.274 22.764 301.367 22.948C301.46 23.1293 301.507 23.3547 301.507 23.624C301.507 23.9973 301.41 24.2933 301.215 24.512C301.023 24.728 300.771 24.872 300.459 24.944C300.352 24.968 300.23 24.984 300.091 24.992C299.955 24.9973 299.826 25 299.703 25H298.019ZM298.731 24.412H299.715C299.795 24.412 299.884 24.4093 299.983 24.404C300.082 24.3987 300.17 24.3853 300.247 24.364C300.383 24.324 300.504 24.2453 300.611 24.128C300.72 24.0107 300.775 23.8427 300.775 23.624C300.775 23.4027 300.722 23.232 300.615 23.112C300.511 22.992 300.374 22.9133 300.203 22.876C300.126 22.8573 300.044 22.8453 299.959 22.84C299.874 22.8347 299.792 22.832 299.715 22.832H298.731V24.412Z" fill="#070414"/>
<path d="M233.065 41.105C232.743 41.105 232.458 41.0408 232.211 40.9125C231.964 40.7818 231.77 40.601 231.63 40.37C231.49 40.139 231.42 39.8695 231.42 39.5615C231.42 39.2605 231.491 38.9887 231.634 38.746C231.778 38.5033 231.995 38.3167 232.285 38.186L232.274 38.4135C232.038 38.2992 231.858 38.1382 231.732 37.9305C231.606 37.7205 231.543 37.4883 231.543 37.234C231.543 36.9493 231.608 36.7043 231.739 36.499C231.869 36.2937 232.049 36.135 232.278 36.023C232.506 35.911 232.769 35.855 233.065 35.855C233.361 35.855 233.624 35.911 233.853 36.023C234.081 36.135 234.261 36.2937 234.392 36.499C234.522 36.7043 234.588 36.9493 234.588 37.234C234.588 37.4883 234.528 37.7193 234.409 37.927C234.29 38.1323 234.107 38.2945 233.86 38.4135L233.846 38.1895C234.135 38.3155 234.352 38.501 234.497 38.746C234.644 38.9887 234.717 39.2605 234.717 39.5615C234.717 39.8695 234.646 40.139 234.504 40.37C234.364 40.601 234.169 40.7818 233.919 40.9125C233.672 41.0408 233.387 41.105 233.065 41.105ZM233.065 40.51C233.359 40.51 233.597 40.4295 233.779 40.2685C233.963 40.1052 234.056 39.8695 234.056 39.5615C234.056 39.2512 233.965 39.0155 233.783 38.8545C233.603 38.6912 233.364 38.6095 233.065 38.6095C232.769 38.6095 232.53 38.6912 232.348 38.8545C232.168 39.0155 232.078 39.2512 232.078 39.5615C232.078 39.8695 232.169 40.1052 232.351 40.2685C232.533 40.4295 232.771 40.51 233.065 40.51ZM233.065 38.011C233.322 38.011 233.529 37.9468 233.688 37.8185C233.847 37.6878 233.926 37.493 233.926 37.234C233.926 36.975 233.847 36.7813 233.688 36.653C233.529 36.5223 233.322 36.457 233.065 36.457C232.811 36.457 232.603 36.5223 232.442 36.653C232.283 36.7813 232.204 36.975 232.204 37.234C232.204 37.493 232.283 37.6878 232.442 37.8185C232.603 37.9468 232.811 38.011 233.065 38.011ZM237.113 41L237.117 35.96H237.747V39.04L239.332 37.22H240.141L238.471 39.11L240.337 41H239.465L237.747 39.18V41H237.113Z" fill="#2936A3"/>
<path d="M233.209 57.105C232.889 57.105 232.598 57.028 232.337 56.874C232.078 56.72 231.872 56.51 231.718 56.244C231.566 55.9757 231.49 55.6735 231.49 55.3375V53.661C231.49 53.3087 231.566 52.9972 231.718 52.7265C231.872 52.4535 232.082 52.2412 232.348 52.0895C232.616 51.9355 232.922 51.8585 233.265 51.8585C233.542 51.8585 233.8 51.9157 234.038 52.03C234.278 52.142 234.48 52.3042 234.644 52.5165L234.178 52.9295C234.078 52.7825 233.947 52.6658 233.786 52.5795C233.625 52.4932 233.451 52.45 233.265 52.45C233.043 52.45 232.846 52.5037 232.673 52.611C232.503 52.716 232.369 52.856 232.271 53.031C232.173 53.2037 232.124 53.3903 232.124 53.591V54.6025L231.987 54.4485C232.134 54.2385 232.321 54.0705 232.547 53.9445C232.773 53.8185 233.018 53.7555 233.282 53.7555C233.595 53.7555 233.875 53.829 234.122 53.976C234.372 54.123 234.568 54.3225 234.71 54.5745C234.855 54.8242 234.927 55.1053 234.927 55.418C234.927 55.7307 234.849 56.0142 234.693 56.2685C234.536 56.5228 234.327 56.7258 234.066 56.8775C233.807 57.0292 233.521 57.105 233.209 57.105ZM233.209 56.503C233.409 56.503 233.592 56.4552 233.758 56.3595C233.924 56.2615 234.054 56.1308 234.15 55.9675C234.248 55.8018 234.297 55.6187 234.297 55.418C234.297 55.2173 234.248 55.0342 234.15 54.8685C234.054 54.7028 233.924 54.5722 233.758 54.4765C233.595 54.3785 233.413 54.3295 233.212 54.3295C233.011 54.3295 232.828 54.3785 232.663 54.4765C232.499 54.5722 232.369 54.7028 232.271 54.8685C232.173 55.0342 232.124 55.2173 232.124 55.418C232.124 55.6163 232.171 55.7983 232.267 55.964C232.365 56.1273 232.496 56.258 232.659 56.356C232.825 56.454 233.008 56.503 233.209 56.503ZM237.325 57L237.329 51.96H237.959V55.04L239.544 53.22H240.353L238.683 55.11L240.549 57H239.677L237.959 55.18V57H237.325Z" fill="#2936A3"/>
<path d="M233.667 73V72.0725H231.35V71.481L233.013 67.96H233.72L232.057 71.481H233.667V70.0635H234.297V71.481H234.822V72.0725H234.297V73H233.667ZM237.147 73L237.151 67.96H237.781V71.04L239.366 69.22H240.175L238.505 71.11L240.371 73H239.499L237.781 71.18V73H237.147Z" fill="#2936A3"/>
<line x1="249" y1="37.7438" x2="318" y2="37.7438" stroke="#999EBF" stroke-opacity="0.4" stroke-width="0.5125" stroke-dasharray="1.21 1.21"/>
<line x1="249" y1="54.7438" x2="318" y2="54.7438" stroke="#999EBF" stroke-opacity="0.4" stroke-width="0.5125" stroke-dasharray="1.21 1.21"/>
<line x1="249" y1="70.7438" x2="318" y2="70.7438" stroke="#999EBF" stroke-opacity="0.4" stroke-width="0.5125" stroke-dasharray="1.21 1.21"/>
<circle cx="250" cy="72" r="1" fill="#2936A3"/>
<circle cx="278" cy="60" r="1" fill="#2936A3"/>
<circle cx="298" cy="48" r="1" fill="#2936A3"/>
<circle cx="317" cy="38" r="1" fill="#2936A3"/>
<path d="M251 71.8648C251 71.8648 259.696 74.8271 267.5 71.1811C273.297 68.4727 272.055 62.7815 276.642 60.4711C282.343 57.5992 287.807 65.5343 292.695 61.3825C296.955 57.7654 291.964 51.4333 296.486 48.1658C301.433 44.5909 304.736 50.6725 312.094 49.5331C317.176 48.7461 316.999 37 316.999 37" stroke="#2936A3" stroke-width="0.448087"/>
<rect x="220.232" y="9.2325" width="111.535" height="81.535" rx="6.04073" stroke="#070414" stroke-opacity="0.1" stroke-width="0.464995" shape-rendering="crispEdges"/>
</g>
<defs>
<filter id="filter0_d_2402_7912" x="-5.77982" y="127.059" width="95.953" height="95.9429" filterUnits="userSpaceOnUse" color-interpolation-filters="sRGB">
<feFlood flood-opacity="0" result="BackgroundImageFix"/>
<feColorMatrix in="SourceAlpha" type="matrix" values="0 0 0 0 0 0 0 0 0 0 0 0 0 0 0 0 0 0 127 0" result="hardAlpha"/>
<feOffset dy="0.838991"/>
<feGaussianBlur stdDeviation="8.38991"/>
<feComposite in2="hardAlpha" operator="out"/>
<feColorMatrix type="matrix" values="0 0 0 0 0 0 0 0 0 0 0 0 0 0 0 0 0 0 0.1 0"/>
<feBlend mode="normal" in2="BackgroundImageFix" result="effect1_dropShadow_2402_7912"/>
<feBlend mode="normal" in="SourceGraphic" in2="effect1_dropShadow_2402_7912" result="shape"/>
</filter>
<filter id="filter1_d_2402_7912" x="288.331" y="98.0649" width="66.0749" height="66.0805" filterUnits="userSpaceOnUse" color-interpolation-filters="sRGB">
<feFlood flood-opacity="0" result="BackgroundImageFix"/>
<feColorMatrix in="SourceAlpha" type="matrix" values="0 0 0 0 0 0 0 0 0 0 0 0 0 0 0 0 0 0 127 0" result="hardAlpha"/>
<feOffset dy="0.733427"/>
<feGaussianBlur stdDeviation="7.33427"/>
<feComposite in2="hardAlpha" operator="out"/>
<feColorMatrix type="matrix" values="0 0 0 0 0 0 0 0 0 0 0 0 0 0 0 0 0 0 0.1 0"/>
<feBlend mode="normal" in2="BackgroundImageFix" result="effect1_dropShadow_2402_7912"/>
<feBlend mode="normal" in="SourceGraphic" in2="effect1_dropShadow_2402_7912" result="shape"/>
</filter>
<filter id="filter2_bd_2402_7912" x="193.471" y="0.558823" width="165.059" height="135.059" filterUnits="userSpaceOnUse" color-interpolation-filters="sRGB">
<feFlood flood-opacity="0" result="BackgroundImageFix"/>
<feGaussianBlur in="BackgroundImageFix" stdDeviation="3.01471"/>
<feComposite in2="SourceAlpha" operator="in" result="effect1_backgroundBlur_2402_7912"/>
<feColorMatrix in="SourceAlpha" type="matrix" values="0 0 0 0 0 0 0 0 0 0 0 0 0 0 0 0 0 0 127 0" result="hardAlpha"/>
<feOffset dy="18.0882"/>
<feGaussianBlur stdDeviation="13.2647"/>
<feComposite in2="hardAlpha" operator="out"/>
<feColorMatrix type="matrix" values="0 0 0 0 0.890196 0 0 0 0 0.898039 0 0 0 0 0.909804 0 0 0 0.3 0"/>
<feBlend mode="normal" in2="effect1_backgroundBlur_2402_7912" result="effect2_dropShadow_2402_7912"/>
<feBlend mode="normal" in="SourceGraphic" in2="effect2_dropShadow_2402_7912" result="shape"/>
</filter>
<radialGradient id="paint0_diamond_2402_7912" cx="0" cy="0" r="1" gradientUnits="userSpaceOnUse" gradientTransform="translate(222.093 79.5358) rotate(108.88) scale(205.948 564.705)">
<stop stop-color="#0000CC"/>
<stop offset="1" stop-color="#EFEFEF" stop-opacity="0"/>
</radialGradient>
<radialGradient id="paint1_diamond_2402_7912" cx="0" cy="0" r="1" gradientUnits="userSpaceOnUse" gradientTransform="translate(241.466 67.1579) rotate(108.08) scale(249.01 680.629)">
<stop stop-color="#0000CC"/>
<stop offset="1" stop-color="#EFEFEF" stop-opacity="0"/>
</radialGradient>
<linearGradient id="paint2_linear_2402_7912" x1="172.88" y1="111.874" x2="172.88" y2="255.181" gradientUnits="userSpaceOnUse">
<stop stop-color="white" stop-opacity="0"/>
<stop offset="1" stop-color="white"/>
</linearGradient>
<clipPath id="clip0_2402_7912">
<rect width="29" height="29" fill="white" transform="matrix(0.956728 -0.290985 0.29116 0.956674 22.522 164.497)"/>
</clipPath>
<clipPath id="clip1_2402_7912">
<rect width="18" height="18" fill="white" transform="matrix(0.965927 0.258816 -0.258822 0.965925 315.004 119.349)"/>
</clipPath>
</defs>
</svg>
