<svg width="598" height="522" viewBox="0 0 598 522" fill="none" xmlns="http://www.w3.org/2000/svg">
<circle cx="262" cy="268" r="253.577" stroke="#999EBF" stroke-opacity="0.35" stroke-width="0.845471" stroke-dasharray="5 5"/>
<path d="M400 268C400 299.485 389.233 330.024 369.487 354.548C349.741 379.071 322.202 396.105 291.442 402.823C260.682 409.54 228.549 405.537 200.377 391.477C172.205 377.417 149.688 354.147 136.563 325.528C123.437 296.909 120.493 264.662 128.219 234.139C135.944 203.616 153.875 176.653 179.035 157.724C204.195 138.795 235.071 129.039 266.539 130.075C298.008 131.11 328.176 142.876 352.037 163.418" stroke="url(#paint0_diamond_2217_7883)" stroke-opacity="0.5" stroke-width="20" stroke-linecap="round"/>
<circle cx="261.5" cy="268.5" r="201.5" stroke="url(#paint1_diamond_2217_7883)" stroke-opacity="0.1" stroke-width="20"/>
<g filter="url(#filter0_d_2217_7883)">
<rect width="68" height="68" rx="34" transform="matrix(0.956728 -0.290985 0.291139 0.956681 15 370)" fill="white"/>
<g clip-path="url(#clip0_2217_7883)">
<path fill-rule="evenodd" clip-rule="evenodd" d="M51.3342 377.763C51.9203 377.585 52.5513 377.63 53.1043 377.889C53.6572 378.149 54.0924 378.604 54.325 379.166L54.4044 379.388L54.642 380.168L60.1432 378.495C60.7488 378.311 61.4014 378.366 61.9659 378.647C62.5304 378.929 62.9635 379.416 63.1753 380.008C63.3872 380.6 63.3617 381.251 63.1041 381.826C62.8464 382.401 62.3764 382.857 61.7914 383.098L61.5684 383.178L56.0672 384.851L57.4924 389.534L59.0642 389.056C60.9112 388.494 62.9033 388.672 64.6147 389.552C66.326 390.432 67.6209 391.943 68.2225 393.764C68.8242 395.584 68.6848 397.569 67.8342 399.294C66.9836 401.019 65.4893 402.348 63.6706 402.995L63.3398 403.104L61.768 403.582L62.0055 404.363C62.1882 404.964 62.131 405.613 61.8456 406.176C61.5602 406.738 61.0686 407.17 60.4726 407.383C59.8766 407.596 59.222 407.573 58.6443 407.319C58.0666 407.065 57.6102 406.599 57.3696 406.018L57.2902 405.797L57.0527 405.017L51.5514 406.69C50.9458 406.874 50.2932 406.819 49.7287 406.537C49.1642 406.256 48.7312 405.768 48.5193 405.177C48.3074 404.585 48.3329 403.934 48.5905 403.359C48.8482 402.783 49.3182 402.328 49.9032 402.087L50.1262 402.007L55.6274 400.334L54.2022 395.651L52.6305 396.129C50.7834 396.691 48.7913 396.513 47.08 395.633C45.3686 394.753 44.0737 393.241 43.4721 391.421C42.8705 389.6 43.0098 387.615 43.8604 385.89C44.711 384.165 46.2054 382.837 48.024 382.189L48.3548 382.08L49.9266 381.602L49.6891 380.822C49.5001 380.201 49.5672 379.53 49.8757 378.956C50.1843 378.383 50.7089 377.953 51.3342 377.763ZM60.4894 393.739L58.9176 394.217L60.3428 398.9L61.9146 398.421C62.5399 398.231 63.0645 397.802 63.373 397.229C63.6815 396.655 63.7486 395.984 63.5596 395.363C63.3707 394.742 62.941 394.222 62.3652 393.917C61.7894 393.613 61.1147 393.548 60.4894 393.739ZM51.3518 386.285L49.78 386.763C49.1547 386.953 48.6301 387.382 48.3216 387.956C48.0131 388.53 47.946 389.201 48.135 389.822C48.324 390.443 48.7536 390.963 49.3294 391.267C49.9052 391.572 50.58 391.636 51.2052 391.446L52.777 390.968L51.3518 386.285Z" fill="#2936A3"/>
</g>
</g>
<g filter="url(#filter1_d_2217_7883)">
<rect width="42" height="42" rx="21" transform="matrix(0.965927 0.258816 -0.258667 0.965966 449 230)" fill="white"/>
<g clip-path="url(#clip1_2217_7883)">
<path d="M475.093 253.983C474.946 253.679 474.736 253.411 474.477 253.197C474.219 252.983 473.919 252.827 473.596 252.741L468.283 251.317L468.697 249.772C468.972 248.747 468.836 247.657 468.318 246.742C467.801 245.827 466.945 245.161 465.938 244.891C465.797 244.853 465.648 244.856 465.508 244.9C465.368 244.943 465.242 245.025 465.145 245.136L459.604 251.476L455.52 250.382C455.117 250.274 454.687 250.333 454.325 250.547C453.963 250.761 453.697 251.111 453.588 251.521L451.31 260.021C451.2 260.431 451.255 260.867 451.462 261.233C451.669 261.599 452.011 261.865 452.414 261.973L468.73 266.345C469.285 266.494 469.876 266.431 470.392 266.169C470.908 265.907 471.314 265.464 471.534 264.922L475.157 255.954C475.284 255.639 475.345 255.299 475.334 254.959C475.323 254.62 475.241 254.287 475.093 253.983ZM455.105 251.927L458.9 252.944L456.622 261.444L452.828 260.428L455.105 251.927Z" fill="#2936A3"/>
</g>
</g>
<g filter="url(#filter2_bd_2217_7883)">
<rect x="368" y="14" width="186" height="136" rx="10" fill="white" fill-opacity="0.7" shape-rendering="crispEdges"/>
<path d="M387.84 40V31.36H394.584V40H393.516V32.374H388.908V40H387.84ZM399.316 40.18C398.708 40.18 398.196 40.03 397.78 39.73C397.364 39.426 397.048 39.016 396.832 38.5C396.62 37.98 396.514 37.398 396.514 36.754C396.514 36.102 396.62 35.518 396.832 35.002C397.048 34.486 397.364 34.08 397.78 33.784C398.2 33.488 398.714 33.34 399.322 33.34C399.922 33.34 400.438 33.49 400.87 33.79C401.306 34.086 401.64 34.492 401.872 35.008C402.104 35.524 402.22 36.106 402.22 36.754C402.22 37.402 402.104 37.984 401.872 38.5C401.64 39.016 401.306 39.426 400.87 39.73C400.438 40.03 399.92 40.18 399.316 40.18ZM396.334 42.88V33.52H397.288V38.29H397.408V42.88H396.334ZM399.184 39.202C399.612 39.202 399.966 39.094 400.246 38.878C400.526 38.662 400.736 38.37 400.876 38.002C401.016 37.63 401.086 37.214 401.086 36.754C401.086 36.298 401.016 35.886 400.876 35.518C400.74 35.15 400.528 34.858 400.24 34.642C399.956 34.426 399.594 34.318 399.154 34.318C398.734 34.318 398.386 34.422 398.11 34.63C397.834 34.834 397.628 35.12 397.492 35.488C397.356 35.852 397.288 36.274 397.288 36.754C397.288 37.226 397.354 37.648 397.486 38.02C397.622 38.388 397.83 38.678 398.11 38.89C398.39 39.098 398.748 39.202 399.184 39.202ZM406.37 40.18C405.726 40.18 405.17 40.034 404.702 39.742C404.238 39.45 403.88 39.046 403.628 38.53C403.376 38.014 403.25 37.422 403.25 36.754C403.25 36.074 403.378 35.478 403.634 34.966C403.89 34.454 404.252 34.056 404.72 33.772C405.188 33.484 405.738 33.34 406.37 33.34C407.018 33.34 407.576 33.486 408.044 33.778C408.512 34.066 408.87 34.468 409.118 34.984C409.37 35.496 409.496 36.086 409.496 36.754C409.496 37.43 409.37 38.026 409.118 38.542C408.866 39.054 408.506 39.456 408.038 39.748C407.57 40.036 407.014 40.18 406.37 40.18ZM406.37 39.166C407.042 39.166 407.542 38.942 407.87 38.494C408.198 38.046 408.362 37.466 408.362 36.754C408.362 36.022 408.196 35.44 407.864 35.008C407.532 34.572 407.034 34.354 406.37 34.354C405.918 34.354 405.546 34.456 405.254 34.66C404.962 34.864 404.744 35.146 404.6 35.506C404.456 35.866 404.384 36.282 404.384 36.754C404.384 37.482 404.552 38.066 404.888 38.506C405.224 38.946 405.718 39.166 406.37 39.166ZM410.411 41.44V39.118C410.775 39.118 411.035 39 411.191 38.764C411.347 38.524 411.473 38.13 411.569 37.582C411.633 37.238 411.685 36.87 411.725 36.478C411.765 36.086 411.799 35.65 411.827 35.17C411.859 34.686 411.889 34.136 411.917 33.52H416.381V39.118H417.011V41.44H415.991V40H411.431V41.44H410.411ZM412.055 39.118H415.313V34.402H412.883C412.871 34.686 412.855 34.984 412.835 35.296C412.815 35.604 412.791 35.912 412.763 36.22C412.739 36.528 412.709 36.82 412.673 37.096C412.641 37.368 412.603 37.612 412.559 37.828C412.507 38.128 412.447 38.382 412.379 38.59C412.311 38.798 412.203 38.974 412.055 39.118ZM420.132 40.18C419.648 40.18 419.242 40.092 418.914 39.916C418.59 39.736 418.344 39.5 418.176 39.208C418.012 38.916 417.93 38.596 417.93 38.248C417.93 37.908 417.994 37.614 418.122 37.366C418.254 37.114 418.438 36.906 418.674 36.742C418.91 36.574 419.192 36.442 419.52 36.346C419.828 36.262 420.172 36.19 420.552 36.13C420.936 36.066 421.324 36.008 421.716 35.956C422.108 35.904 422.474 35.854 422.814 35.806L422.43 36.028C422.442 35.452 422.326 35.026 422.082 34.75C421.842 34.474 421.426 34.336 420.834 34.336C420.442 34.336 420.098 34.426 419.802 34.606C419.51 34.782 419.304 35.07 419.184 35.47L418.17 35.164C418.326 34.596 418.628 34.15 419.076 33.826C419.524 33.502 420.114 33.34 420.846 33.34C421.434 33.34 421.938 33.446 422.358 33.658C422.782 33.866 423.086 34.182 423.27 34.606C423.362 34.806 423.42 35.024 423.444 35.26C423.468 35.492 423.48 35.736 423.48 35.992V40H422.532V38.446L422.754 38.59C422.51 39.114 422.168 39.51 421.728 39.778C421.292 40.046 420.76 40.18 420.132 40.18ZM420.294 39.286C420.678 39.286 421.01 39.218 421.29 39.082C421.574 38.942 421.802 38.76 421.974 38.536C422.146 38.308 422.258 38.06 422.31 37.792C422.37 37.592 422.402 37.37 422.406 37.126C422.414 36.878 422.418 36.688 422.418 36.556L422.79 36.718C422.442 36.766 422.1 36.812 421.764 36.856C421.428 36.9 421.11 36.948 420.81 37C420.51 37.048 420.24 37.106 420 37.174C419.824 37.23 419.658 37.302 419.502 37.39C419.35 37.478 419.226 37.592 419.13 37.732C419.038 37.868 418.992 38.038 418.992 38.242C418.992 38.418 419.036 38.586 419.124 38.746C419.216 38.906 419.356 39.036 419.544 39.136C419.736 39.236 419.986 39.286 420.294 39.286ZM424.394 40L427.01 36.76L424.52 33.52H425.708L428.114 36.7V33.52H429.086V36.7L431.492 33.52H432.68L430.19 36.76L432.806 40H431.564L429.086 36.82V40H428.114V36.82L425.636 40H424.394ZM433.957 32.374V31.27H435.025V32.374H433.957ZM433.957 40V33.52H435.025V40H433.957ZM441.698 40.18C441.058 40.18 440.492 40.042 440 39.766C439.508 39.486 439.12 39.102 438.836 38.614L439.688 38.062C439.924 38.418 440.206 38.692 440.534 38.884C440.862 39.072 441.236 39.166 441.656 39.166C442.096 39.166 442.446 39.066 442.706 38.866C442.966 38.662 443.096 38.388 443.096 38.044C443.096 37.788 443.032 37.592 442.904 37.456C442.776 37.32 442.592 37.226 442.352 37.174C442.112 37.122 441.826 37.096 441.494 37.096H440.822V36.214H441.488C441.908 36.214 442.25 36.146 442.514 36.01C442.778 35.874 442.91 35.642 442.91 35.314C442.91 34.978 442.786 34.734 442.538 34.582C442.294 34.426 442.002 34.348 441.662 34.348C441.302 34.348 440.958 34.424 440.63 34.576C440.302 34.724 440.02 34.912 439.784 35.14L439.136 34.414C439.472 34.07 439.858 33.806 440.294 33.622C440.734 33.434 441.212 33.34 441.728 33.34C442.144 33.34 442.524 33.414 442.868 33.562C443.216 33.706 443.492 33.92 443.696 34.204C443.904 34.484 444.008 34.826 444.008 35.23C444.008 35.574 443.928 35.88 443.768 36.148C443.608 36.416 443.372 36.65 443.06 36.85L443.018 36.472C443.282 36.536 443.5 36.654 443.672 36.826C443.848 36.994 443.978 37.194 444.062 37.426C444.146 37.658 444.188 37.9 444.188 38.152C444.188 38.576 444.076 38.94 443.852 39.244C443.632 39.544 443.334 39.776 442.958 39.94C442.582 40.1 442.162 40.18 441.698 40.18ZM447.421 40.18C446.937 40.18 446.531 40.092 446.203 39.916C445.879 39.736 445.633 39.5 445.465 39.208C445.301 38.916 445.219 38.596 445.219 38.248C445.219 37.908 445.283 37.614 445.411 37.366C445.543 37.114 445.727 36.906 445.963 36.742C446.199 36.574 446.481 36.442 446.809 36.346C447.117 36.262 447.461 36.19 447.841 36.13C448.225 36.066 448.613 36.008 449.005 35.956C449.397 35.904 449.763 35.854 450.103 35.806L449.719 36.028C449.731 35.452 449.615 35.026 449.371 34.75C449.131 34.474 448.715 34.336 448.123 34.336C447.731 34.336 447.387 34.426 447.091 34.606C446.799 34.782 446.593 35.07 446.473 35.47L445.459 35.164C445.615 34.596 445.917 34.15 446.365 33.826C446.813 33.502 447.403 33.34 448.135 33.34C448.723 33.34 449.227 33.446 449.647 33.658C450.071 33.866 450.375 34.182 450.559 34.606C450.651 34.806 450.709 35.024 450.733 35.26C450.757 35.492 450.769 35.736 450.769 35.992V40H449.821V38.446L450.043 38.59C449.799 39.114 449.457 39.51 449.017 39.778C448.581 40.046 448.049 40.18 447.421 40.18ZM447.583 39.286C447.967 39.286 448.299 39.218 448.579 39.082C448.863 38.942 449.091 38.76 449.263 38.536C449.435 38.308 449.547 38.06 449.599 37.792C449.659 37.592 449.691 37.37 449.695 37.126C449.703 36.878 449.707 36.688 449.707 36.556L450.079 36.718C449.731 36.766 449.389 36.812 449.053 36.856C448.717 36.9 448.399 36.948 448.099 37C447.799 37.048 447.529 37.106 447.289 37.174C447.113 37.23 446.947 37.302 446.791 37.39C446.639 37.478 446.515 37.592 446.419 37.732C446.327 37.868 446.281 38.038 446.281 38.242C446.281 38.418 446.325 38.586 446.413 38.746C446.505 38.906 446.645 39.036 446.833 39.136C447.025 39.236 447.275 39.286 447.583 39.286ZM454.874 40V33.52H455.792L458.252 38.548L460.712 33.52H461.63V40H460.598V35.746L458.534 40H457.97L455.906 35.746V40H454.874ZM463.5 32.374V31.27H464.568V32.374H463.5ZM463.5 40V33.52H464.568V40H463.5ZM469.173 40.18C468.517 40.18 467.959 40.034 467.499 39.742C467.043 39.446 466.695 39.04 466.455 38.524C466.215 38.008 466.091 37.42 466.083 36.76C466.091 36.084 466.217 35.49 466.461 34.978C466.709 34.462 467.063 34.06 467.523 33.772C467.983 33.484 468.537 33.34 469.185 33.34C469.869 33.34 470.457 33.508 470.949 33.844C471.445 34.18 471.777 34.64 471.945 35.224L470.889 35.542C470.753 35.166 470.531 34.874 470.223 34.666C469.919 34.458 469.569 34.354 469.173 34.354C468.729 34.354 468.363 34.458 468.075 34.666C467.787 34.87 467.573 35.154 467.433 35.518C467.293 35.878 467.221 36.292 467.217 36.76C467.225 37.48 467.391 38.062 467.715 38.506C468.043 38.946 468.529 39.166 469.173 39.166C469.597 39.166 469.949 39.07 470.229 38.878C470.509 38.682 470.721 38.4 470.865 38.032L471.945 38.314C471.721 38.918 471.371 39.38 470.895 39.7C470.419 40.02 469.845 40.18 469.173 40.18ZM477.187 40V37.654H475.789C475.625 37.654 475.443 37.648 475.243 37.636C475.047 37.62 474.863 37.598 474.691 37.57C474.223 37.482 473.827 37.276 473.503 36.952C473.183 36.628 473.023 36.18 473.023 35.608C473.023 35.052 473.173 34.606 473.473 34.27C473.777 33.93 474.151 33.71 474.595 33.61C474.795 33.562 474.997 33.536 475.201 33.532C475.409 33.524 475.585 33.52 475.729 33.52H478.255L478.261 40H477.187ZM472.825 40L474.547 37.36H475.699L473.977 40H472.825ZM475.711 36.772H477.187V34.402H475.711C475.619 34.402 475.497 34.406 475.345 34.414C475.197 34.422 475.055 34.446 474.919 34.486C474.791 34.522 474.665 34.588 474.541 34.684C474.421 34.78 474.321 34.904 474.241 35.056C474.161 35.208 474.121 35.388 474.121 35.596C474.121 35.896 474.205 36.14 474.373 36.328C474.541 36.512 474.745 36.636 474.985 36.7C475.117 36.732 475.247 36.752 475.375 36.76C475.507 36.768 475.619 36.772 475.711 36.772ZM485.541 41.2V40H480.015V33.52H481.083V38.986H484.257V33.52H485.325V39.028H486.609V41.2H485.541ZM487.642 40L487.636 33.52H488.71V35.866H490.108C490.296 35.866 490.488 35.87 490.684 35.878C490.88 35.886 491.05 35.904 491.194 35.932C491.53 35.996 491.824 36.108 492.076 36.268C492.328 36.428 492.524 36.646 492.664 36.922C492.804 37.194 492.874 37.532 492.874 37.936C492.874 38.496 492.728 38.94 492.436 39.268C492.148 39.592 491.77 39.808 491.302 39.916C491.142 39.952 490.958 39.976 490.75 39.988C490.546 39.996 490.352 40 490.168 40H487.642ZM488.71 39.118H490.186C490.306 39.118 490.44 39.114 490.588 39.106C490.736 39.098 490.868 39.078 490.984 39.046C491.188 38.986 491.37 38.868 491.53 38.692C491.694 38.516 491.776 38.264 491.776 37.936C491.776 37.604 491.696 37.348 491.536 37.168C491.38 36.988 491.174 36.87 490.918 36.814C490.802 36.786 490.68 36.768 490.552 36.76C490.424 36.752 490.302 36.748 490.186 36.748H488.71V39.118Z" fill="#070414"/>
<path d="M390.245 67.165C389.739 67.165 389.292 67.0642 388.903 66.8625C388.514 66.6572 388.21 66.373 387.99 66.01C387.77 65.647 387.66 65.2235 387.66 64.7395C387.66 64.2665 387.772 63.8393 387.996 63.458C388.223 63.0767 388.564 62.7833 389.019 62.578L389.002 62.9355C388.632 62.7558 388.348 62.5028 388.15 62.1765C387.952 61.8465 387.853 61.4817 387.853 61.082C387.853 60.6347 387.955 60.2497 388.161 59.927C388.366 59.6043 388.648 59.355 389.008 59.179C389.367 59.003 389.779 58.915 390.245 58.915C390.711 58.915 391.123 59.003 391.483 59.179C391.842 59.355 392.124 59.6043 392.33 59.927C392.535 60.2497 392.638 60.6347 392.638 61.082C392.638 61.4817 392.544 61.8447 392.357 62.171C392.17 62.4937 391.882 62.7485 391.494 62.9355L391.472 62.5835C391.926 62.7815 392.267 63.073 392.495 63.458C392.726 63.8393 392.841 64.2665 392.841 64.7395C392.841 65.2235 392.729 65.647 392.506 66.01C392.286 66.373 391.979 66.6572 391.587 66.8625C391.198 67.0642 390.751 67.165 390.245 67.165ZM390.245 66.23C390.707 66.23 391.081 66.1035 391.367 65.8505C391.657 65.5938 391.802 65.2235 391.802 64.7395C391.802 64.2518 391.659 63.8815 391.373 63.6285C391.09 63.3718 390.714 63.2435 390.245 63.2435C389.779 63.2435 389.404 63.3718 389.118 63.6285C388.835 63.8815 388.694 64.2518 388.694 64.7395C388.694 65.2235 388.837 65.5938 389.123 65.8505C389.409 66.1035 389.783 66.23 390.245 66.23ZM390.245 62.303C390.648 62.303 390.975 62.2022 391.224 62.0005C391.473 61.7952 391.598 61.489 391.598 61.082C391.598 60.675 391.473 60.3707 391.224 60.169C390.975 59.9637 390.648 59.861 390.245 59.861C389.845 59.861 389.519 59.9637 389.266 60.169C389.017 60.3707 388.892 60.675 388.892 61.082C388.892 61.489 389.017 61.7952 389.266 62.0005C389.519 62.2022 389.845 62.303 390.245 62.303ZM396.614 67L396.62 59.08H397.61V63.92L400.101 61.06H401.372L398.748 64.03L401.68 67H400.31L397.61 64.14V67H396.614Z" fill="#2936A3"/>
<path d="M390.471 94.165C389.968 94.165 389.512 94.044 389.101 93.802C388.694 93.56 388.37 93.23 388.128 92.812C387.889 92.3903 387.77 91.9155 387.77 91.3875V88.753C387.77 88.1993 387.889 87.7098 388.128 87.2845C388.37 86.8555 388.7 86.5218 389.118 86.2835C389.539 86.0415 390.02 85.9205 390.559 85.9205C390.995 85.9205 391.4 86.0103 391.774 86.19C392.152 86.366 392.469 86.6208 392.726 86.9545L391.994 87.6035C391.836 87.3725 391.631 87.1892 391.378 87.0535C391.125 86.9178 390.852 86.85 390.559 86.85C390.21 86.85 389.9 86.9343 389.629 87.103C389.361 87.268 389.151 87.488 388.997 87.763C388.843 88.0343 388.766 88.3277 388.766 88.643V90.2325L388.551 89.9905C388.782 89.6605 389.075 89.3965 389.431 89.1985C389.787 89.0005 390.172 88.9015 390.586 88.9015C391.077 88.9015 391.517 89.017 391.906 89.248C392.298 89.479 392.606 89.7925 392.83 90.1885C393.057 90.5808 393.171 91.0227 393.171 91.514C393.171 92.0053 393.048 92.4508 392.803 92.8505C392.557 93.2502 392.229 93.5692 391.818 93.8075C391.411 94.0458 390.962 94.165 390.471 94.165ZM390.471 93.219C390.786 93.219 391.074 93.1438 391.334 92.9935C391.594 92.8395 391.8 92.6342 391.95 92.3775C392.104 92.1172 392.181 91.8293 392.181 91.514C392.181 91.1987 392.104 90.9108 391.95 90.6505C391.8 90.3902 391.594 90.1848 391.334 90.0345C391.077 89.8805 390.791 89.8035 390.476 89.8035C390.161 89.8035 389.873 89.8805 389.613 90.0345C389.356 90.1848 389.151 90.3902 388.997 90.6505C388.843 90.9108 388.766 91.1987 388.766 91.514C388.766 91.8257 388.841 92.1117 388.991 92.372C389.145 92.6287 389.35 92.834 389.607 92.988C389.867 93.142 390.155 93.219 390.471 93.219ZM396.947 94L396.953 86.08H397.943V90.92L400.434 88.06H401.705L399.081 91.03L402.013 94H400.643L397.943 91.14V94H396.947Z" fill="#2936A3"/>
<path d="M391.191 120V118.542H387.55V117.613L390.163 112.08H391.274L388.661 117.613H391.191V115.385H392.181V117.613H393.006V118.542H392.181V120H391.191ZM396.668 120L396.674 112.08H397.664V116.92L400.155 114.06H401.426L398.802 117.03L401.734 120H400.364L397.664 117.14V120H396.668Z" fill="#2936A3"/>
<line x1="416" y1="62.575" x2="529" y2="62.575" stroke="#999EBF" stroke-opacity="0.4" stroke-width="0.85" stroke-dasharray="2 2"/>
<line x1="416" y1="90.575" x2="529" y2="90.575" stroke="#999EBF" stroke-opacity="0.4" stroke-width="0.85" stroke-dasharray="2 2"/>
<line x1="416" y1="116.575" x2="529" y2="116.575" stroke="#999EBF" stroke-opacity="0.4" stroke-width="0.85" stroke-dasharray="2 2"/>
<circle cx="417.5" cy="117.5" r="1.5" fill="#2936A3"/>
<circle cx="464.5" cy="98.5" r="1.5" fill="#2936A3"/>
<circle cx="497.5" cy="78.5" r="1.5" fill="#2936A3"/>
<circle cx="528.5" cy="62.5" r="1.5" fill="#2936A3"/>
<path d="M419 118.139C419 118.139 433.493 122.994 446.5 117.019C456.162 112.58 454.091 103.253 461.736 99.4664C471.239 94.7597 480.344 107.765 488.492 100.96C495.592 95.0321 487.273 84.6546 494.81 79.2996C503.056 73.4407 508.56 83.4076 520.823 81.5403C529.294 80.2505 528.999 61 528.999 61" stroke="#2936A3" stroke-width="0.743169"/>
<rect x="368.386" y="14.3856" width="185.229" height="135.229" rx="9.61439" stroke="#070414" stroke-opacity="0.1" stroke-width="0.771212" shape-rendering="crispEdges"/>
</g>
<defs>
<filter id="filter0_d_2217_7883" x="-7.44035" y="328.895" width="129.736" height="129.722" filterUnits="userSpaceOnUse" color-interpolation-filters="sRGB">
<feFlood flood-opacity="0" result="BackgroundImageFix"/>
<feColorMatrix in="SourceAlpha" type="matrix" values="0 0 0 0 0 0 0 0 0 0 0 0 0 0 0 0 0 0 127 0" result="hardAlpha"/>
<feOffset dy="1.12202"/>
<feGaussianBlur stdDeviation="11.2202"/>
<feComposite in2="hardAlpha" operator="out"/>
<feColorMatrix type="matrix" values="0 0 0 0 0 0 0 0 0 0 0 0 0 0 0 0 0 0 0.1 0"/>
<feBlend mode="normal" in2="BackgroundImageFix" result="effect1_dropShadow_2217_7883"/>
<feBlend mode="normal" in="SourceGraphic" in2="effect1_dropShadow_2217_7883" result="shape"/>
</filter>
<filter id="filter1_d_2217_7883" x="417.758" y="210.641" width="92.1889" height="92.197" filterUnits="userSpaceOnUse" color-interpolation-filters="sRGB">
<feFlood flood-opacity="0" result="BackgroundImageFix"/>
<feColorMatrix in="SourceAlpha" type="matrix" values="0 0 0 0 0 0 0 0 0 0 0 0 0 0 0 0 0 0 127 0" result="hardAlpha"/>
<feOffset dy="1.0189"/>
<feGaussianBlur stdDeviation="10.189"/>
<feComposite in2="hardAlpha" operator="out"/>
<feColorMatrix type="matrix" values="0 0 0 0 0 0 0 0 0 0 0 0 0 0 0 0 0 0 0.1 0"/>
<feBlend mode="normal" in2="BackgroundImageFix" result="effect1_dropShadow_2217_7883"/>
<feBlend mode="normal" in="SourceGraphic" in2="effect1_dropShadow_2217_7883" result="shape"/>
</filter>
<filter id="filter2_bd_2217_7883" x="324" y="0" width="274" height="224" filterUnits="userSpaceOnUse" color-interpolation-filters="sRGB">
<feFlood flood-opacity="0" result="BackgroundImageFix"/>
<feGaussianBlur in="BackgroundImageFix" stdDeviation="5"/>
<feComposite in2="SourceAlpha" operator="in" result="effect1_backgroundBlur_2217_7883"/>
<feColorMatrix in="SourceAlpha" type="matrix" values="0 0 0 0 0 0 0 0 0 0 0 0 0 0 0 0 0 0 127 0" result="hardAlpha"/>
<feOffset dy="30"/>
<feGaussianBlur stdDeviation="22"/>
<feComposite in2="hardAlpha" operator="out"/>
<feColorMatrix type="matrix" values="0 0 0 0 0.890196 0 0 0 0 0.898039 0 0 0 0 0.909804 0 0 0 0.3 0"/>
<feBlend mode="normal" in2="effect1_backgroundBlur_2217_7883" result="effect2_dropShadow_2217_7883"/>
<feBlend mode="normal" in="SourceGraphic" in2="effect2_dropShadow_2217_7883" result="shape"/>
</filter>
<radialGradient id="paint0_diamond_2217_7883" cx="0" cy="0" r="1" gradientUnits="userSpaceOnUse" gradientTransform="translate(346.303 183.072) rotate(108.88) scale(346.595 950.357)">
<stop stop-color="#0000CC"/>
<stop offset="1" stop-color="#EFEFEF" stop-opacity="0"/>
</radialGradient>
<radialGradient id="paint1_diamond_2217_7883" cx="0" cy="0" r="1" gradientUnits="userSpaceOnUse" gradientTransform="translate(396.934 145.434) rotate(108.147) scale(487.829 1337.62)">
<stop stop-color="#0000CC"/>
<stop offset="1" stop-color="#EFEFEF" stop-opacity="0"/>
</radialGradient>
<clipPath id="clip0_2217_7883">
<rect width="39" height="39" fill="white" transform="matrix(0.956728 -0.290985 0.29116 0.956674 31.5134 379.611)"/>
</clipPath>
<clipPath id="clip1_2217_7883">
<rect width="25" height="25" fill="white" transform="matrix(0.965927 0.258816 -0.258822 0.965925 454.658 239.798)"/>
</clipPath>
</defs>
</svg>
