<svg width="51" height="51" viewBox="0 0 51 51" fill="none" xmlns="http://www.w3.org/2000/svg">
<path d="M21.6 7C19.5313 7 17.5474 7.84285 16.0846 9.34315C14.6218 10.8434 13.8 12.8783 13.8 15C13.8 17.1217 14.6218 19.1566 16.0846 20.6569C17.5474 22.1571 19.5313 23 21.6 23C23.6687 23 25.6527 22.1571 27.1154 20.6569C28.5782 19.1566 29.4 17.1217 29.4 15C29.4 12.8783 28.5782 10.8434 27.1154 9.34315C25.6527 7.84285 23.6687 7 21.6 7ZM36.225 25C31.35 25 27.45 29 27.45 34C27.45 39 31.35 43 36.225 43C41.1 43 45 39 45 34C45 29 41.1 25 36.225 25ZM21.6 27C12.981 27 6 30.58 6 35V39H24.525C23.8814 37.4157 23.55 35.7163 23.55 34C23.5584 31.6286 24.199 29.3048 25.4025 27.28C24.174 27.12 22.926 27 21.6 27ZM36.225 28C39.462 28 42.075 30.68 42.075 34C42.075 35.12 41.7825 36.16 41.256 37L33.3 28.84C34.119 28.3 35.133 28 36.225 28ZM31.194 31L39.15 39.16C38.331 39.7 37.317 40 36.225 40C32.988 40 30.375 37.32 30.375 34C30.375 32.88 30.6675 31.84 31.194 31Z" fill="#2936A3"/>
</svg>
