<svg width="31" height="31" viewBox="0 0 31 31" fill="none" xmlns="http://www.w3.org/2000/svg">
<g clip-path="url(#clip0_1992_8200)">
<path d="M29.9289 14.7592L28.2955 10.5941C28.1569 10.2415 27.9176 9.93952 27.6087 9.72732C27.2998 9.51513 26.9355 9.40251 26.563 9.40405H22.5287V8.45203C22.5287 8.19953 22.4304 7.95738 22.2553 7.77884C22.0803 7.6003 21.8429 7.5 21.5954 7.5H3.86203C3.36696 7.5 2.89216 7.7006 2.5421 8.05768C2.19203 8.41476 1.99536 8.89907 1.99536 9.40405V22.7324C1.99536 23.2374 2.19203 23.7217 2.5421 24.0788C2.89216 24.4359 3.36696 24.6365 3.86203 24.6365H5.84536C6.05098 25.4556 6.51802 26.1816 7.17285 26.7001C7.82769 27.2186 8.63307 27.5 9.46203 27.5C10.291 27.5 11.0964 27.2186 11.7512 26.7001C12.406 26.1816 12.8731 25.4556 13.0787 24.6365H18.912C19.1176 25.4556 19.5847 26.1816 20.2395 26.7001C20.8944 27.2186 21.6997 27.5 22.5287 27.5C23.3577 27.5 24.163 27.2186 24.8179 26.7001C25.4727 26.1816 25.9397 25.4556 26.1454 24.6365H28.1287C28.6238 24.6365 29.0986 24.4359 29.4486 24.0788C29.7987 23.7217 29.9954 23.2374 29.9954 22.7324V15.1162C29.9955 14.994 29.9729 14.8728 29.9289 14.7592ZM9.46203 25.5885C9.09284 25.5885 8.73194 25.4768 8.42496 25.2676C8.11799 25.0584 7.87874 24.761 7.73745 24.4131C7.59617 24.0652 7.5592 23.6823 7.63123 23.313C7.70325 22.9436 7.88104 22.6044 8.1421 22.3381C8.40315 22.0718 8.73576 21.8904 9.09786 21.817C9.45996 21.7435 9.83528 21.7812 10.1764 21.9253C10.5175 22.0694 10.809 22.3135 11.0141 22.6266C11.2192 22.9397 11.3287 23.3078 11.3287 23.6844C11.3287 24.1894 11.132 24.6737 10.782 25.0308C10.4319 25.3879 9.9571 25.5885 9.46203 25.5885ZM3.86203 17.0203V9.40405H20.662V17.0203H3.86203ZM22.5287 25.5885C22.1595 25.5885 21.7986 25.4768 21.4916 25.2676C21.1847 25.0584 20.9454 24.761 20.8041 24.4131C20.6628 24.0652 20.6259 23.6823 20.6979 23.313C20.7699 22.9436 20.9477 22.6044 21.2088 22.3381C21.4698 22.0718 21.8024 21.8904 22.1645 21.817C22.5266 21.7435 22.9019 21.7812 23.243 21.9253C23.5841 22.0694 23.8757 22.3135 24.0808 22.6266C24.2859 22.9397 24.3954 23.3078 24.3954 23.6844C24.3954 24.1894 24.1987 24.6737 23.8486 25.0308C23.4986 25.3879 23.0238 25.5885 22.5287 25.5885ZM22.5287 14.1642V11.3081H26.563L27.683 14.1642H22.5287Z" fill="#2936A3"/>
</g>
<defs>
<clipPath id="clip0_1992_8200">
<rect width="30" height="30" fill="white" transform="translate(0.995361 0.5)"/>
</clipPath>
</defs>
</svg>
