<svg width="26" height="28" viewBox="0 0 26 28" fill="none" xmlns="http://www.w3.org/2000/svg">
<path d="M24.9954 6.54412L14.4184 0.738801C14.1358 0.582163 13.8182 0.5 13.4954 0.5C13.1725 0.5 12.8549 0.582163 12.5723 0.738801L1.99536 6.54653C1.6933 6.71231 1.44116 6.95641 1.26526 7.25332C1.08935 7.55024 0.996143 7.88908 0.995361 8.23447V19.7655C0.996143 20.1109 1.08935 20.4498 1.26526 20.7467C1.44116 21.0436 1.6933 21.2877 1.99536 21.4535L12.5723 27.2612C12.8549 27.4178 13.1725 27.5 13.4954 27.5C13.8182 27.5 14.1358 27.4178 14.4184 27.2612L24.9954 21.4535C25.2974 21.2877 25.5496 21.0436 25.7255 20.7467C25.9014 20.4498 25.9946 20.1109 25.9954 19.7655V8.23568C25.9952 7.88967 25.9023 7.55008 25.7264 7.25247C25.5504 6.95486 25.298 6.7102 24.9954 6.54412ZM13.4954 2.42674L23.1528 7.73171L19.5735 9.69575L9.91603 4.39079L13.4954 2.42674ZM13.4954 13.0367L3.83791 7.73171L7.91363 5.49277L17.5711 10.7977L13.4954 13.0367ZM24.0723 19.7704L14.4569 25.05V14.7041L18.3031 12.593V16.8948C18.3031 17.1506 18.4044 17.396 18.5847 17.5769C18.765 17.7577 19.0096 17.8594 19.2646 17.8594C19.5196 17.8594 19.7642 17.7577 19.9445 17.5769C20.1248 17.396 20.2261 17.1506 20.2261 16.8948V11.5368L24.0723 9.42568V19.7655V19.7704Z" fill="#2936A3"/>
</svg>
