<svg width="31" height="31" viewBox="0 0 31 31" fill="none" xmlns="http://www.w3.org/2000/svg">
<g clip-path="url(#clip0_1992_8224)">
<path d="M22.5287 11.4146V10.75C22.5287 7.7575 18.1152 5.5 12.262 5.5C6.40886 5.5 1.99536 7.7575 1.99536 10.75V15.5227C1.99536 18.0153 5.05786 19.996 9.46203 20.589V21.25C9.46203 24.2425 13.8755 26.5 19.7287 26.5C25.5819 26.5 29.9954 24.2425 29.9954 21.25V16.4773C29.9954 14.0074 27.0297 12.0243 22.5287 11.4146ZM7.59536 18.2515C5.30986 17.5989 3.86203 16.5238 3.86203 15.5227V13.8439C4.81403 14.5336 6.08919 15.0896 7.59536 15.4631V18.2515ZM16.9287 15.4631C18.4349 15.0896 19.71 14.5336 20.662 13.8439V15.5227C20.662 16.5238 19.2142 17.5989 16.9287 18.2515V15.4631ZM15.062 23.9788C12.7765 23.3261 11.3287 22.2511 11.3287 21.25V20.7524C11.6355 20.7644 11.9459 20.7727 12.262 20.7727C12.7147 20.7727 13.1569 20.7572 13.5909 20.731C14.073 20.9075 14.5641 21.0573 15.062 21.1796V23.9788ZM15.062 18.6548C14.135 18.7949 13.1991 18.8647 12.262 18.8636C11.3249 18.8647 10.3891 18.7949 9.46203 18.6548V15.8162C10.3904 15.94 11.3258 16.0014 12.262 16C13.1983 16.0014 14.1336 15.94 15.062 15.8162V18.6548ZM22.5287 24.3821C20.672 24.6605 18.7854 24.6605 16.9287 24.3821V21.5364C17.8568 21.664 18.7922 21.7277 19.7287 21.7273C20.6649 21.7286 21.6003 21.6672 22.5287 21.5435V24.3821ZM28.1287 21.25C28.1287 22.2511 26.6809 23.3261 24.3954 23.9788V21.1903C25.9015 20.8169 27.1767 20.2609 28.1287 19.5712V21.25Z" fill="#2936A3"/>
</g>
<defs>
<clipPath id="clip0_1992_8224">
<rect width="30" height="30" fill="white" transform="translate(0.995361 0.5)"/>
</clipPath>
</defs>
</svg>
