<svg width="612" height="610" viewBox="0 0 612 610" fill="none" xmlns="http://www.w3.org/2000/svg">
<line x1="347.591" y1="164.855" x2="353.249" y2="148.825" stroke="#999EBF" stroke-opacity="0.7" stroke-width="0.868179" stroke-dasharray="4.34 4.34"/>
<path fill-rule="evenodd" clip-rule="evenodd" d="M402.901 82.008C415.674 86.1255 422.705 99.7755 418.604 112.496L405.557 152.973C398.942 173.493 420.541 191.8 439.789 181.987L477.754 162.629C489.687 156.546 504.329 161.266 510.464 173.173L532.672 216.29C538.804 228.196 534.103 242.78 522.172 248.863L484.204 268.22C464.959 278.034 467.279 306.17 487.884 312.812L528.529 325.914C541.303 330.031 548.333 343.681 544.232 356.402L529.383 402.468C525.283 415.189 511.604 422.163 498.83 418.045L458.185 404.943C437.58 398.301 419.266 419.784 429.157 438.991L448.672 476.877C454.804 488.784 450.103 503.367 438.172 509.452L394.964 531.482C383.031 537.564 368.389 532.844 362.254 520.938L342.742 483.051C332.848 463.846 304.624 466.091 298.01 486.611L284.962 527.089C280.861 539.81 267.183 546.784 254.409 542.666L208.153 527.756C195.379 523.638 188.349 509.989 192.449 497.268L205.497 456.79C212.112 436.27 190.512 417.964 171.265 427.776L133.299 447.135C121.367 453.218 106.723 448.497 100.591 436.592L78.3824 393.475C72.2502 381.567 76.9507 366.985 88.883 360.9L126.849 341.543C146.096 331.729 143.774 303.594 123.169 296.952L82.5247 283.85C69.7514 279.733 62.7206 266.083 66.8212 253.362L81.6704 207.296C85.7709 194.575 99.4498 187.601 112.223 191.719L152.867 204.82C173.472 211.462 191.789 189.979 181.896 170.772L162.382 132.886C156.25 120.98 160.951 106.396 172.882 100.313L216.09 78.2827C228.022 72.1993 242.666 76.9197 248.798 88.826L268.312 126.712C278.205 145.918 306.43 143.672 313.044 123.152L326.092 82.6751C330.192 69.9544 343.871 62.98 356.645 67.0974L402.901 82.008ZM268.404 420.047C332.27 440.634 400.665 405.761 421.167 342.158C441.67 278.555 406.516 210.304 342.65 189.717C278.783 169.13 210.389 204.002 189.886 267.606C169.384 331.209 204.537 399.459 268.404 420.047Z" fill="url(#paint0_diamond_1992_8188)" fill-opacity="0.15"/>
<line x1="436.116" y1="350.539" x2="466.178" y2="358.106" stroke="#999EBF" stroke-opacity="0.7" stroke-width="0.949767" stroke-dasharray="4.75 4.75"/>
<line x1="259.462" y1="441.111" x2="253.84" y2="464.443" stroke="#999EBF" stroke-opacity="0.7" stroke-width="0.949767" stroke-dasharray="4.75 4.75"/>
<line x1="177.227" y1="371.417" x2="166.693" y2="377.163" stroke="#999EBF" stroke-opacity="0.7" stroke-width="0.949767" stroke-dasharray="4.75 4.75"/>
<line x1="158.875" y1="255.5" x2="121.039" y2="246.041" stroke="#999EBF" stroke-opacity="0.7" stroke-width="1.03081" stroke-dasharray="5.15 5.15"/>
<line x1="374.567" y1="444.195" x2="367.983" y2="429.613" stroke="#999EBF" stroke-opacity="0.7" stroke-width="0.949767" stroke-dasharray="4.75 4.75"/>
<line x1="448.255" y1="234.401" x2="433.061" y2="244.053" stroke="#999EBF" stroke-opacity="0.7" stroke-width="0.949767" stroke-dasharray="4.75 4.75"/>
<line x1="238.57" y1="177.201" x2="225.446" y2="149.116" stroke="#999EBF" stroke-opacity="0.7" stroke-width="0.949767" stroke-dasharray="4.75 4.75"/>
<circle cx="305.992" cy="306.5" r="101.025" stroke="#999EBF" stroke-opacity="0.5" stroke-width="0.949767" stroke-dasharray="4.75 4.75"/>
<defs>
<radialGradient id="paint0_diamond_1992_8188" cx="0" cy="0" r="1" gradientUnits="userSpaceOnUse" gradientTransform="translate(496.829 218.6) rotate(130.416) scale(691.39 1901.79)">
<stop stop-color="#0000CC"/>
<stop offset="1" stop-color="#EFEFEF" stop-opacity="0"/>
</radialGradient>
</defs>
</svg>
