<svg width="116" height="86" viewBox="0 0 116 86" fill="none" xmlns="http://www.w3.org/2000/svg">
<path d="M64.6923 76.9474L64.6923 27.1579C64.6997 19.9575 67.5224 13.0541 72.541 7.96264C77.5596 2.87117 84.3642 0.00749483 91.4615 2.14522e-06C92.6448 2.04178e-06 93.7796 0.476877 94.6163 1.32573C95.453 2.17458 95.9231 3.32587 95.9231 4.52632C95.9231 5.72677 95.453 6.87806 94.6163 7.72691C93.7796 8.57576 92.6448 9.05264 91.4615 9.05264C86.7284 9.05264 82.1892 10.9602 78.8424 14.3555C75.4956 17.7509 73.6154 22.3561 73.6154 27.1579L73.6154 31.6842L107.077 31.6842C109.443 31.6842 111.713 32.638 113.386 34.3357C115.06 36.0334 116 38.3359 116 40.7368L116 76.9474C116 79.3483 115.06 81.6508 113.386 83.3485C111.713 85.0462 109.443 86 107.077 86L73.6154 86C71.2488 86 68.9792 85.0462 67.3058 83.3486C65.6324 81.6509 64.6923 79.3483 64.6923 76.9474ZM8.92308 86L42.3846 86C44.7512 86 47.0208 85.0462 48.6942 83.3486C50.3676 81.6509 51.3077 79.3483 51.3077 76.9474L51.3077 40.7368C51.3077 38.3359 50.3676 36.0334 48.6942 34.3357C47.0208 32.638 44.7512 31.6842 42.3846 31.6842L8.92308 31.6842L8.92308 27.1579C8.92307 22.3561 10.8033 17.7509 14.1501 14.3556C17.4969 10.9602 22.0361 9.05264 26.7692 9.05264C27.9525 9.05264 29.0873 8.57577 29.924 7.72691C30.7607 6.87807 31.2308 5.72678 31.2308 4.52633C31.2308 3.32587 30.7607 2.17458 29.924 1.32574C29.0873 0.476883 27.9525 7.69736e-06 26.7692 7.8008e-06C19.6719 0.00750049 12.8673 2.87117 7.84867 7.96264C2.83006 13.0541 0.00737948 19.9575 -5.14414e-06 27.1579L-7.91406e-07 76.9474C-5.81512e-07 79.3483 0.940109 81.6509 2.61352 83.3486C4.28692 85.0463 6.55653 86 8.92308 86Z" fill="#2936A3" fill-opacity="0.9"/>
</svg>
