<svg width="98" height="34" viewBox="0 0 98 34" fill="none" xmlns="http://www.w3.org/2000/svg">
<g clip-path="url(#clip0_2080_8072)">
<path d="M13.0295 8.50806H20.5893C22.4632 8.50806 23.9429 8.9459 25.0286 9.82158C26.1142 10.6973 26.6566 12.0042 26.6557 13.7425C26.6557 15.3828 26.1502 16.6809 25.1394 17.6369C24.1286 18.5929 22.7502 19.0699 21.0043 19.068H16.0876V25.6749H13.0295V8.50806ZM16.0876 11.0161V16.6328H20.3506C22.5683 16.6328 23.6777 15.6927 23.6786 13.8126C23.6786 11.9454 22.4798 11.0119 20.082 11.0119L16.0876 11.0161Z" fill="url(#paint0_linear_2080_8072)"/>
<path d="M34.7781 12.8716C36.7022 12.8716 38.2354 13.4663 39.3779 14.6556C40.5204 15.845 41.0888 17.4446 41.0832 19.4546C41.0832 21.4795 40.5147 23.0866 39.3779 24.276C38.2411 25.4653 36.7078 26.06 34.7781 26.06C32.8038 26.06 31.2384 25.4653 30.0817 24.276C28.9249 23.0866 28.3456 21.4795 28.3438 19.4546C28.3438 17.4446 28.9268 15.845 30.093 14.6556C31.2592 13.4663 32.8209 12.8716 34.7781 12.8716ZM37.3359 16.2114C36.7078 15.4319 35.8396 15.0421 34.7312 15.0421C33.6228 15.0421 32.7522 15.4356 32.1194 16.2226C31.4828 17.0115 31.1645 18.0888 31.1645 19.4546C31.1645 20.8549 31.4828 21.9477 32.1194 22.7328C32.756 23.5179 33.6366 23.9119 34.7611 23.9147C35.8533 23.9147 36.7135 23.5165 37.3416 22.7202C37.9697 21.9239 38.2838 20.8269 38.2838 19.4294C38.279 18.0645 37.9626 16.9919 37.3345 16.2114H37.3359Z" fill="url(#paint1_linear_2080_8072)"/>
<path d="M53.4744 16.0658L50.7745 16.85C50.6144 15.5327 49.7012 14.8736 48.0348 14.8727C47.3158 14.8727 46.7611 15.0015 46.3708 15.2592C46.1889 15.3697 46.0394 15.5251 45.9372 15.7101C45.835 15.895 45.7836 16.1031 45.7882 16.3136C45.7864 16.4433 45.7983 16.5728 45.8237 16.7001C45.8462 16.8101 45.8949 16.9133 45.9658 17.0012C46.0383 17.0894 46.1079 17.1664 46.1605 17.2308C46.2484 17.3196 46.3545 17.3888 46.4717 17.4339L46.8255 17.5907C46.9731 17.6479 47.1246 17.6946 47.2788 17.7308L47.7804 17.8624C47.9026 17.8946 48.1016 17.9394 48.3801 18.0024C48.6586 18.0655 48.8689 18.1033 49.0153 18.1355C49.6519 18.2802 50.1128 18.3885 50.3979 18.4603C50.8222 18.5806 51.2388 18.7255 51.6456 18.8945C52.0851 19.0502 52.4945 19.2785 52.8563 19.5694C53.1503 19.8458 53.3939 20.1697 53.5768 20.5273C53.8037 20.9631 53.9175 21.4476 53.9079 21.9374C53.9079 23.1912 53.41 24.1877 52.4144 24.9271C51.4187 25.6665 50.0815 26.0362 48.4028 26.0362C46.6076 26.0362 45.2292 25.6665 44.2677 24.9271C43.3057 24.1877 42.9561 23.6276 42.5298 22.5073L45.3931 21.6965C45.5438 23.2556 46.5664 24.0351 48.4611 24.0351C49.2768 24.0351 49.9333 23.8703 50.4306 23.5408C50.6603 23.4049 50.85 23.2122 50.9809 22.9818C51.1117 22.7514 51.1792 22.4913 51.1767 22.2273C51.1842 21.9815 51.1207 21.7386 50.9934 21.5271C50.8434 21.3111 50.6359 21.1401 50.3937 21.0328C50.1383 20.9053 49.872 20.8003 49.5979 20.7191C49.345 20.6482 49.0063 20.5641 48.5819 20.467C48.4454 20.4277 48.3069 20.3955 48.167 20.3704C46.3727 19.9363 45.2307 19.5988 44.7409 19.358C43.5832 18.8118 43.0044 17.9035 43.0044 16.6329C43.0044 15.4594 43.461 14.5394 44.3743 13.8728C45.2875 13.2063 46.5517 12.8725 48.167 12.8716C49.7159 12.8716 50.9839 13.2011 51.971 13.8602C52.9515 14.5198 53.1902 15.0855 53.4744 16.0658Z" fill="url(#paint2_linear_2080_8072)"/>
<path d="M62.3019 13.2328V15.2353H59.7568V21.7931C59.7568 22.1787 59.7653 22.4475 59.7824 22.5997C59.8026 22.7749 59.8506 22.946 59.9245 23.1066C59.9629 23.1963 60.021 23.2763 60.0948 23.341C60.1685 23.4057 60.256 23.4534 60.3508 23.4805C60.6258 23.5537 60.9102 23.5862 61.1949 23.5771C61.5626 23.5812 61.9303 23.5648 62.2962 23.5281V25.6958C61.6705 25.764 61.0414 25.7963 60.4119 25.7925C59.983 25.7972 59.5547 25.7606 59.133 25.6832C58.8204 25.6258 58.5137 25.541 58.2164 25.4298C57.9662 25.3299 57.7527 25.1575 57.604 24.9355C57.442 24.703 57.3155 24.5102 57.2246 24.3571C57.1081 24.1025 57.042 23.8282 57.0299 23.5491C56.9882 23.1645 56.9678 22.8714 56.9688 22.6697V15.2353H54.8643V13.2328H56.9688V10.0568L59.7568 8.08374V13.2328H62.3019Z" fill="url(#paint3_linear_2080_8072)"/>
<path d="M75.5868 21.793C75.2761 23.143 74.603 24.1956 73.5676 24.9508C72.5321 25.7061 71.2968 26.0837 69.8616 26.0837C67.9536 26.0837 66.4407 25.4769 65.3228 24.2632C64.205 23.0496 63.6465 21.4948 63.6475 19.5987C63.6475 17.6541 64.222 16.0456 65.3712 14.7731C66.5203 13.5007 67.9839 12.8659 69.7621 12.8687C71.6047 12.8687 73.0645 13.4918 74.1417 14.7381C75.2188 15.9844 75.7569 17.684 75.7559 19.8368V20.1266H66.4369C66.4682 21.3804 66.786 22.3485 67.3904 23.0309C67.9948 23.7134 68.8346 24.0551 69.9099 24.056C70.6772 24.056 71.3011 23.8754 71.7814 23.5141C72.2617 23.1528 72.6406 22.5782 72.9182 21.7902L75.5868 21.793ZM72.9679 18.2922C72.8874 17.2475 72.5558 16.4237 71.9732 15.8206C71.3906 15.2175 70.6445 14.9164 69.7351 14.9174C68.8219 14.9174 68.0839 15.2068 67.5212 15.7856C66.9584 16.3644 66.6117 17.1999 66.481 18.2922H72.9679Z" fill="url(#paint4_linear_2080_8072)"/>
<path d="M85.0295 15.6204C84.5406 15.5728 84.2138 15.5476 84.0518 15.5476C81.6209 15.5476 80.4055 17.0987 80.4055 20.2009V25.6748H77.6416V13.2328H80.2591V15.717C81.1562 13.8686 82.5673 12.9443 84.4923 12.9443L85.0295 15.6204Z" fill="url(#paint5_linear_2080_8072)"/>
</g>
<defs>
<linearGradient id="paint0_linear_2080_8072" x1="19.8434" y1="25.6749" x2="19.8434" y2="8.51171" gradientUnits="userSpaceOnUse">
<stop stop-color="#777777"/>
<stop offset="0.07" stop-color="#676767"/>
<stop offset="0.26" stop-color="#424242"/>
<stop offset="0.45" stop-color="#252525"/>
<stop offset="0.64" stop-color="#111111"/>
<stop offset="0.82" stop-color="#040404"/>
<stop offset="1"/>
</linearGradient>
<linearGradient id="paint1_linear_2080_8072" x1="34.7142" y1="26.06" x2="34.7142" y2="12.8744" gradientUnits="userSpaceOnUse">
<stop stop-color="#777777"/>
<stop offset="0.07" stop-color="#676767"/>
<stop offset="0.26" stop-color="#424242"/>
<stop offset="0.45" stop-color="#252525"/>
<stop offset="0.64" stop-color="#111111"/>
<stop offset="0.82" stop-color="#040404"/>
<stop offset="1"/>
</linearGradient>
<linearGradient id="paint2_linear_2080_8072" x1="48.2198" y1="26.0362" x2="48.2198" y2="12.8744" gradientUnits="userSpaceOnUse">
<stop stop-color="#777777"/>
<stop offset="0.07" stop-color="#676767"/>
<stop offset="0.26" stop-color="#424242"/>
<stop offset="0.45" stop-color="#252525"/>
<stop offset="0.64" stop-color="#111111"/>
<stop offset="0.82" stop-color="#040404"/>
<stop offset="1"/>
</linearGradient>
<linearGradient id="paint3_linear_2080_8072" x1="58.5835" y1="25.7929" x2="58.5835" y2="8.08751" gradientUnits="userSpaceOnUse">
<stop stop-color="#777777"/>
<stop offset="0.07" stop-color="#676767"/>
<stop offset="0.26" stop-color="#424242"/>
<stop offset="0.45" stop-color="#252525"/>
<stop offset="0.64" stop-color="#111111"/>
<stop offset="0.82" stop-color="#040404"/>
<stop offset="1"/>
</linearGradient>
<linearGradient id="paint4_linear_2080_8072" x1="69.7024" y1="26.0837" x2="69.7024" y2="12.8715" gradientUnits="userSpaceOnUse">
<stop stop-color="#777777"/>
<stop offset="0.07" stop-color="#676767"/>
<stop offset="0.26" stop-color="#424242"/>
<stop offset="0.45" stop-color="#252525"/>
<stop offset="0.64" stop-color="#111111"/>
<stop offset="0.82" stop-color="#040404"/>
<stop offset="1"/>
</linearGradient>
<linearGradient id="paint5_linear_2080_8072" x1="81.336" y1="25.6748" x2="81.336" y2="12.947" gradientUnits="userSpaceOnUse">
<stop stop-color="#777777"/>
<stop offset="0.07" stop-color="#676767"/>
<stop offset="0.26" stop-color="#424242"/>
<stop offset="0.45" stop-color="#252525"/>
<stop offset="0.64" stop-color="#111111"/>
<stop offset="0.82" stop-color="#040404"/>
<stop offset="1"/>
</linearGradient>
<clipPath id="clip0_2080_8072">
<rect width="72" height="18" fill="white" transform="translate(13.0295 8.08374)"/>
</clipPath>
</defs>
</svg>
