<svg width="14" height="14" viewBox="0 0 14 14" fill="none" xmlns="http://www.w3.org/2000/svg">
<g clip-path="url(#clip0_2005_10309)">
<path d="M12.9545 1.43217C12.8867 1.37363 12.8042 1.3347 12.716 1.31957C12.6277 1.30444 12.537 1.31369 12.4535 1.34631L1.37058 5.68357C1.21351 5.74465 1.08053 5.8551 0.99166 5.99829C0.902793 6.14149 0.862849 6.30967 0.877839 6.47753C0.89283 6.64539 0.961945 6.80384 1.07478 6.92902C1.18761 7.0542 1.33806 7.13934 1.50347 7.17162L4.37511 7.73545V10.9374C4.37454 11.1118 4.42637 11.2824 4.52388 11.427C4.62139 11.5716 4.76008 11.6836 4.92198 11.7484C5.08363 11.8144 5.26141 11.8303 5.43219 11.7939C5.60296 11.7575 5.75885 11.6706 5.87956 11.5444L7.26425 10.1083L9.46105 12.0311C9.61954 12.1717 9.82395 12.2495 10.0358 12.2499C10.1287 12.2498 10.2209 12.2352 10.3092 12.2067C10.4536 12.1609 10.5834 12.0781 10.6858 11.9665C10.7882 11.8549 10.8595 11.7184 10.8928 11.5707L13.1125 1.91396C13.1324 1.82687 13.1282 1.73602 13.1003 1.65115C13.0725 1.56627 13.0221 1.49057 12.9545 1.43217ZM10.0369 11.3749L5.51534 7.41006L12.0232 2.74576L10.0369 11.3749Z" fill="white"/>
</g>
<defs>
<clipPath id="clip0_2005_10309">
<rect width="14" height="14" fill="white"/>
</clipPath>
</defs>
</svg>
