<svg width="75" height="75" viewBox="0 0 75 75" fill="none" xmlns="http://www.w3.org/2000/svg">
<g clip-path="url(#clip0_1222_5911)">
<path d="M37.5 7.03125C31.4739 7.03125 25.583 8.81821 20.5725 12.1662C15.5619 15.5141 11.6567 20.2727 9.35056 25.8401C7.04445 31.4075 6.44107 37.5338 7.61671 43.4442C8.79236 49.3545 11.6942 54.7835 15.9554 59.0447C20.2165 63.3058 25.6455 66.2077 31.5559 67.3833C37.4662 68.5589 43.5925 67.9556 49.1599 65.6495C54.7273 63.3433 59.4859 59.4381 62.8339 54.4275C66.1818 49.417 67.9688 43.5261 67.9688 37.5C67.9602 29.4218 64.7474 21.6769 59.0353 15.9648C53.3231 10.2526 45.5782 7.03978 37.5 7.03125ZM50.877 32.127L34.4707 48.5332C34.253 48.7511 33.9946 48.924 33.71 49.0419C33.4255 49.1599 33.1205 49.2206 32.8125 49.2206C32.5045 49.2206 32.1995 49.1599 31.915 49.0419C31.6305 48.924 31.372 48.7511 31.1543 48.5332L24.1231 41.502C23.6833 41.0622 23.4362 40.4657 23.4362 39.8438C23.4362 39.2218 23.6833 38.6253 24.1231 38.1855C24.5628 37.7458 25.1593 37.4987 25.7813 37.4987C26.4032 37.4987 26.9997 37.7458 27.4395 38.1855L32.8125 43.5615L47.5606 28.8105C47.7783 28.5928 48.0368 28.4201 48.3214 28.3022C48.6059 28.1844 48.9108 28.1237 49.2188 28.1237C49.5267 28.1237 49.8317 28.1844 50.1162 28.3022C50.4007 28.4201 50.6592 28.5928 50.877 28.8105C51.0947 29.0283 51.2675 29.2868 51.3853 29.5713C51.5032 29.8559 51.5638 30.1608 51.5638 30.4688C51.5638 30.7767 51.5032 31.0816 51.3853 31.3662C51.2675 31.6507 51.0947 31.9092 50.877 32.127Z" fill="#2936A3"/>
</g>
<defs>
<clipPath id="clip0_1222_5911">
<rect width="75" height="75" fill="white"/>
</clipPath>
</defs>
</svg>
