<svg width="952" height="628" viewBox="0 0 952 628" fill="none" xmlns="http://www.w3.org/2000/svg">
<path d="M600.918 596.25L600.778 606.28L598.883 609.325L603.046 610.679L594.814 611.387L591.91 612.879L597.641 619.016L604.381 619.693L606.168 624.154L609.103 624.477L610.749 627L618.251 625.739" stroke="#D0D5FF" stroke-opacity="0.7" stroke-width="0.7"/>
<path d="M618.251 625.739L623.05 626.616L631.313 624.077L633.425 619.324L637.758 618.432L640.709 614.971L642.884 615.325L642.977 612.802L648.677 603.495L656.676 598.865L663.013 596.096L671.695 595.773L675.438 594.02L678.824 594.804L681.495 597.496L683.996 595.235L685.564 589.897L689.634 588.328L690.829 584.867L697.337 586.067L695.97 583.129L699.48 581.344L697.586 580.406L697.477 578.529L703.41 573.684L707.899 572.745L713.459 574.453L717.87 577.329L721.318 582.436L731.506 579.129L741.866 580.821L743.823 579.006L749.802 578.529L754.167 575.637L751.387 566.977L753.266 563.039L752.179 561.593L756.388 559.055L754.477 557.809L754.819 556.163L761.653 556.67L763.532 553.748L761.032 550.025L758.842 551.132L754.788 548.702L751.371 549.379L744.724 546.825L734.193 549.225L732.656 553.578L728.369 555.04L722.762 551.332L721.597 549.256L723.026 547.918L721.799 547.379L716.503 553.378L717.031 554.886L714.981 557.716L704.435 561.424L701.298 563.177L696.856 563.546L695.846 565.392L694.65 563.654L695.644 561.485L681.806 555.901L678.668 549.994L682.971 546.518L681.728 541.088L678.56 535.042L675.174 533.165L675.453 531.596L671.757 532.827L670.701 529.674L668.573 531.058L667.843 529.212L670.809 526.828L661.195 530.181L660.015 529.089L665.839 523.721L664.24 521.49L659.27 523.213L660.108 519.044L663.277 517.352L664.55 518.383L664.302 515.983L659.285 518.09L653.445 523.613L649.609 524.413L648.941 522.921L651.566 522.767L653.802 518.521L657.701 516.691L658.276 511.968L653.88 509.153L655.34 514.506L652.793 514.029L650.168 517.721L650.292 513.86L646.083 510.476L643.288 505.461L641.129 506.23L642.278 507.092L641.548 509.153L639.436 508.015L638.846 504.477L637.308 508.707L635.972 504.769L630.505 503.108L630.117 504.6L633.285 507.215L634.45 506.538L636.19 511.707L632.555 512.876L629.977 509.661L632.089 510.599L634.435 508.184L629.48 504.877L628.921 502.692L625.753 500.631L621.73 501.216L621.093 502.123L624.603 503.584L621.808 504.061L615.207 500.431L617.474 497.754L616.372 495.201L614.415 495.032L615.657 497.031L613.7 499.231L605.841 491.032L604.304 491.294L605.438 497.816L604.35 498.201L605.779 502.077L604.304 504.338L604.444 512.291L611.2 511.968L611.961 513.645L607.736 515.229L607.891 520.075L604.257 516.475L600.545 520.567L597.439 519.152L595.513 521.413L594.27 520.629L590.403 524.351L584.579 526.843L581.472 525.213L579.298 529.243L567.339 534.996L562.695 538.811L563.86 539.765L562.866 541.441L560.986 540.795L550.363 546.81L544.678 553.101L546.48 554.701L545.44 556.763L553.687 559.162L559.278 555.394L567.137 555.67L585.666 571.438L592.391 567.807L595.715 569.376L601.648 576.068L603.807 582.544L603.915 591.989L601.151 594.081L600.918 596.25" stroke="#D0D5FF" stroke-opacity="0.7" stroke-width="0.7"/>
<path d="M525.606 179.193L528.712 184.239L535.173 186.1L535.468 188.069L532.735 188.715L532.983 191.069L535.872 194.638L536.959 193.084L537.891 193.822L539.537 199.283L541.991 200.868L541.386 205.421L542.457 206.652L539.258 207.759L543.25 214.035L546.03 213.312L546.713 215.82L548.794 216.112L549.757 221.619L556.808 225.065L556.218 229.495L559.293 231.695L558.967 235.833L555.116 237.94L553.857 242.847L558.424 249.615L547.925 247.416L546.247 245.339L544.042 251.646L551.621 257.645L557.181 257.322L559.573 259.368L564.481 258.168L559.325 264.906L566.345 268.336L566.329 270.075L562.291 271.813L563.068 276.797L565.304 277.75L563.891 279.181L558.082 280.412L555.038 278.92L555.178 281.012L550.114 281.596L547.878 280.319L548.313 282.427L546.93 282.488L544.414 274.966L542.815 273.566L541.727 275.366L539.553 275.059L537.907 271.32L534.443 270.982L531.71 273.043L530.918 278.735L529.256 277.827L528.821 279.75L526.553 280.412L527.097 284.58L524.674 285.319L520.915 283.027L515.091 286.919L515.122 284.996L509.267 281.658L506.269 283.442L503.8 283.104L503.008 285.811L499.575 285.165L497.385 286.626L497.572 284.58L496.407 291.072L486.948 299.056L484.23 299.179L483.189 296.794L480.735 297.502L478.375 295.887L473.016 299.132L464.35 295.748L460.746 297.671L457.019 295.871L456.584 296.887L450.853 296.041L447.809 297.333L446.333 299.825L444.578 299.732L446.38 301.624L445.712 304.224L442.233 307.008L444.345 308.777L444.05 311.731L435.585 311.193L434.747 314.746L427.789 316.638L426.484 318.407L422.927 316.653L420.256 320.807L416.855 318.499L412.614 319.207L412.583 317.807L414.447 317.346L413.904 315.53L415.364 315.577L414.556 311.331L411.543 309.639L413.966 306.532L407.039 301.332L408.281 298.763L407.334 296.41L402.131 294.733L401.618 289.903L399.242 286.103L400.205 285.073L396.011 282.704L398.294 277.704L397.72 275.935L395.499 276.858L393.682 273.536L394.148 272.566L394.815 273.628L396.027 270.29L397.922 270.905L397.611 268.921L400.345 268.121L398.76 260.014L400.36 259.599L401.463 259.845L399.941 261.368L401.944 263.568L408.204 263.06L407.738 261.891L411.978 257.522L411.543 252.892L415.814 251.323L418.206 252L419.914 256.215L421.98 251.185L424.853 251.661L424.232 255.845L433.333 257.415L433.939 258.937L436.145 251.6L439.173 248.677L441.565 251.646L446.225 248.339L452.717 251.354L462.067 249.169L463.294 247.4L462.734 244.601L466.664 244.032L468.419 240.294L469.242 241.432L469.009 240.109L471.789 238.125L472.799 233.479L474.958 233.371L474.057 229.526L478.483 222.465L477.381 221.85L478.219 215.758L476.899 214.697L477.94 209.682L486.715 205.744L484.649 202.775L485.271 201.698L482.149 201.16L482.956 198.514L490.101 199.283L489.262 205.729L493.331 210.313L497.913 205.144L499.094 205.221L499.342 209.359L504.545 209.82L509.872 200.468L513.662 200.729L514.345 202.467L514.268 196.207L518.539 194.33L514.61 193.13L514.796 189.484L518.058 187.685L516.147 185.008L517.654 185.439L519.176 181.424L522.468 182.501L525.606 179.193Z" stroke="#D0D5FF" stroke-opacity="0.7" stroke-width="0.7"/>
<path d="M582.513 1L588.12 2.95361L592.717 1.26151L594.534 3.41509L592.562 5.79941L591.444 12.1063L588.695 14.5214L589.005 21.0745L593.82 22.1666L595.125 25.3201L598.34 25.2124L598.309 29.3811L594.472 30.381L592.484 28.3812L588.695 29.9811L588.058 31.3501L591.754 34.5651L590.543 38.5954L588.508 37.9955L581.333 40.7182L581.286 42.3641L578.444 44.1485L579.717 48.0558L576.254 51.5784L579.174 55.8702L578.801 62.3925L582.078 67.561L583.725 67.8533L580.277 69.2993L582.171 74.0218L578.925 75.9446L578.941 84.5128L576.673 83.5745L577.916 85.4512L576.627 85.6511L574.08 83.7591L574.592 82.2516L573.101 83.3283L574.033 87.4509L575.493 87.4201L576.238 89.2968L574.235 91.7735L575.959 92.158L575.695 95.1269L573.769 97.2651L574.204 99.1418L570.818 100.526L570.072 102.726L571.641 104.233L569.156 108.464L575.804 110.433L576.487 113.048L574.313 116.724L576.176 117.509L578.258 115.524L579.407 119.601L582.637 119.293L582.979 124.816L581.053 125.415L581.752 128.615L580.137 133.276L581.985 136.86L584.61 138.029L579.329 139.814L579.888 144.29L578.226 145.152L578.506 149.351L574.685 153.75L575.648 155.427L573.334 156.935L572.775 159.319L570.663 159.242L567.681 164.595L561.033 167.672L561.064 169.549L554.805 168.718L554.883 167.656L547.086 169.764L545.02 167.749L545.346 165.349L540.221 164.718L538.777 163.042L536.493 163.257L534.769 166.903L532.828 167.441L532.797 169.579L527.097 169.625L527.687 167.241L523.96 167.395L524.705 164.103L522.096 165.303L520.76 160.611L517.778 159.581L518.725 157.458L521.801 157.612L522.764 153.781L516.97 153.52L515.355 149.413L512.016 146.474L508.149 148.628L507.947 152.304L500.942 152.766L500.103 155.319L494.388 154.735L490.008 157.073L486.342 154.35L484.168 157.073L479.788 151.535L475.719 149.874L475.75 148.243L478.825 147.92L477.396 145.444L478.344 141.244L473.374 136.553L473.482 134.599L464.303 136.045L461.119 134.722L459.069 137.106L457.982 136.153L458.153 135.783L453.136 134.83L452.857 131.23L454.379 131.584L455.311 129.846L454.674 126.262L450.434 124.016L448.197 116.078L445.945 113.909L440.727 114.232L441.115 109.987L439.872 108.264L441.565 106.941L440.136 102.203L442.715 101.188L440.866 97.3112L443.646 96.6036L442.668 94.327L446.597 92.3734L447.063 90.7121L445.526 90.0352L448.523 87.9278L448.741 84.5897L446.846 80.6825L445.122 80.5287L444.889 78.6828L447.048 77.3598L444.252 73.6526L444.951 70.653L443.134 71.0991L442.155 69.2839L443.491 67.9302L441.146 66.4535L443.6 65.6997L441.084 63.9769L442.482 61.4849L441.534 60.4235L444.361 61.0542L444.019 57.3623L447.172 56.7008L448.492 52.8398L446.629 52.1783L448.865 51.6707L448.617 47.4251L450.9 46.4252L453.618 40.8874L456.475 41.2412L457.656 39.2876L456.879 36.9802L461.042 35.2266L461.71 32.2577L463.294 33.1037L462.377 30.8117L464.272 25.1047L466.198 26.0892L474.337 24.0279L480.27 29.0735L482.522 28.212L483.951 23.7664L487.166 22.4281L486.762 21.3975L490.629 20.7207L491.561 22.5666L502.278 22.9511L504.887 24.5663L508.009 23.105L509.857 24.351L512.513 23.3511L517.297 26.1046L515.045 28.8581L517.98 28.1351L524.457 29.7349L527.268 26.6892L532.828 25.1663L538.808 20.2438L536.68 19.7669L537.783 16.5366L536.571 13.9215L537.689 12.0602L540.392 11.6602L538.171 6.12245L538.839 4.21499L545.144 6.10706L548.391 5.12257L556.358 11.5525L559.232 10.0297L562.384 10.6142L563.503 9.02978L565.894 9.42973L567.137 11.8141L571.75 9.53741L575.182 4.89183L575.617 6.93773L579.05 3.39971L580.851 3.79966L580.96 1.0923L582.513 1Z" stroke="#D0D5FF" stroke-opacity="0.7" stroke-width="0.7"/>
<path d="M184.535 303.439L188.962 304.301L190.189 306.608L192.783 303.286L196.464 307.439L196.231 309.393L199.275 310.208L202.769 307.501L205.177 308.408L206.745 305.501L207.553 308.716L206.404 310.469L209.044 314.115L210.737 312.946L209.091 309.285L210.209 307.654L212.896 314.853L218.161 313.946L219.916 316.376L222.618 316.469L224.653 314.315L227.356 314.1L229.608 313.561L233.118 320.299L235.618 320.807L237.016 320.007L236.224 316.484L238.678 318.192L241.66 317.515L239.532 313.869L236.97 314.254L236.69 312.792L238.694 312.223L242.343 314.53L242.406 310.131L245.061 313.407L245.015 309.531L246.351 308.393L250.28 313.823L256.104 310.116L256.601 311.5L261.09 312.561L265.237 310.577L269.523 311.946L270.517 310.546L269.523 307.439L273.437 309.254L276.186 306.839L280.364 309.239L281.762 316.438L284.605 319.376L281.374 320.76L279.961 323.975L276.947 323.991L275.86 321.514L273.391 321.499L271.48 327.067L266.743 325.344L263.854 326.883L260.919 322.145L257.409 323.068L259.133 326.344L256.71 326.421L256.229 328.113L252.718 327.652L250.125 323.345L244.999 323.422L243.695 324.96L242.235 324.098L244.223 328.436L247.22 329.236L246.832 333.144L242.996 331.651L240.045 328.375L240.713 330.498L236.628 334.682L236.643 337.374L234.857 336.866L234.081 338.943L228.707 338.927L227.029 340.927L221.547 341.727L218.487 349.603L215.272 351.987L213.75 356.433L196.681 358.371L192.177 360.74L185.483 359.909L167.932 362.632L163.63 364.355L157.588 374.969L154.342 375.584L153.535 377.246L147.338 377.123L151.283 367.201L147.151 360.186L146.872 353.864L151.143 349.234L150.692 346.988L153.302 347.326L156.315 343.296L155.926 341.866L158.66 341.789L157.091 338.512L161.083 336.435L169.05 326.652L176.117 324.622L183.743 326.237L182.159 306.808L184.535 303.439Z" stroke="#D0D5FF" stroke-opacity="0.7" stroke-width="0.7"/>
<path d="M619.012 285.334L625.629 288.272L628.238 291.303L630.956 291.626L631.53 294.841L639.684 297.902L640.119 299.486L642.449 294.579L640.29 294.533L640.104 291.749L642.837 291.518L641.626 290.81L642.946 289.041L640.523 285.719L643.21 278.95L641.828 277.627L646.518 273.274L645.788 270.105L653.585 273.212L655.697 268.736L664.845 266.336L664.877 263.983L669.8 262.629L671.897 263.706L670.126 264.906L671.835 265.829L674.599 262.337L678.156 265.798L679.989 263.814L681.65 266.244L683.638 264.506L684.679 265.736L687.335 264.967L689.214 267.675L687.164 268.951L690.659 268.69L702.633 279.919L703.86 278.796L706.765 279.858L710.151 278.935L710.275 280.289L713.04 280.104L714.422 281.688L715.198 280.519L718.538 281.319L719.47 283.334L723.648 279.596L725.247 279.981L726.552 277.689L732.003 284.227L730.45 286.488L731.848 287.641L730.808 289.18L733.681 290.626L733.137 292.718H736.212L739.505 294.748L737.082 296.133L738.278 297.486L737.3 299.394L744.662 304.547L743.077 307.578L746.51 310.116L744.04 313.654L745.392 314.638L746.836 312.792L748.405 314.438L753.313 308.07L752.396 306.47L755.145 304.301L760.861 309.116L768.689 307.131L769.046 309.454L772.23 309.47L772.478 311.639L777.153 313.546L777.417 315.315L774.529 315.823L774.746 318.022L773.503 318.361L774.575 323.622L773.069 323.868L772.339 329.052L772.805 331.759L777.666 332.005L779.033 341.066L775.647 341.866L776.843 349.926L774.622 353.526L769.061 352.049L767.493 349.48L764.107 348.388L760.24 349.88L760.55 359.31L762.818 359.048L763.439 362.232L758.314 363.401L760.519 367.816L753.965 369.662L746.991 368.37L747.038 369.878L744.335 370.262L743.73 369.078L740.095 369.062L739.94 366.97L733.696 367.878L733.51 366.478H735.855L736.523 363.54L735.498 360.617L734.224 361.448L733.634 358.74L732.5 359.125L733.51 358.156L731.584 354.756L733.246 354.126L732.578 351.434L728.54 352.357L728.027 348.726L720.091 350.741L719.656 348.296L716.301 348.557L714.282 345.204L704.715 350.065L704.513 348.649L692.585 344.758L682.567 345.773L676.727 349.003L672.798 348.957L672.813 345.85L669.722 345.696L670.763 351.741L668.899 352.141L669.256 354.879L670.313 357.341L672.238 357.202L672.798 361.094L666.818 362.478L667.61 366.401L669.893 365.355L670.421 367.447L671.881 367.386L671.571 374.492L674.925 373.908L673.993 380.892L672.269 381.384L674.863 391.967L670.375 393.029L656.117 389.69L631.965 396.305L624.526 397.782L620.954 393.367L605.841 395.767L605.391 393.567L603.03 394.351L604.04 388.983L602.409 386.875L597.097 387.937L597.579 391.229L589.238 392.798L590.465 395.136L588.493 395.967L587.033 391.413L583.336 392.152L584.284 388.721L576.875 388.537L576.953 387.06L569.995 387.429L571.859 385.537L570.601 377.538L575.788 376.215L574.701 372.908L575.089 369.047L576.316 368.693L576.223 362.263L572.293 362.54L572.247 356.879L573.132 357.218L574.219 353.187L577.807 352.772L577.621 350.803L579.64 350.926L580.106 352.649L579.531 349.957L583.942 348.757L584.393 347.173L581.799 347.834L581.612 346.773L584.02 346.188L583.29 342.635L586.365 344.065L587.343 348.065L588.695 346.711L587.437 344.373L594.721 342.727L594.612 341.404L597.284 340.912L598.417 338.097L600.747 337.435L599.054 334.359L599.163 330.329L597.02 330.436L596.227 328.452L596.678 325.791L598.215 325.36L596.895 313.454L598.821 311.654L604.754 311.762L604.18 309.316L606.68 310.285L611.044 307.854L614.368 302.286L611.495 302.763L607.954 299.532L604.568 299.086L602.844 297.056L602.689 293.702L606.54 294.01L607.923 292.133L610.687 294.287L614.632 293.21L614.974 295.456L616.713 295.656L619.012 285.334Z" stroke="#D0D5FF" stroke-opacity="0.7" stroke-width="0.7"/>
<path d="M828.128 258.968L831.513 262.568L829.308 263.968L830.147 265.86L836.887 267.675L837.276 265.767L839.093 266.09L837.633 273.074L840.118 278.089L837.695 278.889L837.71 280.489L836.437 279.796L835.21 282.073L840.786 283.488L846.719 283.011L846.657 290.303L851.378 291.38L848.738 297.21L852.062 299.763L850.959 300.179L851.502 302.44L848.645 303.901L849.375 313.546L851.596 316.161L850.353 318.853L851.363 320.576L854.95 322.514L857.637 321.268L858.445 326.729L860.837 327.729L857.746 329.652L857.171 333.79L859.377 334.944L864.098 334.39L866.009 336.22L866.91 342.789L878.077 346.896L879.009 354.849L889.617 355.572L889.648 359.279L892.397 360.648L891.434 366.017L878.884 366.586L878.512 370.278L876.493 370.355L875.576 380.384L869.969 379.307L870.078 381.599L868.075 381.615L867.453 383.538L859.206 383.599L859.004 385.537L853.49 385.691L853.475 388.706L851.269 388.737L851.021 391.167L849.887 391.26L850.835 403.012L846.579 408.012L846.688 409.457L852.714 409.642L852.419 412.826L847.2 415.272L847.449 422.21L843.628 427.809L842.075 428.071L838.254 424.348L836.561 426.071L829.355 424.44L823.965 426.348L810.717 426.717L798.121 442.992L799.146 439.669L794.797 436.685L785.789 441.761L783.583 438.3L789.843 434.377L787.202 432.347L789.004 429.824L781.657 426.871L783.055 426.025L782.465 423.087L774.746 417.672L780.477 417.503L778.551 408.565L784.438 409.873L788.771 406.904L788.072 404.212L789.594 403.827L790.93 406.796L793.011 405.75L795.17 397.074L791.815 395.844L790.573 398.12L786.441 395.198L783.614 390.506L782.543 391.644L779.576 388.86L776.843 391.029L773.426 385.184L769.077 386.353L769.993 384.307L767.959 384.63L767.617 382.492L771.453 380.461L767.369 380.892L765.163 372.047L760.814 372.647L761.824 368.339L760.597 367.832L758.391 363.417L763.517 362.248L762.895 359.064L760.628 359.325L760.302 349.896L764.185 348.403L767.57 349.496L769.124 352.065L774.684 353.541L776.905 349.957L775.709 341.881L779.095 341.081L777.728 332.021L772.867 331.775L772.385 329.067L773.115 323.883L774.622 323.637L773.55 318.376L774.793 318.038L774.575 315.838L777.48 315.331L777.215 313.562L772.541 311.654L772.292 309.485L769.108 309.454L768.766 307.132L767.477 301.963L768.58 300.963L766.11 295.518L767.679 293.149L773.069 295.702L774.839 293.426L780.726 294.01L784.08 297.487L784.702 296.225L782.201 294.349L783.661 292.195L785.96 292.518L787.575 289.595L792.483 292.487L792.545 287.396L796.537 283.95L799.627 284.057L797.966 280.073L800.482 277.428L802.019 278.289L802.718 273.89L807.673 273.32L809.071 272.228L808.496 269.429L815.842 266.46L808.838 262.799L811.882 259.753L826.901 261.922L828.128 258.968Z" stroke="#D0D5FF" stroke-opacity="0.7" stroke-width="0.7"/>
<path d="M75.2249 299.133L76.7935 294.733L75.5199 291.549L76.5916 288.211L78.3622 287.395L75.9082 284.765L77.2595 281.396L76.1723 279.735L79.2475 275.628L81.5927 274.92L82.6955 270.075L86.2522 267.829L93.8005 269.644L97.3727 266.613L99.9043 268.413L102.063 265.952L107.592 267.567L107.981 266.26L111.056 266.213L117.688 262.922L121.648 263.829L122.565 259.337L117.191 259.122L117.998 255.415L114.799 255.107L114.659 253.646L114.721 252.507L118.697 252.892L119.521 249.477L121.742 247.508L119.288 246.37L118.34 243.432L120.452 242.247L120.064 238.355L122.378 237.386L121.85 234.971L123.916 233.171L126.385 234.494L126.184 235.91L129.026 235.063L132.474 237.894L136.9 238.125L139.851 246.908L141.762 246.8L144.138 249.892L142.445 252.384L143.408 256.861L147.865 259.061L144.107 264.798L146.421 267.444L150.63 268.367L151.049 272.105L147.135 271.182L146.514 273.413L149.76 278.227L152.463 276.828L156.252 279.181L157.542 277.935L157.246 280.458L159.188 282.012L157.697 283.55L158.831 287.995L160.368 287.903L161.44 283.427L163.785 283.042L162.434 289.657L164.391 288.057L168.6 290.195L164.189 292.01L164.826 294.641L166.255 294.779L168.025 291.872L170.106 292.856L169.625 288.811L174.067 290.011L173.958 288.026L175.294 288.103L175.387 290.934L185.125 297.425L183.51 299.225L185.747 300.717L184.535 303.44L182.159 306.809L183.743 326.237L176.117 324.622L169.05 326.652L161.083 336.436L157.091 338.512L158.66 341.789L155.926 341.866L156.315 343.296L153.301 347.327L150.692 346.988L151.143 349.234L146.871 353.864L147.151 360.187L151.282 367.201L147.337 377.123L145.318 377.369L142.383 369.97L135.953 368.339L131.853 359.925L128.575 358.494L129.197 354.433L131.821 352.188L125.329 343.65L127.612 338.989L124.428 336.912L124.397 334.036L118.107 328.837L116.709 325.852L113.945 325.283L112.361 328.775L108.338 327.406L106.272 324.114L105.325 314.315L100.805 316.853L98.8016 316.484L97.295 320.145L94.7479 319.499L93.9247 312.146L90.9893 312.731L88.1625 309.87L87.8519 306.301L83.5031 306.07L79.2164 300.763L75.2249 299.133Z" stroke="#D0D5FF" stroke-opacity="0.7" stroke-width="0.7"/>
<path d="M807.502 160.519L806.772 166.641L807.812 168.795L812.55 172.794L815.827 172.533L814.646 180.055L816.122 183.578L822.055 191.346L824.245 190.931L830.877 194.669L833.129 199.468L837.198 203.16L836.623 205.76L839.73 210.005L836.033 210.913L835.459 212.836L837.757 215.066L834.837 217.635L833.688 216.497L832.445 219.343L833.641 221.142L835.676 220.758L835.008 221.835L837.307 225.265L834.092 226.142L834.806 227.695L832.026 229.034L832.321 232.279L829.712 232.064L828.935 233.802L830.923 234.833L827.056 236.171L826.466 238.325L826.823 242.186L828.531 242.171L829.525 245.539L828.811 252.985L832.166 253.708L832.694 255.154L829.634 256.307L830.271 257.138L828.128 258.968L826.792 261.891L811.773 259.722L808.729 262.783L815.734 266.444L808.403 269.398L808.962 272.213L807.564 273.29L802.625 273.874L801.926 278.274L800.388 277.412L797.872 280.058L799.55 284.042L796.443 283.935L792.452 287.38L792.39 292.457L787.497 289.58L785.882 292.487L783.583 292.164L782.123 294.333L784.624 296.21L784.003 297.487L780.632 293.995L774.746 293.41L772.975 295.687L767.602 293.134L766.033 295.518L768.502 300.963L767.4 301.963L768.689 307.132L760.861 309.116L755.145 304.301L752.396 306.47L753.313 308.07L748.405 314.439L746.836 312.793L745.392 314.639L744.04 313.654L746.51 310.116L743.077 307.578L744.662 304.548L737.3 299.394L738.278 297.487L737.082 296.133L739.505 294.749L736.212 292.718H733.137L733.681 290.626L730.808 289.18L731.848 287.642L730.45 286.488L732.003 284.227L726.552 277.689L725.247 279.981L723.648 279.597L719.47 283.335L718.538 281.32L715.198 280.52L714.422 281.689L713.04 280.104L710.275 280.289L710.151 278.935L706.765 279.858L703.86 278.797L702.633 279.92L690.659 268.69L687.164 268.952L689.214 267.675L687.335 264.968L684.679 265.737L683.639 264.506L681.65 266.245L679.989 263.814L678.156 265.798L676.214 257.969L678.498 251.939L681.961 253.769L689.836 253.708L691.777 255.784L691.994 252.4L696.965 246.232L695.551 245.647L696.235 242.217L693.796 241.386L694.852 237.71L702.525 239.171L702.696 236.802L699.76 235.771L698.502 233.572L702.758 232.126L699.978 224.08L695.738 224.711L689.96 222.342L690.566 219.112L688.22 217.943L688.609 211.39L684.741 209.144L680.827 209.113L680.066 206.959L677.69 208.067L671.136 202.745L669.707 198.745L675.283 191.454L673.745 189.377L674.118 185.347L675.733 184.793L675.158 182.716L679.476 184.285L680.889 181.086L685.083 178.04L690.752 178.671L691.202 176.271L694.511 175.425L692.802 174.271L694.542 171.872L697.213 173.794L697.12 171.872L699.496 170.749L704.746 174.164L704.373 172.071L708.38 171.056L711.704 172.441L712.977 170.026L712.03 169.164L716.068 168.872L721.038 162.626L722.949 163.426L723.989 161.934L733.262 161.15L738.216 162.765L744.522 170.241L745.392 174.01L749.088 174.363L752.521 171.041L757.506 174.548L760.597 174.579L759.354 177.425L763.952 179.901L766.033 176.04L775.088 170.749L790.2 169.01L797.608 165.349L799.876 162.319L804.038 162.673L807.502 160.519Z" stroke="#D0D5FF" stroke-opacity="0.7" stroke-width="0.7"/>
<path d="M559.573 505.938L564.994 503.723L575.322 507.153L565.273 507.107L559.573 505.938ZM667.983 498.001L669.955 510.368L674.941 523.844L674.087 524.29L671.726 518.721L669.272 521.613L667.641 520.767L668.651 511.537L667.206 505.384L665.249 504.523L664.41 507.615L661.739 504.554L661.848 502.169L659.829 501.369L664.55 500.339L665.979 502.846L666.461 498.031L667.983 498.001ZM576.875 388.537L584.284 388.722L583.336 392.152L587.048 391.414L588.508 395.967L590.481 395.136L589.238 392.813L597.579 391.244L597.113 387.953L602.424 386.891L604.055 389.014L603.061 394.367L605.406 393.583L605.857 395.782L620.969 393.383L624.541 397.813L631.981 396.336L637.37 399.659L640.787 411.996L641.983 410.78L645.788 411.011L646.487 408.258L651.799 407.227L649.873 408.996L650.401 411.55L652.327 412.519L652.513 413.765L650.479 414.134L652.001 424.902L653.725 424.748L654.47 431.163L655.651 431.009L657.344 434.885L663.339 435.685L664.24 441.93L666.927 441.7L667.563 445.807L664.395 446.284L664.814 449.545L663.323 451.945L657.53 453.744L657.949 456.544L663.867 456.867L664.364 461.19L662.127 461.82L664.41 466.866L671.446 465.758L671.493 470.296L674.288 469.881L680.066 472.111L681.014 485.864L682.52 485.725L679.026 488.74L671.726 490.278L668.402 492.97L667.33 496.201L660.621 494.493L657.639 495.293L658.462 501.139L656.52 505.953L653.274 509.645L651.566 508.83L649.935 511.722L649.889 508.215L646.658 505.969L647.481 504.769L648.056 504.338L647.59 501.862L649.298 498.862L650.479 501.585L651.131 499.462L653.321 498.585L654.595 501.846L655.682 495.955L653.274 493.54L651.985 494.37L652.855 497.154L649.671 497.801L644.561 493.416L643.024 493.801L640.508 488.848L640.57 493.786L642.62 495.939L640.306 500.508L640.135 496.462L633.72 486.417L632.167 488.602L632.54 488.955L635.615 495.062L633.084 497.785L632.555 499.708L630.956 497.724L629.201 498.893L627.958 496.262L626.933 499.339L621.746 491.586L619.043 491.786L618.235 490.54L616.092 491.601L612.799 489.002L610.081 490.078L610.92 493.216L605.593 490.14L605.826 491.048L604.304 491.309L605.438 497.816L604.35 498.2L602.595 496.416L600.297 499.431L601.555 502.631L598.2 502.646L599.209 506.076L596.212 504.677L594.286 506.107L589.689 499.97L588.213 502.646L586.893 502.431L588.213 499.277L586.986 498.37L583.507 498.416L582.529 500.185L583.833 492.032L578.723 499.016L573.676 496.601L572.713 500.139L559.837 499.154L551.171 500.954L548.22 503.446L545.533 502.831L530.172 498.077L531.989 497.339V494.57L529.613 495.155L524.192 491.586L523.463 489.602L518.058 489.109L516.427 486.494L514.082 485.987L513.072 488.079L507.869 488.432L506.704 486.079L508.428 484.125L517.39 482.51L522.686 479.218L520.17 474.403L517.017 475.357L509.282 472.373L511.938 469.527L537.612 473.619L541.867 471.911L540.78 471.096L536.369 472.819L534.552 471.635L535.639 470.758L534.008 470.45L535.934 470.327L534.971 465.235L532.393 463.928L526.709 466.451L524.845 462.313L522.267 462.143L518.601 459.082L523.975 456.806L522.5 452.298L531.011 450.253L530.685 447.607L532.611 446.638L531.321 444.422L537.798 448.499L539.211 448.36L538.823 445.715L543.917 444.884L544.275 446.761L547.521 446.345L547.459 441.838L550.239 443.884L555.783 443.484L556.187 446.484L569.405 443.607L567.681 441.654L563.751 441.915L563.596 440.577L571.082 437.931L568.442 433.793L569.498 432.855L573.272 434.916L575.664 431.209L568.535 426.886L567.23 423.317L569.839 418.426L572.309 417.918L574.033 419.318L575.524 416.164L578.879 417.395L578.972 415.149L581.535 414.765L577.543 411.442L577.45 408.273L579.143 407.519L578.49 403.258L573.847 403.351L574.763 397.059L575.804 401.382L579.267 400.859L579.516 391.798L576.937 392.752L576.875 388.537Z" stroke="#D0D5FF" stroke-opacity="0.7" stroke-width="0.7"/>
<path d="M215.645 183.054L219.186 183.024L221.143 179.055L224.917 176.224L230.617 176.363L229.965 174.948L231.766 172.486L235.711 167.856L238.15 168.118L242.825 161.58L242.747 158.888L243.058 160.196L245.434 159.673L244.191 159.473L244.393 157.919L247.469 155.381L249.037 156.35L251.429 153.366L255.654 155.165L257.595 152.212L260.329 152.812L260.468 150.874L262.751 149.458L263.544 152.166L266.883 152.012L270.704 157.811L272.381 157.688L269.803 165.687L273.406 167.841L273.282 170.871L276.823 171.625L278.671 173.502L277.165 174.225L283.921 179.347L288.037 176.824L289.435 183.824L291.531 182.039L292.432 184.854L289.885 185.977L290.397 188.392L289 190.684L291.733 191.453L292.401 194.73L290.335 194.699L288.72 197.314L285.427 196.807L286.779 201.867L285.365 205.513L289.512 206.467L289.31 210.743L291.221 214.143L294.886 213.743L293.55 216.327L298.101 219.727L300.446 218.112L299.204 221.788L296.734 222.126L299.266 227.941L296.439 231.741L298.35 233.525L298.194 235.525L295.383 235.633L295.368 238.309L297.806 238.986L296.346 240.893L296.035 242.755L301.285 243.57L299.437 249.369L301.798 251.692L301.642 258.876L303.832 262.829L301.549 264.044L299.483 262.691L298.303 263.629L297.542 262.137L295.507 266.521L290.304 264.367L287.912 265.229L287.027 268.029L284.697 266.506L284.837 267.967L282.57 267.936L282.896 272.028L279.681 272.166L276.652 276.966L278.531 279.966L277.211 285.088L279.075 293.795L277.04 296.117L278.407 301.578L276.186 306.839L273.437 309.254L269.523 307.439L270.517 310.546L269.523 311.946L265.237 310.577L261.09 312.562L256.601 311.5L256.104 310.116L250.28 313.823L246.35 308.393L245.015 309.531L245.061 313.408L242.405 310.131L242.343 314.531L238.693 312.223L236.69 312.792L236.969 314.254L239.532 313.869L241.66 317.515L238.678 318.192L236.224 316.484L237.016 320.007L235.618 320.807L233.117 320.299L229.607 313.561L227.355 314.1L224.187 312.069L222.991 313.715L221.764 311.685L222.913 310.254L219.465 307.454L221.034 306.901L219.279 306.208L220.288 304.916L218.316 305.501L218.565 303.716L215.769 302.286L216.887 298.394L215.8 297.148L216.949 297.056L214.992 293.625L216.437 294.195L215.94 292.379L217.648 292.087L214.713 288.995L215.769 284.75L213.75 284.057L214.961 281.258L213.377 279.781L215.225 278.904L213.424 277.904L215.365 277.12L213.781 273.366L215.349 271.967L214.123 271.659L214.014 264.983L215.132 264.814L213.734 262.029L214.728 258.276L216.872 258.307L217.741 254.707L215.955 251.754L216.841 248.354L214.278 243.462L214.138 239.417L211.56 236.971L213.315 233.864L215.551 233.74L214.573 229.11L218.456 225.403L214.091 220.973L216.903 218.142L216.608 215.804L213.377 210.051L214.619 208.344L211.032 205.421L212.663 204.113L211.824 199.652L214.588 198.268L215.132 196.345L213.361 195.684L215.971 193.961L214.619 189.715L218.44 189.454L215.054 185.254L215.645 183.054Z" stroke="#D0D5FF" stroke-opacity="0.7" stroke-width="0.7"/>
<path d="M453.618 156.473L453.928 160.827L456.522 163.149L456.817 165.934L454.72 168.733L451.723 170.118L449.315 168.579L447.514 169.349L447.918 179.409L446.52 180.947L443.414 178.009L441.705 170.748L437.807 169.502L436.502 165.626L434.11 165.011L433.411 161.903L429.404 162.211L426.904 164.072L428.208 156.935L430.6 154.135L432.51 153.52L430.398 150.089L438.304 150.397L443.01 155.381L449.921 153.981L453.726 150.551L457.532 152.428V154.596L454.115 155.535L453.618 156.473Z" stroke="#D0D5FF" stroke-opacity="0.7" stroke-width="0.7"/>
<path d="M523.959 167.395L524.705 164.103L522.096 165.303L520.76 160.596L517.762 159.581L518.71 157.458L521.785 157.612L522.748 153.766L516.955 153.52L515.339 149.397L512 146.475L508.133 148.613L507.931 152.289L500.911 152.751L500.088 155.304L494.372 154.72L489.992 157.058L486.311 154.335L484.152 157.073L479.772 151.536L475.703 149.874L475.734 148.244L478.81 147.921L477.381 145.444L478.328 141.26L473.342 136.553L473.451 134.599L464.272 136.045L461.088 134.722L459.038 137.107L457.951 136.168L458.106 135.799L453.089 134.845L452.81 131.246L454.347 131.615L455.279 129.877L454.643 126.292L450.402 124.031L448.166 116.094L445.914 113.909L440.695 114.232L441.068 109.987L439.826 108.264L441.519 106.956L440.09 102.218L442.683 101.203L440.835 97.3114L443.615 96.6192L442.668 94.3272L440.975 92.7735L438.164 93.4042L438.63 90.6353L435.523 90.4046L431.842 86.7281L432.743 80.9596L423.455 73.6682L422.803 75.5141L420.955 73.9912L420.52 75.6064L415.115 74.2373L412.475 77.0062L408.778 75.8987L407.862 79.1444L403.995 77.9599L403.389 79.4367L400.842 78.1138L400.795 73.3451L399.32 72.1299L396.835 74.3911L394.94 74.2219L392.315 77.7138L390.032 76.2525L388.028 83.0362L383.291 81.9133L380.573 84.1284L382.437 84.6053L382.67 89.2047L380.402 93.3734L375.805 94.1118L377.234 101.126L378.476 105.495L380.076 102.895L388.463 111.017L386.071 114.694L386.724 117.817L383.431 117.201L383.353 120.186L388.68 125.985L387.966 129.477L390.544 131.4L387.702 131.353L388.541 134.553L391.818 134.814L393.169 138.26L385.17 147.244L388.261 150.982L385.962 155.797L388.323 156.966L388.541 159.288L387.143 160.319L385.698 159.411L385.341 160.857L388.013 161.98L385.031 163.826L385.854 165.103L387.438 164.042L391.336 163.38L392.75 165.426L392.812 167.195L395.266 167.672L394.645 170.964L398.201 171.364L397.937 174.994L396.726 175.456L398.636 179.04L395.701 182.947L398.201 185.301L395.903 189.192L398.372 192.054L397.347 195.053L400.438 202.083L397.114 204.667L398.341 205.344L396.042 208.559L390.187 212.174L388.463 210.928L387.143 213.513L384.736 213.328L386.04 216.789L384.798 219.543L385.264 220.789L387.733 220.819L388.277 225.88L389.768 226.911L388.09 230.28L390.249 236.171L392.548 237.34L390.715 239.955L392.983 241.755L388.075 247.878L390.109 252.092L394.349 253.431L393.961 256.784L397.937 258.815L399.18 256.969L400.36 259.568L401.478 259.815L399.956 261.337L401.96 263.537L408.204 263.03L407.738 261.876L411.978 257.507L411.558 252.877L415.814 251.308L418.206 251.985L419.914 256.2L421.964 251.169L424.838 251.646L424.232 255.846L433.349 257.399L433.955 258.922L436.16 251.585L439.189 248.662L441.581 251.616L446.24 248.308L452.717 251.323L462.067 249.139L463.294 247.37L462.734 244.57L466.679 243.986L468.434 240.248L469.258 241.401L469.009 240.063L471.789 238.079L472.799 233.433L474.958 233.341L474.057 229.495L478.483 222.434L477.381 221.819L478.219 215.728L476.899 214.666L477.94 209.651L486.715 205.713L484.649 202.745L485.271 201.668L482.149 201.129L482.956 198.468L490.101 199.253L489.262 205.683L493.331 210.267L497.913 205.114L499.094 205.19L499.342 209.328L504.545 209.79L509.872 200.437L513.678 200.699L514.361 202.437L514.283 196.176L518.555 194.299L514.61 193.1L514.811 189.454L518.073 187.654L516.163 184.978L517.669 185.408L519.191 181.393L522.484 182.47L525.621 179.163L524.208 177.609L524.705 174.517L526.91 173.056L527.097 169.595L527.687 167.226L523.959 167.395ZM457.531 154.597L454.13 155.535L453.633 156.473L453.928 160.827L456.537 163.149L456.832 165.934L454.736 168.718L451.738 170.118L449.331 168.564L447.529 169.333L447.933 179.394L446.535 180.932L443.429 177.994L441.72 170.718L437.822 169.472L436.517 165.595L434.11 164.98L433.411 161.873L429.404 162.18L426.903 164.042L428.208 156.904L430.615 154.104L432.51 153.489L430.414 150.059L438.319 150.366L443.025 155.35L449.937 153.951L453.742 150.52L457.547 152.382V154.597H457.531Z" stroke="#D0D5FF" stroke-opacity="0.7" stroke-width="0.7"/>
<path d="M564.481 258.168L568.348 259.245L570.632 258.261L571.703 261.537L577.869 263.122L580.106 266.598L580.447 271.136L584.967 271.536L584.812 264.706L587.887 268.244L585.961 270.367L588.896 272.721L589.44 275.582L587.778 277.366L588.834 281.596L593.121 283.335L593.416 281.058L596.755 281.335L596.957 284.288L600.266 283.104L602.114 284.596L606.975 279.304L609.553 282.35L614.896 282.565L619.012 285.334L616.713 295.656L614.974 295.456L614.632 293.21L610.687 294.287L607.923 292.134L606.54 294.01L602.688 293.703L602.844 297.056L604.568 299.087L607.954 299.533L611.495 302.763L614.368 302.286L611.044 307.855L606.68 310.285L604.179 309.316L604.754 311.762L598.821 311.654L596.895 313.454L598.215 325.36L596.678 325.791L596.227 328.452L597.019 330.437L599.163 330.329L599.054 334.359L600.747 337.436L598.417 338.097L597.284 340.912L594.612 341.404L594.721 342.727L587.437 344.373L588.695 346.711L587.343 348.065L586.365 344.066L583.29 342.635L584.02 346.188L581.612 346.773L581.799 347.834L584.392 347.173L583.942 348.757L579.531 349.957L580.106 352.649L579.64 350.926L577.621 350.803L577.807 352.772L574.219 353.188L573.132 357.218L572.247 356.879L571.594 352.157L565.196 353.557L566.345 357.172L555.83 357.433L556.079 360.171L558.082 359.771L558.579 361.279L553.764 362.156L555.442 365.709L553.889 369.909L538.637 372.139L535.282 369.478L531.989 370.293L531.461 374.477L526.802 375.446L522.329 370.124L510.898 372.616L510.432 370.093L512.591 369.632L511.954 366.571L513.367 366.494L513.01 362.325L511.736 362.586L511.208 358.802L506.378 360.248L505.275 353.972L507.978 352.588L507.263 347.973L503.458 348.665L502.93 346.665L500.616 346.973L500.15 345.465L497.587 345.942L496.686 348.173L495.382 347.604L495.785 350.634L492.803 351.942L491.732 350.896L493.161 349.065L492.493 345.912L487.647 347.527L487.026 345.696L483.997 347.142L483.702 345.419L479.276 346.85L478.437 342.666L476.34 341.958L475.517 338.928L469.599 337.943L465.825 338.697L466.369 341.435L463.402 341.635L461.678 343.604L459.411 343.496L457.299 341.189L456.149 342.943L455.668 341.143L452.064 340.697L448.352 341.604L446.861 343.912L443.413 343.958L441.891 342.25L440.664 343.773L433.722 342.266L430.258 344.712L417.165 343.943L414.556 341.651L413.748 338.051L412.91 339.097L410.658 337.897L408.468 341.589L406.231 339.389L402.845 339.728L401.23 333.467L404.476 328.852L403.202 327.191L412.615 319.207L416.855 318.5L420.256 320.807L422.927 316.654L426.484 318.407L427.789 316.638L434.747 314.746L435.586 311.193L444.05 311.731L444.345 308.778L442.233 307.009L445.712 304.224L446.38 301.625L444.578 299.733L446.333 299.825L447.809 297.333L450.853 296.041L456.584 296.887L457.019 295.872L460.747 297.671L464.35 295.748L473.016 299.133L478.375 295.887L480.735 297.502L483.189 296.794L484.23 299.179L486.948 299.056L496.407 291.072L497.572 284.581L497.385 286.626L499.575 285.165L503.008 285.811L503.8 283.104L506.269 283.442L509.267 281.658L515.122 284.996L515.091 286.919L520.915 283.027L524.674 285.319L527.097 284.581L526.553 280.412L528.821 279.75L529.256 277.828L530.918 278.735L531.71 273.044L534.443 270.982L537.907 271.321L539.553 275.059L541.727 275.366L542.815 273.567L544.414 274.966L546.931 282.489L548.313 282.427L547.878 280.32L550.114 281.596L555.178 281.012L555.038 278.92L558.082 280.412L563.891 279.181L565.304 277.751L563.068 276.797L562.291 271.813L566.329 270.075L566.345 268.336L559.325 264.906L564.481 258.168Z" stroke="#D0D5FF" stroke-opacity="0.7" stroke-width="0.7"/>
<path d="M852.341 191.838L853.413 197.207L856.783 199.083L857.637 197.714L859.548 198.083L860.619 200.529L862.639 201.16L865.636 199.576L868.944 201.329L871.088 197.791L872.361 199.345L871.352 203.098L876.384 207.513L882.27 208.282L883.932 214.143L888.763 211.943L890.999 212.436L896.979 206.636L902.492 217.25L907.338 218.635L910.91 216.958L919.422 219.142L918.878 221.142L922.015 228.68L926.784 230.126L929.797 233.264L936.056 232.402L937.749 230.141L947.254 228.695L948.885 232.402L942.299 236.263L941.787 240.77L944.256 245.139L950.081 250.169L949.32 254.43L951.277 258.307L947.223 258.722L944.054 262.891L941.663 263.522L936.817 273.274L929.983 272.905L927.964 274.52L922.87 274.474L922.466 277.735L926.985 278.72L928.973 282.473L928.197 283.627L931.039 286.765L931.971 285.58L935.9 285.903L939.69 288.088L941.896 284.211L944.148 287.919L938.882 294.041L929.579 290.241L927.871 296.179L926.286 296.241L924.547 299.732L925.448 302.578L922.264 308.408L923.708 310.223L929.175 309.7L932.157 311.531L933.058 316.207L932.049 319.115L934.674 321.038L935.139 325.437L936.009 326.668L936.957 325.775L937.221 328.575L932.188 329.96L931.769 331.821L934.875 332.544L935.761 334.851L939.379 331.282L941.181 336.205L940.544 338.497L937.034 338.189L936.739 341.881L935.31 342.066L933.089 349.726L931.458 350.665L933.975 352.803L928.29 352.895L930.542 357.402L929.191 365.771L927.56 366.124L926.193 369.401L920.214 368.478L916.129 369.508L912.495 366.709L909.202 369.078L907.726 365.924L900.116 366.232L895.13 368.201L891.931 367.447L891.356 365.986L892.319 360.633L889.57 359.264L889.555 355.556L878.947 354.833L878.015 346.88L866.848 342.773L865.947 336.205L864.036 334.39L859.315 334.944L857.109 333.79L857.684 329.636L860.775 327.714L858.383 326.729L857.575 321.268L854.904 322.514L851.316 320.576L850.291 318.853L851.549 316.146L849.328 313.546L848.598 303.901L851.472 302.44L850.928 300.179L852.031 299.763L848.707 297.194L851.347 291.38L846.626 290.287L846.688 282.996L840.755 283.473L835.179 282.058L836.406 279.781L837.68 280.473L837.664 278.873L840.087 278.074L837.602 273.059L839.062 266.075L837.245 265.752L836.856 267.659L830.131 265.844L829.293 263.968L831.514 262.568L828.128 258.968L830.271 257.138L829.634 256.307L832.694 255.153L832.166 253.707L828.811 252.984L829.526 245.539L828.532 242.17L826.823 242.186L826.466 238.325L827.056 236.171L830.923 234.833L828.935 233.802L829.712 232.064L832.321 232.279L832.026 229.033L834.806 227.695L834.092 226.142L837.307 225.265L835.008 221.834L835.676 220.758L833.641 221.142L832.445 219.342L833.688 216.497L834.837 217.635L837.757 215.066L835.459 212.835L836.033 210.913L839.73 210.005L836.623 205.759L841.392 202.483L841.562 204.098L846.331 199.468L844.296 191.269L849.157 191.9L851.378 190.638L852.341 191.838Z" stroke="#D0D5FF" stroke-opacity="0.7" stroke-width="0.7"/>
<path d="M103.554 143.844L106.272 143.675L111.786 150.351L115.467 151.012L116.197 149.151L118.93 148.32L120.297 152.181L122.472 153.689L126.634 152.781L127.985 157.581L130.284 157.319L130.191 164.226L133.235 164.488L136.792 167.164L136.357 169.795L144.557 168.595L148.161 169.779L148.456 166.257L154.233 170.056L154.544 173.271L157.433 174.44L162.356 175.056L160.337 180.07L162.853 183.147L161.844 187.223L169.827 197.345L172.514 198.93L173.787 202.468L171.784 203.129L171.038 208.482L167.187 209.482L166.627 211.605L155.833 211.666L155.46 216.189L157.619 218.389L155.025 221.019L152.587 218.958L150.848 226.588L148.238 229.049L136.574 232.156L136.9 238.125L132.474 237.894L129.026 235.064L126.184 235.91L126.385 234.494L123.916 233.171L121.85 234.971L122.378 237.386L120.064 238.355L120.452 242.247L118.34 243.432L119.288 246.37L121.742 247.508L119.521 249.477L118.697 252.892L114.721 252.508L114.659 253.646L114.799 255.107L117.999 255.415L117.191 259.122L122.565 259.338L121.648 263.829L117.688 262.922L111.056 266.214L107.981 266.26L107.592 267.567L102.063 265.952L99.9044 268.413L97.3727 266.614L93.8005 269.644L86.2522 267.829L82.6955 270.075L81.5928 274.92L79.2475 275.628L76.1723 279.735L77.2595 281.396L75.9083 284.765L78.3622 287.396L76.5916 288.211L75.52 291.549L76.7936 294.733L75.2249 299.133L68.6085 299.025L65.409 295.81L63.4831 297.056L61.3708 295.364L56.9754 296.487L54.304 290.811L51.5239 288.38L45.7773 290.687L44.5813 287.273L40.8072 284.888L39.72 282.304L42.0808 280.027L41.2265 277.489L43.1058 276.197L40.1238 274.536L39.2851 272.336L40.5742 269.967L37.4213 268.752L35.3091 265.106L32.6687 265.029L33.5385 263.137L31.6126 264.568L31.0068 263.737L33.0725 260.537L31.3951 259.322L32.6998 257.968L33.0415 248.893L30.4788 238.371L27.4812 235.464L61.0136 189.377L82.3228 170.887L84.4506 166.334L98.7861 164.334L103.337 153.689L103.554 143.844Z" stroke="#D0D5FF" stroke-opacity="0.7" stroke-width="0.7"/>
<path d="M497.323 467.896L506.595 467.189L511.923 469.481L509.267 472.327L504.902 472.004L503.862 475.434L497.323 467.896ZM430.258 344.712L433.722 342.281L440.664 343.773L441.891 342.25L443.398 343.958L446.846 343.912L448.337 341.604L452.049 340.697L455.668 341.143L456.149 342.942L457.299 341.189L459.395 343.512L461.678 343.619L463.402 341.65L466.369 341.45L465.825 338.712L469.599 337.958L475.517 338.943L476.34 341.958L478.421 342.666L479.26 346.85L483.687 345.419L483.966 347.142L486.995 345.696L487.616 347.527L492.462 345.911L493.13 349.065L491.716 350.895L492.788 351.957L495.77 350.649L495.366 347.619L496.671 348.188L497.572 345.958L500.134 345.481L500.6 346.988L502.899 346.68L503.443 348.68L507.248 348.003L507.947 352.618L505.244 354.003L506.347 360.294L511.177 358.848L511.705 362.632L512.979 362.371L513.336 366.54L511.923 366.616L512.559 369.678L510.416 370.155L510.867 372.677L522.313 370.185L526.771 375.523L531.446 374.554L531.958 370.355L535.251 369.539L538.606 372.2L553.858 369.97L555.411 365.755L553.733 362.202L558.548 361.325L558.036 359.817L556.032 360.217L555.799 357.479L566.314 357.218L565.164 353.587L571.548 352.188L572.2 356.91L572.247 362.571L576.176 362.294L576.27 368.724L575.043 369.078L574.654 372.954L575.741 376.261L570.569 377.584L571.827 385.583L569.964 387.491L576.922 387.106L576.844 388.598L576.922 392.721L579.5 391.767L579.252 400.828L575.788 401.351L574.747 397.028L573.831 403.32L578.475 403.227L579.127 407.488L577.434 408.242L577.528 411.411L581.519 414.734L578.956 415.118L578.863 417.364L575.508 416.134L574.017 419.287L572.293 417.887L569.824 418.395L567.215 423.286L568.519 426.855L575.648 431.178L573.256 434.885L569.482 432.824L568.426 433.762L571.066 437.9L563.58 440.546L563.736 441.884L567.665 441.623L569.389 443.576L556.172 446.453L555.768 443.453L550.223 443.853L547.443 441.807L547.505 446.314L544.259 446.73L543.902 444.853L538.808 445.684L539.196 448.33L537.783 448.468L531.306 444.392L532.595 446.607L530.669 447.576L530.995 450.222L522.484 452.268L523.96 456.775L518.586 459.051L514.547 458.728L513.352 460.651L508.754 462.497L499.171 459.697L495.894 463.189L492.493 461.236L486.249 461.466L485.379 463.158L476.294 461.128L477.303 458.636L474.694 452.591L476.185 450.422L475.113 445.561L468.978 440.484L467.813 435.854L471.556 434.116L479.726 433.531L478.965 431.193L482.196 431.055L482.77 426.532L481.015 419.795L472.737 420.979L472.69 418.426L475.191 418.995L475.967 412.549L467.938 414.595L466.26 412.442L466.742 410.796L462.051 411.734L460.125 407.442L462.051 406.473L460.653 404.843L460.855 400.351L458.929 400.658L460.125 391.352L454.969 390.952L453.649 389.275L455.295 388.198L455.808 383.184L451.599 383.999L452.173 386.26L449.828 386.891L449.222 384.353L439.251 385.583L438.847 383.799L436.517 384.214L434.84 375.092L436.673 374.477L437.279 371.477L436.564 369.878L431.718 370.524L430.507 361.556L427.307 358.694L426.344 355.003L427.929 354.187L425.397 350.865L430.973 347.834L433.054 348.096L430.833 347.05L430.258 344.712Z" stroke="#D0D5FF" stroke-opacity="0.7" stroke-width="0.7"/>
<path d="M402.846 339.728L406.231 339.389L408.468 341.589L410.658 337.897L412.91 339.097L413.749 338.051L414.572 341.65L417.166 343.942L430.274 344.712L430.818 347.065L433.039 348.111L430.957 347.85L425.382 350.88L427.913 354.203L426.329 355.018L427.292 358.71L430.492 361.571L431.703 370.539L436.549 369.893L437.263 371.493L436.657 374.492L434.825 375.108L436.502 384.23L438.832 383.814L439.236 385.599L449.207 384.368L449.813 386.906L452.158 386.276L451.583 384.014L455.792 383.199L455.28 388.214L453.633 389.291L454.954 390.967L460.11 391.367L458.914 400.674L460.84 400.366L460.638 404.858L462.036 406.489L460.11 407.458L462.036 411.749L466.726 410.811L466.245 412.457L467.922 414.611L475.952 412.565L475.175 419.01L472.675 418.441L472.722 420.994L481 419.81L482.755 426.548L482.18 431.07L478.95 431.209L479.711 433.547L471.541 434.131L467.798 435.87L468.963 440.5L475.098 445.576L476.17 450.437L474.679 452.606L477.288 458.651L476.278 461.143L453.851 467.358L452.655 470.035L454.954 475.019L453.789 480.095L450.154 483.956L439.562 502.369L425.754 518.506L395.049 544.41L393.558 546.933L395.717 549.025L396.524 547.056L397.347 548.794L401.976 548.194L400.749 565.561L399.273 566.761L397.239 566.623L396.819 559.547L393.169 553.932L384.177 549.64L374.33 550.409L359.932 557.978L358.627 561.762L351.048 557.701L351.203 560.3L348.641 561.562L350.769 564.531L346.901 565.823L338.732 564.054L327.332 558.608L324.039 553.071L323.899 549.471L320.374 548.025L322.082 545.071L325.328 542.103L331.618 543.302L331.882 546.502L336.169 545.456L334.973 540.241L337.94 539.549L336.433 533.211L334.523 533.181L336.278 529.458L337.691 528.027L340.316 528.381L340.005 525.351L346.482 524.643L346 521.982L350.442 520.721L349.014 513.875L349.93 510.445L360.693 508.045L362.06 504.707L359.14 501.062L365.12 493.678L359.233 488.848L361.516 483.448L358.13 473.957L363.132 473.588L361.175 471.681L370.261 469.665L370.354 467.496L374.128 466.389L375.168 471.911L373.32 473.542L374.625 477.064L372.606 479.48L374.361 480.079L375.681 477.926L378.772 477.264L378.088 473.403L380.076 470.511L382.655 476.403L382.189 474.772L385.559 471.158L388.261 473.849L387.066 475.326L391.337 477.034L392.175 481.218L393.573 481.71L397.239 481.187L396.586 475.68L400.392 475.788L400.718 472.911L405.067 478.526L404.321 479.403L408.359 481.833L408.282 480.31L411.015 478.157L413.578 479.556L417.507 478.31L419.185 479.68L422.803 477.295L422.555 476.049L421.375 477.449L419.371 475.234L418.424 476.465L417.725 475.049L415.581 475.08L414.044 473.726L415.535 473.034L413.811 472.296L413.686 470.004L411.077 471.127L407.8 467.22L411.683 466.266L412.972 451.652L410.984 447.591L413.158 446.776L412.646 445.561L409.369 446.499L408.235 441.561L401.354 443.484L399.693 438.177L395.903 438.854L395.406 436.362L391.942 437.331L391.135 436.07L393.185 435.685L393.48 429.993L394.785 429.44L394.008 425.332L390.56 425.625L389.753 427.255L387.873 423.533L392.362 422.425L390.824 413.749L393.294 413.118L391.927 404.473L387.392 405.689L387.205 409.38L384.394 410.673L382.732 409.811L382.282 403.735L379.533 404.489L378.492 398.597L374.796 401.089L374.532 397.628L371.814 400.397L371.891 397.044L370.136 397.751L371.674 396.459L371.736 393.506L369.764 393.89L367.807 390.321L371.441 388.983L374.019 383.676L372.652 383.737L373.926 380.446L372.637 377.6L376.209 371.216L373.429 371.754L372.357 369.385L376.395 364.463L372.435 364.909L371.022 356.572L366.673 357.418L366.999 359.079L365.958 358.356L365.213 360.463L359.979 357.571L357.727 359.141L353.3 353.31L353.797 349.665L354.869 350.572L358.022 348.634L358.969 343.835L362.448 344.388L363.101 346.911L363.893 346.404L365.461 340.912L370.028 344.342L369.267 345.065L375.013 344.481L375.495 345.834L372.497 346.727L373.305 347.927L375.401 347.265L376.628 349.034L381.381 348.926L382.53 347.05L386.444 346.357L388.184 348.003L391.803 348.342L393.496 345.681L396.788 347.542L396.369 340.866L402.846 339.728Z" stroke="#D0D5FF" stroke-opacity="0.7" stroke-width="0.7"/>
<path d="M575.648 155.428L578.242 156.612L581.146 155.135L583.647 156.735L586.629 152.751L588.834 155.351L591.692 155.412L591.848 157.243L593.696 157.166L594.845 159.043L596.367 157.735L597.439 158.935L598.355 157.335L599.598 158.704L602.114 157.504L610.874 160.488L616.449 157.858L614.694 155.828L617.971 154.443L620.208 155.828L622.211 153.274L625.97 157.197L627.943 155.858L630.055 156.689L629.837 158.627L630.925 156.335L636.174 154.305L637.681 155.566L638.255 162.427L644.965 167.918L646.27 172.579L651.473 174.718L651.861 177.763L654.703 179.348L652.11 183.086L653.352 186.931L661.475 188.747L661.491 185.732L663.215 184.686L663.665 185.978L669.225 184.378L674.118 185.347L673.745 189.377L675.282 191.454L669.707 198.745L671.136 202.745L677.69 208.067L680.066 206.96L680.827 209.113L684.741 209.144L688.608 211.39L688.22 217.943L690.565 219.112L689.96 222.342L695.737 224.711L699.977 224.081L702.758 232.126L698.502 233.572L699.76 235.772L702.695 236.802L702.525 239.171L694.852 237.71L693.796 241.386L696.234 242.217L695.551 245.647L696.964 246.232L691.994 252.4L691.777 255.784L689.835 253.708L681.961 253.769L678.497 251.939L676.214 257.969L678.156 265.799L674.599 262.337L671.834 265.829L670.126 264.906L671.897 263.707L669.8 262.63L664.876 263.983L664.845 266.337L655.697 268.737L653.585 273.213L645.788 270.106L646.518 273.275L641.828 277.628L643.21 278.951L640.523 285.719L642.946 289.042L641.626 290.811L642.837 291.519L640.104 291.749L640.29 294.534L642.449 294.58L640.119 299.487L639.684 297.902L631.53 294.841L630.956 291.626L628.238 291.303L625.628 288.273L619.012 285.335L614.896 282.566L609.553 282.35L606.975 279.305L602.114 284.596L600.266 283.104L596.957 284.289L596.755 281.335L593.416 281.058L593.121 283.335L588.834 281.597L587.778 277.366L589.44 275.582L588.896 272.721L585.961 270.367L587.887 268.244L584.812 264.706L584.967 271.536L580.447 271.136L580.106 266.599L577.869 263.122L571.703 261.538L570.632 258.261L568.348 259.246L564.481 258.169L559.573 259.369L557.181 257.323L551.621 257.646L544.042 251.647L546.247 245.34L547.925 247.416L558.424 249.616L553.858 242.848L555.116 237.94L558.967 235.833L559.294 231.695L556.218 229.495L556.809 225.065L549.757 221.619L548.794 216.112L546.713 215.82L546.03 213.313L543.25 214.036L539.258 207.76L542.457 206.652L541.386 205.421L541.992 200.868L539.538 199.284L537.891 193.823L536.959 193.084L535.872 194.638L532.983 191.069L532.735 188.716L535.468 188.07L535.173 186.101L528.712 184.239L525.606 179.194L524.208 177.625L524.705 174.548L526.91 173.087L527.097 169.626L532.797 169.58L532.828 167.441L534.769 166.903L536.493 163.257L538.777 163.042L540.221 164.719L545.346 165.349L545.02 167.749L547.086 169.764L554.883 167.657L554.805 168.718L561.064 169.549L561.033 167.672L567.681 164.596L570.663 159.242L572.775 159.319L573.334 156.935L575.648 155.428Z" stroke="#D0D5FF" stroke-opacity="0.7" stroke-width="0.7"/>
<path d="M195.081 39.0723L200.579 39.8722L204.509 38.3647L213.998 44.2716L224.731 43.1795L224.886 46.5791L228.8 49.5787L232.543 49.7171L235.152 47.0867L240.324 47.4251L243.462 49.2557L243.617 51.4554L245.776 53.1475L248.571 52.3937L253.821 54.9626L256.244 52.1784L267.24 51.7477L267.598 60.9004L271.014 61.731L269.461 66.0228L275.612 64.823L279.029 65.869L280.411 64.5153L283.113 67.3304L283.843 63.2386L289.279 65.8536L294.607 65.9305L294.436 69.2532L291.5 73.2219L291.827 74.7756L287.074 76.4523L287.152 80.5134L288.891 82.8054L287.26 82.8208L284.434 80.2365L284.667 78.5905L283.191 78.6367L282.492 84.9128L283.906 85.5743L283.937 87.7432L282.554 89.8045L279.728 90.3891L281.498 96.4345L276.28 103.203L275.814 108.064L273.577 109.571L273.841 112.54L268.296 113.571L268.436 115.401L267.023 116.063L269.089 120.601L268.032 122.831L270.051 124.6L268.933 132.692L271.092 139.014L269.446 142.844L267.24 143.921L266.604 147.028L268.669 148.551L268.747 151.628L266.883 152.012L263.544 152.166L262.752 149.459L260.469 150.874L260.329 152.812L257.595 152.212L255.654 155.166L251.429 153.366L249.037 156.35L247.469 155.381L244.394 157.919L244.192 159.473L245.434 159.673L243.058 160.196L242.747 158.888L242.825 161.58L238.15 168.118L235.711 167.856L231.766 172.487L229.965 174.948L230.617 176.363L224.917 176.225L221.143 179.055L219.186 183.024L215.645 183.055L213.517 181.624L215.722 176.102L212.632 179.117L207.32 176.902L204.633 179.024L200.408 176.855L196.557 182.239L189.769 182.562L184.535 185.408L181.817 183.593L180.668 185.624L176.506 184.285L175.123 187.377L177.173 189.408L175.279 190.023L174.129 193.392L170.619 193.976L169.827 197.345L161.844 187.223L162.853 183.147L160.337 180.07L162.356 175.056L157.433 174.44L157.309 172.517L160.275 170.933L159.064 167.749L160.337 166.949L161.906 168.303L162.558 166.887L160.524 165.595L159.809 162.78L158.738 163.072L159.39 161.011L156.066 159.119L159.436 159.642L159.934 156.719L158.085 152.981L167.14 154.15L168.6 151.812L168.181 150.382L167.062 150.874L166.534 146.459L172.623 147.967L170.153 145.444L172.157 143.521L171.66 141.814L175.993 143.952L183.044 141.06L182.858 139.491L187.844 138.645L188.791 143.029L192.223 142.629L195.392 146.997L199.29 129.938L205.177 130.861L206.093 129.061L203.639 126.923L204.229 121.216L202.164 119.57L208.283 118.463L209.588 115.647L208.687 111.694L204.99 109.248L200.843 108.956L200.548 106.203L206.792 104.249L207.32 100.988L204.058 97.419L201.185 96.7729L200.797 93.4502L195.004 88.3432L195.19 84.036L192.456 85.0974L191.447 82.9284L189.738 82.9438L189.645 84.6513L188.232 84.9282L185.188 80.8518L185.203 76.1754L183.308 74.1757L180.606 74.4679L182.734 72.7143L181.289 71.3145L183.169 67.638L179.441 63.6847L181.802 64.223L183.308 62.8386L186.57 56.3932L187.44 53.3628L184.737 49.3633L185.094 45.6869L188.573 41.5489L184.675 40.9951L182.563 38.9954L192.518 39.2261L192.487 36.8726L194.786 37.4725L195.081 39.0723Z" stroke="#D0D5FF" stroke-opacity="0.7" stroke-width="0.7"/>
<path d="M616.061 2.06134L616.263 5.55322L620.41 6.89152L621.482 11.7217L624.588 13.26L625.147 15.3059L627.368 15.6135L627.694 18.5362L630.676 20.6744L629.775 24.8585L627.865 26.5968L629.791 29.0888L629.76 31.9807L631.857 32.6576L632.152 35.3034L634.513 35.2265L636.206 39.3491L638.24 40.149L637.697 42.641L640.337 42.041L646.456 47.1943L646.068 50.317L647.776 54.0857L646.798 55.8701L640.849 56.0855L628.968 60.5465L633.348 62.4539L634.186 66.3458L635.786 66.1304L636.004 68.1609L637.029 67.361L638.194 71.6989L640.834 72.9296L636.143 81.467L642.356 86.5587L639.421 88.2661L636.765 94.1423L640.943 96.3882L644.888 93.5117L655.123 96.742L656.303 95.0807L659.425 95.6652L659.86 99.834L662.376 101.788L666.057 100.803L668.294 102.034L669.878 99.6494L673.854 99.1571L676.044 96.7113L679.29 99.1263L680.952 96.9266L685.021 97.6035L683.747 102.572L686.217 105.849L686.232 108.756L684.928 109.233L687.04 111.725L691.373 111.309L693.175 109.617L698.393 112.002L698.58 113.909L696.654 115.432L693.936 114.786L695.644 117.986L694.402 120.678L698.176 123.077L697.26 126.708L699.155 128.769L698.937 132.491L702.82 134.445L701.049 138.568L703.146 142.736L702.742 144.505L701.438 143.644L698.067 144.813L699.496 148.828L697.819 150.735L702.23 158.119L707.914 161.226L708.924 167.979L712.03 169.164L712.977 170.025L711.704 172.44L708.38 171.056L704.373 172.071L704.746 174.163L699.496 170.748L697.12 171.871L697.213 173.794L694.542 171.871L692.802 174.271L694.511 175.425L691.202 176.271L690.752 178.67L685.083 178.04L680.89 181.086L679.476 184.285L675.158 182.716L675.733 184.793L674.118 185.347L669.225 184.377L663.665 185.977L663.215 184.685L661.491 185.731L661.475 188.746L653.352 186.931L652.11 183.085L654.704 179.347L651.861 177.763L651.473 174.717L646.27 172.579L644.965 167.918L638.256 162.426L637.681 155.566L636.174 154.304L630.925 156.335L629.838 158.627L630.055 156.689L627.943 155.858L625.97 157.196L622.212 153.274L620.208 155.827L617.972 154.443L614.694 155.827L616.45 157.858L610.874 160.488L602.114 157.504L599.598 158.704L598.355 157.335L597.439 158.934L596.367 157.735L594.845 159.042L593.696 157.165L591.848 157.242L591.692 155.412L588.835 155.35L586.629 152.751L583.647 156.735L581.147 155.135L578.242 156.612L575.648 155.427L574.685 153.75L578.506 149.351L578.227 145.151L579.888 144.29L579.329 139.814L584.61 138.029L581.985 136.86L580.137 133.276L581.752 128.615L581.053 125.415L582.979 124.815L582.638 119.293L579.407 119.601L578.258 115.524L576.176 117.509L574.313 116.724L576.487 113.048L575.804 110.433L569.156 108.464L571.641 104.233L570.073 102.726L570.818 100.526L574.204 99.1417L573.769 97.265L575.695 95.1268L575.959 92.158L574.235 91.7734L576.239 89.2968L575.493 87.4201L574.033 87.4509L573.101 83.3283L574.592 82.2515L574.08 83.759L576.627 85.6511L577.916 85.4511L576.673 83.5744L578.941 84.5128L578.926 75.9446L582.172 74.0217L580.277 69.2992L583.725 67.8533L582.078 67.561L578.801 62.3924L579.174 55.8701L576.254 51.5783L579.718 48.0557L578.444 44.1485L581.286 42.3641L581.333 40.7181L588.508 37.9954L590.543 38.5953L591.754 34.565L588.058 31.35L588.695 29.981L592.484 28.3812L594.472 30.3809L598.309 29.3811L598.34 25.2123L595.125 25.32L593.82 22.1666L589.005 21.0744L588.695 14.5213L591.444 12.1063L592.562 5.79934L594.535 3.41502L595.544 3.72268L596.103 1.55371L599.085 2.43053L597.299 6.12238L601.353 7.15302L600.716 5.3071L602.627 6.29159L607.938 2.38438L616.061 2.06134Z" stroke="#D0D5FF" stroke-opacity="0.7" stroke-width="0.7"/>
<path d="M169.827 197.345L170.619 193.976L174.129 193.392L175.279 190.023L177.173 189.408L175.123 187.377L176.506 184.285L180.668 185.623L181.817 183.593L184.535 185.408L189.769 182.562L196.557 182.239L200.408 176.855L204.633 179.024L207.32 176.901L212.632 179.117L215.722 176.102L213.517 181.624L215.645 183.055L215.055 185.254L218.44 189.454L214.62 189.715L215.971 193.961L213.362 195.684L215.132 196.345L214.589 198.268L211.824 199.653L212.663 204.113L211.032 205.421L214.62 208.344L213.377 210.051L216.608 215.804L216.903 218.143L214.092 220.973L218.456 225.403L214.573 229.11L215.552 233.741L213.315 233.864L211.56 236.971L214.138 239.417L214.278 243.462L216.841 248.354L215.955 251.754L217.742 254.707L216.872 258.307L214.728 258.276L213.734 262.029L215.132 264.814L214.014 264.983L214.123 271.659L215.35 271.967L213.781 273.367L215.365 277.12L213.424 277.904L215.225 278.904L213.377 279.781L214.961 281.258L213.75 284.058L215.769 284.75L214.713 288.995L217.648 292.087L215.94 292.38L216.437 294.195L214.993 293.626L216.949 297.056L215.8 297.148L216.887 298.394L215.769 302.286L218.565 303.717L218.316 305.501L220.289 304.916L219.279 306.209L221.034 306.901L219.466 307.455L222.914 310.254L221.764 311.685L222.991 313.715L224.187 312.069L227.356 314.1L224.653 314.315L222.618 316.469L219.916 316.377L218.161 313.946L212.896 314.854L210.209 307.655L209.091 309.285L210.737 312.946L209.044 314.115L206.404 310.47L207.553 308.716L206.745 305.501L205.177 308.408L202.769 307.501L199.275 310.208L196.231 309.393L196.463 307.439L192.783 303.286L190.189 306.609L188.962 304.301L184.535 303.44L185.747 300.717L183.51 299.225L185.126 297.425L175.387 290.934L175.294 288.103L173.958 288.026L174.067 290.011L169.625 288.811L170.107 292.856L168.025 291.872L166.255 294.779L164.826 294.641L164.189 292.01L168.6 290.195L164.391 288.057L162.434 289.657L163.785 283.042L161.44 283.427L160.368 287.903L158.831 287.995L157.697 283.55L159.188 282.012L157.247 280.458L157.542 277.935L156.253 279.181L152.463 276.828L149.76 278.227L146.514 273.413L147.136 271.182L151.05 272.105L150.63 268.367L146.421 267.444L144.107 264.798L147.866 259.061L143.408 256.861L142.445 252.384L144.138 249.892L141.762 246.801L139.851 246.908L136.9 238.125L136.574 232.156L148.238 229.049L150.848 226.588L152.587 218.958L155.026 221.019L157.619 218.389L155.46 216.189L155.833 211.666L166.628 211.605L167.187 209.482L171.039 208.482L171.784 203.129L173.788 202.468L172.514 198.93L169.827 197.345Z" stroke="#D0D5FF" stroke-opacity="0.7" stroke-width="0.7"/>
<path d="M28.3354 273.782L34.2684 273.398L38.3221 277.428L40.5897 276.966L40.1237 274.536L43.1058 276.197L41.2265 277.489L42.0807 280.028L39.7199 282.304L40.8071 284.889L44.5813 287.273L45.7772 290.688L51.5238 288.38L54.3039 290.811L56.9754 296.487L61.3708 295.364L63.483 297.056L65.4089 295.81L68.6084 299.025L75.2248 299.133L79.2164 300.763L83.5031 306.07L87.8519 306.301L88.1625 309.87L90.9892 312.731L93.9247 312.147L94.7478 319.5L97.295 320.146L98.8016 316.485L100.805 316.854L105.325 314.316L106.272 324.114L108.338 327.406L112.361 328.775L113.945 325.284L116.709 325.853L118.107 328.837L124.397 334.036L124.428 336.913L127.612 338.99L125.329 343.651L131.821 352.188L129.197 354.434L128.575 358.495L125.702 359.818L121.742 358.341L117.237 362.617L115.933 361.741L110.885 364.002L108.975 362.387L104.75 362.633L99.3296 358.603L91.8279 361.279L87.2461 356.464L81.3597 357.28L74.1376 354.526L72.3515 358.556L63.7781 354.48L63.9645 353.111L61.0446 351.788L60.3301 348.296L56.4007 348.45L55.096 346.696L52.3159 349.234L51.1666 355.587L47.1439 356.818L42.5777 354.588L43.6338 358.649L40.9003 359.51L37.7164 356.864L40.0771 351.911L37.1572 346.942L32.4512 346.681L28.9721 348.881L24.7631 347.588L23.6915 340.682L20.0571 336.636L14.7609 336.513L13.7047 337.636L10.1325 330.683L10.4276 328.575L6.35835 326.037L7.6164 324.114L4.6033 322.822L1.35722 324.637L1 322.038L3.36078 308.932L11.6235 302.563L12.7884 298.687L11.9497 296.441L14.1085 293.426L13.86 288.657L15.8636 286.688L16.081 283.243L18.9233 278.259L22.4645 277.12L23.8778 270.306L26.689 271.275L28.3354 273.782Z" stroke="#D0D5FF" stroke-opacity="0.7" stroke-width="0.7"/>
<path d="M300.447 218.111L306.892 215.527L312.949 216.204L321.026 214.912L322.16 212.758L329.056 215.42L331.401 211.989L334.631 213.174L336.899 212.297L339.151 215.835L341.885 212.728L347.709 213.989L348.781 210.297L353.549 208.897L355.04 206.651L359.218 210.497L360.041 213.497L358.643 215.204L361.874 218.865L358.938 223.526L362.293 227.126L361.252 230.11L368.055 231.156L374.485 229.633L376.162 230.664L376.395 227.587L379.673 228.695L380.434 227.526L381.738 228.187L383.136 225.203L388.261 225.911L389.753 226.957L388.075 230.325L390.25 236.217L392.533 237.371L390.7 240.001L392.968 241.801L388.06 247.923L390.094 252.138L394.334 253.476L393.946 256.83L397.922 258.86L399.18 257.014L400.36 259.599L398.761 260.014L400.345 268.121L397.611 268.921L397.922 270.905L396.027 270.29L394.816 273.628L394.148 272.566L393.682 273.535L395.499 276.858L397.72 275.935L398.295 277.704L396.012 282.704L400.205 285.072L399.242 286.103L401.619 289.903L402.131 294.733L407.334 296.41L408.282 298.763L407.039 301.332L413.966 306.531L411.543 309.639L414.556 311.331L415.364 315.576L413.904 315.53L414.448 317.345L412.584 317.807L412.615 319.207L403.203 327.19L404.476 328.852L401.23 333.467L402.846 339.727L396.307 340.912L396.726 347.588L393.433 345.742L391.741 348.388L388.137 348.065L386.398 346.419L382.484 347.111L381.334 348.972L376.566 349.08L375.355 347.311L373.258 347.972L372.435 346.773L375.433 345.88L374.951 344.527L369.204 345.111L369.965 344.404L365.399 340.958L363.831 346.45L363.038 346.957L362.386 344.434L358.923 343.881L357.975 348.68L354.822 350.603L353.751 349.695L353.393 346.28L345.488 346.203L344.991 344.65L338.98 342.373L335.703 344.265L335.486 350.895L333.637 350.311L331.37 346.511L331.727 342.665L329.289 342.496L327.689 345.45L325.344 345.204L328.543 340.327L327.751 336.851L320.063 340.143L317.826 335.789L313.975 337.881L313.322 331.544L306.597 330.328L303.631 327.913L302.388 324.483L297.837 321.191L290.289 321.514L287.633 320.007L287.913 317.653L284.605 319.376L281.762 316.438L280.364 309.239L276.187 306.839L278.408 301.578L277.041 296.117L279.075 293.794L277.212 285.088L278.532 279.965L276.652 276.966L279.681 272.166L282.896 272.028L282.57 267.936L284.838 267.967L284.698 266.506L287.027 268.028L287.913 265.229L290.305 264.367L295.508 266.521L297.542 262.137L298.303 263.629L299.484 262.691L301.549 264.044L303.833 262.829L301.643 258.876L301.798 251.692L299.437 249.369L301.285 243.57L296.036 242.755L296.346 240.893L297.806 238.986L295.368 238.309L295.383 235.632L298.195 235.525L298.35 233.525L296.44 231.741L299.266 227.941L296.735 222.126L299.204 221.788L300.447 218.111Z" stroke="#D0D5FF" stroke-opacity="0.7" stroke-width="0.7"/>
<path d="M163.412 36.0572L165.23 35.4111L173.151 39.4414L178.416 39.2722L179.348 37.7647L182.563 38.9953L184.675 40.9951L188.573 41.5488L185.094 45.6868L184.737 49.3633L187.44 53.3628L186.57 56.3932L183.308 62.8385L181.802 64.223L179.441 63.6846L183.168 67.6379L181.289 71.3144L182.734 72.7142L180.606 74.4679L183.308 74.1756L185.203 76.1754L185.188 80.8517L188.232 84.9281L189.645 84.6512L189.738 82.9437L191.447 82.9284L192.456 85.0973L195.19 84.0359L195.003 88.3431L200.797 93.4501L201.185 96.7728L204.058 97.4189L207.32 100.988L206.792 104.249L200.548 106.202L200.843 108.956L204.99 109.248L208.687 111.694L209.587 115.647L208.283 118.462L202.163 119.57L204.229 121.216L203.639 126.923L206.093 129.061L205.177 130.861L199.29 129.938L195.392 146.997L192.223 142.629L188.791 143.029L187.843 138.645L182.858 139.491L183.044 141.06L175.993 143.952L171.66 141.813L172.157 143.521L170.153 145.444L172.623 147.967L166.534 146.459L167.062 150.874L168.181 150.382L168.6 151.812L167.14 154.15L158.085 152.981L159.933 156.719L159.436 159.642L156.066 159.119L159.39 161.011L158.737 163.072L159.809 162.78L160.524 165.595L162.558 166.887L161.906 168.302L160.337 166.949L159.064 167.749L160.275 170.933L157.309 172.517L157.433 174.44L154.544 173.271L154.233 170.056L148.456 166.257L148.161 169.779L144.557 168.595L136.357 169.795L136.792 167.164L133.235 164.488L130.191 164.226L130.284 157.319L127.985 157.581L126.634 152.781L122.472 153.689L120.297 152.181L118.93 148.32L116.197 149.151L115.467 151.012L111.786 150.351L106.272 143.675L103.554 143.844L102.281 142.46L102.716 139.075L99.8733 138.768L100.168 135.322L97.264 134.553L96.9378 131.353L99.1277 129.107L104.517 129.246L106.614 126.861L101.737 124.954L97.3727 120.062L96.6427 116.863L94.3596 115.14L95.4934 114.832L94.1732 109.94L91.4397 107.802L92.092 103.572L85.2271 98.3572L82.975 91.8811H80.2881L79.8221 88.4661L82.3072 85.5127L83.2391 81.3132L80.4589 79.0519L81.5151 76.0061L78.8903 74.8217L78.7815 73.5757L81.8723 74.0833L79.7911 70.2376L81.1889 67.7149L78.2224 64.1922L81.9344 61.7156L87.3549 60.608L87.9606 62.9154L94.2509 63.5461L92.6511 66.9457L98.7084 67.8225L105.263 60.6849L115.56 53.7166L114.364 49.3171L116.616 44.4562L119.179 42.5795L131.961 40.8874L138.717 42.5026L142.228 40.0259L143.237 41.3642L147.167 40.1798L149.605 41.3796L156.485 36.7956L163.412 36.0572Z" stroke="#D0D5FF" stroke-opacity="0.7" stroke-width="0.7"/>
<path d="M631.965 396.306L656.117 389.691L670.375 393.014L674.848 391.952L672.269 381.369L673.993 380.877L674.925 373.893L671.571 374.478L671.866 367.371L670.406 367.432L669.878 365.34L667.594 366.386L666.802 362.464L672.782 361.079L672.223 357.172L670.297 357.311L669.241 354.849L668.868 352.111L670.732 351.711L669.691 345.666L672.782 345.835L672.766 348.942L676.68 349.004L682.52 345.774L692.538 344.758L704.451 348.65L704.653 350.05L714.22 345.189L716.239 348.542L719.594 348.281L720.029 350.742L727.965 348.712L728.478 352.342L732.516 351.419L733.199 354.111L731.537 354.742L733.463 358.126L732.454 359.095L733.572 358.71L734.162 361.433L735.436 360.603L736.461 363.525L735.809 366.463H733.448L733.634 367.863L739.878 366.956L740.033 369.048L743.668 369.063L744.273 370.247L746.976 369.863L746.929 368.355L753.903 369.648L760.457 367.802L761.684 368.309L760.674 372.616L765.023 372.016L767.229 380.862L771.314 380.431L767.477 382.461L767.819 384.6L769.854 384.277L768.937 386.322L773.286 385.153L776.703 390.999L779.436 388.83L782.403 391.614L783.475 390.476L786.301 395.167L790.433 398.09L791.675 395.814L795.03 397.044L792.871 405.72L790.79 406.766L789.454 403.797L787.932 404.182L788.631 406.874L784.298 409.843L778.411 408.535L780.337 417.472L774.606 417.642L782.325 423.056L782.916 425.994L781.518 426.841L788.864 429.794L787.062 432.317L789.703 434.347L783.444 438.27L785.649 441.731L777.355 446.869L769.993 460.698L768.922 460.652L773.302 455.514L772.23 453.176L767.306 449.576L761.901 449.761L749.43 455.052L740.095 469.112L735.762 471.589L743.171 463.559L741.85 459.252L739.412 457.821L730.87 458.052L723.073 459.821L715.4 464.251L708.365 471.789L700.816 475.404L686.465 497.432L676.541 502.293L678.684 497.755L688.344 494.278L695.877 481.357L693.936 483.249L691.047 481.557L691.358 475.573L688.22 473.819L686.512 471.712L687.04 470.251L685.549 471.112L688.08 478.757L682.458 485.726L680.952 485.864L680.004 472.112L674.226 469.881L671.431 470.297L671.384 465.759L664.348 466.866L662.065 461.821L664.302 461.19L663.805 456.868L657.887 456.545L657.468 453.745L663.261 451.945L664.752 449.545L664.333 446.284L667.501 445.807L666.865 441.7L664.178 441.931L663.277 435.686L657.282 434.886L655.589 431.009L654.408 431.163L653.663 424.748L651.939 424.902L650.417 414.134L652.451 413.765L652.265 412.519L650.339 411.55L649.811 408.997L651.737 407.228L646.425 408.258L645.726 411.012L641.921 410.781L640.725 411.996L637.308 399.659L631.965 396.306Z" stroke="#D0D5FF" stroke-opacity="0.7" stroke-width="0.7"/>
<path d="M322.765 64.4381L324.085 64.2535L327.362 68.3453L327.906 71.2834L333.948 66.7609L338.467 68.6684L343.81 68.8222L342.381 69.499L343.546 69.4837L345.099 78.9133L347.926 77.3442L348.734 81.5899L350.256 78.5441L349.2 75.6367L352.461 69.5452L356.872 67.1916L361.625 68.3915L367.325 61.9615L370.431 61.8231L372.776 68.4992L374.982 69.0222L374.671 74.9138L375.758 77.7596L377.669 78.3595L378.554 84.6664L380.589 84.1434L382.452 84.6356L382.685 89.2197L380.418 93.3884L375.82 94.1268L377.249 101.141L378.476 105.495L380.076 102.895L388.463 111.017L386.056 114.693L386.724 117.816L383.431 117.201L383.353 120.185L388.68 125.984L387.966 129.492L390.544 131.399L387.686 131.353L388.541 134.553L391.802 134.814L393.169 138.26L385.17 147.243L388.261 150.981L385.962 155.812L388.323 156.981L388.541 159.303L387.143 160.334L385.683 159.426L385.326 160.872L387.982 161.995L385 163.857L385.823 165.133L387.407 164.072L391.026 163.395L392.719 165.456L392.781 167.225L395.235 167.702L394.613 170.994L398.17 171.394L397.906 175.025L396.695 175.486L398.605 179.07L395.67 182.977L398.17 185.331L395.872 189.223L398.341 192.084L397.316 195.084L400.407 202.114L397.083 204.698L398.326 205.375L396.027 208.59L390.172 212.205L388.448 210.959L387.127 213.543L384.72 213.374L386.009 216.835L384.782 219.588L385.248 220.834L387.718 220.865L388.261 225.911L383.136 225.203L381.738 228.187L380.433 227.526L379.672 228.695L376.395 227.587L376.162 230.664L374.485 229.633L368.055 231.156L361.252 230.11L362.293 227.126L358.938 223.526L361.873 218.865L358.643 215.204L360.04 213.497L359.217 210.497L355.039 206.651L353.548 208.897L348.78 210.297L347.709 213.989L341.884 212.728L339.151 215.835L336.899 212.297L334.631 213.174L331.4 211.989L329.055 215.42L322.159 212.758L321.025 214.912L312.949 216.204L306.892 215.527L300.446 218.112L298.101 219.727L293.55 216.327L294.886 213.743L291.221 214.143L289.31 210.743L289.512 206.467L285.365 205.513L286.779 201.867L285.427 196.806L288.72 197.314L290.335 194.699L292.401 194.73L291.733 191.453L289 190.684L290.397 188.392L289.885 185.977L292.432 184.854L291.531 182.039L289.435 183.823L288.037 176.824L283.921 179.347L277.165 174.225L278.671 173.502L276.823 171.625L273.282 170.871L273.406 167.841L269.803 165.687L272.381 157.688L270.704 157.811L266.883 152.012L268.747 151.627L268.669 148.551L266.603 147.028L267.24 143.921L269.446 142.844L271.092 139.014L268.933 132.691L270.051 124.6L268.032 122.831L269.088 120.6L267.023 116.063L268.436 115.401L268.296 113.571L273.841 112.54L273.577 109.571L275.813 108.064L276.279 103.203L281.498 96.4342L279.727 90.3888L282.554 89.8042L283.936 87.7429L283.905 85.574L282.492 84.9125L283.191 78.6364L284.666 78.5902L284.433 80.2362L287.26 82.8205L288.891 82.8051L287.151 80.5131L287.074 76.452L291.826 74.7753L291.5 73.2217L296.579 76.6366L298.66 71.9449L301.254 71.0527L299.747 64.8381L301.409 63.6844L304.624 64.8535L304.997 68.0838L307.979 66.7301L306.084 69.699L314.456 68.0838L318.323 62.3307L322.781 59.3311L322.765 64.4381Z" stroke="#D0D5FF" stroke-opacity="0.7" stroke-width="0.7"/>
</svg>
