<svg width="35" height="34" viewBox="0 0 35 34" fill="none" xmlns="http://www.w3.org/2000/svg">
<path fill-rule="evenodd" clip-rule="evenodd" d="M15.3113 2.04234C15.9723 1.63284 16.729 1.4165 17.5001 1.4165C18.2709 1.4165 19.0272 1.63269 19.6881 2.04191L23.9381 4.67131C24.5656 5.05999 25.0856 5.60958 25.4467 6.26602C25.8078 6.92246 25.9985 7.66395 26.0001 8.41865V8.42185V13.9787L31.0219 17.0882C31.6493 17.4768 32.169 18.0262 32.5301 18.6827C32.8912 19.339 33.0819 20.0805 33.0834 20.8353V20.8384V25.5746C33.0819 26.3293 32.8912 27.0708 32.5301 27.7273C32.169 28.3837 31.6496 28.9328 31.0222 29.3216L26.7722 31.9509C26.158 32.3314 25.4613 32.5451 24.7472 32.5735C24.6935 32.5799 24.6388 32.5832 24.5834 32.5832C24.528 32.5832 24.4733 32.5799 24.4196 32.5735C23.7055 32.5451 23.0088 32.3314 22.3947 31.9509L17.5001 28.9253L12.6055 31.9509C11.9913 32.3314 11.2947 32.5451 10.5805 32.5735C10.5268 32.5799 10.4721 32.5832 10.4167 32.5832C10.3614 32.5832 10.3067 32.5799 10.253 32.5735C9.53883 32.5451 8.84215 32.3314 8.228 31.9509L3.97871 29.322C3.35132 28.9333 2.83119 28.3837 2.47007 27.7273C2.10895 27.0708 1.91835 26.3293 1.91675 25.5746V25.5714V20.8384V20.8353C1.91835 20.0805 2.10895 19.339 2.47007 18.6827C2.83119 18.0262 3.35061 17.4771 3.978 17.0884L9.00008 13.9787V8.42185V8.41865C9.00168 7.66395 9.19228 6.92246 9.5534 6.26602C9.91453 5.60958 10.4339 5.06043 11.0613 4.67175L15.3113 2.04234ZM10.417 16.5092L6.09434 19.1858L10.4175 21.8661L14.7465 19.1879L10.417 16.5092ZM16.0834 21.7678L11.8334 24.3972V29.0218L16.0834 26.3946V21.7678ZM18.9167 26.3946L23.1667 29.0218V24.3972L18.9167 21.7678V26.3946ZM20.2537 19.1879L24.5827 21.8661L28.9058 19.1858L24.5831 16.5092L20.2537 19.1879ZM23.1667 13.9784V9.34474L18.9167 11.9797V16.6078L23.1667 13.9784ZM16.0834 16.6078V11.9797L11.8334 9.34474V13.9784L16.0834 16.6078ZM13.1779 6.76934L16.7698 4.54712C16.9901 4.41061 17.2431 4.33807 17.5001 4.33807C17.7571 4.33807 18.0094 4.41018 18.2297 4.54669L21.8222 6.76934L17.5001 9.44902L13.1779 6.76934ZM30.2501 21.7614V25.5683C30.2501 25.5678 30.2501 25.5685 30.2501 25.5683C30.2494 25.8194 30.1859 26.0672 30.0656 26.2858C29.9454 26.5044 29.7725 26.6873 29.5637 26.8168L26.0001 29.0215V24.3964L30.2501 21.7614ZM9.00008 29.0215V24.3964L4.75008 21.7614V25.5695C4.75083 25.8207 4.81436 26.0674 4.93452 26.2858C5.05485 26.5045 5.22789 26.6874 5.43691 26.8171C5.43682 26.8169 5.43699 26.8171 5.43691 26.8171L9.00008 29.0215Z" fill="#2936A3"/>
</svg>
