<svg width="35" height="34" viewBox="0 0 35 34" fill="none" xmlns="http://www.w3.org/2000/svg">
<path fill-rule="evenodd" clip-rule="evenodd" d="M4.74992 2.8335C5.53232 2.8335 6.16659 3.46777 6.16659 4.25016V28.3335H30.2499C31.0323 28.3335 31.6666 28.9677 31.6666 29.7502C31.6666 30.5326 31.0323 31.1668 30.2499 31.1668H4.74992C3.96752 31.1668 3.33325 30.5326 3.33325 29.7502V4.25016C3.33325 3.46777 3.96752 2.8335 4.74992 2.8335ZM28.4183 11.7484C28.9715 12.3017 28.9715 13.1987 28.4183 13.7519L21.335 20.8352C20.7818 21.3884 19.8847 21.3884 19.3315 20.8352L14.6666 16.1703L11.4183 19.4186C10.8651 19.9718 9.9681 19.9718 9.41485 19.4186C8.86161 18.8653 8.86161 17.9683 9.41485 17.4151L13.6648 13.1651C14.2181 12.6119 15.1151 12.6119 15.6683 13.1651L20.3333 17.83L26.4149 11.7484C26.9681 11.1952 27.8651 11.1952 28.4183 11.7484Z" fill="#2936A3"/>
</svg>
