<svg width="34" height="34" viewBox="0 0 34 34" fill="none" xmlns="http://www.w3.org/2000/svg">
<path fill-rule="evenodd" clip-rule="evenodd" d="M11.3361 4.25087C7.42303 4.25087 4.25085 7.42334 4.25085 11.3368C4.25085 15.2503 7.42303 18.4227 11.3361 18.4227C15.2492 18.4227 18.4214 15.2503 18.4214 11.3368C18.4214 7.42334 15.2492 4.25087 11.3361 4.25087ZM1.41675 11.3368C1.41675 5.85797 5.8578 1.4165 11.3361 1.4165C16.8144 1.4165 21.2555 5.85797 21.2555 11.3368C21.2555 16.8155 16.8144 21.2571 11.3361 21.2571C5.8578 21.2571 1.41675 16.8155 1.41675 11.3368ZM8.50201 8.50242C8.50201 7.71972 9.13645 7.08524 9.91906 7.08524H11.3361C12.1187 7.08524 12.7532 7.71972 12.7532 8.50242V14.1712C12.7532 14.9539 12.1187 15.5883 11.3361 15.5883C10.5535 15.5883 9.91906 14.9539 9.91906 14.1712V9.91959C9.13645 9.91959 8.50201 9.2851 8.50201 8.50242ZM24.3064 14.2005C24.5798 13.4671 25.3958 13.0942 26.1292 13.3676C27.6919 13.9503 29.0827 14.9178 30.1725 16.1803C31.2625 17.443 32.0165 18.9601 32.3647 20.5914C32.713 22.2227 32.6443 23.9153 32.1652 25.513C31.686 27.1107 30.8117 28.5618 29.6231 29.7321C28.4346 30.9023 26.9702 31.754 25.3654 32.2082C23.7606 32.6625 22.0671 32.7047 20.4416 32.331C18.8161 31.9573 17.311 31.1797 16.0656 30.07C14.8204 28.9605 13.8749 27.5547 13.3167 25.9829C13.0548 25.2453 13.4403 24.4351 14.1778 24.1731C14.9153 23.9112 15.7255 24.2968 15.9873 25.0343C16.3861 26.157 17.0614 27.1612 17.9509 27.9536C18.8405 28.7463 19.9154 29.3017 21.0765 29.5686C22.2376 29.8355 23.4472 29.8055 24.5936 29.481C25.7399 29.1565 26.7858 28.5482 27.6349 27.7124C28.4839 26.8764 29.1083 25.84 29.4506 24.6987C29.7929 23.5574 29.8419 22.3485 29.5931 21.1833C29.3443 20.018 28.8057 18.9344 28.0273 18.0324C27.2488 17.1306 26.2554 16.4395 25.1391 16.0233C24.4058 15.7501 24.033 14.9338 24.3064 14.2005ZM22.4857 18.7455C23.09 18.2482 23.9831 18.335 24.4804 18.9394L25.1839 19.7946C25.6165 20.3206 25.614 21.08 25.1775 21.603L22.3435 24.9995C21.842 25.6004 20.9485 25.681 20.3475 25.1795C19.7467 24.678 19.6661 23.7844 20.1675 23.1834L22.2502 20.6874C21.8 20.0848 21.8988 19.2284 22.4857 18.7455Z" fill="#2936A3"/>
</svg>
