<svg width="34" height="34" viewBox="0 0 34 34" fill="none" xmlns="http://www.w3.org/2000/svg">
<path fill-rule="evenodd" clip-rule="evenodd" d="M16.9999 1.4165C17.7823 1.4165 18.4166 2.05077 18.4166 2.83317V5.6665H24.0833C24.8657 5.6665 25.4999 6.30077 25.4999 7.08317C25.4999 7.86557 24.8657 8.49984 24.0833 8.49984H18.4166V15.5832H20.5416C22.2324 15.5832 23.8539 16.2548 25.0494 17.4503C26.2449 18.6459 26.9166 20.2674 26.9166 21.9582C26.9166 23.649 26.2449 25.2705 25.0494 26.466C23.8539 27.6615 22.2324 28.3332 20.5416 28.3332H18.4166V31.1665C18.4166 31.9489 17.7823 32.5832 16.9999 32.5832C16.2175 32.5832 15.5833 31.9489 15.5833 31.1665V28.3332H8.49992C7.71752 28.3332 7.08325 27.6989 7.08325 26.9165C7.08325 26.1341 7.71752 25.4998 8.49992 25.4998H15.5833V18.4165H13.4583C11.7675 18.4165 10.146 17.7449 8.95045 16.5493C7.75491 15.3538 7.08325 13.7323 7.08325 12.0415C7.08325 10.3508 7.75491 8.72924 8.95045 7.5337C10.146 6.33816 11.7675 5.6665 13.4583 5.6665H15.5833V2.83317C15.5833 2.05077 16.2175 1.4165 16.9999 1.4165ZM15.5833 8.49984H13.4583C12.5189 8.49984 11.6181 8.87297 10.9539 9.53716C10.2897 10.2014 9.91659 11.1022 9.91659 12.0415C9.91659 12.9808 10.2897 13.8817 10.9539 14.5459C11.6181 15.21 12.5189 15.5832 13.4583 15.5832H15.5833V8.49984ZM18.4166 18.4165V25.4998H20.5416C21.4808 25.4998 22.3817 25.1267 23.046 24.4626C23.7101 23.7983 24.0833 22.8974 24.0833 21.9582C24.0833 21.0189 23.7101 20.1181 23.046 19.4538C22.3817 18.7897 21.4808 18.4165 20.5416 18.4165H18.4166Z" fill="#2936A3"/>
</svg>
